G04*
G04 #@! TF.GenerationSoftware,Altium Limited,Altium Designer,25.1.2 (22)*
G04*
G04 Layer_Physical_Order=2*
G04 Layer_Color=37055*
%FSLAX25Y25*%
%MOIN*%
G70*
G04*
G04 #@! TF.SameCoordinates,893A5706-FB09-4F9C-B22B-F6CD489B59D5*
G04*
G04*
G04 #@! TF.FilePolarity,Positive*
G04*
G01*
G75*
%ADD122C,0.03937*%
%ADD124R,0.05906X0.05906*%
%ADD125C,0.05906*%
%ADD127R,0.06299X0.06299*%
%ADD128C,0.06299*%
%ADD132C,0.06000*%
%ADD134C,0.02362*%
%ADD135C,0.02756*%
G36*
X599400Y569497D02*
X599813D01*
X600624Y569336D01*
X601388Y569020D01*
X602075Y568560D01*
X602660Y567976D01*
X603120Y567288D01*
X603436Y566524D01*
X603597Y565713D01*
X603597Y565300D01*
X603597Y295800D01*
X603597Y192300D01*
Y191887D01*
X603436Y191076D01*
X603120Y190312D01*
X602660Y189625D01*
X602075Y189040D01*
X601388Y188581D01*
X600624Y188264D01*
X599813Y188103D01*
X599400Y188103D01*
X239731Y188103D01*
X239325D01*
X238527Y188261D01*
X237776Y188573D01*
X237100Y189024D01*
X236525Y189600D01*
X236073Y190276D01*
X235761Y191027D01*
X235603Y191825D01*
X235603Y192231D01*
Y209370D01*
X235603Y209371D01*
X235603Y565300D01*
Y565713D01*
X235764Y566524D01*
X236081Y567288D01*
X236540Y567976D01*
X237124Y568560D01*
X237812Y569020D01*
X238576Y569336D01*
X239387Y569497D01*
X239800Y569497D01*
X599400Y569497D01*
D02*
G37*
%LPC*%
G36*
X575512Y553717D02*
X574288D01*
X573087Y553478D01*
X571955Y553009D01*
X570937Y552329D01*
X570071Y551463D01*
X569391Y550445D01*
X568922Y549313D01*
X568683Y548112D01*
Y546888D01*
X568922Y545687D01*
X569391Y544555D01*
X570071Y543537D01*
X570937Y542671D01*
X571955Y541991D01*
X573087Y541522D01*
X574288Y541284D01*
X575512D01*
X576713Y541522D01*
X577845Y541991D01*
X578863Y542671D01*
X579729Y543537D01*
X580409Y544555D01*
X580878Y545687D01*
X581116Y546888D01*
Y548112D01*
X580878Y549313D01*
X580409Y550445D01*
X579729Y551463D01*
X578863Y552329D01*
X577845Y553009D01*
X576713Y553478D01*
X575512Y553717D01*
D02*
G37*
G36*
X260512D02*
X259288D01*
X258087Y553478D01*
X256955Y553009D01*
X255937Y552329D01*
X255071Y551463D01*
X254391Y550445D01*
X253922Y549313D01*
X253683Y548112D01*
Y546888D01*
X253922Y545687D01*
X254391Y544555D01*
X255071Y543537D01*
X255937Y542671D01*
X256955Y541991D01*
X258087Y541522D01*
X259288Y541284D01*
X260512D01*
X261713Y541522D01*
X262845Y541991D01*
X263863Y542671D01*
X264729Y543537D01*
X265409Y544555D01*
X265878Y545687D01*
X266116Y546888D01*
Y548112D01*
X265878Y549313D01*
X265409Y550445D01*
X264729Y551463D01*
X263863Y552329D01*
X262845Y553009D01*
X261713Y553478D01*
X260512Y553717D01*
D02*
G37*
G36*
X346516Y510690D02*
X345884D01*
X345299Y510448D01*
X344852Y510001D01*
X344609Y509416D01*
Y508784D01*
X344852Y508199D01*
X345299Y507752D01*
X345884Y507510D01*
X346516D01*
X347101Y507752D01*
X347548Y508199D01*
X347791Y508784D01*
Y509416D01*
X347548Y510001D01*
X347101Y510448D01*
X346516Y510690D01*
D02*
G37*
G36*
X363816Y510591D02*
X363184D01*
X362599Y510348D01*
X362152Y509901D01*
X361910Y509316D01*
Y508684D01*
X362152Y508099D01*
X362599Y507652D01*
X363184Y507409D01*
X363816D01*
X364401Y507652D01*
X364848Y508099D01*
X365090Y508684D01*
Y509316D01*
X364848Y509901D01*
X364401Y510348D01*
X363816Y510591D01*
D02*
G37*
G36*
X359216D02*
X358584D01*
X357999Y510348D01*
X357552Y509901D01*
X357310Y509316D01*
Y508684D01*
X357552Y508099D01*
X357999Y507652D01*
X358584Y507409D01*
X359216D01*
X359801Y507652D01*
X360248Y508099D01*
X360490Y508684D01*
Y509316D01*
X360248Y509901D01*
X359801Y510348D01*
X359216Y510591D01*
D02*
G37*
G36*
X374116Y510491D02*
X373484D01*
X372899Y510248D01*
X372452Y509801D01*
X372210Y509216D01*
Y508584D01*
X372452Y507999D01*
X372899Y507552D01*
X373484Y507309D01*
X374116D01*
X374701Y507552D01*
X375148Y507999D01*
X375391Y508584D01*
Y509216D01*
X375148Y509801D01*
X374701Y510248D01*
X374116Y510491D01*
D02*
G37*
G36*
X331816D02*
X331184D01*
X330599Y510248D01*
X330152Y509801D01*
X329909Y509216D01*
Y508584D01*
X330152Y507999D01*
X330599Y507552D01*
X331184Y507309D01*
X331816D01*
X332401Y507552D01*
X332848Y507999D01*
X333090Y508584D01*
Y509216D01*
X332848Y509801D01*
X332401Y510248D01*
X331816Y510491D01*
D02*
G37*
G36*
X342316Y510290D02*
X341684D01*
X341099Y510048D01*
X340652Y509601D01*
X340409Y509016D01*
Y508384D01*
X340652Y507799D01*
X341099Y507352D01*
X341684Y507109D01*
X342316D01*
X342901Y507352D01*
X343348Y507799D01*
X343590Y508384D01*
Y509016D01*
X343348Y509601D01*
X342901Y510048D01*
X342316Y510290D01*
D02*
G37*
G36*
X566916Y506790D02*
X566284D01*
X565699Y506548D01*
X565252Y506101D01*
X565009Y505516D01*
Y504884D01*
X565252Y504299D01*
X565699Y503852D01*
X566284Y503610D01*
X566916D01*
X567501Y503852D01*
X567948Y504299D01*
X568190Y504884D01*
Y505516D01*
X567948Y506101D01*
X567501Y506548D01*
X566916Y506790D01*
D02*
G37*
G36*
X542416Y502790D02*
X541784D01*
X541199Y502548D01*
X540752Y502101D01*
X540510Y501516D01*
Y500884D01*
X540752Y500299D01*
X541199Y499852D01*
X541784Y499610D01*
X542416D01*
X543001Y499852D01*
X543448Y500299D01*
X543690Y500884D01*
Y501516D01*
X543448Y502101D01*
X543001Y502548D01*
X542416Y502790D01*
D02*
G37*
G36*
X276297Y500492D02*
X275703D01*
X275155Y500265D01*
X274735Y499845D01*
X274508Y499297D01*
Y498703D01*
X274735Y498155D01*
X275155Y497735D01*
X275703Y497508D01*
X276297D01*
X276845Y497735D01*
X277265Y498155D01*
X277492Y498703D01*
Y499297D01*
X277265Y499845D01*
X276845Y500265D01*
X276297Y500492D01*
D02*
G37*
G36*
X566033Y498456D02*
X565439D01*
X564891Y498229D01*
X564471Y497809D01*
X564244Y497261D01*
Y496667D01*
X564471Y496119D01*
X564891Y495699D01*
X565439Y495472D01*
X566033D01*
X566581Y495699D01*
X567001Y496119D01*
X567228Y496667D01*
Y497261D01*
X567001Y497809D01*
X566581Y498229D01*
X566033Y498456D01*
D02*
G37*
G36*
X587897Y495723D02*
X587303D01*
X586755Y495496D01*
X586335Y495077D01*
X586108Y494528D01*
Y493935D01*
X586335Y493386D01*
X586755Y492966D01*
X587303Y492739D01*
X587897D01*
X588445Y492966D01*
X588865Y493386D01*
X589092Y493935D01*
Y494528D01*
X588865Y495077D01*
X588445Y495496D01*
X587897Y495723D01*
D02*
G37*
G36*
X332297Y494992D02*
X331703D01*
X331155Y494765D01*
X330735Y494345D01*
X330508Y493797D01*
Y493203D01*
X330735Y492655D01*
X331155Y492235D01*
X331703Y492008D01*
X332297D01*
X332845Y492235D01*
X333265Y492655D01*
X333492Y493203D01*
Y493797D01*
X333265Y494345D01*
X332845Y494765D01*
X332297Y494992D01*
D02*
G37*
G36*
X575097Y492892D02*
X574503D01*
X573955Y492665D01*
X573535Y492245D01*
X573308Y491697D01*
Y491103D01*
X573535Y490555D01*
X573955Y490135D01*
X574503Y489908D01*
X575097D01*
X575645Y490135D01*
X576065Y490555D01*
X576292Y491103D01*
Y491697D01*
X576065Y492245D01*
X575645Y492665D01*
X575097Y492892D01*
D02*
G37*
G36*
X336259Y492140D02*
X335665D01*
X335117Y491912D01*
X334697Y491493D01*
X334470Y490944D01*
Y490351D01*
X334697Y489802D01*
X335117Y489383D01*
X335665Y489155D01*
X336259D01*
X336807Y489383D01*
X337227Y489802D01*
X337454Y490351D01*
Y490944D01*
X337227Y491493D01*
X336807Y491912D01*
X336259Y492140D01*
D02*
G37*
G36*
X521831Y495483D02*
X519569D01*
X519263Y495356D01*
X519136Y495050D01*
Y489350D01*
X519263Y489044D01*
X519569Y488917D01*
X521831D01*
X522137Y489044D01*
X522264Y489350D01*
Y495050D01*
X522137Y495356D01*
X521831Y495483D01*
D02*
G37*
G36*
X332297Y488992D02*
X331703D01*
X331155Y488765D01*
X330735Y488345D01*
X330508Y487797D01*
Y487203D01*
X330735Y486655D01*
X331155Y486235D01*
X331703Y486008D01*
X332297D01*
X332845Y486235D01*
X333265Y486655D01*
X333492Y487203D01*
Y487797D01*
X333265Y488345D01*
X332845Y488765D01*
X332297Y488992D01*
D02*
G37*
G36*
X562776Y489022D02*
X562080D01*
X561437Y488756D01*
X560944Y488263D01*
X560678Y487620D01*
Y486924D01*
X560944Y486281D01*
X561437Y485788D01*
X562080Y485522D01*
X562776D01*
X563419Y485788D01*
X563911Y486281D01*
X564178Y486924D01*
Y487620D01*
X563911Y488263D01*
X563419Y488756D01*
X562776Y489022D01*
D02*
G37*
G36*
X575618Y485463D02*
X575024D01*
X574476Y485236D01*
X574056Y484816D01*
X573829Y484268D01*
Y483674D01*
X574056Y483126D01*
X574476Y482706D01*
X575024Y482479D01*
X575618D01*
X576166Y482706D01*
X576586Y483126D01*
X576813Y483674D01*
Y484268D01*
X576586Y484816D01*
X576166Y485236D01*
X575618Y485463D01*
D02*
G37*
G36*
X584097Y484692D02*
X583503D01*
X582955Y484465D01*
X582535Y484045D01*
X582308Y483497D01*
Y482903D01*
X582535Y482355D01*
X582955Y481935D01*
X583503Y481708D01*
X584097D01*
X584645Y481935D01*
X585065Y482355D01*
X585292Y482903D01*
Y483497D01*
X585065Y484045D01*
X584645Y484465D01*
X584097Y484692D01*
D02*
G37*
G36*
X589197Y484492D02*
X588603D01*
X588055Y484265D01*
X587635Y483845D01*
X587408Y483297D01*
Y482703D01*
X587635Y482155D01*
X588055Y481735D01*
X588603Y481508D01*
X589197D01*
X589745Y481735D01*
X590165Y482155D01*
X590392Y482703D01*
Y483297D01*
X590165Y483845D01*
X589745Y484265D01*
X589197Y484492D01*
D02*
G37*
G36*
X273948Y482900D02*
X273700D01*
Y479700D01*
X276900D01*
Y479948D01*
X276668Y480812D01*
X276221Y481588D01*
X275588Y482221D01*
X274812Y482668D01*
X273948Y482900D01*
D02*
G37*
G36*
X253948D02*
X253700D01*
Y479700D01*
X256900D01*
Y479948D01*
X256668Y480812D01*
X256221Y481588D01*
X255588Y482221D01*
X254812Y482668D01*
X253948Y482900D01*
D02*
G37*
G36*
X273300D02*
X273052D01*
X272188Y482668D01*
X271412Y482221D01*
X270779Y481588D01*
X270332Y480812D01*
X270100Y479948D01*
Y479700D01*
X273300D01*
Y482900D01*
D02*
G37*
G36*
X253300D02*
X253052D01*
X252188Y482668D01*
X251412Y482221D01*
X250779Y481588D01*
X250332Y480812D01*
X250100Y479948D01*
Y479700D01*
X253300D01*
Y482900D01*
D02*
G37*
G36*
X381116Y479591D02*
X380484D01*
X379899Y479348D01*
X379452Y478901D01*
X379209Y478316D01*
Y477684D01*
X379452Y477099D01*
X379899Y476652D01*
X380484Y476409D01*
X381116D01*
X381701Y476652D01*
X382148Y477099D01*
X382390Y477684D01*
Y478316D01*
X382148Y478901D01*
X381701Y479348D01*
X381116Y479591D01*
D02*
G37*
G36*
X538250Y479533D02*
X532550D01*
X532244Y479406D01*
X532117Y479100D01*
Y476839D01*
X532244Y476532D01*
X532550Y476406D01*
X538250D01*
X538556Y476532D01*
X538683Y476839D01*
Y479100D01*
X538556Y479406D01*
X538250Y479533D01*
D02*
G37*
G36*
X276900Y479300D02*
X273700D01*
Y476100D01*
X273948D01*
X274812Y476332D01*
X275588Y476779D01*
X276221Y477412D01*
X276668Y478188D01*
X276900Y479052D01*
Y479300D01*
D02*
G37*
G36*
X273300D02*
X270100D01*
Y479052D01*
X270332Y478188D01*
X270779Y477412D01*
X271412Y476779D01*
X272188Y476332D01*
X273052Y476100D01*
X273300D01*
Y479300D01*
D02*
G37*
G36*
X256900D02*
X253700D01*
Y476100D01*
X253948D01*
X254812Y476332D01*
X255588Y476779D01*
X256221Y477412D01*
X256668Y478188D01*
X256900Y479052D01*
Y479300D01*
D02*
G37*
G36*
X253300D02*
X250100D01*
Y479052D01*
X250332Y478188D01*
X250779Y477412D01*
X251412Y476779D01*
X252188Y476332D01*
X253052Y476100D01*
X253300D01*
Y479300D01*
D02*
G37*
G36*
X579755Y478492D02*
X579161D01*
X578613Y478265D01*
X578193Y477845D01*
X577966Y477297D01*
Y476703D01*
X578193Y476155D01*
X578613Y475735D01*
X579161Y475508D01*
X579755D01*
X580303Y475735D01*
X580723Y476155D01*
X580950Y476703D01*
Y477297D01*
X580723Y477845D01*
X580303Y478265D01*
X579755Y478492D01*
D02*
G37*
G36*
X298850Y477183D02*
X293150D01*
X292844Y477056D01*
X292717Y476750D01*
Y471250D01*
X292844Y470944D01*
X293150Y470817D01*
X298850D01*
X299156Y470944D01*
X299283Y471250D01*
Y476750D01*
X299156Y477056D01*
X298850Y477183D01*
D02*
G37*
G36*
X587931Y472111D02*
X587338D01*
X586789Y471884D01*
X586369Y471464D01*
X586142Y470916D01*
Y470322D01*
X586369Y469774D01*
X586789Y469354D01*
X587338Y469127D01*
X587931D01*
X588480Y469354D01*
X588899Y469774D01*
X589126Y470322D01*
Y470916D01*
X588899Y471464D01*
X588480Y471884D01*
X587931Y472111D01*
D02*
G37*
G36*
X550416Y470590D02*
X549784D01*
X549199Y470348D01*
X548752Y469901D01*
X548510Y469316D01*
Y468684D01*
X548752Y468099D01*
X549199Y467652D01*
X549784Y467410D01*
X550416D01*
X551001Y467652D01*
X551448Y468099D01*
X551690Y468684D01*
Y469316D01*
X551448Y469901D01*
X551001Y470348D01*
X550416Y470590D01*
D02*
G37*
G36*
X570897Y470292D02*
X570303D01*
X569755Y470065D01*
X569335Y469645D01*
X569108Y469097D01*
Y468503D01*
X569335Y467955D01*
X569755Y467535D01*
X570303Y467308D01*
X570897D01*
X571445Y467535D01*
X571865Y467955D01*
X572092Y468503D01*
Y469097D01*
X571865Y469645D01*
X571445Y470065D01*
X570897Y470292D01*
D02*
G37*
G36*
X263948Y471750D02*
X263052D01*
X262226Y471408D01*
X261593Y470775D01*
X261250Y469947D01*
Y469053D01*
X261593Y468225D01*
X262226Y467592D01*
X263052Y467250D01*
X263948D01*
X264774Y467592D01*
X265407Y468225D01*
X265750Y469053D01*
Y469947D01*
X265407Y470775D01*
X264774Y471408D01*
X263948Y471750D01*
D02*
G37*
G36*
X382908Y466854D02*
X382276D01*
X381691Y466612D01*
X381244Y466165D01*
X381001Y465580D01*
Y464947D01*
X381244Y464363D01*
X381691Y463915D01*
X382276Y463673D01*
X382908D01*
X383493Y463915D01*
X383941Y464363D01*
X384183Y464947D01*
Y465580D01*
X383941Y466165D01*
X383493Y466612D01*
X382908Y466854D01*
D02*
G37*
G36*
X579755Y464992D02*
X579161D01*
X578613Y464765D01*
X578193Y464345D01*
X577966Y463797D01*
Y463203D01*
X578193Y462655D01*
X578613Y462235D01*
X579161Y462008D01*
X579755D01*
X580303Y462235D01*
X580723Y462655D01*
X580950Y463203D01*
Y463797D01*
X580723Y464345D01*
X580303Y464765D01*
X579755Y464992D01*
D02*
G37*
G36*
X549816Y463791D02*
X549184D01*
X548599Y463548D01*
X548152Y463101D01*
X547909Y462516D01*
Y461884D01*
X548152Y461299D01*
X548599Y460852D01*
X549184Y460609D01*
X549816D01*
X550401Y460852D01*
X550848Y461299D01*
X551090Y461884D01*
Y462516D01*
X550848Y463101D01*
X550401Y463548D01*
X549816Y463791D01*
D02*
G37*
G36*
X537216Y463691D02*
X536584D01*
X535999Y463448D01*
X535552Y463001D01*
X535310Y462416D01*
Y461784D01*
X535552Y461199D01*
X535999Y460752D01*
X536584Y460509D01*
X537216D01*
X537801Y460752D01*
X538248Y461199D01*
X538490Y461784D01*
Y462416D01*
X538248Y463001D01*
X537801Y463448D01*
X537216Y463691D01*
D02*
G37*
G36*
X377716D02*
X377084D01*
X376499Y463448D01*
X376052Y463001D01*
X375810Y462416D01*
Y461784D01*
X376052Y461199D01*
X376499Y460752D01*
X377084Y460509D01*
X377716D01*
X378301Y460752D01*
X378748Y461199D01*
X378991Y461784D01*
Y462416D01*
X378748Y463001D01*
X378301Y463448D01*
X377716Y463691D01*
D02*
G37*
G36*
X273948Y462900D02*
X273700D01*
Y459700D01*
X276900D01*
Y459948D01*
X276668Y460812D01*
X276221Y461588D01*
X275588Y462221D01*
X274812Y462668D01*
X273948Y462900D01*
D02*
G37*
G36*
X253948D02*
X253700D01*
Y459700D01*
X256900D01*
Y459948D01*
X256668Y460812D01*
X256221Y461588D01*
X255588Y462221D01*
X254812Y462668D01*
X253948Y462900D01*
D02*
G37*
G36*
X273300D02*
X273052D01*
X272188Y462668D01*
X271412Y462221D01*
X270779Y461588D01*
X270332Y460812D01*
X270100Y459948D01*
Y459700D01*
X273300D01*
Y462900D01*
D02*
G37*
G36*
X253300D02*
X253052D01*
X252188Y462668D01*
X251412Y462221D01*
X250779Y461588D01*
X250332Y460812D01*
X250100Y459948D01*
Y459700D01*
X253300D01*
Y462900D01*
D02*
G37*
G36*
X587403Y462592D02*
X586809D01*
X586261Y462365D01*
X585841Y461945D01*
X585614Y461397D01*
Y460803D01*
X585841Y460255D01*
X586261Y459835D01*
X586809Y459608D01*
X587403D01*
X587952Y459835D01*
X588371Y460255D01*
X588598Y460803D01*
Y461397D01*
X588371Y461945D01*
X587952Y462365D01*
X587403Y462592D01*
D02*
G37*
G36*
X276900Y459300D02*
X273700D01*
Y456100D01*
X273948D01*
X274812Y456332D01*
X275588Y456779D01*
X276221Y457412D01*
X276668Y458188D01*
X276900Y459052D01*
Y459300D01*
D02*
G37*
G36*
X273300D02*
X270100D01*
Y459052D01*
X270332Y458188D01*
X270779Y457412D01*
X271412Y456779D01*
X272188Y456332D01*
X273052Y456100D01*
X273300D01*
Y459300D01*
D02*
G37*
G36*
X256900D02*
X253700D01*
Y456100D01*
X253948D01*
X254812Y456332D01*
X255588Y456779D01*
X256221Y457412D01*
X256668Y458188D01*
X256900Y459052D01*
Y459300D01*
D02*
G37*
G36*
X253300D02*
X250100D01*
Y459052D01*
X250332Y458188D01*
X250779Y457412D01*
X251412Y456779D01*
X252188Y456332D01*
X253052Y456100D01*
X253300D01*
Y459300D01*
D02*
G37*
G36*
X381416Y451090D02*
X380784D01*
X380199Y450848D01*
X379752Y450401D01*
X379509Y449816D01*
Y449184D01*
X379752Y448599D01*
X380199Y448152D01*
X380784Y447909D01*
X381416D01*
X382001Y448152D01*
X382448Y448599D01*
X382691Y449184D01*
Y449816D01*
X382448Y450401D01*
X382001Y450848D01*
X381416Y451090D01*
D02*
G37*
G36*
X567575Y446375D02*
X565825D01*
X565328Y446276D01*
X564906Y445994D01*
X564624Y445573D01*
X564525Y445075D01*
Y443325D01*
X564624Y442828D01*
X564906Y442406D01*
X565328Y442124D01*
X565825Y442025D01*
X567575D01*
X568073Y442124D01*
X568494Y442406D01*
X568776Y442828D01*
X568875Y443325D01*
Y445075D01*
X568776Y445573D01*
X568494Y445994D01*
X568073Y446276D01*
X567575Y446375D01*
D02*
G37*
G36*
X578675Y446075D02*
X576925D01*
X576428Y445976D01*
X576006Y445694D01*
X575724Y445272D01*
X575625Y444775D01*
Y443025D01*
X575724Y442527D01*
X576006Y442106D01*
X576428Y441824D01*
X576925Y441725D01*
X578675D01*
X579173Y441824D01*
X579594Y442106D01*
X579876Y442527D01*
X579975Y443025D01*
Y444775D01*
X579876Y445272D01*
X579594Y445694D01*
X579173Y445976D01*
X578675Y446075D01*
D02*
G37*
G36*
X587981Y441189D02*
X586231D01*
X585734Y441090D01*
X585312Y440808D01*
X585030Y440387D01*
X584931Y439889D01*
Y438139D01*
X585030Y437642D01*
X585312Y437220D01*
X585734Y436938D01*
X586231Y436839D01*
X587981D01*
X588479Y436938D01*
X588901Y437220D01*
X589182Y437642D01*
X589281Y438139D01*
Y439889D01*
X589182Y440387D01*
X588901Y440808D01*
X588479Y441090D01*
X587981Y441189D01*
D02*
G37*
G36*
X571875Y439375D02*
X570125D01*
X569628Y439276D01*
X569206Y438994D01*
X568924Y438573D01*
X568825Y438075D01*
Y436325D01*
X568924Y435827D01*
X569206Y435406D01*
X569628Y435124D01*
X570125Y435025D01*
X571875D01*
X572372Y435124D01*
X572794Y435406D01*
X573076Y435827D01*
X573175Y436325D01*
Y438075D01*
X573076Y438573D01*
X572794Y438994D01*
X572372Y439276D01*
X571875Y439375D01*
D02*
G37*
G36*
X560575Y438275D02*
X558825D01*
X558327Y438176D01*
X557906Y437894D01*
X557624Y437472D01*
X557525Y436975D01*
Y435225D01*
X557624Y434727D01*
X557906Y434306D01*
X558327Y434024D01*
X558825Y433925D01*
X560575D01*
X561072Y434024D01*
X561494Y434306D01*
X561776Y434727D01*
X561875Y435225D01*
Y436975D01*
X561776Y437472D01*
X561494Y437894D01*
X561072Y438176D01*
X560575Y438275D01*
D02*
G37*
G36*
X583175Y437975D02*
X581425D01*
X580928Y437876D01*
X580506Y437594D01*
X580224Y437173D01*
X580125Y436675D01*
Y434925D01*
X580224Y434427D01*
X580506Y434006D01*
X580928Y433724D01*
X581425Y433625D01*
X583175D01*
X583673Y433724D01*
X584094Y434006D01*
X584376Y434427D01*
X584475Y434925D01*
Y436675D01*
X584376Y437173D01*
X584094Y437594D01*
X583673Y437876D01*
X583175Y437975D01*
D02*
G37*
G36*
X241597Y437500D02*
X240603D01*
X239684Y437119D01*
X238981Y436416D01*
X238600Y435497D01*
Y434503D01*
X238981Y433584D01*
X239684Y432881D01*
X240603Y432500D01*
X241597D01*
X242516Y432881D01*
X243219Y433584D01*
X243600Y434503D01*
Y435497D01*
X243219Y436416D01*
X242516Y437119D01*
X241597Y437500D01*
D02*
G37*
G36*
X407816Y432590D02*
X407184D01*
X406599Y432348D01*
X406152Y431901D01*
X405909Y431316D01*
Y430684D01*
X406152Y430099D01*
X406599Y429652D01*
X407184Y429410D01*
X407816D01*
X408401Y429652D01*
X408848Y430099D01*
X409091Y430684D01*
Y431316D01*
X408848Y431901D01*
X408401Y432348D01*
X407816Y432590D01*
D02*
G37*
G36*
X422816Y417091D02*
X422184D01*
X421599Y416848D01*
X421152Y416401D01*
X420910Y415816D01*
Y415184D01*
X421152Y414599D01*
X421599Y414152D01*
X422184Y413909D01*
X422816D01*
X423401Y414152D01*
X423848Y414599D01*
X424090Y415184D01*
Y415816D01*
X423848Y416401D01*
X423401Y416848D01*
X422816Y417091D01*
D02*
G37*
G36*
X510048Y418300D02*
X509152D01*
X508288Y418068D01*
X507512Y417621D01*
X506879Y416988D01*
X506432Y416212D01*
X506200Y415348D01*
Y414452D01*
X506432Y413588D01*
X506879Y412812D01*
X507512Y412179D01*
X508288Y411732D01*
X509152Y411500D01*
X510048D01*
X510912Y411732D01*
X511688Y412179D01*
X512321Y412812D01*
X512768Y413588D01*
X513000Y414452D01*
Y415348D01*
X512768Y416212D01*
X512321Y416988D01*
X511688Y417621D01*
X510912Y418068D01*
X510048Y418300D01*
D02*
G37*
G36*
X500048D02*
X499152D01*
X498288Y418068D01*
X497512Y417621D01*
X496879Y416988D01*
X496432Y416212D01*
X496200Y415348D01*
Y414452D01*
X496432Y413588D01*
X496879Y412812D01*
X497512Y412179D01*
X498288Y411732D01*
X499152Y411500D01*
X500048D01*
X500912Y411732D01*
X501688Y412179D01*
X502321Y412812D01*
X502768Y413588D01*
X503000Y414452D01*
Y415348D01*
X502768Y416212D01*
X502321Y416988D01*
X501688Y417621D01*
X500912Y418068D01*
X500048Y418300D01*
D02*
G37*
G36*
X490048D02*
X489152D01*
X488288Y418068D01*
X487512Y417621D01*
X486879Y416988D01*
X486432Y416212D01*
X486200Y415348D01*
Y414452D01*
X486432Y413588D01*
X486879Y412812D01*
X487512Y412179D01*
X488288Y411732D01*
X489152Y411500D01*
X490048D01*
X490912Y411732D01*
X491688Y412179D01*
X492321Y412812D01*
X492768Y413588D01*
X493000Y414452D01*
Y415348D01*
X492768Y416212D01*
X492321Y416988D01*
X491688Y417621D01*
X490912Y418068D01*
X490048Y418300D01*
D02*
G37*
G36*
X480048D02*
X479152D01*
X478288Y418068D01*
X477512Y417621D01*
X476879Y416988D01*
X476432Y416212D01*
X476200Y415348D01*
Y414452D01*
X476432Y413588D01*
X476879Y412812D01*
X477512Y412179D01*
X478288Y411732D01*
X479152Y411500D01*
X480048D01*
X480912Y411732D01*
X481688Y412179D01*
X482321Y412812D01*
X482768Y413588D01*
X483000Y414452D01*
Y415348D01*
X482768Y416212D01*
X482321Y416988D01*
X481688Y417621D01*
X480912Y418068D01*
X480048Y418300D01*
D02*
G37*
G36*
X470048D02*
X469152D01*
X468288Y418068D01*
X467512Y417621D01*
X466879Y416988D01*
X466432Y416212D01*
X466200Y415348D01*
Y414452D01*
X466432Y413588D01*
X466879Y412812D01*
X467512Y412179D01*
X468288Y411732D01*
X469152Y411500D01*
X470048D01*
X470912Y411732D01*
X471688Y412179D01*
X472321Y412812D01*
X472768Y413588D01*
X473000Y414452D01*
Y415348D01*
X472768Y416212D01*
X472321Y416988D01*
X471688Y417621D01*
X470912Y418068D01*
X470048Y418300D01*
D02*
G37*
G36*
X460048D02*
X459152D01*
X458288Y418068D01*
X457512Y417621D01*
X456879Y416988D01*
X456432Y416212D01*
X456200Y415348D01*
Y414452D01*
X456432Y413588D01*
X456879Y412812D01*
X457512Y412179D01*
X458288Y411732D01*
X459152Y411500D01*
X460048D01*
X460912Y411732D01*
X461688Y412179D01*
X462321Y412812D01*
X462768Y413588D01*
X463000Y414452D01*
Y415348D01*
X462768Y416212D01*
X462321Y416988D01*
X461688Y417621D01*
X460912Y418068D01*
X460048Y418300D01*
D02*
G37*
G36*
X450048D02*
X449152D01*
X448288Y418068D01*
X447512Y417621D01*
X446879Y416988D01*
X446432Y416212D01*
X446200Y415348D01*
Y414452D01*
X446432Y413588D01*
X446879Y412812D01*
X447512Y412179D01*
X448288Y411732D01*
X449152Y411500D01*
X450048D01*
X450912Y411732D01*
X451688Y412179D01*
X452321Y412812D01*
X452768Y413588D01*
X453000Y414452D01*
Y415348D01*
X452768Y416212D01*
X452321Y416988D01*
X451688Y417621D01*
X450912Y418068D01*
X450048Y418300D01*
D02*
G37*
G36*
X423447Y409327D02*
X421447D01*
X420901Y409219D01*
X420438Y408909D01*
X420128Y408446D01*
X420020Y407900D01*
Y405900D01*
X420128Y405354D01*
X420438Y404891D01*
X420901Y404581D01*
X421447Y404473D01*
X423447D01*
X423993Y404581D01*
X424457Y404891D01*
X424766Y405354D01*
X424875Y405900D01*
Y407900D01*
X424766Y408446D01*
X424457Y408909D01*
X423993Y409219D01*
X423447Y409327D01*
D02*
G37*
G36*
X510048Y408300D02*
X509152D01*
X508288Y408068D01*
X507512Y407621D01*
X506879Y406988D01*
X506432Y406212D01*
X506200Y405348D01*
Y404452D01*
X506432Y403588D01*
X506879Y402812D01*
X507512Y402179D01*
X508288Y401732D01*
X509152Y401500D01*
X510048D01*
X510912Y401732D01*
X511688Y402179D01*
X512321Y402812D01*
X512768Y403588D01*
X513000Y404452D01*
Y405348D01*
X512768Y406212D01*
X512321Y406988D01*
X511688Y407621D01*
X510912Y408068D01*
X510048Y408300D01*
D02*
G37*
G36*
X500048D02*
X499152D01*
X498288Y408068D01*
X497512Y407621D01*
X496879Y406988D01*
X496432Y406212D01*
X496200Y405348D01*
Y404452D01*
X496432Y403588D01*
X496879Y402812D01*
X497512Y402179D01*
X498288Y401732D01*
X499152Y401500D01*
X500048D01*
X500912Y401732D01*
X501688Y402179D01*
X502321Y402812D01*
X502768Y403588D01*
X503000Y404452D01*
Y405348D01*
X502768Y406212D01*
X502321Y406988D01*
X501688Y407621D01*
X500912Y408068D01*
X500048Y408300D01*
D02*
G37*
G36*
X490048D02*
X489152D01*
X488288Y408068D01*
X487512Y407621D01*
X486879Y406988D01*
X486432Y406212D01*
X486200Y405348D01*
Y404452D01*
X486432Y403588D01*
X486879Y402812D01*
X487512Y402179D01*
X488288Y401732D01*
X489152Y401500D01*
X490048D01*
X490912Y401732D01*
X491688Y402179D01*
X492321Y402812D01*
X492768Y403588D01*
X493000Y404452D01*
Y405348D01*
X492768Y406212D01*
X492321Y406988D01*
X491688Y407621D01*
X490912Y408068D01*
X490048Y408300D01*
D02*
G37*
G36*
X480048D02*
X479152D01*
X478288Y408068D01*
X477512Y407621D01*
X476879Y406988D01*
X476432Y406212D01*
X476200Y405348D01*
Y404452D01*
X476432Y403588D01*
X476879Y402812D01*
X477512Y402179D01*
X478288Y401732D01*
X479152Y401500D01*
X480048D01*
X480912Y401732D01*
X481688Y402179D01*
X482321Y402812D01*
X482768Y403588D01*
X483000Y404452D01*
Y405348D01*
X482768Y406212D01*
X482321Y406988D01*
X481688Y407621D01*
X480912Y408068D01*
X480048Y408300D01*
D02*
G37*
G36*
X470048D02*
X469152D01*
X468288Y408068D01*
X467512Y407621D01*
X466879Y406988D01*
X466432Y406212D01*
X466200Y405348D01*
Y404452D01*
X466432Y403588D01*
X466879Y402812D01*
X467512Y402179D01*
X468288Y401732D01*
X469152Y401500D01*
X470048D01*
X470912Y401732D01*
X471688Y402179D01*
X472321Y402812D01*
X472768Y403588D01*
X473000Y404452D01*
Y405348D01*
X472768Y406212D01*
X472321Y406988D01*
X471688Y407621D01*
X470912Y408068D01*
X470048Y408300D01*
D02*
G37*
G36*
X460048D02*
X459152D01*
X458288Y408068D01*
X457512Y407621D01*
X456879Y406988D01*
X456432Y406212D01*
X456200Y405348D01*
Y404452D01*
X456432Y403588D01*
X456879Y402812D01*
X457512Y402179D01*
X458288Y401732D01*
X459152Y401500D01*
X460048D01*
X460912Y401732D01*
X461688Y402179D01*
X462321Y402812D01*
X462768Y403588D01*
X463000Y404452D01*
Y405348D01*
X462768Y406212D01*
X462321Y406988D01*
X461688Y407621D01*
X460912Y408068D01*
X460048Y408300D01*
D02*
G37*
G36*
X450048D02*
X449152D01*
X448288Y408068D01*
X447512Y407621D01*
X446879Y406988D01*
X446432Y406212D01*
X446200Y405348D01*
Y404452D01*
X446432Y403588D01*
X446879Y402812D01*
X447512Y402179D01*
X448288Y401732D01*
X449152Y401500D01*
X450048D01*
X450912Y401732D01*
X451688Y402179D01*
X452321Y402812D01*
X452768Y403588D01*
X453000Y404452D01*
Y405348D01*
X452768Y406212D01*
X452321Y406988D01*
X451688Y407621D01*
X450912Y408068D01*
X450048Y408300D01*
D02*
G37*
G36*
X408500Y399627D02*
X406500D01*
X405954Y399519D01*
X405491Y399209D01*
X405181Y398746D01*
X405073Y398200D01*
Y396200D01*
X405181Y395654D01*
X405491Y395191D01*
X405954Y394881D01*
X406500Y394773D01*
X408500D01*
X409046Y394881D01*
X409509Y395191D01*
X409819Y395654D01*
X409927Y396200D01*
Y398200D01*
X409819Y398746D01*
X409509Y399209D01*
X409046Y399519D01*
X408500Y399627D01*
D02*
G37*
G36*
X255250Y394650D02*
X251900D01*
Y391300D01*
X255250D01*
Y394650D01*
D02*
G37*
G36*
X251500D02*
X248150D01*
Y391300D01*
X251500D01*
Y394650D01*
D02*
G37*
G36*
X242117Y394265D02*
X241283D01*
X240478Y394050D01*
X239756Y393633D01*
X239167Y393044D01*
X238750Y392322D01*
X238535Y391517D01*
Y390683D01*
X238750Y389878D01*
X239167Y389156D01*
X239756Y388567D01*
X240478Y388150D01*
X241283Y387935D01*
X242117D01*
X242922Y388150D01*
X243644Y388567D01*
X244233Y389156D01*
X244650Y389878D01*
X244865Y390683D01*
Y391517D01*
X244650Y392322D01*
X244233Y393044D01*
X243644Y393633D01*
X242922Y394050D01*
X242117Y394265D01*
D02*
G37*
G36*
X255250Y390900D02*
X251900D01*
Y387550D01*
X255250D01*
Y390900D01*
D02*
G37*
G36*
X251500D02*
X248150D01*
Y387550D01*
X251500D01*
Y390900D01*
D02*
G37*
G36*
X252117Y384265D02*
X251283D01*
X250478Y384050D01*
X249756Y383633D01*
X249167Y383044D01*
X248750Y382322D01*
X248535Y381517D01*
Y380683D01*
X248750Y379878D01*
X249167Y379156D01*
X249756Y378567D01*
X250478Y378150D01*
X251283Y377935D01*
X252117D01*
X252922Y378150D01*
X253644Y378567D01*
X254233Y379156D01*
X254650Y379878D01*
X254865Y380683D01*
Y381517D01*
X254650Y382322D01*
X254233Y383044D01*
X253644Y383633D01*
X252922Y384050D01*
X252117Y384265D01*
D02*
G37*
G36*
X242117D02*
X241283D01*
X240478Y384050D01*
X239756Y383633D01*
X239167Y383044D01*
X238750Y382322D01*
X238535Y381517D01*
Y380683D01*
X238750Y379878D01*
X239167Y379156D01*
X239756Y378567D01*
X240478Y378150D01*
X241283Y377935D01*
X242117D01*
X242922Y378150D01*
X243644Y378567D01*
X244233Y379156D01*
X244650Y379878D01*
X244865Y380683D01*
Y381517D01*
X244650Y382322D01*
X244233Y383044D01*
X243644Y383633D01*
X242922Y384050D01*
X242117Y384265D01*
D02*
G37*
G36*
X437516Y372990D02*
X436884D01*
X436299Y372748D01*
X435852Y372301D01*
X435609Y371716D01*
Y371084D01*
X435852Y370499D01*
X436299Y370052D01*
X436884Y369810D01*
X437516D01*
X438101Y370052D01*
X438548Y370499D01*
X438791Y371084D01*
Y371716D01*
X438548Y372301D01*
X438101Y372748D01*
X437516Y372990D01*
D02*
G37*
G36*
X420716D02*
X420084D01*
X419499Y372748D01*
X419052Y372301D01*
X418810Y371716D01*
Y371084D01*
X419052Y370499D01*
X419499Y370052D01*
X420084Y369810D01*
X420716D01*
X421301Y370052D01*
X421748Y370499D01*
X421990Y371084D01*
Y371716D01*
X421748Y372301D01*
X421301Y372748D01*
X420716Y372990D01*
D02*
G37*
G36*
X505797Y368992D02*
X505203D01*
X504655Y368765D01*
X504235Y368345D01*
X504008Y367797D01*
Y367203D01*
X504235Y366655D01*
X504655Y366235D01*
X505203Y366008D01*
X505797D01*
X506345Y366235D01*
X506765Y366655D01*
X506992Y367203D01*
Y367797D01*
X506765Y368345D01*
X506345Y368765D01*
X505797Y368992D01*
D02*
G37*
G36*
X578316Y365690D02*
X577684D01*
X577099Y365448D01*
X576652Y365001D01*
X576409Y364416D01*
Y363784D01*
X576652Y363199D01*
X577099Y362752D01*
X577684Y362509D01*
X578316D01*
X578901Y362752D01*
X579348Y363199D01*
X579591Y363784D01*
Y364416D01*
X579348Y365001D01*
X578901Y365448D01*
X578316Y365690D01*
D02*
G37*
G36*
X476843Y364591D02*
X476210D01*
X475626Y364348D01*
X475178Y363901D01*
X474936Y363316D01*
Y362684D01*
X475178Y362099D01*
X475626Y361652D01*
X476210Y361409D01*
X476843D01*
X477428Y361652D01*
X477875Y362099D01*
X478117Y362684D01*
Y363316D01*
X477875Y363901D01*
X477428Y364348D01*
X476843Y364591D01*
D02*
G37*
G36*
X458116Y364090D02*
X457484D01*
X456899Y363848D01*
X456452Y363401D01*
X456210Y362816D01*
Y362184D01*
X456452Y361599D01*
X456899Y361152D01*
X457484Y360910D01*
X458116D01*
X458701Y361152D01*
X459148Y361599D01*
X459390Y362184D01*
Y362816D01*
X459148Y363401D01*
X458701Y363848D01*
X458116Y364090D01*
D02*
G37*
G36*
X589091Y366811D02*
X588309D01*
X587554Y366609D01*
X586877Y366218D01*
X586325Y365665D01*
X585934Y364988D01*
X585732Y364233D01*
Y363452D01*
X585934Y362697D01*
X586325Y362020D01*
X586877Y361467D01*
X587554Y361076D01*
X588309Y360874D01*
X589091D01*
X589846Y361076D01*
X590523Y361467D01*
X591075Y362020D01*
X591466Y362697D01*
X591669Y363452D01*
Y364233D01*
X591466Y364988D01*
X591075Y365665D01*
X590523Y366218D01*
X589846Y366609D01*
X589091Y366811D01*
D02*
G37*
G36*
X491716Y363191D02*
X491084D01*
X490499Y362948D01*
X490052Y362501D01*
X489810Y361916D01*
Y361284D01*
X490052Y360699D01*
X490499Y360252D01*
X491084Y360010D01*
X491716D01*
X492301Y360252D01*
X492748Y360699D01*
X492990Y361284D01*
Y361916D01*
X492748Y362501D01*
X492301Y362948D01*
X491716Y363191D01*
D02*
G37*
G36*
X472906D02*
X472273D01*
X471689Y362948D01*
X471241Y362501D01*
X470999Y361916D01*
Y361284D01*
X471241Y360699D01*
X471689Y360252D01*
X472273Y360010D01*
X472906D01*
X473491Y360252D01*
X473938Y360699D01*
X474180Y361284D01*
Y361916D01*
X473938Y362501D01*
X473491Y362948D01*
X472906Y363191D01*
D02*
G37*
G36*
X502804Y362985D02*
X502210D01*
X501662Y362758D01*
X501242Y362338D01*
X501015Y361790D01*
Y361196D01*
X501242Y360648D01*
X501662Y360228D01*
X502210Y360001D01*
X502804D01*
X503352Y360228D01*
X503772Y360648D01*
X503999Y361196D01*
Y361790D01*
X503772Y362338D01*
X503352Y362758D01*
X502804Y362985D01*
D02*
G37*
G36*
X600116Y361491D02*
X599484D01*
X598899Y361248D01*
X598452Y360801D01*
X598209Y360216D01*
Y359584D01*
X598452Y358999D01*
X598899Y358552D01*
X599484Y358310D01*
X600116D01*
X600701Y358552D01*
X601148Y358999D01*
X601391Y359584D01*
Y360216D01*
X601148Y360801D01*
X600701Y361248D01*
X600116Y361491D01*
D02*
G37*
G36*
X265550Y359050D02*
X262200D01*
Y355700D01*
X265550D01*
Y359050D01*
D02*
G37*
G36*
X261800D02*
X258450D01*
Y355700D01*
X261800D01*
Y359050D01*
D02*
G37*
G36*
X491297Y358492D02*
X490703D01*
X490155Y358265D01*
X489735Y357845D01*
X489508Y357297D01*
Y356703D01*
X489735Y356155D01*
X490155Y355735D01*
X490703Y355508D01*
X491297D01*
X491845Y355735D01*
X492265Y356155D01*
X492492Y356703D01*
Y357297D01*
X492265Y357845D01*
X491845Y358265D01*
X491297Y358492D01*
D02*
G37*
G36*
X501797Y357992D02*
X501203D01*
X500655Y357765D01*
X500235Y357345D01*
X500008Y356797D01*
Y356203D01*
X500235Y355655D01*
X500655Y355235D01*
X501203Y355008D01*
X501797D01*
X502345Y355235D01*
X502765Y355655D01*
X502992Y356203D01*
Y356797D01*
X502765Y357345D01*
X502345Y357765D01*
X501797Y357992D01*
D02*
G37*
G36*
X419216Y356591D02*
X418584D01*
X417999Y356348D01*
X417552Y355901D01*
X417310Y355316D01*
Y354684D01*
X417552Y354099D01*
X417999Y353652D01*
X418584Y353410D01*
X419216D01*
X419801Y353652D01*
X420248Y354099D01*
X420491Y354684D01*
Y355316D01*
X420248Y355901D01*
X419801Y356348D01*
X419216Y356591D01*
D02*
G37*
G36*
X404016Y356391D02*
X403384D01*
X402799Y356148D01*
X402352Y355701D01*
X402109Y355116D01*
Y354484D01*
X402352Y353899D01*
X402799Y353452D01*
X403384Y353209D01*
X404016D01*
X404601Y353452D01*
X405048Y353899D01*
X405291Y354484D01*
Y355116D01*
X405048Y355701D01*
X404601Y356148D01*
X404016Y356391D01*
D02*
G37*
G36*
X252417Y358665D02*
X251583D01*
X250778Y358450D01*
X250056Y358033D01*
X249467Y357444D01*
X249050Y356722D01*
X248835Y355917D01*
Y355083D01*
X249050Y354278D01*
X249467Y353556D01*
X250056Y352967D01*
X250778Y352550D01*
X251583Y352335D01*
X252417D01*
X253222Y352550D01*
X253944Y352967D01*
X254533Y353556D01*
X254950Y354278D01*
X255165Y355083D01*
Y355917D01*
X254950Y356722D01*
X254533Y357444D01*
X253944Y358033D01*
X253222Y358450D01*
X252417Y358665D01*
D02*
G37*
G36*
X265550Y355300D02*
X262200D01*
Y351950D01*
X265550D01*
Y355300D01*
D02*
G37*
G36*
X261800D02*
X258450D01*
Y351950D01*
X261800D01*
Y355300D01*
D02*
G37*
G36*
X548600Y356327D02*
X546600D01*
X546054Y356219D01*
X545591Y355909D01*
X545281Y355446D01*
X545173Y354900D01*
Y352900D01*
X545281Y352354D01*
X545591Y351891D01*
X546054Y351581D01*
X546600Y351473D01*
X548600D01*
X549146Y351581D01*
X549609Y351891D01*
X549919Y352354D01*
X550027Y352900D01*
Y354900D01*
X549919Y355446D01*
X549609Y355909D01*
X549146Y356219D01*
X548600Y356327D01*
D02*
G37*
G36*
X589091Y356968D02*
X588309D01*
X587554Y356766D01*
X586877Y356375D01*
X586325Y355823D01*
X585934Y355146D01*
X585732Y354391D01*
Y353609D01*
X585934Y352854D01*
X586325Y352177D01*
X586877Y351625D01*
X587554Y351234D01*
X588309Y351031D01*
X589091D01*
X589846Y351234D01*
X590523Y351625D01*
X591075Y352177D01*
X591466Y352854D01*
X591669Y353609D01*
Y354391D01*
X591466Y355146D01*
X591075Y355823D01*
X590523Y356375D01*
X589846Y356766D01*
X589091Y356968D01*
D02*
G37*
G36*
X449297Y353492D02*
X448703D01*
X448155Y353265D01*
X447735Y352845D01*
X447508Y352297D01*
Y351703D01*
X447735Y351155D01*
X448155Y350735D01*
X448703Y350508D01*
X449297D01*
X449845Y350735D01*
X450265Y351155D01*
X450492Y351703D01*
Y352297D01*
X450265Y352845D01*
X449845Y353265D01*
X449297Y353492D01*
D02*
G37*
G36*
X500797Y351992D02*
X500203D01*
X499655Y351765D01*
X499235Y351345D01*
X499008Y350797D01*
Y350203D01*
X499235Y349655D01*
X499655Y349235D01*
X500203Y349008D01*
X500797D01*
X501345Y349235D01*
X501765Y349655D01*
X501992Y350203D01*
Y350797D01*
X501765Y351345D01*
X501345Y351765D01*
X500797Y351992D01*
D02*
G37*
G36*
X445297Y351492D02*
X444703D01*
X444155Y351265D01*
X443735Y350845D01*
X443508Y350297D01*
Y349703D01*
X443735Y349155D01*
X444155Y348735D01*
X444703Y348508D01*
X445297D01*
X445845Y348735D01*
X446265Y349155D01*
X446492Y349703D01*
Y350297D01*
X446265Y350845D01*
X445845Y351265D01*
X445297Y351492D01*
D02*
G37*
G36*
X589141Y347510D02*
X588900D01*
Y344357D01*
X592053D01*
Y344599D01*
X591824Y345452D01*
X591383Y346216D01*
X590759Y346840D01*
X589994Y347282D01*
X589141Y347510D01*
D02*
G37*
G36*
X588500D02*
X588259D01*
X587406Y347282D01*
X586641Y346840D01*
X586017Y346216D01*
X585576Y345452D01*
X585347Y344599D01*
Y344357D01*
X588500D01*
Y347510D01*
D02*
G37*
G36*
X504297Y346492D02*
X503703D01*
X503155Y346265D01*
X502735Y345845D01*
X502508Y345297D01*
Y344703D01*
X502735Y344155D01*
X503155Y343735D01*
X503703Y343508D01*
X504297D01*
X504845Y343735D01*
X505265Y344155D01*
X505492Y344703D01*
Y345297D01*
X505265Y345845D01*
X504845Y346265D01*
X504297Y346492D01*
D02*
G37*
G36*
X262417Y348665D02*
X261583D01*
X260778Y348450D01*
X260056Y348033D01*
X259467Y347444D01*
X259050Y346722D01*
X258835Y345917D01*
Y345083D01*
X259050Y344278D01*
X259467Y343556D01*
X260056Y342967D01*
X260778Y342550D01*
X261583Y342335D01*
X262417D01*
X263222Y342550D01*
X263944Y342967D01*
X264533Y343556D01*
X264950Y344278D01*
X265165Y345083D01*
Y345917D01*
X264950Y346722D01*
X264533Y347444D01*
X263944Y348033D01*
X263222Y348450D01*
X262417Y348665D01*
D02*
G37*
G36*
X252417D02*
X251583D01*
X250778Y348450D01*
X250056Y348033D01*
X249467Y347444D01*
X249050Y346722D01*
X248835Y345917D01*
Y345083D01*
X249050Y344278D01*
X249467Y343556D01*
X250056Y342967D01*
X250778Y342550D01*
X251583Y342335D01*
X252417D01*
X253222Y342550D01*
X253944Y342967D01*
X254533Y343556D01*
X254950Y344278D01*
X255165Y345083D01*
Y345917D01*
X254950Y346722D01*
X254533Y347444D01*
X253944Y348033D01*
X253222Y348450D01*
X252417Y348665D01*
D02*
G37*
G36*
X592053Y343957D02*
X588900D01*
Y340805D01*
X589141D01*
X589994Y341033D01*
X590759Y341475D01*
X591383Y342099D01*
X591824Y342863D01*
X592053Y343716D01*
Y343957D01*
D02*
G37*
G36*
X588500D02*
X585347D01*
Y343716D01*
X585576Y342863D01*
X586017Y342099D01*
X586641Y341475D01*
X587406Y341033D01*
X588259Y340805D01*
X588500D01*
Y343957D01*
D02*
G37*
G36*
X520283Y342640D02*
X519650D01*
X519065Y342398D01*
X518618Y341951D01*
X518376Y341366D01*
Y340734D01*
X518618Y340149D01*
X519065Y339702D01*
X519650Y339459D01*
X520283D01*
X520867Y339702D01*
X521314Y340149D01*
X521557Y340734D01*
Y341366D01*
X521314Y341951D01*
X520867Y342398D01*
X520283Y342640D01*
D02*
G37*
G36*
X375450Y341722D02*
X373950D01*
X373501Y341633D01*
X373121Y341379D01*
X372867Y340999D01*
X372778Y340550D01*
Y339050D01*
X372867Y338601D01*
X373121Y338221D01*
X373501Y337967D01*
X373950Y337877D01*
X375450D01*
X375899Y337967D01*
X376279Y338221D01*
X376533Y338601D01*
X376623Y339050D01*
Y340550D01*
X376533Y340999D01*
X376279Y341379D01*
X375899Y341633D01*
X375450Y341722D01*
D02*
G37*
G36*
X563576Y344565D02*
X562681D01*
X561816Y344334D01*
X561041Y343886D01*
X560408Y343253D01*
X559960Y342478D01*
X559728Y341613D01*
Y340718D01*
X559960Y339853D01*
X560408Y339078D01*
X561041Y338445D01*
X561816Y337997D01*
X562681Y337765D01*
X563576D01*
X564441Y337997D01*
X565216Y338445D01*
X565849Y339078D01*
X566297Y339853D01*
X566528Y340718D01*
Y341613D01*
X566297Y342478D01*
X565849Y343253D01*
X565216Y343886D01*
X564441Y344334D01*
X563576Y344565D01*
D02*
G37*
G36*
X553576D02*
X552681D01*
X551816Y344334D01*
X551041Y343886D01*
X550408Y343253D01*
X549960Y342478D01*
X549728Y341613D01*
Y340718D01*
X549960Y339853D01*
X550408Y339078D01*
X551041Y338445D01*
X551816Y337997D01*
X552681Y337765D01*
X553576D01*
X554441Y337997D01*
X555216Y338445D01*
X555849Y339078D01*
X556297Y339853D01*
X556528Y340718D01*
Y341613D01*
X556297Y342478D01*
X555849Y343253D01*
X555216Y343886D01*
X554441Y344334D01*
X553576Y344565D01*
D02*
G37*
G36*
X457247Y340024D02*
X456578D01*
X455960Y339768D01*
X455487Y339295D01*
X455231Y338678D01*
Y338009D01*
X455487Y337391D01*
X455960Y336918D01*
X456578Y336662D01*
X457247D01*
X457865Y336918D01*
X458337Y337391D01*
X458593Y338009D01*
Y338678D01*
X458337Y339295D01*
X457865Y339768D01*
X457247Y340024D01*
D02*
G37*
G36*
X441512Y339940D02*
X440844D01*
X440226Y339684D01*
X439753Y339211D01*
X439497Y338593D01*
Y337925D01*
X439753Y337307D01*
X440226Y336834D01*
X440844Y336578D01*
X441512D01*
X442130Y336834D01*
X442603Y337307D01*
X442859Y337925D01*
Y338593D01*
X442603Y339211D01*
X442130Y339684D01*
X441512Y339940D01*
D02*
G37*
G36*
X477149Y339315D02*
X476480D01*
X475862Y339059D01*
X475389Y338586D01*
X475134Y337969D01*
Y337300D01*
X475389Y336682D01*
X475862Y336209D01*
X476480Y335953D01*
X477149D01*
X477767Y336209D01*
X478240Y336682D01*
X478496Y337300D01*
Y337969D01*
X478240Y338586D01*
X477767Y339059D01*
X477149Y339315D01*
D02*
G37*
G36*
X472987Y339181D02*
X472318D01*
X471700Y338925D01*
X471227Y338452D01*
X470971Y337834D01*
Y337166D01*
X471227Y336548D01*
X471700Y336075D01*
X472318Y335819D01*
X472987D01*
X473605Y336075D01*
X474078Y336548D01*
X474333Y337166D01*
Y337834D01*
X474078Y338452D01*
X473605Y338925D01*
X472987Y339181D01*
D02*
G37*
G36*
X468824D02*
X468156D01*
X467538Y338925D01*
X467065Y338452D01*
X466809Y337834D01*
Y337166D01*
X467065Y336548D01*
X467538Y336075D01*
X468156Y335819D01*
X468824D01*
X469442Y336075D01*
X469915Y336548D01*
X470171Y337166D01*
Y337834D01*
X469915Y338452D01*
X469442Y338925D01*
X468824Y339181D01*
D02*
G37*
G36*
X430216Y338591D02*
X429584D01*
X428999Y338348D01*
X428552Y337901D01*
X428309Y337316D01*
Y336684D01*
X428552Y336099D01*
X428999Y335652D01*
X429584Y335409D01*
X430216D01*
X430801Y335652D01*
X431248Y336099D01*
X431491Y336684D01*
Y337316D01*
X431248Y337901D01*
X430801Y338348D01*
X430216Y338591D01*
D02*
G37*
G36*
X453084Y338491D02*
X452416D01*
X451798Y338235D01*
X451325Y337762D01*
X451069Y337144D01*
Y336475D01*
X451325Y335857D01*
X451798Y335384D01*
X452416Y335129D01*
X453084D01*
X453702Y335384D01*
X454175Y335857D01*
X454431Y336475D01*
Y337144D01*
X454175Y337762D01*
X453702Y338235D01*
X453084Y338491D01*
D02*
G37*
G36*
X464662Y338285D02*
X463994D01*
X463376Y338029D01*
X462903Y337556D01*
X462647Y336938D01*
Y336269D01*
X462903Y335651D01*
X463376Y335179D01*
X463994Y334923D01*
X464662D01*
X465280Y335179D01*
X465753Y335651D01*
X466009Y336269D01*
Y336938D01*
X465753Y337556D01*
X465280Y338029D01*
X464662Y338285D01*
D02*
G37*
G36*
X513986Y337430D02*
X513317D01*
X512699Y337174D01*
X512226Y336701D01*
X511970Y336083D01*
Y335414D01*
X512226Y334797D01*
X512699Y334324D01*
X513317Y334068D01*
X513986D01*
X514603Y334324D01*
X515076Y334797D01*
X515332Y335414D01*
Y336083D01*
X515076Y336701D01*
X514603Y337174D01*
X513986Y337430D01*
D02*
G37*
G36*
X459127Y336491D02*
X458494D01*
X457909Y336248D01*
X457462Y335801D01*
X457220Y335216D01*
Y334584D01*
X457462Y333999D01*
X457909Y333552D01*
X458494Y333310D01*
X459127D01*
X459711Y333552D01*
X460159Y333999D01*
X460401Y334584D01*
Y335216D01*
X460159Y335801D01*
X459711Y336248D01*
X459127Y336491D01*
D02*
G37*
G36*
X385650Y337022D02*
X384150D01*
X383701Y336933D01*
X383321Y336679D01*
X383067Y336299D01*
X382978Y335850D01*
Y334350D01*
X383067Y333901D01*
X383321Y333521D01*
X383701Y333267D01*
X384150Y333177D01*
X385650D01*
X386099Y333267D01*
X386479Y333521D01*
X386733Y333901D01*
X386823Y334350D01*
Y335850D01*
X386733Y336299D01*
X386479Y336679D01*
X386099Y336933D01*
X385650Y337022D01*
D02*
G37*
G36*
X443397Y336398D02*
X442728D01*
X442110Y336142D01*
X441637Y335669D01*
X441381Y335051D01*
Y334382D01*
X441637Y333764D01*
X442110Y333291D01*
X442728Y333035D01*
X443397D01*
X444015Y333291D01*
X444487Y333764D01*
X444743Y334382D01*
Y335051D01*
X444487Y335669D01*
X444015Y336142D01*
X443397Y336398D01*
D02*
G37*
G36*
X332148Y339500D02*
X331252D01*
X330388Y339268D01*
X329612Y338821D01*
X328979Y338188D01*
X328532Y337412D01*
X328300Y336548D01*
Y335652D01*
X328532Y334788D01*
X328979Y334012D01*
X329612Y333379D01*
X330388Y332932D01*
X331252Y332700D01*
X332148D01*
X333012Y332932D01*
X333788Y333379D01*
X334421Y334012D01*
X334868Y334788D01*
X335100Y335652D01*
Y336548D01*
X334868Y337412D01*
X334421Y338188D01*
X333788Y338821D01*
X333012Y339268D01*
X332148Y339500D01*
D02*
G37*
G36*
X322148D02*
X321252D01*
X320388Y339268D01*
X319612Y338821D01*
X318979Y338188D01*
X318532Y337412D01*
X318300Y336548D01*
Y335652D01*
X318532Y334788D01*
X318979Y334012D01*
X319612Y333379D01*
X320388Y332932D01*
X321252Y332700D01*
X322148D01*
X323012Y332932D01*
X323788Y333379D01*
X324421Y334012D01*
X324868Y334788D01*
X325100Y335652D01*
Y336548D01*
X324868Y337412D01*
X324421Y338188D01*
X323788Y338821D01*
X323012Y339268D01*
X322148Y339500D01*
D02*
G37*
G36*
X312148D02*
X311252D01*
X310388Y339268D01*
X309612Y338821D01*
X308979Y338188D01*
X308532Y337412D01*
X308300Y336548D01*
Y335652D01*
X308532Y334788D01*
X308979Y334012D01*
X309612Y333379D01*
X310388Y332932D01*
X311252Y332700D01*
X312148D01*
X313012Y332932D01*
X313788Y333379D01*
X314421Y334012D01*
X314868Y334788D01*
X315100Y335652D01*
Y336548D01*
X314868Y337412D01*
X314421Y338188D01*
X313788Y338821D01*
X313012Y339268D01*
X312148Y339500D01*
D02*
G37*
G36*
X302148D02*
X301252D01*
X300388Y339268D01*
X299612Y338821D01*
X298979Y338188D01*
X298532Y337412D01*
X298300Y336548D01*
Y335652D01*
X298532Y334788D01*
X298979Y334012D01*
X299612Y333379D01*
X300388Y332932D01*
X301252Y332700D01*
X302148D01*
X303012Y332932D01*
X303788Y333379D01*
X304421Y334012D01*
X304868Y334788D01*
X305100Y335652D01*
Y336548D01*
X304868Y337412D01*
X304421Y338188D01*
X303788Y338821D01*
X303012Y339268D01*
X302148Y339500D01*
D02*
G37*
G36*
X418116Y335337D02*
X417484D01*
X416899Y335094D01*
X416452Y334647D01*
X416210Y334062D01*
Y333430D01*
X416452Y332845D01*
X416899Y332398D01*
X417484Y332155D01*
X418116D01*
X418701Y332398D01*
X419148Y332845D01*
X419390Y333430D01*
Y334062D01*
X419148Y334647D01*
X418701Y335094D01*
X418116Y335337D01*
D02*
G37*
G36*
X450721Y334596D02*
X450052D01*
X449434Y334340D01*
X448961Y333867D01*
X448705Y333249D01*
Y332581D01*
X448961Y331963D01*
X449434Y331490D01*
X450052Y331234D01*
X450721D01*
X451338Y331490D01*
X451811Y331963D01*
X452067Y332581D01*
Y333249D01*
X451811Y333867D01*
X451338Y334340D01*
X450721Y334596D01*
D02*
G37*
G36*
X478830Y334578D02*
X478161D01*
X477543Y334322D01*
X477070Y333850D01*
X476814Y333232D01*
Y332563D01*
X477070Y331945D01*
X477543Y331472D01*
X478161Y331216D01*
X478830D01*
X479448Y331472D01*
X479920Y331945D01*
X480176Y332563D01*
Y333232D01*
X479920Y333850D01*
X479448Y334322D01*
X478830Y334578D01*
D02*
G37*
G36*
X467019Y334303D02*
X466350D01*
X465732Y334047D01*
X465259Y333574D01*
X465003Y332956D01*
Y332288D01*
X465259Y331670D01*
X465732Y331197D01*
X466350Y330941D01*
X467019D01*
X467636Y331197D01*
X468109Y331670D01*
X468365Y332288D01*
Y332956D01*
X468109Y333574D01*
X467636Y334047D01*
X467019Y334303D01*
D02*
G37*
G36*
X455208D02*
X454539D01*
X453921Y334047D01*
X453448Y333574D01*
X453192Y332956D01*
Y332288D01*
X453448Y331670D01*
X453921Y331197D01*
X454539Y330941D01*
X455208D01*
X455826Y331197D01*
X456298Y331670D01*
X456554Y332288D01*
Y332956D01*
X456298Y333574D01*
X455826Y334047D01*
X455208Y334303D01*
D02*
G37*
G36*
X474893Y334269D02*
X474224D01*
X473606Y334013D01*
X473133Y333540D01*
X472877Y332922D01*
Y332253D01*
X473133Y331635D01*
X473606Y331163D01*
X474224Y330907D01*
X474893D01*
X475511Y331163D01*
X475983Y331635D01*
X476239Y332253D01*
Y332922D01*
X475983Y333540D01*
X475511Y334013D01*
X474893Y334269D01*
D02*
G37*
G36*
X470906D02*
X470237D01*
X469619Y334013D01*
X469146Y333540D01*
X468890Y332922D01*
Y332253D01*
X469146Y331635D01*
X469619Y331163D01*
X470237Y330907D01*
X470906D01*
X471524Y331163D01*
X471996Y331635D01*
X472252Y332253D01*
Y332922D01*
X471996Y333540D01*
X471524Y334013D01*
X470906Y334269D01*
D02*
G37*
G36*
X502016Y333991D02*
X501384D01*
X500799Y333748D01*
X500352Y333301D01*
X500109Y332716D01*
Y332084D01*
X500352Y331499D01*
X500799Y331052D01*
X501384Y330809D01*
X502016D01*
X502601Y331052D01*
X503048Y331499D01*
X503291Y332084D01*
Y332716D01*
X503048Y333301D01*
X502601Y333748D01*
X502016Y333991D01*
D02*
G37*
G36*
X484735Y340249D02*
X484066D01*
X483449Y339993D01*
X482976Y339520D01*
X482720Y338902D01*
Y338233D01*
X482976Y337615D01*
X483449Y337143D01*
X484066Y336887D01*
X484564D01*
X484730Y336487D01*
X484394Y336151D01*
X484138Y335533D01*
Y334864D01*
X484394Y334247D01*
X484867Y333774D01*
X485485Y333518D01*
X486154D01*
X486383Y333613D01*
X486528Y333483D01*
X486649Y333290D01*
X486419Y332734D01*
Y332066D01*
X486675Y331448D01*
X487148Y330975D01*
X487766Y330719D01*
X488434D01*
X489052Y330975D01*
X489525Y331448D01*
X489781Y332066D01*
Y332734D01*
X489525Y333352D01*
X489052Y333825D01*
X488434Y334081D01*
X487766D01*
X487537Y333986D01*
X487391Y334116D01*
X487270Y334309D01*
X487500Y334864D01*
Y335533D01*
X487244Y336151D01*
X486772Y336624D01*
X486154Y336880D01*
X485656D01*
X485490Y337280D01*
X485826Y337615D01*
X486082Y338233D01*
Y338902D01*
X485826Y339520D01*
X485353Y339993D01*
X484735Y340249D01*
D02*
G37*
G36*
X411316Y333291D02*
X410684D01*
X410099Y333048D01*
X409652Y332601D01*
X409410Y332016D01*
Y331384D01*
X409652Y330799D01*
X410099Y330352D01*
X410684Y330110D01*
X411316D01*
X411901Y330352D01*
X412348Y330799D01*
X412591Y331384D01*
Y332016D01*
X412348Y332601D01*
X411901Y333048D01*
X411316Y333291D01*
D02*
G37*
G36*
X439444Y332852D02*
X438812D01*
X438227Y332610D01*
X437780Y332163D01*
X437537Y331578D01*
Y330945D01*
X437780Y330361D01*
X438227Y329913D01*
X438812Y329671D01*
X439444D01*
X440029Y329913D01*
X440476Y330361D01*
X440719Y330945D01*
Y331578D01*
X440476Y332163D01*
X440029Y332610D01*
X439444Y332852D01*
D02*
G37*
G36*
X430116Y332591D02*
X429484D01*
X428899Y332348D01*
X428452Y331901D01*
X428209Y331316D01*
Y330684D01*
X428452Y330099D01*
X428899Y329652D01*
X429484Y329410D01*
X430116D01*
X430701Y329652D01*
X431148Y330099D01*
X431390Y330684D01*
Y331316D01*
X431148Y331901D01*
X430701Y332348D01*
X430116Y332591D01*
D02*
G37*
G36*
X393350Y331722D02*
X391850D01*
X391401Y331633D01*
X391021Y331379D01*
X390767Y330999D01*
X390677Y330550D01*
Y329050D01*
X390767Y328601D01*
X391021Y328221D01*
X391401Y327967D01*
X391850Y327877D01*
X393350D01*
X393799Y327967D01*
X394179Y328221D01*
X394433Y328601D01*
X394523Y329050D01*
Y330550D01*
X394433Y330999D01*
X394179Y331379D01*
X393799Y331633D01*
X393350Y331722D01*
D02*
G37*
G36*
X563576Y334565D02*
X562681D01*
X561816Y334334D01*
X561041Y333886D01*
X560408Y333253D01*
X559960Y332478D01*
X559728Y331613D01*
Y330718D01*
X559960Y329853D01*
X560408Y329078D01*
X561041Y328445D01*
X561816Y327997D01*
X562681Y327765D01*
X563576D01*
X564441Y327997D01*
X565216Y328445D01*
X565849Y329078D01*
X566297Y329853D01*
X566528Y330718D01*
Y331613D01*
X566297Y332478D01*
X565849Y333253D01*
X565216Y333886D01*
X564441Y334334D01*
X563576Y334565D01*
D02*
G37*
G36*
X553576D02*
X552681D01*
X551816Y334334D01*
X551041Y333886D01*
X550408Y333253D01*
X549960Y332478D01*
X549728Y331613D01*
Y330718D01*
X549960Y329853D01*
X550408Y329078D01*
X551041Y328445D01*
X551816Y327997D01*
X552681Y327765D01*
X553576D01*
X554441Y327997D01*
X555216Y328445D01*
X555849Y329078D01*
X556297Y329853D01*
X556528Y330718D01*
Y331613D01*
X556297Y332478D01*
X555849Y333253D01*
X555216Y333886D01*
X554441Y334334D01*
X553576Y334565D01*
D02*
G37*
G36*
X418134Y329902D02*
X417466D01*
X416848Y329646D01*
X416375Y329173D01*
X416119Y328556D01*
Y327887D01*
X416375Y327269D01*
X416848Y326796D01*
X417466Y326540D01*
X418134D01*
X418752Y326796D01*
X419225Y327269D01*
X419481Y327887D01*
Y328556D01*
X419225Y329173D01*
X418752Y329646D01*
X418134Y329902D01*
D02*
G37*
G36*
X520542Y327497D02*
X519910D01*
X519325Y327255D01*
X518878Y326807D01*
X518635Y326223D01*
Y325590D01*
X518878Y325005D01*
X519325Y324558D01*
X519910Y324316D01*
X520542D01*
X521127Y324558D01*
X521574Y325005D01*
X521816Y325590D01*
Y326223D01*
X521574Y326807D01*
X521127Y327255D01*
X520542Y327497D01*
D02*
G37*
G36*
X513968Y326947D02*
X513335D01*
X512750Y326705D01*
X512303Y326257D01*
X512061Y325673D01*
Y325040D01*
X512303Y324455D01*
X512750Y324008D01*
X513335Y323766D01*
X513968D01*
X514552Y324008D01*
X515000Y324455D01*
X515242Y325040D01*
Y325673D01*
X515000Y326257D01*
X514552Y326705D01*
X513968Y326947D01*
D02*
G37*
G36*
X433536D02*
X432903D01*
X432319Y326705D01*
X431871Y326257D01*
X431629Y325673D01*
Y325040D01*
X431871Y324455D01*
X432319Y324008D01*
X432903Y323766D01*
X433536D01*
X434121Y324008D01*
X434568Y324455D01*
X434810Y325040D01*
Y325673D01*
X434568Y326257D01*
X434121Y326705D01*
X433536Y326947D01*
D02*
G37*
G36*
X377150Y326822D02*
X375650D01*
X375201Y326733D01*
X374821Y326479D01*
X374567Y326099D01*
X374478Y325650D01*
Y324150D01*
X374567Y323701D01*
X374821Y323321D01*
X375201Y323067D01*
X375650Y322977D01*
X377150D01*
X377599Y323067D01*
X377979Y323321D01*
X378233Y323701D01*
X378323Y324150D01*
Y325650D01*
X378233Y326099D01*
X377979Y326479D01*
X377599Y326733D01*
X377150Y326822D01*
D02*
G37*
G36*
X439416Y326078D02*
X438784D01*
X438199Y325836D01*
X437752Y325389D01*
X437509Y324804D01*
Y324171D01*
X437752Y323587D01*
X438199Y323139D01*
X438784Y322897D01*
X439416D01*
X440001Y323139D01*
X440448Y323587D01*
X440691Y324171D01*
Y324804D01*
X440448Y325389D01*
X440001Y325836D01*
X439416Y326078D01*
D02*
G37*
G36*
X332148Y329500D02*
X331252D01*
X330388Y329268D01*
X329612Y328821D01*
X328979Y328188D01*
X328532Y327412D01*
X328300Y326548D01*
Y325652D01*
X328532Y324788D01*
X328979Y324012D01*
X329612Y323379D01*
X330388Y322932D01*
X331252Y322700D01*
X332148D01*
X333012Y322932D01*
X333788Y323379D01*
X334421Y324012D01*
X334868Y324788D01*
X335100Y325652D01*
Y326548D01*
X334868Y327412D01*
X334421Y328188D01*
X333788Y328821D01*
X333012Y329268D01*
X332148Y329500D01*
D02*
G37*
G36*
X322148D02*
X321252D01*
X320388Y329268D01*
X319612Y328821D01*
X318979Y328188D01*
X318532Y327412D01*
X318300Y326548D01*
Y325652D01*
X318532Y324788D01*
X318979Y324012D01*
X319612Y323379D01*
X320388Y322932D01*
X321252Y322700D01*
X322148D01*
X323012Y322932D01*
X323788Y323379D01*
X324421Y324012D01*
X324868Y324788D01*
X325100Y325652D01*
Y326548D01*
X324868Y327412D01*
X324421Y328188D01*
X323788Y328821D01*
X323012Y329268D01*
X322148Y329500D01*
D02*
G37*
G36*
X312148D02*
X311252D01*
X310388Y329268D01*
X309612Y328821D01*
X308979Y328188D01*
X308532Y327412D01*
X308300Y326548D01*
Y325652D01*
X308532Y324788D01*
X308979Y324012D01*
X309612Y323379D01*
X310388Y322932D01*
X311252Y322700D01*
X312148D01*
X313012Y322932D01*
X313788Y323379D01*
X314421Y324012D01*
X314868Y324788D01*
X315100Y325652D01*
Y326548D01*
X314868Y327412D01*
X314421Y328188D01*
X313788Y328821D01*
X313012Y329268D01*
X312148Y329500D01*
D02*
G37*
G36*
X302148D02*
X301252D01*
X300388Y329268D01*
X299612Y328821D01*
X298979Y328188D01*
X298532Y327412D01*
X298300Y326548D01*
Y325652D01*
X298532Y324788D01*
X298979Y324012D01*
X299612Y323379D01*
X300388Y322932D01*
X301252Y322700D01*
X302148D01*
X303012Y322932D01*
X303788Y323379D01*
X304421Y324012D01*
X304868Y324788D01*
X305100Y325652D01*
Y326548D01*
X304868Y327412D01*
X304421Y328188D01*
X303788Y328821D01*
X303012Y329268D01*
X302148Y329500D01*
D02*
G37*
G36*
X497947Y325169D02*
X497314D01*
X496729Y324927D01*
X496282Y324479D01*
X496040Y323895D01*
Y323262D01*
X496282Y322677D01*
X496729Y322230D01*
X497314Y321988D01*
X497947D01*
X498531Y322230D01*
X498979Y322677D01*
X499221Y323262D01*
Y323895D01*
X498979Y324479D01*
X498531Y324927D01*
X497947Y325169D01*
D02*
G37*
G36*
X502430Y323386D02*
X501761D01*
X501143Y323130D01*
X500670Y322657D01*
X500415Y322040D01*
Y321371D01*
X500670Y320753D01*
X501143Y320280D01*
X501761Y320024D01*
X502430D01*
X503048Y320280D01*
X503521Y320753D01*
X503777Y321371D01*
Y322040D01*
X503521Y322657D01*
X503048Y323130D01*
X502430Y323386D01*
D02*
G37*
G36*
X516621Y322781D02*
X515952D01*
X515334Y322525D01*
X514861Y322052D01*
X514606Y321434D01*
Y320766D01*
X514861Y320148D01*
X515334Y319675D01*
X515952Y319419D01*
X516621D01*
X517239Y319675D01*
X517712Y320148D01*
X517968Y320766D01*
Y321434D01*
X517712Y322052D01*
X517239Y322525D01*
X516621Y322781D01*
D02*
G37*
G36*
X595848Y326100D02*
X594952D01*
X594088Y325868D01*
X593312Y325421D01*
X592679Y324788D01*
X592232Y324012D01*
X592000Y323148D01*
Y322252D01*
X592232Y321388D01*
X592679Y320612D01*
X593312Y319979D01*
X594088Y319532D01*
X594952Y319300D01*
X595848D01*
X596712Y319532D01*
X597488Y319979D01*
X598121Y320612D01*
X598568Y321388D01*
X598800Y322252D01*
Y323148D01*
X598568Y324012D01*
X598121Y324788D01*
X597488Y325421D01*
X596712Y325868D01*
X595848Y326100D01*
D02*
G37*
G36*
X585848D02*
X584952D01*
X584088Y325868D01*
X583312Y325421D01*
X582679Y324788D01*
X582232Y324012D01*
X582000Y323148D01*
Y322252D01*
X582232Y321388D01*
X582679Y320612D01*
X583312Y319979D01*
X584088Y319532D01*
X584952Y319300D01*
X585848D01*
X586712Y319532D01*
X587488Y319979D01*
X588121Y320612D01*
X588568Y321388D01*
X588800Y322252D01*
Y323148D01*
X588568Y324012D01*
X588121Y324788D01*
X587488Y325421D01*
X586712Y325868D01*
X585848Y326100D01*
D02*
G37*
G36*
X495541Y322432D02*
X494872D01*
X494254Y322176D01*
X493781Y321703D01*
X493525Y321085D01*
Y320416D01*
X493781Y319798D01*
X494254Y319326D01*
X494872Y319070D01*
X495541D01*
X496159Y319326D01*
X496631Y319798D01*
X496887Y320416D01*
Y321085D01*
X496631Y321703D01*
X496159Y322176D01*
X495541Y322432D01*
D02*
G37*
G36*
X433004Y323100D02*
X432335D01*
X431717Y322845D01*
X431245Y322372D01*
X430989Y321754D01*
Y321085D01*
X431245Y320467D01*
X431717Y319994D01*
X432335Y319738D01*
X433004D01*
X433622Y319994D01*
X433849Y320221D01*
X433894Y320211D01*
X434219Y320025D01*
Y319466D01*
X434475Y318848D01*
X434948Y318375D01*
X435566Y318119D01*
X436234D01*
X436852Y318375D01*
X437325Y318848D01*
X437581Y319466D01*
Y320134D01*
X437325Y320752D01*
X436852Y321225D01*
X436234Y321481D01*
X435566D01*
X434948Y321225D01*
X434720Y320998D01*
X434675Y321008D01*
X434351Y321194D01*
Y321754D01*
X434095Y322372D01*
X433622Y322845D01*
X433004Y323100D01*
D02*
G37*
G36*
X563576Y324565D02*
X562681D01*
X561816Y324334D01*
X561041Y323886D01*
X560408Y323253D01*
X559960Y322478D01*
X559728Y321613D01*
Y320718D01*
X559960Y319853D01*
X560408Y319078D01*
X561041Y318445D01*
X561816Y317997D01*
X562681Y317765D01*
X563576D01*
X564441Y317997D01*
X565216Y318445D01*
X565849Y319078D01*
X566297Y319853D01*
X566528Y320718D01*
Y321613D01*
X566297Y322478D01*
X565849Y323253D01*
X565216Y323886D01*
X564441Y324334D01*
X563576Y324565D01*
D02*
G37*
G36*
X553576D02*
X552681D01*
X551816Y324334D01*
X551041Y323886D01*
X550408Y323253D01*
X549960Y322478D01*
X549728Y321613D01*
Y320718D01*
X549960Y319853D01*
X550408Y319078D01*
X551041Y318445D01*
X551816Y317997D01*
X552681Y317765D01*
X553576D01*
X554441Y317997D01*
X555216Y318445D01*
X555849Y319078D01*
X556297Y319853D01*
X556528Y320718D01*
Y321613D01*
X556297Y322478D01*
X555849Y323253D01*
X555216Y323886D01*
X554441Y324334D01*
X553576Y324565D01*
D02*
G37*
G36*
X415516Y320791D02*
X414884D01*
X414299Y320548D01*
X413852Y320101D01*
X413610Y319516D01*
Y318884D01*
X413852Y318299D01*
X414299Y317852D01*
X414884Y317610D01*
X415516D01*
X416101Y317852D01*
X416548Y318299D01*
X416790Y318884D01*
Y319516D01*
X416548Y320101D01*
X416101Y320548D01*
X415516Y320791D01*
D02*
G37*
G36*
X405416Y319091D02*
X404784D01*
X404199Y318848D01*
X403752Y318401D01*
X403510Y317816D01*
Y317184D01*
X403752Y316599D01*
X404199Y316152D01*
X404784Y315910D01*
X405416D01*
X406001Y316152D01*
X406448Y316599D01*
X406691Y317184D01*
Y317816D01*
X406448Y318401D01*
X406001Y318848D01*
X405416Y319091D01*
D02*
G37*
G36*
X439434Y318081D02*
X438766D01*
X438148Y317825D01*
X437675Y317352D01*
X437419Y316734D01*
Y316066D01*
X437675Y315448D01*
X438148Y314975D01*
X438766Y314719D01*
X439434D01*
X440052Y314975D01*
X440525Y315448D01*
X440781Y316066D01*
Y316734D01*
X440525Y317352D01*
X440052Y317825D01*
X439434Y318081D01*
D02*
G37*
G36*
X498234Y317632D02*
X497566D01*
X496948Y317376D01*
X496475Y316903D01*
X496219Y316286D01*
Y315617D01*
X496475Y314999D01*
X496948Y314526D01*
X497566Y314270D01*
X498234D01*
X498852Y314526D01*
X499325Y314999D01*
X499581Y315617D01*
Y316286D01*
X499325Y316903D01*
X498852Y317376D01*
X498234Y317632D01*
D02*
G37*
G36*
X494433Y315776D02*
X493764D01*
X493147Y315520D01*
X492674Y315048D01*
X492418Y314430D01*
Y313761D01*
X492674Y313143D01*
X493147Y312670D01*
X493764Y312414D01*
X494433D01*
X495051Y312670D01*
X495524Y313143D01*
X495780Y313761D01*
Y314430D01*
X495524Y315048D01*
X495051Y315520D01*
X494433Y315776D01*
D02*
G37*
G36*
X498234Y313470D02*
X497566D01*
X496948Y313214D01*
X496475Y312741D01*
X496219Y312123D01*
Y311455D01*
X496475Y310837D01*
X496948Y310364D01*
X497566Y310108D01*
X498234D01*
X498852Y310364D01*
X499325Y310837D01*
X499581Y311455D01*
Y312123D01*
X499325Y312741D01*
X498852Y313214D01*
X498234Y313470D01*
D02*
G37*
G36*
X595848Y316100D02*
X594952D01*
X594088Y315868D01*
X593312Y315421D01*
X592679Y314788D01*
X592232Y314012D01*
X592000Y313148D01*
Y312252D01*
X592232Y311388D01*
X592679Y310612D01*
X593312Y309979D01*
X594088Y309532D01*
X594952Y309300D01*
X595848D01*
X596712Y309532D01*
X597488Y309979D01*
X598121Y310612D01*
X598568Y311388D01*
X598800Y312252D01*
Y313148D01*
X598568Y314012D01*
X598121Y314788D01*
X597488Y315421D01*
X596712Y315868D01*
X595848Y316100D01*
D02*
G37*
G36*
X585848D02*
X584952D01*
X584088Y315868D01*
X583312Y315421D01*
X582679Y314788D01*
X582232Y314012D01*
X582000Y313148D01*
Y312252D01*
X582232Y311388D01*
X582679Y310612D01*
X583312Y309979D01*
X584088Y309532D01*
X584952Y309300D01*
X585848D01*
X586712Y309532D01*
X587488Y309979D01*
X588121Y310612D01*
X588568Y311388D01*
X588800Y312252D01*
Y313148D01*
X588568Y314012D01*
X588121Y314788D01*
X587488Y315421D01*
X586712Y315868D01*
X585848Y316100D01*
D02*
G37*
G36*
X494433Y311289D02*
X493764D01*
X493147Y311033D01*
X492674Y310560D01*
X492418Y309943D01*
Y309274D01*
X492674Y308656D01*
X493147Y308183D01*
X493764Y307927D01*
X494433D01*
X495051Y308183D01*
X495524Y308656D01*
X495780Y309274D01*
Y309943D01*
X495524Y310560D01*
X495051Y311033D01*
X494433Y311289D01*
D02*
G37*
G36*
X563576Y314565D02*
X562681D01*
X561816Y314334D01*
X561041Y313886D01*
X560408Y313253D01*
X559960Y312478D01*
X559728Y311613D01*
Y310718D01*
X559960Y309853D01*
X560408Y309078D01*
X561041Y308445D01*
X561816Y307997D01*
X562681Y307765D01*
X563576D01*
X564441Y307997D01*
X565216Y308445D01*
X565849Y309078D01*
X566297Y309853D01*
X566528Y310718D01*
Y311613D01*
X566297Y312478D01*
X565849Y313253D01*
X565216Y313886D01*
X564441Y314334D01*
X563576Y314565D01*
D02*
G37*
G36*
X553576D02*
X552681D01*
X551816Y314334D01*
X551041Y313886D01*
X550408Y313253D01*
X549960Y312478D01*
X549728Y311613D01*
Y310718D01*
X549960Y309853D01*
X550408Y309078D01*
X551041Y308445D01*
X551816Y307997D01*
X552681Y307765D01*
X553576D01*
X554441Y307997D01*
X555216Y308445D01*
X555849Y309078D01*
X556297Y309853D01*
X556528Y310718D01*
Y311613D01*
X556297Y312478D01*
X555849Y313253D01*
X555216Y313886D01*
X554441Y314334D01*
X553576Y314565D01*
D02*
G37*
G36*
X524316Y309891D02*
X523684D01*
X523099Y309648D01*
X522652Y309201D01*
X522409Y308616D01*
Y307984D01*
X522652Y307399D01*
X523099Y306952D01*
X523684Y306710D01*
X524316D01*
X524901Y306952D01*
X525348Y307399D01*
X525591Y307984D01*
Y308616D01*
X525348Y309201D01*
X524901Y309648D01*
X524316Y309891D01*
D02*
G37*
G36*
X518316Y309490D02*
X517684D01*
X517099Y309248D01*
X516652Y308801D01*
X516409Y308216D01*
Y307584D01*
X516652Y306999D01*
X517099Y306552D01*
X517684Y306310D01*
X518316D01*
X518901Y306552D01*
X519348Y306999D01*
X519591Y307584D01*
Y308216D01*
X519348Y308801D01*
X518901Y309248D01*
X518316Y309490D01*
D02*
G37*
G36*
X501372Y306371D02*
X500703D01*
X500085Y306115D01*
X499613Y305642D01*
X499357Y305025D01*
Y304356D01*
X499613Y303738D01*
X500085Y303265D01*
X500703Y303009D01*
X501372D01*
X501990Y303265D01*
X502463Y303738D01*
X502719Y304356D01*
Y305025D01*
X502463Y305642D01*
X501990Y306115D01*
X501372Y306371D01*
D02*
G37*
G36*
X497147D02*
X496478D01*
X495860Y306115D01*
X495388Y305642D01*
X495132Y305025D01*
Y304356D01*
X495388Y303738D01*
X495860Y303265D01*
X496478Y303009D01*
X497147D01*
X497765Y303265D01*
X498238Y303738D01*
X498494Y304356D01*
Y305025D01*
X498238Y305642D01*
X497765Y306115D01*
X497147Y306371D01*
D02*
G37*
G36*
X416816Y303590D02*
X416184D01*
X415599Y303348D01*
X415152Y302901D01*
X414910Y302316D01*
Y301684D01*
X415152Y301099D01*
X415599Y300652D01*
X416184Y300410D01*
X416816D01*
X417401Y300652D01*
X417848Y301099D01*
X418090Y301684D01*
Y302316D01*
X417848Y302901D01*
X417401Y303348D01*
X416816Y303590D01*
D02*
G37*
G36*
X595848Y306100D02*
X594952D01*
X594088Y305868D01*
X593312Y305421D01*
X592679Y304788D01*
X592232Y304012D01*
X592000Y303148D01*
Y302252D01*
X592232Y301388D01*
X592679Y300612D01*
X593312Y299979D01*
X594088Y299532D01*
X594952Y299300D01*
X595848D01*
X596712Y299532D01*
X597488Y299979D01*
X598121Y300612D01*
X598568Y301388D01*
X598800Y302252D01*
Y303148D01*
X598568Y304012D01*
X598121Y304788D01*
X597488Y305421D01*
X596712Y305868D01*
X595848Y306100D01*
D02*
G37*
G36*
X585848D02*
X584952D01*
X584088Y305868D01*
X583312Y305421D01*
X582679Y304788D01*
X582232Y304012D01*
X582000Y303148D01*
Y302252D01*
X582232Y301388D01*
X582679Y300612D01*
X583312Y299979D01*
X584088Y299532D01*
X584952Y299300D01*
X585848D01*
X586712Y299532D01*
X587488Y299979D01*
X588121Y300612D01*
X588568Y301388D01*
X588800Y302252D01*
Y303148D01*
X588568Y304012D01*
X588121Y304788D01*
X587488Y305421D01*
X586712Y305868D01*
X585848Y306100D01*
D02*
G37*
G36*
X331148Y304400D02*
X330252D01*
X329388Y304168D01*
X328612Y303721D01*
X327979Y303088D01*
X327532Y302312D01*
X327300Y301448D01*
Y300552D01*
X327532Y299688D01*
X327979Y298912D01*
X328612Y298279D01*
X329388Y297832D01*
X330252Y297600D01*
X331148D01*
X332012Y297832D01*
X332788Y298279D01*
X333421Y298912D01*
X333868Y299688D01*
X334100Y300552D01*
Y301448D01*
X333868Y302312D01*
X333421Y303088D01*
X332788Y303721D01*
X332012Y304168D01*
X331148Y304400D01*
D02*
G37*
G36*
X321148D02*
X320252D01*
X319388Y304168D01*
X318612Y303721D01*
X317979Y303088D01*
X317532Y302312D01*
X317300Y301448D01*
Y300552D01*
X317532Y299688D01*
X317979Y298912D01*
X318612Y298279D01*
X319388Y297832D01*
X320252Y297600D01*
X321148D01*
X322012Y297832D01*
X322788Y298279D01*
X323421Y298912D01*
X323868Y299688D01*
X324100Y300552D01*
Y301448D01*
X323868Y302312D01*
X323421Y303088D01*
X322788Y303721D01*
X322012Y304168D01*
X321148Y304400D01*
D02*
G37*
G36*
X430006Y300081D02*
X429338D01*
X428720Y299825D01*
X428247Y299352D01*
X427991Y298734D01*
Y298066D01*
X428247Y297448D01*
X428720Y296975D01*
X429338Y296719D01*
X430006D01*
X430624Y296975D01*
X431097Y297448D01*
X431353Y298066D01*
Y298734D01*
X431097Y299352D01*
X430624Y299825D01*
X430006Y300081D01*
D02*
G37*
G36*
X513771Y299478D02*
X513102D01*
X512484Y299222D01*
X512011Y298749D01*
X511755Y298132D01*
Y297463D01*
X512011Y296845D01*
X512484Y296372D01*
X513102Y296116D01*
X513771D01*
X514389Y296372D01*
X514861Y296845D01*
X515117Y297463D01*
Y298132D01*
X514861Y298749D01*
X514389Y299222D01*
X513771Y299478D01*
D02*
G37*
G36*
X436941Y298060D02*
X436272D01*
X435654Y297804D01*
X435182Y297331D01*
X434926Y296713D01*
Y296044D01*
X435182Y295427D01*
X435654Y294954D01*
X436272Y294698D01*
X436941D01*
X437559Y294954D01*
X438032Y295427D01*
X438288Y296044D01*
Y296713D01*
X438032Y297331D01*
X437559Y297804D01*
X436941Y298060D01*
D02*
G37*
G36*
X494629Y297510D02*
X493960D01*
X493342Y297254D01*
X492869Y296781D01*
X492613Y296163D01*
Y295494D01*
X492869Y294877D01*
X493342Y294404D01*
X493960Y294148D01*
X494629D01*
X495247Y294404D01*
X495719Y294877D01*
X495975Y295494D01*
Y296163D01*
X495719Y296781D01*
X495247Y297254D01*
X494629Y297510D01*
D02*
G37*
G36*
X248716Y296890D02*
X248084D01*
X247499Y296648D01*
X247052Y296201D01*
X246810Y295616D01*
Y294984D01*
X247052Y294399D01*
X247499Y293952D01*
X248084Y293709D01*
X248716D01*
X249301Y293952D01*
X249748Y294399D01*
X249991Y294984D01*
Y295616D01*
X249748Y296201D01*
X249301Y296648D01*
X248716Y296890D01*
D02*
G37*
G36*
X242116Y296691D02*
X241484D01*
X240899Y296448D01*
X240452Y296001D01*
X240210Y295416D01*
Y294784D01*
X240452Y294199D01*
X240899Y293752D01*
X241484Y293510D01*
X242116D01*
X242701Y293752D01*
X243148Y294199D01*
X243390Y294784D01*
Y295416D01*
X243148Y296001D01*
X242701Y296448D01*
X242116Y296691D01*
D02*
G37*
G36*
X430147Y296176D02*
X429478D01*
X428860Y295920D01*
X428387Y295447D01*
X428131Y294829D01*
Y294160D01*
X428387Y293542D01*
X428860Y293069D01*
X429478Y292813D01*
X430147D01*
X430764Y293069D01*
X431237Y293542D01*
X431493Y294160D01*
Y294829D01*
X431237Y295447D01*
X430764Y295920D01*
X430147Y296176D01*
D02*
G37*
G36*
X501016Y294759D02*
X500347D01*
X499729Y294503D01*
X499256Y294030D01*
X499000Y293412D01*
Y292744D01*
X499256Y292126D01*
X499729Y291653D01*
X500347Y291397D01*
X501016D01*
X501633Y291653D01*
X502106Y292126D01*
X502362Y292744D01*
Y293412D01*
X502106Y294030D01*
X501633Y294503D01*
X501016Y294759D01*
D02*
G37*
G36*
X436941Y294123D02*
X436272D01*
X435654Y293867D01*
X435182Y293394D01*
X434926Y292776D01*
Y292107D01*
X435182Y291490D01*
X435654Y291017D01*
X436272Y290761D01*
X436941D01*
X437559Y291017D01*
X438032Y291490D01*
X438288Y292107D01*
Y292776D01*
X438032Y293394D01*
X437559Y293867D01*
X436941Y294123D01*
D02*
G37*
G36*
X595848Y296100D02*
X594952D01*
X594088Y295868D01*
X593312Y295421D01*
X592679Y294788D01*
X592232Y294012D01*
X592000Y293148D01*
Y292252D01*
X592232Y291388D01*
X592679Y290612D01*
X593312Y289979D01*
X594088Y289532D01*
X594952Y289300D01*
X595848D01*
X596712Y289532D01*
X597488Y289979D01*
X598121Y290612D01*
X598568Y291388D01*
X598800Y292252D01*
Y293148D01*
X598568Y294012D01*
X598121Y294788D01*
X597488Y295421D01*
X596712Y295868D01*
X595848Y296100D01*
D02*
G37*
G36*
X585848D02*
X584952D01*
X584088Y295868D01*
X583312Y295421D01*
X582679Y294788D01*
X582232Y294012D01*
X582000Y293148D01*
Y292252D01*
X582232Y291388D01*
X582679Y290612D01*
X583312Y289979D01*
X584088Y289532D01*
X584952Y289300D01*
X585848D01*
X586712Y289532D01*
X587488Y289979D01*
X588121Y290612D01*
X588568Y291388D01*
X588800Y292252D01*
Y293148D01*
X588568Y294012D01*
X588121Y294788D01*
X587488Y295421D01*
X586712Y295868D01*
X585848Y296100D01*
D02*
G37*
G36*
X515216Y292390D02*
X514584D01*
X513999Y292148D01*
X513552Y291701D01*
X513309Y291116D01*
Y290484D01*
X513552Y289899D01*
X513999Y289452D01*
X514584Y289210D01*
X515216D01*
X515801Y289452D01*
X516248Y289899D01*
X516491Y290484D01*
Y291116D01*
X516248Y291701D01*
X515801Y292148D01*
X515216Y292390D01*
D02*
G37*
G36*
X494629Y292154D02*
X493960D01*
X493342Y291898D01*
X492869Y291425D01*
X492613Y290808D01*
Y290139D01*
X492869Y289521D01*
X493342Y289048D01*
X493960Y288792D01*
X494629D01*
X495247Y289048D01*
X495719Y289521D01*
X495975Y290139D01*
Y290808D01*
X495719Y291425D01*
X495247Y291898D01*
X494629Y292154D01*
D02*
G37*
G36*
X430044Y292078D02*
X429376D01*
X428758Y291822D01*
X428285Y291350D01*
X428029Y290732D01*
Y290063D01*
X428285Y289445D01*
X428758Y288972D01*
X429376Y288716D01*
X430044D01*
X430662Y288972D01*
X431135Y289445D01*
X431391Y290063D01*
Y290732D01*
X431135Y291350D01*
X430662Y291822D01*
X430044Y292078D01*
D02*
G37*
G36*
X331148Y294400D02*
X330252D01*
X329388Y294168D01*
X328612Y293721D01*
X327979Y293088D01*
X327532Y292312D01*
X327300Y291448D01*
Y290552D01*
X327532Y289688D01*
X327979Y288912D01*
X328612Y288279D01*
X329388Y287832D01*
X330252Y287600D01*
X331148D01*
X332012Y287832D01*
X332788Y288279D01*
X333421Y288912D01*
X333868Y289688D01*
X334100Y290552D01*
Y291448D01*
X333868Y292312D01*
X333421Y293088D01*
X332788Y293721D01*
X332012Y294168D01*
X331148Y294400D01*
D02*
G37*
G36*
X321148D02*
X320252D01*
X319388Y294168D01*
X318612Y293721D01*
X317979Y293088D01*
X317532Y292312D01*
X317300Y291448D01*
Y290552D01*
X317532Y289688D01*
X317979Y288912D01*
X318612Y288279D01*
X319388Y287832D01*
X320252Y287600D01*
X321148D01*
X322012Y287832D01*
X322788Y288279D01*
X323421Y288912D01*
X323868Y289688D01*
X324100Y290552D01*
Y291448D01*
X323868Y292312D01*
X323421Y293088D01*
X322788Y293721D01*
X322012Y294168D01*
X321148Y294400D01*
D02*
G37*
G36*
X500818Y290214D02*
X500149D01*
X499532Y289958D01*
X499059Y289485D01*
X498803Y288867D01*
Y288199D01*
X499059Y287581D01*
X499532Y287108D01*
X500149Y286852D01*
X500818D01*
X501436Y287108D01*
X501909Y287581D01*
X502165Y288199D01*
Y288867D01*
X501909Y289485D01*
X501436Y289958D01*
X500818Y290214D01*
D02*
G37*
G36*
X436941Y290186D02*
X436272D01*
X435654Y289930D01*
X435182Y289457D01*
X434926Y288839D01*
Y288170D01*
X435182Y287552D01*
X435654Y287080D01*
X436272Y286824D01*
X436941D01*
X437559Y287080D01*
X438032Y287552D01*
X438288Y288170D01*
Y288839D01*
X438032Y289457D01*
X437559Y289930D01*
X436941Y290186D01*
D02*
G37*
G36*
X410116Y288690D02*
X409484D01*
X408899Y288448D01*
X408452Y288001D01*
X408210Y287416D01*
Y286784D01*
X408452Y286199D01*
X408899Y285752D01*
X409484Y285509D01*
X410116D01*
X410701Y285752D01*
X411148Y286199D01*
X411390Y286784D01*
Y287416D01*
X411148Y288001D01*
X410701Y288448D01*
X410116Y288690D01*
D02*
G37*
G36*
X494854Y288100D02*
X494185D01*
X493567Y287844D01*
X493094Y287372D01*
X492838Y286754D01*
Y286085D01*
X493094Y285467D01*
X493567Y284994D01*
X494185Y284738D01*
X494854D01*
X495472Y284994D01*
X495945Y285467D01*
X496201Y286085D01*
Y286754D01*
X495945Y287372D01*
X495472Y287844D01*
X494854Y288100D01*
D02*
G37*
G36*
X433554Y287667D02*
X432885D01*
X432267Y287411D01*
X431795Y286939D01*
X431539Y286321D01*
Y285652D01*
X431795Y285034D01*
X432267Y284561D01*
X432885Y284305D01*
X433554D01*
X434172Y284561D01*
X434645Y285034D01*
X434901Y285652D01*
Y286321D01*
X434645Y286939D01*
X434172Y287411D01*
X433554Y287667D01*
D02*
G37*
G36*
X245517Y289065D02*
X244683D01*
X243878Y288850D01*
X243156Y288433D01*
X242567Y287844D01*
X242150Y287122D01*
X241935Y286317D01*
Y285483D01*
X242150Y284678D01*
X242567Y283956D01*
X243156Y283367D01*
X243878Y282950D01*
X244683Y282735D01*
X245517D01*
X246322Y282950D01*
X247044Y283367D01*
X247633Y283956D01*
X248050Y284678D01*
X248265Y285483D01*
Y286317D01*
X248050Y287122D01*
X247633Y287844D01*
X247044Y288433D01*
X246322Y288850D01*
X245517Y289065D01*
D02*
G37*
G36*
X520016Y285591D02*
X519384D01*
X518799Y285348D01*
X518352Y284901D01*
X518110Y284316D01*
Y283684D01*
X518352Y283099D01*
X518799Y282652D01*
X519384Y282410D01*
X520016D01*
X520601Y282652D01*
X521048Y283099D01*
X521290Y283684D01*
Y284316D01*
X521048Y284901D01*
X520601Y285348D01*
X520016Y285591D01*
D02*
G37*
G36*
X499845Y285699D02*
X499177D01*
X498559Y285443D01*
X498086Y284970D01*
X497830Y284352D01*
Y283683D01*
X498086Y283066D01*
X498559Y282593D01*
X499177Y282337D01*
X499845D01*
X500463Y282593D01*
X500936Y283066D01*
X501192Y283683D01*
Y284352D01*
X500936Y284970D01*
X500463Y285443D01*
X499845Y285699D01*
D02*
G37*
G36*
X430147Y284280D02*
X429478D01*
X428860Y284024D01*
X428387Y283552D01*
X428131Y282934D01*
Y282265D01*
X428387Y281647D01*
X428860Y281174D01*
X429478Y280918D01*
X430147D01*
X430764Y281174D01*
X431237Y281647D01*
X431493Y282265D01*
Y282934D01*
X431237Y283552D01*
X430764Y284024D01*
X430147Y284280D01*
D02*
G37*
G36*
X514134Y284084D02*
X513466D01*
X512848Y283827D01*
X512375Y283355D01*
X512119Y282737D01*
Y282068D01*
X512375Y281450D01*
X512848Y280977D01*
X513466Y280721D01*
X514134D01*
X514752Y280977D01*
X515225Y281450D01*
X515481Y282068D01*
Y282737D01*
X515225Y283355D01*
X514752Y283827D01*
X514134Y284084D01*
D02*
G37*
G36*
X595848Y286100D02*
X594952D01*
X594088Y285868D01*
X593312Y285421D01*
X592679Y284788D01*
X592232Y284012D01*
X592000Y283148D01*
Y282252D01*
X592232Y281388D01*
X592679Y280612D01*
X593312Y279979D01*
X594088Y279532D01*
X594952Y279300D01*
X595848D01*
X596712Y279532D01*
X597488Y279979D01*
X598121Y280612D01*
X598568Y281388D01*
X598800Y282252D01*
Y283148D01*
X598568Y284012D01*
X598121Y284788D01*
X597488Y285421D01*
X596712Y285868D01*
X595848Y286100D01*
D02*
G37*
G36*
X585848D02*
X584952D01*
X584088Y285868D01*
X583312Y285421D01*
X582679Y284788D01*
X582232Y284012D01*
X582000Y283148D01*
Y282252D01*
X582232Y281388D01*
X582679Y280612D01*
X583312Y279979D01*
X584088Y279532D01*
X584952Y279300D01*
X585848D01*
X586712Y279532D01*
X587488Y279979D01*
X588121Y280612D01*
X588568Y281388D01*
X588800Y282252D01*
Y283148D01*
X588568Y284012D01*
X588121Y284788D01*
X587488Y285421D01*
X586712Y285868D01*
X585848Y286100D01*
D02*
G37*
G36*
X436941Y282312D02*
X436272D01*
X435654Y282056D01*
X435182Y281583D01*
X434926Y280965D01*
Y280296D01*
X435182Y279679D01*
X435654Y279205D01*
X436272Y278950D01*
X436941D01*
X437559Y279205D01*
X438032Y279679D01*
X438288Y280296D01*
Y280965D01*
X438032Y281583D01*
X437559Y282056D01*
X436941Y282312D01*
D02*
G37*
G36*
X331148Y284400D02*
X330252D01*
X329388Y284168D01*
X328612Y283721D01*
X327979Y283088D01*
X327532Y282312D01*
X327300Y281448D01*
Y280552D01*
X327532Y279688D01*
X327979Y278912D01*
X328612Y278279D01*
X329388Y277832D01*
X330252Y277600D01*
X331148D01*
X332012Y277832D01*
X332788Y278279D01*
X333421Y278912D01*
X333868Y279688D01*
X334100Y280552D01*
Y281448D01*
X333868Y282312D01*
X333421Y283088D01*
X332788Y283721D01*
X332012Y284168D01*
X331148Y284400D01*
D02*
G37*
G36*
X321148D02*
X320252D01*
X319388Y284168D01*
X318612Y283721D01*
X317979Y283088D01*
X317532Y282312D01*
X317300Y281448D01*
Y280552D01*
X317532Y279688D01*
X317979Y278912D01*
X318612Y278279D01*
X319388Y277832D01*
X320252Y277600D01*
X321148D01*
X322012Y277832D01*
X322788Y278279D01*
X323421Y278912D01*
X323868Y279688D01*
X324100Y280552D01*
Y281448D01*
X323868Y282312D01*
X323421Y283088D01*
X322788Y283721D01*
X322012Y284168D01*
X321148Y284400D01*
D02*
G37*
G36*
X429215Y280343D02*
X428546D01*
X427928Y280087D01*
X427455Y279614D01*
X427199Y278997D01*
Y278328D01*
X427455Y277710D01*
X427928Y277237D01*
X428546Y276981D01*
X429215D01*
X429833Y277237D01*
X430305Y277710D01*
X430561Y278328D01*
Y278997D01*
X430305Y279614D01*
X429833Y280087D01*
X429215Y280343D01*
D02*
G37*
G36*
X496534Y278582D02*
X495866D01*
X495248Y278326D01*
X494775Y277853D01*
X494519Y277236D01*
Y276567D01*
X494775Y275949D01*
X495248Y275476D01*
X495866Y275220D01*
X496534D01*
X497152Y275476D01*
X497625Y275949D01*
X497881Y276567D01*
Y277236D01*
X497625Y277853D01*
X497152Y278326D01*
X496534Y278582D01*
D02*
G37*
G36*
X433554Y278375D02*
X432885D01*
X432267Y278119D01*
X431795Y277646D01*
X431539Y277028D01*
Y276359D01*
X431795Y275741D01*
X432267Y275269D01*
X432885Y275013D01*
X433554D01*
X434172Y275269D01*
X434645Y275741D01*
X434901Y276359D01*
Y277028D01*
X434645Y277646D01*
X434172Y278119D01*
X433554Y278375D01*
D02*
G37*
G36*
X503077Y276501D02*
X502409D01*
X501791Y276245D01*
X501318Y275772D01*
X501062Y275154D01*
Y274486D01*
X501318Y273868D01*
X501791Y273395D01*
X502409Y273139D01*
X503077D01*
X503695Y273395D01*
X504168Y273868D01*
X504424Y274486D01*
Y275154D01*
X504168Y275772D01*
X503695Y276245D01*
X503077Y276501D01*
D02*
G37*
G36*
X245517Y279065D02*
X244683D01*
X243878Y278850D01*
X243156Y278433D01*
X242567Y277844D01*
X242150Y277122D01*
X241935Y276317D01*
Y275483D01*
X242150Y274678D01*
X242567Y273956D01*
X243156Y273367D01*
X243878Y272950D01*
X244683Y272735D01*
X245517D01*
X246322Y272950D01*
X247044Y273367D01*
X247633Y273956D01*
X248050Y274678D01*
X248265Y275483D01*
Y276317D01*
X248050Y277122D01*
X247633Y277844D01*
X247044Y278433D01*
X246322Y278850D01*
X245517Y279065D01*
D02*
G37*
G36*
X417516Y274590D02*
X416884D01*
X416299Y274348D01*
X415852Y273901D01*
X415610Y273316D01*
Y272684D01*
X415852Y272099D01*
X416299Y271652D01*
X416884Y271410D01*
X417516D01*
X418101Y271652D01*
X418548Y272099D01*
X418790Y272684D01*
Y273316D01*
X418548Y273901D01*
X418101Y274348D01*
X417516Y274590D01*
D02*
G37*
G36*
X498403Y274402D02*
X497734D01*
X497116Y274146D01*
X496643Y273674D01*
X496387Y273056D01*
Y272387D01*
X496643Y271769D01*
X497116Y271296D01*
X497734Y271040D01*
X498403D01*
X499021Y271296D01*
X499494Y271769D01*
X499750Y272387D01*
Y273056D01*
X499494Y273674D01*
X499021Y274146D01*
X498403Y274402D01*
D02*
G37*
G36*
X595848Y276100D02*
X594952D01*
X594088Y275868D01*
X593312Y275421D01*
X592679Y274788D01*
X592232Y274012D01*
X592000Y273148D01*
Y272252D01*
X592232Y271388D01*
X592679Y270612D01*
X593312Y269979D01*
X594088Y269532D01*
X594952Y269300D01*
X595848D01*
X596712Y269532D01*
X597488Y269979D01*
X598121Y270612D01*
X598568Y271388D01*
X598800Y272252D01*
Y273148D01*
X598568Y274012D01*
X598121Y274788D01*
X597488Y275421D01*
X596712Y275868D01*
X595848Y276100D01*
D02*
G37*
G36*
X585848D02*
X584952D01*
X584088Y275868D01*
X583312Y275421D01*
X582679Y274788D01*
X582232Y274012D01*
X582000Y273148D01*
Y272252D01*
X582232Y271388D01*
X582679Y270612D01*
X583312Y269979D01*
X584088Y269532D01*
X584952Y269300D01*
X585848D01*
X586712Y269532D01*
X587488Y269979D01*
X588121Y270612D01*
X588568Y271388D01*
X588800Y272252D01*
Y273148D01*
X588568Y274012D01*
X588121Y274788D01*
X587488Y275421D01*
X586712Y275868D01*
X585848Y276100D01*
D02*
G37*
G36*
X502933Y272339D02*
X502264D01*
X501647Y272083D01*
X501174Y271610D01*
X500918Y270992D01*
Y270323D01*
X501174Y269706D01*
X501647Y269233D01*
X502264Y268977D01*
X502933D01*
X503551Y269233D01*
X504024Y269706D01*
X504280Y270323D01*
Y270992D01*
X504024Y271610D01*
X503551Y272083D01*
X502933Y272339D01*
D02*
G37*
G36*
X495128Y271919D02*
X494459D01*
X493841Y271663D01*
X493368Y271191D01*
X493112Y270573D01*
Y269904D01*
X493368Y269286D01*
X493841Y268813D01*
X494459Y268557D01*
X495128D01*
X495746Y268813D01*
X496218Y269286D01*
X496474Y269904D01*
Y270573D01*
X496218Y271191D01*
X495746Y271663D01*
X495128Y271919D01*
D02*
G37*
G36*
X331148Y274400D02*
X330252D01*
X329388Y274168D01*
X328612Y273721D01*
X327979Y273088D01*
X327532Y272312D01*
X327300Y271448D01*
Y270552D01*
X327532Y269688D01*
X327979Y268912D01*
X328612Y268279D01*
X329388Y267832D01*
X330252Y267600D01*
X331148D01*
X332012Y267832D01*
X332788Y268279D01*
X333421Y268912D01*
X333868Y269688D01*
X334100Y270552D01*
Y271448D01*
X333868Y272312D01*
X333421Y273088D01*
X332788Y273721D01*
X332012Y274168D01*
X331148Y274400D01*
D02*
G37*
G36*
X321148D02*
X320252D01*
X319388Y274168D01*
X318612Y273721D01*
X317979Y273088D01*
X317532Y272312D01*
X317300Y271448D01*
Y270552D01*
X317532Y269688D01*
X317979Y268912D01*
X318612Y268279D01*
X319388Y267832D01*
X320252Y267600D01*
X321148D01*
X322012Y267832D01*
X322788Y268279D01*
X323421Y268912D01*
X323868Y269688D01*
X324100Y270552D01*
Y271448D01*
X323868Y272312D01*
X323421Y273088D01*
X322788Y273721D01*
X322012Y274168D01*
X321148Y274400D01*
D02*
G37*
G36*
X472924Y270590D02*
X472255D01*
X471637Y270335D01*
X471165Y269862D01*
X470909Y269244D01*
Y268575D01*
X471165Y267957D01*
X471637Y267484D01*
X472255Y267228D01*
X472924D01*
X473542Y267484D01*
X474015Y267957D01*
X474271Y268575D01*
Y269244D01*
X474015Y269862D01*
X473542Y270335D01*
X472924Y270590D01*
D02*
G37*
G36*
X461161D02*
X460492D01*
X459874Y270335D01*
X459402Y269862D01*
X459146Y269244D01*
Y268575D01*
X459402Y267957D01*
X459874Y267484D01*
X460492Y267228D01*
X461161D01*
X461779Y267484D01*
X462252Y267957D01*
X462508Y268575D01*
Y269244D01*
X462252Y269862D01*
X461779Y270335D01*
X461161Y270590D01*
D02*
G37*
G36*
X457176D02*
X456507D01*
X455890Y270335D01*
X455417Y269862D01*
X455161Y269244D01*
Y268575D01*
X455417Y267957D01*
X455890Y267484D01*
X456507Y267228D01*
X457176D01*
X457794Y267484D01*
X458267Y267957D01*
X458523Y268575D01*
Y269244D01*
X458267Y269862D01*
X457794Y270335D01*
X457176Y270590D01*
D02*
G37*
G36*
X453239D02*
X452570D01*
X451953Y270335D01*
X451480Y269862D01*
X451224Y269244D01*
Y268575D01*
X451480Y267957D01*
X451953Y267484D01*
X452570Y267228D01*
X453239D01*
X453857Y267484D01*
X454330Y267957D01*
X454586Y268575D01*
Y269244D01*
X454330Y269862D01*
X453857Y270335D01*
X453239Y270590D01*
D02*
G37*
G36*
X449302D02*
X448633D01*
X448015Y270335D01*
X447543Y269862D01*
X447287Y269244D01*
Y268575D01*
X447543Y267957D01*
X448015Y267484D01*
X448633Y267228D01*
X449302D01*
X449920Y267484D01*
X450393Y267957D01*
X450649Y268575D01*
Y269244D01*
X450393Y269862D01*
X449920Y270335D01*
X449302Y270590D01*
D02*
G37*
G36*
X445365D02*
X444696D01*
X444078Y270335D01*
X443606Y269862D01*
X443350Y269244D01*
Y268575D01*
X443606Y267957D01*
X444078Y267484D01*
X444696Y267228D01*
X445365D01*
X445983Y267484D01*
X446456Y267957D01*
X446712Y268575D01*
Y269244D01*
X446456Y269862D01*
X445983Y270335D01*
X445365Y270590D01*
D02*
G37*
G36*
X488672Y270501D02*
X488003D01*
X487386Y270245D01*
X486913Y269772D01*
X486657Y269154D01*
Y268485D01*
X486913Y267867D01*
X487386Y267394D01*
X488003Y267139D01*
X488672D01*
X489290Y267394D01*
X489763Y267867D01*
X490019Y268485D01*
Y269154D01*
X489763Y269772D01*
X489290Y270245D01*
X488672Y270501D01*
D02*
G37*
G36*
X484878D02*
X484209D01*
X483592Y270245D01*
X483119Y269772D01*
X482863Y269154D01*
Y268485D01*
X483119Y267867D01*
X483592Y267394D01*
X484209Y267139D01*
X484878D01*
X485496Y267394D01*
X485969Y267867D01*
X486225Y268485D01*
Y269154D01*
X485969Y269772D01*
X485496Y270245D01*
X484878Y270501D01*
D02*
G37*
G36*
X480798D02*
X480129D01*
X479511Y270245D01*
X479039Y269772D01*
X478783Y269154D01*
Y268485D01*
X479039Y267867D01*
X479511Y267394D01*
X480129Y267139D01*
X480798D01*
X481416Y267394D01*
X481889Y267867D01*
X482145Y268485D01*
Y269154D01*
X481889Y269772D01*
X481416Y270245D01*
X480798Y270501D01*
D02*
G37*
G36*
X476861D02*
X476192D01*
X475574Y270245D01*
X475102Y269772D01*
X474846Y269154D01*
Y268485D01*
X475102Y267867D01*
X475574Y267394D01*
X476192Y267139D01*
X476861D01*
X477479Y267394D01*
X477952Y267867D01*
X478208Y268485D01*
Y269154D01*
X477952Y269772D01*
X477479Y270245D01*
X476861Y270501D01*
D02*
G37*
G36*
X474758Y266147D02*
X474090D01*
X473472Y265891D01*
X472999Y265418D01*
X472743Y264800D01*
X472347D01*
X472091Y265418D01*
X471618Y265891D01*
X471000Y266147D01*
X470331D01*
X469713Y265891D01*
X469241Y265418D01*
X468985Y264800D01*
Y264131D01*
X469241Y263513D01*
X469713Y263041D01*
X470331Y262785D01*
X471000D01*
X471618Y263041D01*
X472091Y263513D01*
X472347Y264131D01*
X472743D01*
X472999Y263513D01*
X473472Y263041D01*
X474090Y262785D01*
X474758D01*
X475376Y263041D01*
X475849Y263513D01*
X476105Y264131D01*
Y264800D01*
X475849Y265418D01*
X475376Y265891D01*
X474758Y266147D01*
D02*
G37*
G36*
X500144Y267982D02*
X499476D01*
X498858Y267726D01*
X498385Y267253D01*
X498129Y266636D01*
Y265967D01*
X498385Y265349D01*
X498858Y264876D01*
X499476Y264620D01*
X500144D01*
X500762Y264876D01*
X501235Y265349D01*
X501491Y265967D01*
Y266636D01*
X501235Y267253D01*
X500762Y267726D01*
X500144Y267982D01*
D02*
G37*
G36*
X394316Y267690D02*
X393684D01*
X393099Y267448D01*
X392652Y267001D01*
X392409Y266416D01*
Y265784D01*
X392652Y265199D01*
X393099Y264752D01*
X393684Y264510D01*
X394316D01*
X394901Y264752D01*
X395348Y265199D01*
X395590Y265784D01*
Y266416D01*
X395348Y267001D01*
X394901Y267448D01*
X394316Y267690D01*
D02*
G37*
G36*
X482791Y266921D02*
X482122D01*
X481504Y266665D01*
X481031Y266192D01*
X480775Y265574D01*
Y264905D01*
X481031Y264287D01*
X481504Y263814D01*
X482122Y263559D01*
X482791D01*
X483408Y263814D01*
X483881Y264287D01*
X484137Y264905D01*
Y265574D01*
X483881Y266192D01*
X483408Y266665D01*
X482791Y266921D01*
D02*
G37*
G36*
X282057Y266711D02*
X278905D01*
Y263558D01*
X282057D01*
Y266711D01*
D02*
G37*
G36*
X304737D02*
X304495D01*
Y263558D01*
X307648D01*
Y263800D01*
X307419Y264652D01*
X306978Y265417D01*
X306354Y266041D01*
X305589Y266482D01*
X304737Y266711D01*
D02*
G37*
G36*
X304095D02*
X303854D01*
X303001Y266482D01*
X302237Y266041D01*
X301612Y265417D01*
X301171Y264652D01*
X300942Y263800D01*
Y263558D01*
X304095D01*
Y266711D01*
D02*
G37*
G36*
X278505D02*
X275352D01*
Y263558D01*
X278505D01*
Y266711D01*
D02*
G37*
G36*
X478758Y266872D02*
X478089D01*
X477471Y266616D01*
X476999Y266143D01*
X476743Y265525D01*
Y264856D01*
X476999Y264238D01*
X477471Y263765D01*
X478089Y263509D01*
X478758D01*
X479376Y263765D01*
X479849Y264238D01*
X480105Y264856D01*
Y265525D01*
X479849Y266143D01*
X479376Y266616D01*
X478758Y266872D01*
D02*
G37*
G36*
X486712Y266772D02*
X486044D01*
X485426Y266516D01*
X484953Y266043D01*
X484697Y265426D01*
Y264757D01*
X484953Y264139D01*
X485426Y263666D01*
X486044Y263410D01*
X486712D01*
X487330Y263666D01*
X487803Y264139D01*
X488059Y264757D01*
Y265426D01*
X487803Y266043D01*
X487330Y266516D01*
X486712Y266772D01*
D02*
G37*
G36*
X490636Y266768D02*
X489968D01*
X489350Y266512D01*
X488877Y266039D01*
X488621Y265421D01*
Y264752D01*
X488877Y264135D01*
X489350Y263662D01*
X489968Y263406D01*
X490636D01*
X491254Y263662D01*
X491727Y264135D01*
X491983Y264752D01*
Y265421D01*
X491727Y266039D01*
X491254Y266512D01*
X490636Y266768D01*
D02*
G37*
G36*
X465050Y269181D02*
X464381D01*
X463764Y268925D01*
X463291Y268452D01*
X463035Y267834D01*
Y267166D01*
X463185Y266802D01*
X463153Y266715D01*
X462906Y266432D01*
X462377D01*
X461759Y266176D01*
X461286Y265703D01*
X461030Y265085D01*
Y264417D01*
X461286Y263799D01*
X461759Y263326D01*
X462377Y263070D01*
X463045D01*
X463663Y263326D01*
X464136Y263799D01*
X464392Y264417D01*
Y265085D01*
X464241Y265449D01*
X464274Y265536D01*
X464521Y265819D01*
X465050D01*
X465668Y266075D01*
X466141Y266548D01*
X466397Y267166D01*
Y267834D01*
X466141Y268452D01*
X465668Y268925D01*
X465050Y269181D01*
D02*
G37*
G36*
X455208Y266432D02*
X454539D01*
X453921Y266176D01*
X453448Y265703D01*
X453192Y265085D01*
Y264417D01*
X453448Y263799D01*
X453921Y263326D01*
X454539Y263070D01*
X455208D01*
X455826Y263326D01*
X456298Y263799D01*
X456554Y264417D01*
Y265085D01*
X456298Y265703D01*
X455826Y266176D01*
X455208Y266432D01*
D02*
G37*
G36*
X451271D02*
X450602D01*
X449984Y266176D01*
X449511Y265703D01*
X449255Y265085D01*
Y264417D01*
X449511Y263799D01*
X449984Y263326D01*
X450602Y263070D01*
X451271D01*
X451889Y263326D01*
X452361Y263799D01*
X452617Y264417D01*
Y265085D01*
X452361Y265703D01*
X451889Y266176D01*
X451271Y266432D01*
D02*
G37*
G36*
X443481D02*
X442812D01*
X442194Y266176D01*
X441721Y265703D01*
X441465Y265085D01*
Y264417D01*
X441721Y263799D01*
X442194Y263326D01*
X442812Y263070D01*
X443481D01*
X444099Y263326D01*
X444572Y263799D01*
X444828Y264417D01*
Y265085D01*
X444572Y265703D01*
X444099Y266176D01*
X443481Y266432D01*
D02*
G37*
G36*
X459277Y266348D02*
X458608D01*
X457990Y266092D01*
X457517Y265619D01*
X457261Y265001D01*
Y264332D01*
X457517Y263715D01*
X457990Y263242D01*
X458608Y262986D01*
X459277D01*
X459895Y263242D01*
X460368Y263715D01*
X460624Y264332D01*
Y265001D01*
X460368Y265619D01*
X459895Y266092D01*
X459277Y266348D01*
D02*
G37*
G36*
X447334D02*
X446665D01*
X446047Y266092D01*
X445574Y265619D01*
X445318Y265001D01*
Y264332D01*
X445574Y263715D01*
X446047Y263242D01*
X446665Y262986D01*
X447334D01*
X447952Y263242D01*
X448424Y263715D01*
X448680Y264332D01*
Y265001D01*
X448424Y265619D01*
X447952Y266092D01*
X447334Y266348D01*
D02*
G37*
G36*
X245517Y269065D02*
X244683D01*
X243878Y268850D01*
X243156Y268433D01*
X242567Y267844D01*
X242150Y267122D01*
X241935Y266317D01*
Y265483D01*
X242150Y264678D01*
X242567Y263956D01*
X243156Y263367D01*
X243878Y262950D01*
X244683Y262735D01*
X245517D01*
X246322Y262950D01*
X247044Y263367D01*
X247633Y263956D01*
X248050Y264678D01*
X248265Y265483D01*
Y266317D01*
X248050Y267122D01*
X247633Y267844D01*
X247044Y268433D01*
X246322Y268850D01*
X245517Y269065D01*
D02*
G37*
G36*
X503795Y265324D02*
X503126D01*
X502509Y265069D01*
X502036Y264596D01*
X501780Y263978D01*
Y263309D01*
X502036Y262691D01*
X502509Y262218D01*
X503126Y261962D01*
X503795D01*
X504413Y262218D01*
X504886Y262691D01*
X505142Y263309D01*
Y263978D01*
X504886Y264596D01*
X504413Y265069D01*
X503795Y265324D01*
D02*
G37*
G36*
X307648Y263158D02*
X304495D01*
Y260005D01*
X304737D01*
X305589Y260234D01*
X306354Y260675D01*
X306978Y261300D01*
X307419Y262064D01*
X307648Y262917D01*
Y263158D01*
D02*
G37*
G36*
X304095D02*
X300942D01*
Y262917D01*
X301171Y262064D01*
X301612Y261300D01*
X302237Y260675D01*
X303001Y260234D01*
X303854Y260005D01*
X304095D01*
Y263158D01*
D02*
G37*
G36*
X282057D02*
X278905D01*
Y260005D01*
X282057D01*
Y263158D01*
D02*
G37*
G36*
X278505D02*
X275352D01*
Y260005D01*
X278505D01*
Y263158D01*
D02*
G37*
G36*
X520416Y262591D02*
X519784D01*
X519199Y262348D01*
X518752Y261901D01*
X518509Y261316D01*
Y260684D01*
X518752Y260099D01*
X519199Y259652D01*
X519784Y259409D01*
X520416D01*
X521001Y259652D01*
X521448Y260099D01*
X521691Y260684D01*
Y261316D01*
X521448Y261901D01*
X521001Y262348D01*
X520416Y262591D01*
D02*
G37*
G36*
X374300Y261427D02*
X372300D01*
X371754Y261319D01*
X371291Y261009D01*
X370981Y260546D01*
X370873Y260000D01*
Y258000D01*
X370981Y257454D01*
X371291Y256991D01*
X371754Y256681D01*
X372300Y256573D01*
X374300D01*
X374846Y256681D01*
X375309Y256991D01*
X375619Y257454D01*
X375727Y258000D01*
Y260000D01*
X375619Y260546D01*
X375309Y261009D01*
X374846Y261319D01*
X374300Y261427D01*
D02*
G37*
G36*
X254016Y257591D02*
X253384D01*
X252799Y257348D01*
X252352Y256901D01*
X252110Y256316D01*
Y255684D01*
X252352Y255099D01*
X252799Y254652D01*
X253384Y254410D01*
X254016D01*
X254601Y254652D01*
X255048Y255099D01*
X255291Y255684D01*
Y256316D01*
X255048Y256901D01*
X254601Y257348D01*
X254016Y257591D01*
D02*
G37*
G36*
X438910Y253659D02*
X438241D01*
X437623Y253403D01*
X437150Y252930D01*
X437098Y252805D01*
X436665D01*
X436613Y252930D01*
X436140Y253403D01*
X435523Y253659D01*
X434854D01*
X434236Y253403D01*
X433763Y252930D01*
X433507Y252312D01*
Y251644D01*
X433763Y251026D01*
X434236Y250553D01*
X434854Y250297D01*
X435523D01*
X436140Y250553D01*
X436613Y251026D01*
X436665Y251151D01*
X437098D01*
X437150Y251026D01*
X437623Y250553D01*
X438241Y250297D01*
X438910D01*
X439528Y250553D01*
X440000Y251026D01*
X440256Y251644D01*
Y252312D01*
X440000Y252930D01*
X439528Y253403D01*
X438910Y253659D01*
D02*
G37*
G36*
X245517Y259065D02*
X244683D01*
X243878Y258850D01*
X243156Y258433D01*
X242567Y257844D01*
X242150Y257122D01*
X241935Y256317D01*
Y255483D01*
X242150Y254678D01*
X242567Y253956D01*
X243156Y253367D01*
X243878Y252950D01*
X244683Y252735D01*
X245517D01*
X246322Y252950D01*
X247044Y253367D01*
X247633Y253956D01*
X248050Y254678D01*
X248265Y255483D01*
Y256317D01*
X248050Y257122D01*
X247633Y257844D01*
X247044Y258433D01*
X246322Y258850D01*
X245517Y259065D01*
D02*
G37*
G36*
X415216Y255691D02*
X414584D01*
X413999Y255448D01*
X413552Y255001D01*
X413309Y254416D01*
Y253784D01*
X413552Y253199D01*
X413999Y252752D01*
X414584Y252509D01*
X415216D01*
X415801Y252752D01*
X416248Y253199D01*
X416491Y253784D01*
Y254416D01*
X416248Y255001D01*
X415801Y255448D01*
X415216Y255691D01*
D02*
G37*
G36*
X266316D02*
X265684D01*
X265099Y255448D01*
X264652Y255001D01*
X264409Y254416D01*
Y253784D01*
X264652Y253199D01*
X265099Y252752D01*
X265684Y252509D01*
X266316D01*
X266901Y252752D01*
X267348Y253199D01*
X267590Y253784D01*
Y254416D01*
X267348Y255001D01*
X266901Y255448D01*
X266316Y255691D01*
D02*
G37*
G36*
X427742Y257664D02*
X427074D01*
X426456Y257409D01*
X425983Y256936D01*
X425727Y256318D01*
Y255649D01*
X425983Y255031D01*
X426456Y254558D01*
X427074Y254302D01*
X427742D01*
X428039Y254425D01*
X428199Y254317D01*
X428377Y254132D01*
Y253528D01*
X428633Y252910D01*
X429106Y252437D01*
X429724Y252181D01*
X430393D01*
X431010Y252437D01*
X431483Y252910D01*
X431739Y253528D01*
Y254197D01*
X431483Y254815D01*
X431010Y255287D01*
X430393Y255543D01*
X429724D01*
X429427Y255420D01*
X429267Y255529D01*
X429089Y255713D01*
Y256318D01*
X428833Y256936D01*
X428360Y257409D01*
X427742Y257664D01*
D02*
G37*
G36*
X335900Y256527D02*
X333900D01*
X333354Y256419D01*
X332891Y256109D01*
X332581Y255646D01*
X332473Y255100D01*
Y253100D01*
X332581Y252554D01*
X332891Y252091D01*
X333354Y251781D01*
X333900Y251673D01*
X335900D01*
X336446Y251781D01*
X336909Y252091D01*
X337219Y252554D01*
X337327Y253100D01*
Y255100D01*
X337219Y255646D01*
X336909Y256109D01*
X336446Y256419D01*
X335900Y256527D01*
D02*
G37*
G36*
X287516Y251760D02*
X286884D01*
X286299Y251518D01*
X285852Y251070D01*
X285610Y250486D01*
Y249853D01*
X285852Y249268D01*
X286299Y248821D01*
X286884Y248579D01*
X287516D01*
X288101Y248821D01*
X288548Y249268D01*
X288790Y249853D01*
Y250486D01*
X288548Y251070D01*
X288101Y251518D01*
X287516Y251760D01*
D02*
G37*
G36*
X431316Y251290D02*
X430684D01*
X430099Y251048D01*
X429652Y250601D01*
X429410Y250016D01*
Y249384D01*
X429652Y248799D01*
X430099Y248352D01*
X430684Y248110D01*
X431316D01*
X431901Y248352D01*
X432348Y248799D01*
X432590Y249384D01*
Y250016D01*
X432348Y250601D01*
X431901Y251048D01*
X431316Y251290D01*
D02*
G37*
G36*
X366700Y252227D02*
X364700D01*
X364154Y252119D01*
X363691Y251809D01*
X363381Y251346D01*
X363273Y250800D01*
Y248800D01*
X363381Y248254D01*
X363691Y247791D01*
X364154Y247481D01*
X364700Y247373D01*
X366700D01*
X367246Y247481D01*
X367709Y247791D01*
X368019Y248254D01*
X368127Y248800D01*
Y250800D01*
X368019Y251346D01*
X367709Y251809D01*
X367246Y252119D01*
X366700Y252227D01*
D02*
G37*
G36*
X504716Y248791D02*
X504084D01*
X503499Y248548D01*
X503052Y248101D01*
X502809Y247516D01*
Y246884D01*
X503052Y246299D01*
X503499Y245852D01*
X504084Y245609D01*
X504716D01*
X505301Y245852D01*
X505748Y246299D01*
X505991Y246884D01*
Y247516D01*
X505748Y248101D01*
X505301Y248548D01*
X504716Y248791D01*
D02*
G37*
G36*
X492316Y248590D02*
X491684D01*
X491099Y248348D01*
X490652Y247901D01*
X490410Y247316D01*
Y246684D01*
X490652Y246099D01*
X491099Y245652D01*
X491684Y245409D01*
X492316D01*
X492901Y245652D01*
X493348Y246099D01*
X493590Y246684D01*
Y247316D01*
X493348Y247901D01*
X492901Y248348D01*
X492316Y248590D01*
D02*
G37*
G36*
X469116Y248290D02*
X468484D01*
X467899Y248048D01*
X467452Y247601D01*
X467209Y247016D01*
Y246384D01*
X467452Y245799D01*
X467899Y245352D01*
X468484Y245110D01*
X469116D01*
X469701Y245352D01*
X470148Y245799D01*
X470391Y246384D01*
Y247016D01*
X470148Y247601D01*
X469701Y248048D01*
X469116Y248290D01*
D02*
G37*
G36*
X523316Y248091D02*
X522684D01*
X522099Y247848D01*
X521652Y247401D01*
X521410Y246816D01*
Y246184D01*
X521652Y245599D01*
X522099Y245152D01*
X522684Y244910D01*
X523316D01*
X523901Y245152D01*
X524348Y245599D01*
X524590Y246184D01*
Y246816D01*
X524348Y247401D01*
X523901Y247848D01*
X523316Y248091D01*
D02*
G37*
G36*
X454816Y247791D02*
X454184D01*
X453599Y247548D01*
X453152Y247101D01*
X452910Y246516D01*
Y245884D01*
X453152Y245299D01*
X453599Y244852D01*
X454184Y244609D01*
X454816D01*
X455401Y244852D01*
X455848Y245299D01*
X456090Y245884D01*
Y246516D01*
X455848Y247101D01*
X455401Y247548D01*
X454816Y247791D01*
D02*
G37*
G36*
X448916D02*
X448284D01*
X447699Y247548D01*
X447252Y247101D01*
X447010Y246516D01*
Y245884D01*
X447252Y245299D01*
X447699Y244852D01*
X448284Y244609D01*
X448916D01*
X449501Y244852D01*
X449948Y245299D01*
X450190Y245884D01*
Y246516D01*
X449948Y247101D01*
X449501Y247548D01*
X448916Y247791D01*
D02*
G37*
G36*
X434216Y247590D02*
X433584D01*
X432999Y247348D01*
X432552Y246901D01*
X432309Y246316D01*
Y245684D01*
X432552Y245099D01*
X432999Y244652D01*
X433584Y244409D01*
X434216D01*
X434801Y244652D01*
X435248Y245099D01*
X435491Y245684D01*
Y246316D01*
X435248Y246901D01*
X434801Y247348D01*
X434216Y247590D01*
D02*
G37*
G36*
X596848Y250700D02*
X595952D01*
X595088Y250468D01*
X594312Y250021D01*
X593679Y249388D01*
X593232Y248612D01*
X593000Y247748D01*
Y246852D01*
X593232Y245988D01*
X593679Y245212D01*
X594312Y244579D01*
X595088Y244132D01*
X595952Y243900D01*
X596848D01*
X597712Y244132D01*
X598488Y244579D01*
X599121Y245212D01*
X599568Y245988D01*
X599800Y246852D01*
Y247748D01*
X599568Y248612D01*
X599121Y249388D01*
X598488Y250021D01*
X597712Y250468D01*
X596848Y250700D01*
D02*
G37*
G36*
X586848D02*
X585952D01*
X585088Y250468D01*
X584312Y250021D01*
X583679Y249388D01*
X583232Y248612D01*
X583000Y247748D01*
Y246852D01*
X583232Y245988D01*
X583679Y245212D01*
X584312Y244579D01*
X585088Y244132D01*
X585952Y243900D01*
X586848D01*
X587712Y244132D01*
X588488Y244579D01*
X589121Y245212D01*
X589568Y245988D01*
X589800Y246852D01*
Y247748D01*
X589568Y248612D01*
X589121Y249388D01*
X588488Y250021D01*
X587712Y250468D01*
X586848Y250700D01*
D02*
G37*
G36*
X335800Y248027D02*
X333800D01*
X333254Y247919D01*
X332791Y247609D01*
X332481Y247146D01*
X332373Y246600D01*
Y244600D01*
X332481Y244054D01*
X332791Y243591D01*
X333254Y243281D01*
X333800Y243173D01*
X335800D01*
X336346Y243281D01*
X336809Y243591D01*
X337119Y244054D01*
X337227Y244600D01*
Y246600D01*
X337119Y247146D01*
X336809Y247609D01*
X336346Y247919D01*
X335800Y248027D01*
D02*
G37*
G36*
X245517Y249065D02*
X244683D01*
X243878Y248850D01*
X243156Y248433D01*
X242567Y247844D01*
X242150Y247122D01*
X241935Y246317D01*
Y245483D01*
X242150Y244678D01*
X242567Y243956D01*
X243156Y243367D01*
X243878Y242950D01*
X244683Y242735D01*
X245517D01*
X246322Y242950D01*
X247044Y243367D01*
X247633Y243956D01*
X248050Y244678D01*
X248265Y245483D01*
Y246317D01*
X248050Y247122D01*
X247633Y247844D01*
X247044Y248433D01*
X246322Y248850D01*
X245517Y249065D01*
D02*
G37*
G36*
X304683Y248591D02*
X303907D01*
X303157Y248390D01*
X302485Y248001D01*
X301936Y247452D01*
X301547Y246780D01*
X301346Y246030D01*
Y245253D01*
X301547Y244503D01*
X301936Y243831D01*
X302485Y243282D01*
X303157Y242894D01*
X303907Y242693D01*
X304683D01*
X305434Y242894D01*
X306106Y243282D01*
X306655Y243831D01*
X307043Y244503D01*
X307244Y245253D01*
Y246030D01*
X307043Y246780D01*
X306655Y247452D01*
X306106Y248001D01*
X305434Y248390D01*
X304683Y248591D01*
D02*
G37*
G36*
X279093D02*
X278316D01*
X277567Y248390D01*
X276894Y248001D01*
X276345Y247452D01*
X275957Y246780D01*
X275756Y246030D01*
Y245253D01*
X275957Y244503D01*
X276345Y243831D01*
X276894Y243282D01*
X277567Y242894D01*
X278316Y242693D01*
X279093D01*
X279843Y242894D01*
X280515Y243282D01*
X281064Y243831D01*
X281453Y244503D01*
X281653Y245253D01*
Y246030D01*
X281453Y246780D01*
X281064Y247452D01*
X280515Y248001D01*
X279843Y248390D01*
X279093Y248591D01*
D02*
G37*
G36*
X508616Y245690D02*
X507984D01*
X507399Y245448D01*
X506952Y245001D01*
X506709Y244416D01*
Y243784D01*
X506952Y243199D01*
X507399Y242752D01*
X507984Y242510D01*
X508616D01*
X509201Y242752D01*
X509648Y243199D01*
X509891Y243784D01*
Y244416D01*
X509648Y245001D01*
X509201Y245448D01*
X508616Y245690D01*
D02*
G37*
G36*
X245567Y239450D02*
X245300D01*
Y236100D01*
X248650D01*
Y236367D01*
X248408Y237270D01*
X247940Y238080D01*
X247280Y238740D01*
X246470Y239208D01*
X245567Y239450D01*
D02*
G37*
G36*
X244900D02*
X244633D01*
X243730Y239208D01*
X242920Y238740D01*
X242260Y238080D01*
X241792Y237270D01*
X241550Y236367D01*
Y236100D01*
X244900D01*
Y239450D01*
D02*
G37*
G36*
X596848Y240700D02*
X595952D01*
X595088Y240468D01*
X594312Y240021D01*
X593679Y239388D01*
X593232Y238612D01*
X593000Y237748D01*
Y236852D01*
X593232Y235988D01*
X593679Y235212D01*
X594312Y234579D01*
X595088Y234132D01*
X595952Y233900D01*
X596848D01*
X597712Y234132D01*
X598488Y234579D01*
X599121Y235212D01*
X599568Y235988D01*
X599800Y236852D01*
Y237748D01*
X599568Y238612D01*
X599121Y239388D01*
X598488Y240021D01*
X597712Y240468D01*
X596848Y240700D01*
D02*
G37*
G36*
X586848D02*
X585952D01*
X585088Y240468D01*
X584312Y240021D01*
X583679Y239388D01*
X583232Y238612D01*
X583000Y237748D01*
Y236852D01*
X583232Y235988D01*
X583679Y235212D01*
X584312Y234579D01*
X585088Y234132D01*
X585952Y233900D01*
X586848D01*
X587712Y234132D01*
X588488Y234579D01*
X589121Y235212D01*
X589568Y235988D01*
X589800Y236852D01*
Y237748D01*
X589568Y238612D01*
X589121Y239388D01*
X588488Y240021D01*
X587712Y240468D01*
X586848Y240700D01*
D02*
G37*
G36*
X248650Y235700D02*
X245300D01*
Y232350D01*
X245567D01*
X246470Y232592D01*
X247280Y233060D01*
X247940Y233720D01*
X248408Y234530D01*
X248650Y235433D01*
Y235700D01*
D02*
G37*
G36*
X244900D02*
X241550D01*
Y235433D01*
X241792Y234530D01*
X242260Y233720D01*
X242920Y233060D01*
X243730Y232592D01*
X244633Y232350D01*
X244900D01*
Y235700D01*
D02*
G37*
G36*
X596848Y230700D02*
X595952D01*
X595088Y230468D01*
X594312Y230021D01*
X593679Y229388D01*
X593232Y228612D01*
X593000Y227748D01*
Y226852D01*
X593232Y225988D01*
X593679Y225212D01*
X594312Y224579D01*
X595088Y224132D01*
X595952Y223900D01*
X596848D01*
X597712Y224132D01*
X598488Y224579D01*
X599121Y225212D01*
X599568Y225988D01*
X599800Y226852D01*
Y227748D01*
X599568Y228612D01*
X599121Y229388D01*
X598488Y230021D01*
X597712Y230468D01*
X596848Y230700D01*
D02*
G37*
G36*
X586848D02*
X585952D01*
X585088Y230468D01*
X584312Y230021D01*
X583679Y229388D01*
X583232Y228612D01*
X583000Y227748D01*
Y226852D01*
X583232Y225988D01*
X583679Y225212D01*
X584312Y224579D01*
X585088Y224132D01*
X585952Y223900D01*
X586848D01*
X587712Y224132D01*
X588488Y224579D01*
X589121Y225212D01*
X589568Y225988D01*
X589800Y226852D01*
Y227748D01*
X589568Y228612D01*
X589121Y229388D01*
X588488Y230021D01*
X587712Y230468D01*
X586848Y230700D01*
D02*
G37*
G36*
X596848Y220700D02*
X595952D01*
X595088Y220468D01*
X594312Y220021D01*
X593679Y219388D01*
X593232Y218612D01*
X593000Y217748D01*
Y216852D01*
X593232Y215988D01*
X593679Y215212D01*
X594312Y214579D01*
X595088Y214132D01*
X595952Y213900D01*
X596848D01*
X597712Y214132D01*
X598488Y214579D01*
X599121Y215212D01*
X599568Y215988D01*
X599800Y216852D01*
Y217748D01*
X599568Y218612D01*
X599121Y219388D01*
X598488Y220021D01*
X597712Y220468D01*
X596848Y220700D01*
D02*
G37*
G36*
X586848D02*
X585952D01*
X585088Y220468D01*
X584312Y220021D01*
X583679Y219388D01*
X583232Y218612D01*
X583000Y217748D01*
Y216852D01*
X583232Y215988D01*
X583679Y215212D01*
X584312Y214579D01*
X585088Y214132D01*
X585952Y213900D01*
X586848D01*
X587712Y214132D01*
X588488Y214579D01*
X589121Y215212D01*
X589568Y215988D01*
X589800Y216852D01*
Y217748D01*
X589568Y218612D01*
X589121Y219388D01*
X588488Y220021D01*
X587712Y220468D01*
X586848Y220700D01*
D02*
G37*
G36*
X373448Y216400D02*
X372552D01*
X371688Y216168D01*
X370912Y215721D01*
X370279Y215088D01*
X369832Y214312D01*
X369600Y213448D01*
Y212552D01*
X369832Y211688D01*
X370279Y210912D01*
X370912Y210279D01*
X371688Y209832D01*
X372552Y209600D01*
X373448D01*
X374312Y209832D01*
X375088Y210279D01*
X375721Y210912D01*
X376168Y211688D01*
X376400Y212552D01*
Y213448D01*
X376168Y214312D01*
X375721Y215088D01*
X375088Y215721D01*
X374312Y216168D01*
X373448Y216400D01*
D02*
G37*
G36*
X363448D02*
X362552D01*
X361688Y216168D01*
X360912Y215721D01*
X360279Y215088D01*
X359832Y214312D01*
X359600Y213448D01*
Y212552D01*
X359832Y211688D01*
X360279Y210912D01*
X360912Y210279D01*
X361688Y209832D01*
X362552Y209600D01*
X363448D01*
X364312Y209832D01*
X365088Y210279D01*
X365721Y210912D01*
X366168Y211688D01*
X366400Y212552D01*
Y213448D01*
X366168Y214312D01*
X365721Y215088D01*
X365088Y215721D01*
X364312Y216168D01*
X363448Y216400D01*
D02*
G37*
G36*
X353448D02*
X352552D01*
X351688Y216168D01*
X350912Y215721D01*
X350279Y215088D01*
X349832Y214312D01*
X349600Y213448D01*
Y212552D01*
X349832Y211688D01*
X350279Y210912D01*
X350912Y210279D01*
X351688Y209832D01*
X352552Y209600D01*
X353448D01*
X354312Y209832D01*
X355088Y210279D01*
X355721Y210912D01*
X356168Y211688D01*
X356400Y212552D01*
Y213448D01*
X356168Y214312D01*
X355721Y215088D01*
X355088Y215721D01*
X354312Y216168D01*
X353448Y216400D01*
D02*
G37*
G36*
X343448D02*
X342552D01*
X341688Y216168D01*
X340912Y215721D01*
X340279Y215088D01*
X339832Y214312D01*
X339600Y213448D01*
Y212552D01*
X339832Y211688D01*
X340279Y210912D01*
X340912Y210279D01*
X341688Y209832D01*
X342552Y209600D01*
X343448D01*
X344312Y209832D01*
X345088Y210279D01*
X345721Y210912D01*
X346168Y211688D01*
X346400Y212552D01*
Y213448D01*
X346168Y214312D01*
X345721Y215088D01*
X345088Y215721D01*
X344312Y216168D01*
X343448Y216400D01*
D02*
G37*
G36*
X333448D02*
X332552D01*
X331688Y216168D01*
X330912Y215721D01*
X330279Y215088D01*
X329832Y214312D01*
X329600Y213448D01*
Y212552D01*
X329832Y211688D01*
X330279Y210912D01*
X330912Y210279D01*
X331688Y209832D01*
X332552Y209600D01*
X333448D01*
X334312Y209832D01*
X335088Y210279D01*
X335721Y210912D01*
X336168Y211688D01*
X336400Y212552D01*
Y213448D01*
X336168Y214312D01*
X335721Y215088D01*
X335088Y215721D01*
X334312Y216168D01*
X333448Y216400D01*
D02*
G37*
G36*
X323448D02*
X322552D01*
X321688Y216168D01*
X320912Y215721D01*
X320279Y215088D01*
X319832Y214312D01*
X319600Y213448D01*
Y212552D01*
X319832Y211688D01*
X320279Y210912D01*
X320912Y210279D01*
X321688Y209832D01*
X322552Y209600D01*
X323448D01*
X324312Y209832D01*
X325088Y210279D01*
X325721Y210912D01*
X326168Y211688D01*
X326400Y212552D01*
Y213448D01*
X326168Y214312D01*
X325721Y215088D01*
X325088Y215721D01*
X324312Y216168D01*
X323448Y216400D01*
D02*
G37*
G36*
X535848Y216200D02*
X534952D01*
X534088Y215968D01*
X533312Y215521D01*
X532679Y214888D01*
X532232Y214112D01*
X532000Y213248D01*
Y212352D01*
X532232Y211488D01*
X532679Y210712D01*
X533312Y210079D01*
X534088Y209632D01*
X534952Y209400D01*
X535848D01*
X536712Y209632D01*
X537488Y210079D01*
X538121Y210712D01*
X538568Y211488D01*
X538800Y212352D01*
Y213248D01*
X538568Y214112D01*
X538121Y214888D01*
X537488Y215521D01*
X536712Y215968D01*
X535848Y216200D01*
D02*
G37*
G36*
X525848D02*
X524952D01*
X524088Y215968D01*
X523312Y215521D01*
X522679Y214888D01*
X522232Y214112D01*
X522000Y213248D01*
Y212352D01*
X522232Y211488D01*
X522679Y210712D01*
X523312Y210079D01*
X524088Y209632D01*
X524952Y209400D01*
X525848D01*
X526712Y209632D01*
X527488Y210079D01*
X528121Y210712D01*
X528568Y211488D01*
X528800Y212352D01*
Y213248D01*
X528568Y214112D01*
X528121Y214888D01*
X527488Y215521D01*
X526712Y215968D01*
X525848Y216200D01*
D02*
G37*
G36*
X515848D02*
X514952D01*
X514088Y215968D01*
X513312Y215521D01*
X512679Y214888D01*
X512232Y214112D01*
X512000Y213248D01*
Y212352D01*
X512232Y211488D01*
X512679Y210712D01*
X513312Y210079D01*
X514088Y209632D01*
X514952Y209400D01*
X515848D01*
X516712Y209632D01*
X517488Y210079D01*
X518121Y210712D01*
X518568Y211488D01*
X518800Y212352D01*
Y213248D01*
X518568Y214112D01*
X518121Y214888D01*
X517488Y215521D01*
X516712Y215968D01*
X515848Y216200D01*
D02*
G37*
G36*
X505848D02*
X504952D01*
X504088Y215968D01*
X503312Y215521D01*
X502679Y214888D01*
X502232Y214112D01*
X502000Y213248D01*
Y212352D01*
X502232Y211488D01*
X502679Y210712D01*
X503312Y210079D01*
X504088Y209632D01*
X504952Y209400D01*
X505848D01*
X506712Y209632D01*
X507488Y210079D01*
X508121Y210712D01*
X508568Y211488D01*
X508800Y212352D01*
Y213248D01*
X508568Y214112D01*
X508121Y214888D01*
X507488Y215521D01*
X506712Y215968D01*
X505848Y216200D01*
D02*
G37*
G36*
X495848D02*
X494952D01*
X494088Y215968D01*
X493312Y215521D01*
X492679Y214888D01*
X492232Y214112D01*
X492000Y213248D01*
Y212352D01*
X492232Y211488D01*
X492679Y210712D01*
X493312Y210079D01*
X494088Y209632D01*
X494952Y209400D01*
X495848D01*
X496712Y209632D01*
X497488Y210079D01*
X498121Y210712D01*
X498568Y211488D01*
X498800Y212352D01*
Y213248D01*
X498568Y214112D01*
X498121Y214888D01*
X497488Y215521D01*
X496712Y215968D01*
X495848Y216200D01*
D02*
G37*
G36*
X485848D02*
X484952D01*
X484088Y215968D01*
X483312Y215521D01*
X482679Y214888D01*
X482232Y214112D01*
X482000Y213248D01*
Y212352D01*
X482232Y211488D01*
X482679Y210712D01*
X483312Y210079D01*
X484088Y209632D01*
X484952Y209400D01*
X485848D01*
X486712Y209632D01*
X487488Y210079D01*
X488121Y210712D01*
X488568Y211488D01*
X488800Y212352D01*
Y213248D01*
X488568Y214112D01*
X488121Y214888D01*
X487488Y215521D01*
X486712Y215968D01*
X485848Y216200D01*
D02*
G37*
G36*
X560512Y216417D02*
X559288D01*
X558087Y216178D01*
X556955Y215709D01*
X555937Y215029D01*
X555071Y214163D01*
X554391Y213145D01*
X553922Y212013D01*
X553684Y210812D01*
Y209588D01*
X553922Y208387D01*
X554391Y207255D01*
X555071Y206237D01*
X555937Y205371D01*
X556955Y204691D01*
X558087Y204222D01*
X559288Y203983D01*
X560512D01*
X561713Y204222D01*
X562845Y204691D01*
X563863Y205371D01*
X564729Y206237D01*
X565409Y207255D01*
X565878Y208387D01*
X566117Y209588D01*
Y210812D01*
X565878Y212013D01*
X565409Y213145D01*
X564729Y214163D01*
X563863Y215029D01*
X562845Y215709D01*
X561713Y216178D01*
X560512Y216417D01*
D02*
G37*
G36*
X596848Y210700D02*
X595952D01*
X595088Y210468D01*
X594312Y210021D01*
X593679Y209388D01*
X593232Y208612D01*
X593000Y207748D01*
Y206852D01*
X593232Y205988D01*
X593679Y205212D01*
X594312Y204579D01*
X595088Y204132D01*
X595952Y203900D01*
X596848D01*
X597712Y204132D01*
X598488Y204579D01*
X599121Y205212D01*
X599568Y205988D01*
X599800Y206852D01*
Y207748D01*
X599568Y208612D01*
X599121Y209388D01*
X598488Y210021D01*
X597712Y210468D01*
X596848Y210700D01*
D02*
G37*
G36*
X586848D02*
X585952D01*
X585088Y210468D01*
X584312Y210021D01*
X583679Y209388D01*
X583232Y208612D01*
X583000Y207748D01*
Y206852D01*
X583232Y205988D01*
X583679Y205212D01*
X584312Y204579D01*
X585088Y204132D01*
X585952Y203900D01*
X586848D01*
X587712Y204132D01*
X588488Y204579D01*
X589121Y205212D01*
X589568Y205988D01*
X589800Y206852D01*
Y207748D01*
X589568Y208612D01*
X589121Y209388D01*
X588488Y210021D01*
X587712Y210468D01*
X586848Y210700D01*
D02*
G37*
G36*
X270512Y216317D02*
X269288D01*
X268087Y216078D01*
X266955Y215609D01*
X265937Y214929D01*
X265071Y214063D01*
X264391Y213045D01*
X263922Y211913D01*
X263684Y210712D01*
Y209488D01*
X263922Y208287D01*
X264391Y207155D01*
X265071Y206137D01*
X265937Y205271D01*
X266955Y204591D01*
X268087Y204122D01*
X269288Y203884D01*
X270512D01*
X271713Y204122D01*
X272845Y204591D01*
X273863Y205271D01*
X274729Y206137D01*
X275409Y207155D01*
X275878Y208287D01*
X276116Y209488D01*
Y210712D01*
X275878Y211913D01*
X275409Y213045D01*
X274729Y214063D01*
X273863Y214929D01*
X272845Y215609D01*
X271713Y216078D01*
X270512Y216317D01*
D02*
G37*
G36*
X373448Y206400D02*
X372552D01*
X371688Y206168D01*
X370912Y205721D01*
X370279Y205088D01*
X369832Y204312D01*
X369600Y203448D01*
Y202552D01*
X369832Y201688D01*
X370279Y200912D01*
X370912Y200279D01*
X371688Y199832D01*
X372552Y199600D01*
X373448D01*
X374312Y199832D01*
X375088Y200279D01*
X375721Y200912D01*
X376168Y201688D01*
X376400Y202552D01*
Y203448D01*
X376168Y204312D01*
X375721Y205088D01*
X375088Y205721D01*
X374312Y206168D01*
X373448Y206400D01*
D02*
G37*
G36*
X363448D02*
X362552D01*
X361688Y206168D01*
X360912Y205721D01*
X360279Y205088D01*
X359832Y204312D01*
X359600Y203448D01*
Y202552D01*
X359832Y201688D01*
X360279Y200912D01*
X360912Y200279D01*
X361688Y199832D01*
X362552Y199600D01*
X363448D01*
X364312Y199832D01*
X365088Y200279D01*
X365721Y200912D01*
X366168Y201688D01*
X366400Y202552D01*
Y203448D01*
X366168Y204312D01*
X365721Y205088D01*
X365088Y205721D01*
X364312Y206168D01*
X363448Y206400D01*
D02*
G37*
G36*
X353448D02*
X352552D01*
X351688Y206168D01*
X350912Y205721D01*
X350279Y205088D01*
X349832Y204312D01*
X349600Y203448D01*
Y202552D01*
X349832Y201688D01*
X350279Y200912D01*
X350912Y200279D01*
X351688Y199832D01*
X352552Y199600D01*
X353448D01*
X354312Y199832D01*
X355088Y200279D01*
X355721Y200912D01*
X356168Y201688D01*
X356400Y202552D01*
Y203448D01*
X356168Y204312D01*
X355721Y205088D01*
X355088Y205721D01*
X354312Y206168D01*
X353448Y206400D01*
D02*
G37*
G36*
X343448D02*
X342552D01*
X341688Y206168D01*
X340912Y205721D01*
X340279Y205088D01*
X339832Y204312D01*
X339600Y203448D01*
Y202552D01*
X339832Y201688D01*
X340279Y200912D01*
X340912Y200279D01*
X341688Y199832D01*
X342552Y199600D01*
X343448D01*
X344312Y199832D01*
X345088Y200279D01*
X345721Y200912D01*
X346168Y201688D01*
X346400Y202552D01*
Y203448D01*
X346168Y204312D01*
X345721Y205088D01*
X345088Y205721D01*
X344312Y206168D01*
X343448Y206400D01*
D02*
G37*
G36*
X333448D02*
X332552D01*
X331688Y206168D01*
X330912Y205721D01*
X330279Y205088D01*
X329832Y204312D01*
X329600Y203448D01*
Y202552D01*
X329832Y201688D01*
X330279Y200912D01*
X330912Y200279D01*
X331688Y199832D01*
X332552Y199600D01*
X333448D01*
X334312Y199832D01*
X335088Y200279D01*
X335721Y200912D01*
X336168Y201688D01*
X336400Y202552D01*
Y203448D01*
X336168Y204312D01*
X335721Y205088D01*
X335088Y205721D01*
X334312Y206168D01*
X333448Y206400D01*
D02*
G37*
G36*
X323448D02*
X322552D01*
X321688Y206168D01*
X320912Y205721D01*
X320279Y205088D01*
X319832Y204312D01*
X319600Y203448D01*
Y202552D01*
X319832Y201688D01*
X320279Y200912D01*
X320912Y200279D01*
X321688Y199832D01*
X322552Y199600D01*
X323448D01*
X324312Y199832D01*
X325088Y200279D01*
X325721Y200912D01*
X326168Y201688D01*
X326400Y202552D01*
Y203448D01*
X326168Y204312D01*
X325721Y205088D01*
X325088Y205721D01*
X324312Y206168D01*
X323448Y206400D01*
D02*
G37*
G36*
X535848Y206200D02*
X534952D01*
X534088Y205968D01*
X533312Y205521D01*
X532679Y204888D01*
X532232Y204112D01*
X532000Y203248D01*
Y202352D01*
X532232Y201488D01*
X532679Y200712D01*
X533312Y200079D01*
X534088Y199632D01*
X534952Y199400D01*
X535848D01*
X536712Y199632D01*
X537488Y200079D01*
X538121Y200712D01*
X538568Y201488D01*
X538800Y202352D01*
Y203248D01*
X538568Y204112D01*
X538121Y204888D01*
X537488Y205521D01*
X536712Y205968D01*
X535848Y206200D01*
D02*
G37*
G36*
X525848D02*
X524952D01*
X524088Y205968D01*
X523312Y205521D01*
X522679Y204888D01*
X522232Y204112D01*
X522000Y203248D01*
Y202352D01*
X522232Y201488D01*
X522679Y200712D01*
X523312Y200079D01*
X524088Y199632D01*
X524952Y199400D01*
X525848D01*
X526712Y199632D01*
X527488Y200079D01*
X528121Y200712D01*
X528568Y201488D01*
X528800Y202352D01*
Y203248D01*
X528568Y204112D01*
X528121Y204888D01*
X527488Y205521D01*
X526712Y205968D01*
X525848Y206200D01*
D02*
G37*
G36*
X515848D02*
X514952D01*
X514088Y205968D01*
X513312Y205521D01*
X512679Y204888D01*
X512232Y204112D01*
X512000Y203248D01*
Y202352D01*
X512232Y201488D01*
X512679Y200712D01*
X513312Y200079D01*
X514088Y199632D01*
X514952Y199400D01*
X515848D01*
X516712Y199632D01*
X517488Y200079D01*
X518121Y200712D01*
X518568Y201488D01*
X518800Y202352D01*
Y203248D01*
X518568Y204112D01*
X518121Y204888D01*
X517488Y205521D01*
X516712Y205968D01*
X515848Y206200D01*
D02*
G37*
G36*
X505848D02*
X504952D01*
X504088Y205968D01*
X503312Y205521D01*
X502679Y204888D01*
X502232Y204112D01*
X502000Y203248D01*
Y202352D01*
X502232Y201488D01*
X502679Y200712D01*
X503312Y200079D01*
X504088Y199632D01*
X504952Y199400D01*
X505848D01*
X506712Y199632D01*
X507488Y200079D01*
X508121Y200712D01*
X508568Y201488D01*
X508800Y202352D01*
Y203248D01*
X508568Y204112D01*
X508121Y204888D01*
X507488Y205521D01*
X506712Y205968D01*
X505848Y206200D01*
D02*
G37*
G36*
X495848D02*
X494952D01*
X494088Y205968D01*
X493312Y205521D01*
X492679Y204888D01*
X492232Y204112D01*
X492000Y203248D01*
Y202352D01*
X492232Y201488D01*
X492679Y200712D01*
X493312Y200079D01*
X494088Y199632D01*
X494952Y199400D01*
X495848D01*
X496712Y199632D01*
X497488Y200079D01*
X498121Y200712D01*
X498568Y201488D01*
X498800Y202352D01*
Y203248D01*
X498568Y204112D01*
X498121Y204888D01*
X497488Y205521D01*
X496712Y205968D01*
X495848Y206200D01*
D02*
G37*
G36*
X485848D02*
X484952D01*
X484088Y205968D01*
X483312Y205521D01*
X482679Y204888D01*
X482232Y204112D01*
X482000Y203248D01*
Y202352D01*
X482232Y201488D01*
X482679Y200712D01*
X483312Y200079D01*
X484088Y199632D01*
X484952Y199400D01*
X485848D01*
X486712Y199632D01*
X487488Y200079D01*
X488121Y200712D01*
X488568Y201488D01*
X488800Y202352D01*
Y203248D01*
X488568Y204112D01*
X488121Y204888D01*
X487488Y205521D01*
X486712Y205968D01*
X485848Y206200D01*
D02*
G37*
G36*
X596848Y200700D02*
X595952D01*
X595088Y200468D01*
X594312Y200021D01*
X593679Y199388D01*
X593232Y198612D01*
X593000Y197748D01*
Y196852D01*
X593232Y195988D01*
X593679Y195212D01*
X594312Y194579D01*
X595088Y194132D01*
X595952Y193900D01*
X596848D01*
X597712Y194132D01*
X598488Y194579D01*
X599121Y195212D01*
X599568Y195988D01*
X599800Y196852D01*
Y197748D01*
X599568Y198612D01*
X599121Y199388D01*
X598488Y200021D01*
X597712Y200468D01*
X596848Y200700D01*
D02*
G37*
G36*
X586848D02*
X585952D01*
X585088Y200468D01*
X584312Y200021D01*
X583679Y199388D01*
X583232Y198612D01*
X583000Y197748D01*
Y196852D01*
X583232Y195988D01*
X583679Y195212D01*
X584312Y194579D01*
X585088Y194132D01*
X585952Y193900D01*
X586848D01*
X587712Y194132D01*
X588488Y194579D01*
X589121Y195212D01*
X589568Y195988D01*
X589800Y196852D01*
Y197748D01*
X589568Y198612D01*
X589121Y199388D01*
X588488Y200021D01*
X587712Y200468D01*
X586848Y200700D01*
D02*
G37*
%LPD*%
D122*
X510000Y450000D02*
D03*
X270000Y390000D02*
D03*
X240000Y510000D02*
D03*
X450000Y450000D02*
D03*
X375000Y540000D02*
D03*
X480000Y510000D02*
D03*
X300000Y450000D02*
D03*
X450000Y510000D02*
D03*
X270000D02*
D03*
X285000Y480000D02*
D03*
X360000Y450000D02*
D03*
X510000Y510000D02*
D03*
X465000Y540000D02*
D03*
X375000Y420000D02*
D03*
X345000Y540000D02*
D03*
X480000Y450000D02*
D03*
X405000Y540000D02*
D03*
X555000D02*
D03*
X315000D02*
D03*
Y420000D02*
D03*
X285000Y540000D02*
D03*
X330000Y450000D02*
D03*
X345000Y420000D02*
D03*
X435000Y480000D02*
D03*
X270000Y450000D02*
D03*
X420000Y510000D02*
D03*
X525000Y540000D02*
D03*
X495000Y480000D02*
D03*
X435000Y540000D02*
D03*
X495000D02*
D03*
X465000Y480000D02*
D03*
X390000Y510000D02*
D03*
X270461Y356761D02*
D03*
X261900Y367300D02*
D03*
X255500Y399400D02*
D03*
X247700Y399800D02*
D03*
D124*
X278705Y263358D02*
D03*
D125*
X304295D02*
D03*
X588700Y344158D02*
D03*
D127*
X262000Y355500D02*
D03*
X251700Y391100D02*
D03*
D128*
X245100Y235900D02*
D03*
D132*
X273500Y479500D02*
D03*
X253500D02*
D03*
Y459500D02*
D03*
X273500D02*
D03*
D134*
X272200Y297400D02*
D03*
X257500Y304600D02*
D03*
X411700Y489200D02*
D03*
Y492700D02*
D03*
X408200Y489300D02*
D03*
Y492700D02*
D03*
X393500Y489500D02*
D03*
X396000Y492500D02*
D03*
X425500Y495500D02*
D03*
X423000Y501000D02*
D03*
X417000Y500500D02*
D03*
X595300Y471800D02*
D03*
X292100Y506700D02*
D03*
X592600Y494400D02*
D03*
X595100Y482800D02*
D03*
X366600Y497400D02*
D03*
X366700Y493400D02*
D03*
X349900Y471600D02*
D03*
X366700Y487300D02*
D03*
X349500Y501500D02*
D03*
X344500D02*
D03*
X362800Y501400D02*
D03*
X314000Y505500D02*
D03*
X339500Y501500D02*
D03*
X309000Y509500D02*
D03*
X352888Y468112D02*
D03*
X598800Y488700D02*
D03*
X593400Y507800D02*
D03*
X599500Y501100D02*
D03*
X362500Y471000D02*
D03*
X366500Y474500D02*
D03*
X335800Y497500D02*
D03*
D135*
X495462Y265085D02*
D03*
X429297Y325906D02*
D03*
X462197Y332588D02*
D03*
X466700Y271000D02*
D03*
X439125Y266851D02*
D03*
X431742Y272265D02*
D03*
X428880Y269403D02*
D03*
X430072Y302549D02*
D03*
X431000Y314095D02*
D03*
X428700Y310158D02*
D03*
X528160Y341050D02*
D03*
X482400Y333500D02*
D03*
X465500Y374500D02*
D03*
X456500Y367600D02*
D03*
X476500D02*
D03*
X472400Y366600D02*
D03*
X534200Y317168D02*
D03*
X513651Y329142D02*
D03*
X528200Y321100D02*
D03*
X524074Y238400D02*
D03*
X504283Y241272D02*
D03*
X472040Y242553D02*
D03*
X487788Y241272D02*
D03*
X489855Y237728D02*
D03*
X467315Y239985D02*
D03*
X454200Y238500D02*
D03*
X448200Y238400D02*
D03*
X388500Y477700D02*
D03*
X535905Y466995D02*
D03*
X555117Y454100D02*
D03*
X575327Y452800D02*
D03*
X548850Y454500D02*
D03*
X396500Y277922D02*
D03*
X528000Y284100D02*
D03*
X434000Y425500D02*
D03*
X414500Y238500D02*
D03*
X391000Y243500D02*
D03*
X270500Y410000D02*
D03*
X396900Y292700D02*
D03*
X397200Y302600D02*
D03*
X396500Y311900D02*
D03*
X397300Y316700D02*
D03*
X566400Y512800D02*
D03*
X528100Y474200D02*
D03*
X267700Y413800D02*
D03*
X563500Y451400D02*
D03*
X599400Y344500D02*
D03*
X386335Y449997D02*
D03*
X536600Y454500D02*
D03*
X541200Y507300D02*
D03*
X298600Y512200D02*
D03*
X386100Y461325D02*
D03*
X388500Y465700D02*
D03*
X534200Y331600D02*
D03*
Y301300D02*
D03*
X433800Y238400D02*
D03*
X430700Y242100D02*
D03*
X402700Y241700D02*
D03*
X349200Y448000D02*
D03*
X349000Y437600D02*
D03*
Y466500D02*
D03*
X491200Y367500D02*
D03*
X404100Y363100D02*
D03*
X418200Y363000D02*
D03*
X436800Y337400D02*
D03*
X508400Y238400D02*
D03*
X528400Y260900D02*
D03*
X531100Y290800D02*
D03*
X267700Y424700D02*
D03*
X339000Y469500D02*
D03*
X356500Y481000D02*
D03*
X255400Y483800D02*
D03*
X243400Y417700D02*
D03*
X335500Y474500D02*
D03*
X351500Y481000D02*
D03*
X335500Y481500D02*
D03*
X346000Y481000D02*
D03*
X349100Y454600D02*
D03*
X430600Y431300D02*
D03*
X430500Y443800D02*
D03*
X593600Y514953D02*
D03*
X593500Y519600D02*
D03*
X595300Y525900D02*
D03*
X302700Y376000D02*
D03*
X303300Y384900D02*
D03*
X265500Y291400D02*
D03*
X265600Y281900D02*
D03*
X270200Y263100D02*
D03*
X279100Y269300D02*
D03*
X312900Y238500D02*
D03*
X329800D02*
D03*
X576600Y344500D02*
D03*
X501900Y280600D02*
D03*
X502200Y298400D02*
D03*
X428200Y420400D02*
D03*
X439900Y366000D02*
D03*
X304500Y269300D02*
D03*
X310100Y263200D02*
D03*
X270700Y398700D02*
D03*
X256700Y416300D02*
D03*
X247500Y411700D02*
D03*
X273700Y454800D02*
D03*
X257000Y455700D02*
D03*
X273600Y484200D02*
D03*
X245100Y227100D02*
D03*
X253500Y235800D02*
D03*
X401300Y432800D02*
D03*
X401500Y443400D02*
D03*
X373700Y515200D02*
D03*
X363200D02*
D03*
X279400Y462400D02*
D03*
X290500D02*
D03*
X320000Y471500D02*
D03*
X331000Y471100D02*
D03*
X376400Y441000D02*
D03*
X362400Y440800D02*
D03*
X588700Y533100D02*
D03*
X571100Y510100D02*
D03*
X576800Y506000D02*
D03*
X529900Y513500D02*
D03*
X540900Y513800D02*
D03*
X493400Y500500D02*
D03*
X480300Y500400D02*
D03*
X445500Y499900D02*
D03*
X460700Y499700D02*
D03*
X355100Y521700D02*
D03*
X351500Y491500D02*
D03*
X356500D02*
D03*
Y486000D02*
D03*
X350000Y521500D02*
D03*
X342300Y515000D02*
D03*
X331800Y514800D02*
D03*
X351400Y486100D02*
D03*
X346000Y491500D02*
D03*
Y486000D02*
D03*
M02*
