G04*
G04 #@! TF.GenerationSoftware,Altium Limited,Altium Designer,25.1.2 (22)*
G04*
G04 Layer_Physical_Order=1*
G04 Layer_Color=255*
%FSLAX25Y25*%
%MOIN*%
G70*
G04*
G04 #@! TF.SameCoordinates,893A5706-FB09-4F9C-B22B-F6CD489B59D5*
G04*
G04*
G04 #@! TF.FilePolarity,Positive*
G04*
G01*
G75*
%ADD10C,0.02000*%
%ADD13C,0.00600*%
%ADD15C,0.00700*%
%ADD16C,0.01500*%
%ADD17C,0.00800*%
%ADD19C,0.01000*%
%ADD20R,0.05315X0.07284*%
%ADD21R,0.03150X0.03150*%
%ADD22R,0.05906X0.05512*%
%ADD23R,0.05118X0.02756*%
%ADD24R,0.05512X0.05906*%
%ADD25R,0.03937X0.05118*%
%ADD26R,0.03956X0.10261*%
%ADD27R,0.01000X0.00600*%
%ADD28R,0.05118X0.03937*%
%ADD29R,0.05800X0.00900*%
%ADD30R,0.00900X0.05800*%
%ADD31R,0.07284X0.05315*%
%ADD32R,0.04724X0.05787*%
%ADD34R,0.05512X0.01772*%
%ADD35R,0.06890X0.06890*%
%ADD36R,0.05700X0.04400*%
%ADD37R,0.05938X0.05534*%
%ADD38R,0.03150X0.04921*%
%ADD39R,0.05137X0.05733*%
%ADD40R,0.05100X0.03300*%
%ADD41R,0.05709X0.04528*%
%ADD42R,0.04921X0.03937*%
%ADD43R,0.06127X0.05924*%
%ADD44R,0.04724X0.05709*%
%ADD45R,0.02756X0.05118*%
%ADD46R,0.05357X0.04558*%
%ADD47R,0.04921X0.02362*%
%ADD48R,0.05709X0.04724*%
%ADD49R,0.01900X0.04400*%
%ADD50R,0.01900X0.05900*%
%ADD51R,0.03740X0.02559*%
%ADD52R,0.05669X0.01732*%
%ADD53R,0.04724X0.04724*%
%ADD54R,0.00600X0.01000*%
%ADD55R,0.01024X0.01378*%
%ADD56R,0.05527X0.06922*%
%ADD57R,0.05118X0.03937*%
%ADD58R,0.04400X0.01900*%
%ADD59R,0.10261X0.03956*%
%ADD60R,0.05700X0.02800*%
%ADD61R,0.04400X0.05700*%
%ADD62R,0.03937X0.05118*%
%ADD77R,0.15300X0.15300*%
%ADD83C,0.06200*%
%ADD98R,0.03750X0.01200*%
%ADD99R,0.01200X0.03750*%
%ADD100R,0.09500X0.09500*%
%ADD101R,0.02400X0.01800*%
%ADD102R,0.02400X0.02400*%
%ADD103R,0.01800X0.02400*%
%ADD104C,0.00900*%
%ADD105C,0.01200*%
%ADD106C,0.01300*%
%ADD107C,0.01100*%
%ADD108C,0.01900*%
%ADD109C,0.01700*%
%ADD110C,0.02100*%
%ADD111C,0.02300*%
%ADD112C,0.02500*%
%ADD113C,0.01350*%
%ADD114C,0.00909*%
%ADD115C,0.01303*%
%ADD116C,0.01400*%
%ADD117C,0.01800*%
%ADD118C,0.01600*%
%ADD119C,0.02600*%
%ADD120C,0.02200*%
%ADD121C,0.02400*%
%ADD122C,0.03937*%
G04:AMPARAMS|DCode=123|XSize=40mil|YSize=40mil|CornerRadius=10mil|HoleSize=0mil|Usage=FLASHONLY|Rotation=0.000|XOffset=0mil|YOffset=0mil|HoleType=Round|Shape=RoundedRectangle|*
%AMROUNDEDRECTD123*
21,1,0.04000,0.02000,0,0,0.0*
21,1,0.02000,0.04000,0,0,0.0*
1,1,0.02000,0.01000,-0.01000*
1,1,0.02000,-0.01000,-0.01000*
1,1,0.02000,-0.01000,0.01000*
1,1,0.02000,0.01000,0.01000*
%
%ADD123ROUNDEDRECTD123*%
%ADD124R,0.05906X0.05906*%
%ADD125C,0.05906*%
%ADD126R,0.05906X0.05906*%
%ADD127R,0.06299X0.06299*%
%ADD128C,0.06299*%
G04:AMPARAMS|DCode=129|XSize=35mil|YSize=35mil|CornerRadius=8.75mil|HoleSize=0mil|Usage=FLASHONLY|Rotation=0.000|XOffset=0mil|YOffset=0mil|HoleType=Round|Shape=RoundedRectangle|*
%AMROUNDEDRECTD129*
21,1,0.03500,0.01750,0,0,0.0*
21,1,0.01750,0.03500,0,0,0.0*
1,1,0.01750,0.00875,-0.00875*
1,1,0.01750,-0.00875,-0.00875*
1,1,0.01750,-0.00875,0.00875*
1,1,0.01750,0.00875,0.00875*
%
%ADD129ROUNDEDRECTD129*%
G04:AMPARAMS|DCode=130|XSize=30mil|YSize=30mil|CornerRadius=7.5mil|HoleSize=0mil|Usage=FLASHONLY|Rotation=0.000|XOffset=0mil|YOffset=0mil|HoleType=Round|Shape=RoundedRectangle|*
%AMROUNDEDRECTD130*
21,1,0.03000,0.01500,0,0,0.0*
21,1,0.01500,0.03000,0,0,0.0*
1,1,0.01500,0.00750,-0.00750*
1,1,0.01500,-0.00750,-0.00750*
1,1,0.01500,-0.00750,0.00750*
1,1,0.01500,0.00750,0.00750*
%
%ADD130ROUNDEDRECTD130*%
%ADD131C,0.03000*%
%ADD132C,0.06000*%
G04:AMPARAMS|DCode=133|XSize=62.99mil|YSize=62.99mil|CornerRadius=15.75mil|HoleSize=0mil|Usage=FLASHONLY|Rotation=270.000|XOffset=0mil|YOffset=0mil|HoleType=Round|Shape=RoundedRectangle|*
%AMROUNDEDRECTD133*
21,1,0.06299,0.03150,0,0,270.0*
21,1,0.03150,0.06299,0,0,270.0*
1,1,0.03150,-0.01575,-0.01575*
1,1,0.03150,-0.01575,0.01575*
1,1,0.03150,0.01575,0.01575*
1,1,0.03150,0.01575,-0.01575*
%
%ADD133ROUNDEDRECTD133*%
%ADD134C,0.02362*%
%ADD135C,0.02756*%
G36*
X369661Y438407D02*
X372715D01*
Y439600D01*
X399195D01*
Y438400D01*
X401563D01*
X403932D01*
Y439600D01*
X405100D01*
Y435241D01*
X406480D01*
Y432610D01*
X406436Y432592D01*
X405908Y432064D01*
X405622Y431374D01*
Y430626D01*
X405908Y429936D01*
X406436Y429408D01*
X407127Y429122D01*
X407873D01*
X408564Y429408D01*
X409092Y429936D01*
X409378Y430626D01*
Y431374D01*
X409092Y432064D01*
X408564Y432592D01*
X408520Y432610D01*
Y435241D01*
X409837D01*
Y439600D01*
X419769D01*
Y434083D01*
X421224D01*
Y428296D01*
X419994D01*
Y422378D01*
X421208D01*
Y416864D01*
X420908Y416564D01*
X420622Y415873D01*
Y415127D01*
X420908Y414436D01*
X421436Y413908D01*
X422126Y413622D01*
X422873D01*
X423564Y413908D01*
X424092Y414436D01*
X424378Y415127D01*
Y415873D01*
X424092Y416564D01*
X423655Y417001D01*
Y422378D01*
X424731D01*
Y428296D01*
X423671D01*
Y434083D01*
X425294D01*
Y439600D01*
X427643D01*
Y437537D01*
X430406D01*
X433168D01*
Y439600D01*
X569392D01*
X569514Y439200D01*
X569206Y438994D01*
X568924Y438573D01*
X568825Y438075D01*
Y436325D01*
X568924Y435827D01*
X569206Y435406D01*
X569628Y435124D01*
X570125Y435025D01*
X571875D01*
X572372Y435124D01*
X572794Y435406D01*
X573076Y435827D01*
X573175Y436325D01*
Y438075D01*
X573076Y438573D01*
X572794Y438994D01*
X572486Y439200D01*
X572608Y439600D01*
X584931D01*
Y438139D01*
X585030Y437642D01*
X585312Y437220D01*
X585734Y436938D01*
X586231Y436839D01*
X587981D01*
X588479Y436938D01*
X588901Y437220D01*
X589182Y437642D01*
X589281Y438139D01*
Y439600D01*
X602398D01*
X603133Y439295D01*
X603597Y438831D01*
X603597Y295800D01*
X603597Y192300D01*
Y191887D01*
X603436Y191076D01*
X603120Y190312D01*
X602660Y189625D01*
X602075Y189040D01*
X601388Y188581D01*
X600624Y188264D01*
X599813Y188103D01*
X599400Y188103D01*
X239731Y188103D01*
X239325D01*
X238527Y188261D01*
X237776Y188573D01*
X237100Y189024D01*
X236525Y189600D01*
X236073Y190276D01*
X235761Y191027D01*
X235603Y191825D01*
X235603Y192231D01*
Y209370D01*
X235603Y209371D01*
X235603Y436808D01*
X235669Y436968D01*
X236216Y437787D01*
X236913Y438484D01*
X237732Y439031D01*
X238642Y439408D01*
X239608Y439600D01*
X366206D01*
Y438407D01*
X369261D01*
Y441169D01*
X369661D01*
Y438407D01*
D02*
G37*
G36*
X599400Y569497D02*
X599813D01*
X600624Y569336D01*
X601388Y569020D01*
X602075Y568560D01*
X602660Y567976D01*
X603120Y567288D01*
X603436Y566524D01*
X603597Y565713D01*
X603597Y565300D01*
D01*
Y538184D01*
X603524Y538009D01*
X602977Y537190D01*
X602281Y536493D01*
X601462Y535946D01*
X600552Y535569D01*
X599586Y535377D01*
X236801D01*
X236020Y535700D01*
X235603Y536118D01*
Y565300D01*
Y565713D01*
X235764Y566524D01*
X236081Y567288D01*
X236540Y567976D01*
X237124Y568560D01*
X237812Y569020D01*
X238576Y569336D01*
X239387Y569497D01*
X239800Y569497D01*
X599400Y569497D01*
D02*
G37*
%LPC*%
G36*
X403932Y438000D02*
X401763D01*
Y435241D01*
X403932D01*
Y438000D01*
D02*
G37*
G36*
X401363D02*
X399195D01*
Y435241D01*
X401363D01*
Y438000D01*
D02*
G37*
G36*
X433168Y437137D02*
X430606D01*
Y434083D01*
X433168D01*
Y437137D01*
D02*
G37*
G36*
X430205D02*
X427643D01*
Y434083D01*
X430205D01*
Y437137D01*
D02*
G37*
G36*
X560575Y438275D02*
X558825D01*
X558327Y438176D01*
X557906Y437894D01*
X557624Y437472D01*
X557525Y436975D01*
Y435225D01*
X557624Y434727D01*
X557906Y434306D01*
X558327Y434024D01*
X558825Y433925D01*
X560575D01*
X561072Y434024D01*
X561494Y434306D01*
X561776Y434727D01*
X561875Y435225D01*
Y436975D01*
X561776Y437472D01*
X561494Y437894D01*
X561072Y438176D01*
X560575Y438275D01*
D02*
G37*
G36*
X583175Y437975D02*
X581425D01*
X580928Y437876D01*
X580506Y437594D01*
X580224Y437173D01*
X580125Y436675D01*
Y434925D01*
X580224Y434427D01*
X580506Y434006D01*
X580928Y433724D01*
X581425Y433625D01*
X583175D01*
X583673Y433724D01*
X584094Y434006D01*
X584376Y434427D01*
X584475Y434925D01*
Y436675D01*
X584376Y437173D01*
X584094Y437594D01*
X583673Y437876D01*
X583175Y437975D01*
D02*
G37*
G36*
X430637Y428296D02*
X428469D01*
Y425537D01*
X430637D01*
Y428296D01*
D02*
G37*
G36*
X428068D02*
X425900D01*
Y425537D01*
X428068D01*
Y428296D01*
D02*
G37*
G36*
X430637Y425137D02*
X428469D01*
Y422378D01*
X430637D01*
Y425137D01*
D02*
G37*
G36*
X428068D02*
X425900D01*
Y422378D01*
X428068D01*
Y425137D01*
D02*
G37*
G36*
X269921Y422659D02*
X267753D01*
Y419900D01*
X269921D01*
Y422659D01*
D02*
G37*
G36*
X267353D02*
X265184D01*
Y419900D01*
X267353D01*
Y422659D01*
D02*
G37*
G36*
X269921Y419500D02*
X267753D01*
Y416741D01*
X269921D01*
Y419500D01*
D02*
G37*
G36*
X267353D02*
X265184D01*
Y416741D01*
X267353D01*
Y419500D01*
D02*
G37*
G36*
X241561Y438500D02*
X240639D01*
X239749Y438262D01*
X238951Y437801D01*
X238299Y437149D01*
X237839Y436351D01*
X237600Y435461D01*
Y434539D01*
X237839Y433649D01*
X238299Y432851D01*
X238951Y432199D01*
X239673Y431783D01*
Y431400D01*
X239774Y430887D01*
Y430700D01*
X239826Y430444D01*
Y429500D01*
X239877Y429244D01*
Y428500D01*
X239928Y428244D01*
Y426700D01*
X240017Y426251D01*
X240104Y426120D01*
X240080Y426000D01*
Y425200D01*
X240131Y424944D01*
Y423600D01*
X240205Y423229D01*
X240415Y422915D01*
X244115Y419215D01*
X244429Y419005D01*
X244800Y418931D01*
X246639D01*
Y418811D01*
X246678D01*
Y418033D01*
X249913D01*
X253147D01*
Y418811D01*
X253187D01*
Y418931D01*
X259279D01*
Y416741D01*
X264016D01*
Y422659D01*
X259279D01*
Y420869D01*
X253243D01*
Y422164D01*
X253170Y422535D01*
X252960Y422849D01*
X251624Y424185D01*
X251309Y424395D01*
X250939Y424469D01*
X249100D01*
X248729Y424395D01*
X248415Y424185D01*
X246877Y422647D01*
X246667Y422333D01*
X246594Y421962D01*
Y420869D01*
X245201D01*
X242069Y424001D01*
Y424944D01*
X242120Y425200D01*
Y426000D01*
X242096Y426120D01*
X242183Y426251D01*
X242272Y426700D01*
Y428244D01*
X242323Y428500D01*
Y429244D01*
X242374Y429500D01*
Y430444D01*
X242425Y430700D01*
Y430887D01*
X242527Y431400D01*
Y431783D01*
X243249Y432199D01*
X243901Y432851D01*
X244361Y433649D01*
X244600Y434539D01*
Y435461D01*
X244361Y436351D01*
X243901Y437149D01*
X243249Y437801D01*
X242451Y438262D01*
X241561Y438500D01*
D02*
G37*
G36*
X247350Y415566D02*
X246639D01*
Y414677D01*
X247350D01*
Y415566D01*
D02*
G37*
G36*
X510061Y418400D02*
X509139D01*
X508249Y418161D01*
X507451Y417701D01*
X506799Y417049D01*
X506339Y416251D01*
X506100Y415361D01*
Y414439D01*
X506339Y413549D01*
X506799Y412751D01*
X507451Y412099D01*
X508249Y411638D01*
X509139Y411400D01*
X510061D01*
X510951Y411638D01*
X511749Y412099D01*
X512401Y412751D01*
X512861Y413549D01*
X513100Y414439D01*
Y415361D01*
X512861Y416251D01*
X512401Y417049D01*
X511749Y417701D01*
X510951Y418161D01*
X510061Y418400D01*
D02*
G37*
G36*
X500061D02*
X499139D01*
X498249Y418161D01*
X497451Y417701D01*
X496799Y417049D01*
X496339Y416251D01*
X496100Y415361D01*
Y414439D01*
X496339Y413549D01*
X496799Y412751D01*
X497451Y412099D01*
X498249Y411638D01*
X499139Y411400D01*
X500061D01*
X500951Y411638D01*
X501749Y412099D01*
X502401Y412751D01*
X502861Y413549D01*
X503100Y414439D01*
Y415361D01*
X502861Y416251D01*
X502401Y417049D01*
X501749Y417701D01*
X500951Y418161D01*
X500061Y418400D01*
D02*
G37*
G36*
X490061D02*
X489139D01*
X488249Y418161D01*
X487451Y417701D01*
X486799Y417049D01*
X486339Y416251D01*
X486100Y415361D01*
Y414439D01*
X486339Y413549D01*
X486799Y412751D01*
X487451Y412099D01*
X488249Y411638D01*
X489139Y411400D01*
X490061D01*
X490951Y411638D01*
X491749Y412099D01*
X492401Y412751D01*
X492862Y413549D01*
X493100Y414439D01*
Y415361D01*
X492862Y416251D01*
X492401Y417049D01*
X491749Y417701D01*
X490951Y418161D01*
X490061Y418400D01*
D02*
G37*
G36*
X480061D02*
X479139D01*
X478249Y418161D01*
X477451Y417701D01*
X476799Y417049D01*
X476338Y416251D01*
X476100Y415361D01*
Y414439D01*
X476338Y413549D01*
X476799Y412751D01*
X477451Y412099D01*
X478249Y411638D01*
X479139Y411400D01*
X480061D01*
X480951Y411638D01*
X481749Y412099D01*
X482401Y412751D01*
X482862Y413549D01*
X483100Y414439D01*
Y415361D01*
X482862Y416251D01*
X482401Y417049D01*
X481749Y417701D01*
X480951Y418161D01*
X480061Y418400D01*
D02*
G37*
G36*
X470061D02*
X469139D01*
X468249Y418161D01*
X467451Y417701D01*
X466799Y417049D01*
X466338Y416251D01*
X466100Y415361D01*
Y414439D01*
X466338Y413549D01*
X466799Y412751D01*
X467451Y412099D01*
X468249Y411638D01*
X469139Y411400D01*
X470061D01*
X470951Y411638D01*
X471749Y412099D01*
X472401Y412751D01*
X472861Y413549D01*
X473100Y414439D01*
Y415361D01*
X472861Y416251D01*
X472401Y417049D01*
X471749Y417701D01*
X470951Y418161D01*
X470061Y418400D01*
D02*
G37*
G36*
X460061D02*
X459139D01*
X458249Y418161D01*
X457451Y417701D01*
X456799Y417049D01*
X456339Y416251D01*
X456100Y415361D01*
Y414439D01*
X456339Y413549D01*
X456799Y412751D01*
X457451Y412099D01*
X458249Y411638D01*
X459139Y411400D01*
X460061D01*
X460951Y411638D01*
X461749Y412099D01*
X462401Y412751D01*
X462861Y413549D01*
X463100Y414439D01*
Y415361D01*
X462861Y416251D01*
X462401Y417049D01*
X461749Y417701D01*
X460951Y418161D01*
X460061Y418400D01*
D02*
G37*
G36*
X450061D02*
X449139D01*
X448249Y418161D01*
X447451Y417701D01*
X446799Y417049D01*
X446339Y416251D01*
X446100Y415361D01*
Y414439D01*
X446339Y413549D01*
X446799Y412751D01*
X447451Y412099D01*
X448249Y411638D01*
X449139Y411400D01*
X450061D01*
X450951Y411638D01*
X451749Y412099D01*
X452401Y412751D01*
X452861Y413549D01*
X453100Y414439D01*
Y415361D01*
X452861Y416251D01*
X452401Y417049D01*
X451749Y417701D01*
X450951Y418161D01*
X450061Y418400D01*
D02*
G37*
G36*
X423447Y409327D02*
X421447D01*
X420901Y409219D01*
X420438Y408909D01*
X420128Y408446D01*
X420020Y407900D01*
Y405900D01*
X420128Y405354D01*
X420438Y404891D01*
X420901Y404581D01*
X421447Y404473D01*
X423447D01*
X423993Y404581D01*
X424457Y404891D01*
X424766Y405354D01*
X424875Y405900D01*
Y407900D01*
X424766Y408446D01*
X424457Y408909D01*
X423993Y409219D01*
X423447Y409327D01*
D02*
G37*
G36*
X272674Y406667D02*
X270505D01*
Y403908D01*
X272674D01*
Y406667D01*
D02*
G37*
G36*
X270105D02*
X267937D01*
Y403908D01*
X270105D01*
Y406667D01*
D02*
G37*
G36*
X510061Y408400D02*
X509139D01*
X508249Y408161D01*
X507451Y407701D01*
X506799Y407049D01*
X506339Y406251D01*
X506100Y405361D01*
Y404439D01*
X506339Y403549D01*
X506799Y402751D01*
X507451Y402099D01*
X508249Y401639D01*
X509139Y401400D01*
X510061D01*
X510951Y401639D01*
X511749Y402099D01*
X512401Y402751D01*
X512861Y403549D01*
X513100Y404439D01*
Y405361D01*
X512861Y406251D01*
X512401Y407049D01*
X511749Y407701D01*
X510951Y408161D01*
X510061Y408400D01*
D02*
G37*
G36*
X500061D02*
X499139D01*
X498249Y408161D01*
X497451Y407701D01*
X496799Y407049D01*
X496339Y406251D01*
X496100Y405361D01*
Y404439D01*
X496339Y403549D01*
X496799Y402751D01*
X497451Y402099D01*
X498249Y401639D01*
X499139Y401400D01*
X500061D01*
X500951Y401639D01*
X501749Y402099D01*
X502401Y402751D01*
X502861Y403549D01*
X503100Y404439D01*
Y405361D01*
X502861Y406251D01*
X502401Y407049D01*
X501749Y407701D01*
X500951Y408161D01*
X500061Y408400D01*
D02*
G37*
G36*
X490061D02*
X489139D01*
X488249Y408161D01*
X487451Y407701D01*
X486799Y407049D01*
X486339Y406251D01*
X486100Y405361D01*
Y404439D01*
X486339Y403549D01*
X486799Y402751D01*
X487451Y402099D01*
X488249Y401639D01*
X489139Y401400D01*
X490061D01*
X490951Y401639D01*
X491749Y402099D01*
X492401Y402751D01*
X492862Y403549D01*
X493100Y404439D01*
Y405361D01*
X492862Y406251D01*
X492401Y407049D01*
X491749Y407701D01*
X490951Y408161D01*
X490061Y408400D01*
D02*
G37*
G36*
X480061D02*
X479139D01*
X478249Y408161D01*
X477451Y407701D01*
X476799Y407049D01*
X476338Y406251D01*
X476100Y405361D01*
Y404439D01*
X476338Y403549D01*
X476799Y402751D01*
X477451Y402099D01*
X478249Y401639D01*
X479139Y401400D01*
X480061D01*
X480951Y401639D01*
X481749Y402099D01*
X482401Y402751D01*
X482862Y403549D01*
X483100Y404439D01*
Y405361D01*
X482862Y406251D01*
X482401Y407049D01*
X481749Y407701D01*
X480951Y408161D01*
X480061Y408400D01*
D02*
G37*
G36*
X470061D02*
X469139D01*
X468249Y408161D01*
X467451Y407701D01*
X466799Y407049D01*
X466338Y406251D01*
X466100Y405361D01*
Y404439D01*
X466338Y403549D01*
X466799Y402751D01*
X467451Y402099D01*
X468249Y401639D01*
X469139Y401400D01*
X470061D01*
X470951Y401639D01*
X471749Y402099D01*
X472401Y402751D01*
X472861Y403549D01*
X473100Y404439D01*
Y405361D01*
X472861Y406251D01*
X472401Y407049D01*
X471749Y407701D01*
X470951Y408161D01*
X470061Y408400D01*
D02*
G37*
G36*
X460061D02*
X459139D01*
X458249Y408161D01*
X457451Y407701D01*
X456799Y407049D01*
X456339Y406251D01*
X456100Y405361D01*
Y404439D01*
X456339Y403549D01*
X456799Y402751D01*
X457451Y402099D01*
X458249Y401639D01*
X459139Y401400D01*
X460061D01*
X460951Y401639D01*
X461749Y402099D01*
X462401Y402751D01*
X462861Y403549D01*
X463100Y404439D01*
Y405361D01*
X462861Y406251D01*
X462401Y407049D01*
X461749Y407701D01*
X460951Y408161D01*
X460061Y408400D01*
D02*
G37*
G36*
X450061D02*
X449139D01*
X448249Y408161D01*
X447451Y407701D01*
X446799Y407049D01*
X446339Y406251D01*
X446100Y405361D01*
Y404439D01*
X446339Y403549D01*
X446799Y402751D01*
X447451Y402099D01*
X448249Y401639D01*
X449139Y401400D01*
X450061D01*
X450951Y401639D01*
X451749Y402099D01*
X452401Y402751D01*
X452861Y403549D01*
X453100Y404439D01*
Y405361D01*
X452861Y406251D01*
X452401Y407049D01*
X451749Y407701D01*
X450951Y408161D01*
X450061Y408400D01*
D02*
G37*
G36*
X272674Y403508D02*
X270505D01*
Y400749D01*
X272674D01*
Y403508D01*
D02*
G37*
G36*
X270105D02*
X267937D01*
Y400749D01*
X270105D01*
Y403508D01*
D02*
G37*
G36*
X408500Y399627D02*
X406500D01*
X405954Y399519D01*
X405491Y399209D01*
X405181Y398746D01*
X405073Y398200D01*
Y396200D01*
X405181Y395654D01*
X405491Y395191D01*
X405954Y394881D01*
X406500Y394773D01*
X408500D01*
X409046Y394881D01*
X409509Y395191D01*
X409819Y395654D01*
X409927Y396200D01*
Y398200D01*
X409819Y398746D01*
X409509Y399209D01*
X409046Y399519D01*
X408500Y399627D01*
D02*
G37*
G36*
X296528Y393662D02*
X291004D01*
Y392650D01*
X284330D01*
Y393413D01*
X273270D01*
Y388657D01*
X284330D01*
Y389285D01*
X291004D01*
Y388138D01*
X296528D01*
Y393662D01*
D02*
G37*
G36*
X255250Y394650D02*
X251900D01*
Y391300D01*
X255250D01*
Y394650D01*
D02*
G37*
G36*
X251500D02*
X248150D01*
Y391300D01*
X251500D01*
Y394650D01*
D02*
G37*
G36*
X304796Y393662D02*
X302234D01*
Y391100D01*
X304796D01*
Y393662D01*
D02*
G37*
G36*
X301834D02*
X299272D01*
Y391100D01*
X301834D01*
Y393662D01*
D02*
G37*
G36*
X304796Y390700D02*
X302234D01*
Y388138D01*
X304796D01*
Y390700D01*
D02*
G37*
G36*
X301834D02*
X299272D01*
Y388138D01*
X301834D01*
Y390700D01*
D02*
G37*
G36*
X242117Y394265D02*
X241283D01*
X240478Y394050D01*
X239756Y393633D01*
X239167Y393044D01*
X238750Y392322D01*
X238535Y391517D01*
Y390683D01*
X238750Y389878D01*
X239167Y389156D01*
X239756Y388567D01*
X240478Y388150D01*
X241283Y387935D01*
X242117D01*
X242922Y388150D01*
X243644Y388567D01*
X244233Y389156D01*
X244650Y389878D01*
X244865Y390683D01*
Y391517D01*
X244650Y392322D01*
X244233Y393044D01*
X243644Y393633D01*
X242922Y394050D01*
X242117Y394265D01*
D02*
G37*
G36*
X251500Y390900D02*
X248150D01*
Y387550D01*
X251500D01*
Y390900D01*
D02*
G37*
G36*
X253147Y417633D02*
X249913D01*
X246678D01*
Y416855D01*
X246639D01*
Y415966D01*
X247550D01*
Y415766D01*
X247750D01*
Y414677D01*
X250875D01*
X251099Y414328D01*
X251104Y414277D01*
X251029Y413900D01*
Y413668D01*
X251017Y413649D01*
X250927Y413200D01*
Y412895D01*
X250922Y412888D01*
X250826Y412400D01*
Y412013D01*
X250724Y411500D01*
Y410613D01*
X250622Y410100D01*
Y409313D01*
X250520Y408800D01*
Y407513D01*
X250418Y407000D01*
X250546Y406356D01*
X250910Y405810D01*
X254203Y402518D01*
X254203Y402518D01*
X254748Y402154D01*
X255392Y402026D01*
X262031D01*
Y400749D01*
X262718D01*
Y394497D01*
X255564Y387343D01*
X255250Y387595D01*
X255250Y387932D01*
Y390900D01*
X251900D01*
Y387550D01*
X254852D01*
X255205Y387550D01*
X255457Y387236D01*
X252722Y384501D01*
X252167Y384650D01*
X251233D01*
X250330Y384408D01*
X249520Y383940D01*
X248860Y383279D01*
X248392Y382470D01*
X248150Y381567D01*
Y380633D01*
X248392Y379730D01*
X248860Y378921D01*
X249520Y378260D01*
X250330Y377792D01*
X251233Y377550D01*
X252167D01*
X253070Y377792D01*
X253879Y378260D01*
X254540Y378921D01*
X254625Y379068D01*
X273270D01*
Y378022D01*
X284330D01*
Y378718D01*
X286397D01*
X286900Y378618D01*
X287413Y378720D01*
X288800D01*
X289313Y378822D01*
X290600D01*
X291113Y378924D01*
X292400D01*
X292913Y379026D01*
X294000D01*
X294488Y379122D01*
X294495Y379128D01*
X295600D01*
X296049Y379217D01*
X296068Y379229D01*
X297000D01*
X297410Y379311D01*
X297440Y379331D01*
X298500D01*
X298871Y379405D01*
X298913Y379433D01*
X299650D01*
X299982Y379499D01*
X300000Y379512D01*
X300400Y379416D01*
Y379400D01*
X301900Y379400D01*
X302200Y379400D01*
X302500D01*
Y380300D01*
Y381200D01*
X301900D01*
X301600Y381200D01*
X300400D01*
Y381184D01*
X300000Y381088D01*
X299982Y381101D01*
X299650Y381167D01*
X298913D01*
X298871Y381195D01*
X298500Y381269D01*
X297440D01*
X297410Y381289D01*
X297000Y381371D01*
X296068D01*
X296049Y381383D01*
X295600Y381472D01*
X294495D01*
X294488Y381477D01*
X294000Y381575D01*
X292913D01*
X292400Y381677D01*
X291113D01*
X290600Y381778D01*
X289313D01*
X288800Y381880D01*
X287554D01*
X287444Y381954D01*
X286800Y382082D01*
X284330D01*
Y382778D01*
X273270D01*
Y382432D01*
X255934D01*
X255781Y382802D01*
X265589Y392610D01*
X265954Y393156D01*
X266082Y393800D01*
Y400749D01*
X266768D01*
Y406667D01*
X262031D01*
Y405390D01*
X256089D01*
X253680Y407799D01*
Y408800D01*
X253578Y409313D01*
Y410100D01*
X253477Y410613D01*
Y411500D01*
X253375Y412013D01*
Y412400D01*
X253277Y412888D01*
X253273Y412895D01*
Y413200D01*
X253183Y413649D01*
X253171Y413668D01*
Y413862D01*
X253205Y414037D01*
Y415574D01*
X253243Y415766D01*
X253187Y416052D01*
Y416855D01*
X253147D01*
Y417633D01*
D02*
G37*
G36*
X302900Y381200D02*
Y380500D01*
X303400D01*
Y381200D01*
X302900D01*
D02*
G37*
G36*
X303400Y380100D02*
X302900D01*
Y379400D01*
X303400D01*
Y380100D01*
D02*
G37*
G36*
X242117Y384265D02*
X241283D01*
X240478Y384050D01*
X239756Y383633D01*
X239167Y383044D01*
X238750Y382322D01*
X238535Y381517D01*
Y380683D01*
X238750Y379878D01*
X239167Y379156D01*
X239756Y378567D01*
X240478Y378150D01*
X241283Y377935D01*
X242117D01*
X242922Y378150D01*
X243644Y378567D01*
X244233Y379156D01*
X244650Y379878D01*
X244865Y380683D01*
Y381517D01*
X244650Y382322D01*
X244233Y383044D01*
X243644Y383633D01*
X242922Y384050D01*
X242117Y384265D01*
D02*
G37*
G36*
X432942Y374361D02*
X424858D01*
Y372267D01*
X422074D01*
X421992Y372464D01*
X421464Y372992D01*
X420774Y373278D01*
X420026D01*
X419336Y372992D01*
X418808Y372464D01*
X418522Y371774D01*
Y371026D01*
X418808Y370336D01*
X419336Y369808D01*
X420026Y369522D01*
X420774D01*
X421464Y369808D01*
X421992Y370336D01*
X422074Y370533D01*
X424858D01*
Y368247D01*
X432942D01*
Y370533D01*
X435526D01*
X435608Y370336D01*
X436136Y369808D01*
X436827Y369522D01*
X437573D01*
X438264Y369808D01*
X438792Y370336D01*
X439078Y371026D01*
Y371774D01*
X438792Y372464D01*
X438264Y372992D01*
X437573Y373278D01*
X436827D01*
X436136Y372992D01*
X435608Y372464D01*
X435526Y372267D01*
X432942D01*
Y374361D01*
D02*
G37*
G36*
X450369Y370682D02*
X447200D01*
Y367715D01*
X450369D01*
Y370682D01*
D02*
G37*
G36*
X446800D02*
X443631D01*
Y367715D01*
X446800D01*
Y370682D01*
D02*
G37*
G36*
X487353Y370536D02*
X484200D01*
Y367580D01*
X487353D01*
Y370536D01*
D02*
G37*
G36*
X483800D02*
X480647D01*
Y367580D01*
X483800D01*
Y370536D01*
D02*
G37*
G36*
X468853Y369896D02*
X465700D01*
Y366940D01*
X468853D01*
Y369896D01*
D02*
G37*
G36*
X465300D02*
X462147D01*
Y366940D01*
X465300D01*
Y369896D01*
D02*
G37*
G36*
X505834Y369181D02*
X505166D01*
X504548Y368925D01*
X504075Y368452D01*
X503819Y367834D01*
Y367166D01*
X503854Y367080D01*
X492884Y356109D01*
X492545Y356336D01*
X492681Y356666D01*
Y357334D01*
X492425Y357952D01*
X491952Y358425D01*
X491334Y358681D01*
X490666D01*
X490048Y358425D01*
X489575Y357952D01*
X489319Y357334D01*
Y356666D01*
X489480Y356276D01*
X489440Y356070D01*
Y347096D01*
X489188Y346800D01*
X489040Y346800D01*
X487619D01*
X487488Y346800D01*
Y346800D01*
X487219D01*
Y346800D01*
X485519D01*
Y346800D01*
X485251D01*
Y346800D01*
X483682D01*
X483282Y346800D01*
X483151Y346800D01*
X482632D01*
Y343500D01*
Y340200D01*
X483090D01*
X483256Y339800D01*
X482976Y339520D01*
X482720Y338902D01*
Y338233D01*
X482976Y337615D01*
X483449Y337143D01*
X484066Y336887D01*
X484564D01*
X484730Y336487D01*
X484394Y336151D01*
X484138Y335533D01*
Y334864D01*
X484394Y334247D01*
X484867Y333774D01*
X485485Y333518D01*
X486154D01*
X486383Y333613D01*
X486528Y333483D01*
X486649Y333290D01*
X486419Y332734D01*
Y332066D01*
X486675Y331448D01*
X486856Y331267D01*
X486690Y330867D01*
X479031D01*
X478952Y331267D01*
X479448Y331472D01*
X479920Y331945D01*
X480176Y332563D01*
Y333232D01*
X479920Y333850D01*
X479448Y334322D01*
X479311Y334379D01*
Y334985D01*
X479472Y335146D01*
X479472Y335146D01*
X479649Y335411D01*
X479711Y335723D01*
Y338496D01*
X479649Y338808D01*
X479472Y339073D01*
X479472Y339073D01*
X479311Y339234D01*
Y339965D01*
X479614Y340200D01*
X479745Y340200D01*
X481582Y340200D01*
X481714Y340200D01*
X482232D01*
Y343500D01*
Y346800D01*
X481730D01*
X481582Y346800D01*
X481330Y347096D01*
Y349905D01*
X484613Y353187D01*
X484801Y353468D01*
X484867Y353800D01*
Y356744D01*
X487353D01*
Y359033D01*
X489700D01*
X490032Y359099D01*
X490313Y359287D01*
X490829Y359804D01*
X491026Y359722D01*
X491774D01*
X492464Y360008D01*
X492992Y360536D01*
X493278Y361227D01*
Y361974D01*
X492992Y362664D01*
X492464Y363192D01*
X491774Y363478D01*
X491026D01*
X490336Y363192D01*
X489808Y362664D01*
X489522Y361974D01*
Y361227D01*
X489604Y361029D01*
X489341Y360767D01*
X487353D01*
Y363056D01*
X480647D01*
Y360867D01*
X479886D01*
X478323Y362429D01*
X478405Y362627D01*
Y363373D01*
X478119Y364064D01*
X477591Y364592D01*
X476900Y364878D01*
X476153D01*
X475463Y364592D01*
X474935Y364064D01*
X474649Y363373D01*
Y362627D01*
X474935Y361936D01*
X475463Y361408D01*
X476153Y361122D01*
X476900D01*
X477098Y361204D01*
X478914Y359387D01*
X479195Y359199D01*
X479527Y359133D01*
X480647D01*
Y356744D01*
X483133D01*
Y354159D01*
X479851Y350877D01*
X479663Y350595D01*
X479597Y350264D01*
Y347096D01*
X479345Y346800D01*
X479197Y346800D01*
X477645D01*
X477645Y346800D01*
X477377D01*
Y346800D01*
X477245Y346800D01*
X475677D01*
Y346800D01*
X475408D01*
Y346800D01*
X473708D01*
Y346800D01*
X473440D01*
Y346800D01*
X471740D01*
Y346800D01*
X471471D01*
Y346800D01*
X469903D01*
X469771Y346800D01*
Y346800D01*
X469503D01*
Y346800D01*
X467934D01*
X467803Y346800D01*
Y346800D01*
X467534D01*
Y346800D01*
X465834D01*
Y346800D01*
X465566D01*
Y346800D01*
X463997D01*
X463597Y346800D01*
X463466Y346800D01*
X462947D01*
Y343500D01*
Y340200D01*
X463466D01*
X463597Y340200D01*
X463768Y340068D01*
X463790Y339612D01*
X463751Y339574D01*
X463574Y339309D01*
X463512Y338997D01*
X463512Y338997D01*
Y338086D01*
X463376Y338029D01*
X462903Y337556D01*
X462647Y336938D01*
Y336269D01*
X462903Y335651D01*
X463376Y335179D01*
X463994Y334923D01*
X464662D01*
X465193Y335143D01*
X465593Y334969D01*
Y333909D01*
X465259Y333574D01*
X465003Y332956D01*
Y332288D01*
X465259Y331670D01*
X465662Y331267D01*
X465581Y330938D01*
X465540Y330867D01*
X456018D01*
X455976Y330938D01*
X455895Y331267D01*
X456298Y331670D01*
X456554Y332288D01*
Y332956D01*
X456298Y333574D01*
X455826Y334047D01*
X455647Y334121D01*
Y336708D01*
X456047Y336882D01*
X456578Y336662D01*
X457247D01*
X457424Y336736D01*
X457651Y336397D01*
X457218Y335964D01*
X456932Y335274D01*
Y334526D01*
X457218Y333836D01*
X457747Y333308D01*
X458437Y333022D01*
X459184D01*
X459874Y333308D01*
X460402Y333836D01*
X460688Y334526D01*
Y335274D01*
X460402Y335964D01*
X459874Y336492D01*
X459806Y336520D01*
X459720Y336943D01*
X459844Y337129D01*
X459910Y337460D01*
Y339226D01*
X459844Y339558D01*
X459677Y339808D01*
Y339904D01*
X459929Y340200D01*
X460077Y340200D01*
X461897Y340200D01*
X462029Y340200D01*
X462547D01*
Y343500D01*
Y346800D01*
X462045D01*
X461897Y346800D01*
X461645Y347096D01*
Y348732D01*
X466113Y353200D01*
X466301Y353481D01*
X466367Y353813D01*
Y356104D01*
X468853D01*
Y358233D01*
X470090D01*
X470421Y358299D01*
X470703Y358487D01*
X472019Y359804D01*
X472216Y359722D01*
X472963D01*
X473654Y360008D01*
X474182Y360536D01*
X474468Y361227D01*
Y361974D01*
X474182Y362664D01*
X473654Y363192D01*
X472963Y363478D01*
X472216D01*
X471526Y363192D01*
X470998Y362664D01*
X470712Y361974D01*
Y361227D01*
X470793Y361029D01*
X469731Y359967D01*
X468853D01*
Y362416D01*
X462147D01*
Y360126D01*
X461399D01*
X459596Y361929D01*
X459678Y362126D01*
Y362874D01*
X459392Y363564D01*
X458864Y364092D01*
X458174Y364378D01*
X457427D01*
X456736Y364092D01*
X456208Y363564D01*
X455922Y362874D01*
Y362126D01*
X456208Y361436D01*
X456736Y360908D01*
X457427Y360622D01*
X458174D01*
X458371Y360704D01*
X460427Y358647D01*
X460709Y358459D01*
X461040Y358393D01*
X462147D01*
Y356104D01*
X464633D01*
Y354172D01*
X460166Y349704D01*
X459978Y349423D01*
X459912Y349091D01*
Y347096D01*
X459660Y346800D01*
X459512Y346800D01*
X458092D01*
X457960Y346800D01*
Y346800D01*
X457692D01*
Y346800D01*
X455992D01*
Y346800D01*
X455723D01*
Y346800D01*
X454155D01*
X454023Y346800D01*
Y346800D01*
X453755D01*
Y346800D01*
X452186D01*
X452055Y346800D01*
Y346800D01*
X451786D01*
Y346800D01*
X450086D01*
Y346800D01*
X449818D01*
Y346800D01*
X448266D01*
X448118Y346800D01*
X447866Y347096D01*
Y347140D01*
X449613Y348887D01*
X449801Y349168D01*
X449867Y349500D01*
Y350539D01*
X449952Y350575D01*
X450425Y351048D01*
X450681Y351666D01*
Y352334D01*
X450425Y352952D01*
X449952Y353425D01*
X449334Y353681D01*
X448666D01*
X448048Y353425D01*
X447575Y352952D01*
X447319Y352334D01*
Y351666D01*
X447575Y351048D01*
X448048Y350575D01*
X448133Y350539D01*
Y349859D01*
X446386Y348112D01*
X446297Y347979D01*
X445897Y348100D01*
Y348552D01*
X445952Y348575D01*
X446425Y349048D01*
X446681Y349666D01*
Y350334D01*
X446425Y350952D01*
X445952Y351425D01*
X445334Y351681D01*
X444705D01*
X444622Y351782D01*
X444506Y352048D01*
X447649Y355191D01*
X447848Y355489D01*
X447918Y355840D01*
Y357055D01*
X450369D01*
Y363389D01*
X443631D01*
Y357055D01*
X446082D01*
Y356220D01*
X438476Y348614D01*
X438277Y348316D01*
X438208Y347965D01*
Y347117D01*
X438007Y346800D01*
X437808Y346800D01*
X437357D01*
Y343500D01*
Y340200D01*
X437858D01*
X438007Y340200D01*
X438259Y339904D01*
Y338744D01*
X438261Y338730D01*
Y336427D01*
X438259Y336413D01*
Y332934D01*
X438064Y332854D01*
X437536Y332326D01*
X437250Y331635D01*
Y330888D01*
X437536Y330198D01*
X438064Y329670D01*
X438754Y329384D01*
X439501D01*
X440192Y329670D01*
X440720Y330198D01*
X441006Y330888D01*
Y331635D01*
X440720Y332326D01*
X440192Y332854D01*
X439992Y332937D01*
Y336402D01*
X439995Y336416D01*
Y336542D01*
X440395Y336764D01*
X440844Y336578D01*
X441512D01*
X441723Y336665D01*
X442088Y336435D01*
X442094Y336353D01*
X442075Y336106D01*
X441637Y335669D01*
X441381Y335051D01*
Y334382D01*
X441637Y333764D01*
X442110Y333291D01*
X442728Y333035D01*
X443397D01*
X444015Y333291D01*
X444487Y333764D01*
X444743Y334382D01*
Y335051D01*
X444487Y335669D01*
X444015Y336142D01*
X443878Y336198D01*
Y339965D01*
X444181Y340200D01*
X444312Y340200D01*
X446149Y340200D01*
X446281Y340200D01*
X447701D01*
X447849Y340200D01*
X448101Y339904D01*
Y339275D01*
X446919Y338093D01*
X446731Y337812D01*
X446665Y337480D01*
Y332756D01*
X446731Y332424D01*
X446919Y332143D01*
X449675Y329387D01*
X449956Y329199D01*
X450247Y329141D01*
X450207Y328741D01*
X436809D01*
X434086Y331464D01*
Y339904D01*
X434338Y340200D01*
X434486Y340200D01*
X436307Y340200D01*
X436438Y340200D01*
X436957D01*
Y343500D01*
Y346800D01*
X436307Y346800D01*
X436106Y347117D01*
Y348350D01*
X436036Y348701D01*
X435837Y348999D01*
X429818Y355018D01*
Y356239D01*
X432942D01*
Y362353D01*
X424858D01*
Y356239D01*
X427982D01*
Y354638D01*
X428052Y354287D01*
X428251Y353990D01*
X434271Y347970D01*
Y347117D01*
X434070Y346800D01*
X433871Y346800D01*
X432370D01*
Y346800D01*
X432101D01*
Y346800D01*
X430401D01*
Y344316D01*
X419338D01*
X412216Y351438D01*
Y352204D01*
X414753D01*
Y354133D01*
X417226D01*
X417308Y353936D01*
X417836Y353408D01*
X418527Y353122D01*
X419274D01*
X419964Y353408D01*
X420492Y353936D01*
X420778Y354626D01*
Y355374D01*
X420492Y356064D01*
X419964Y356592D01*
X419274Y356878D01*
X418527D01*
X417836Y356592D01*
X417308Y356064D01*
X417226Y355867D01*
X414753D01*
Y358516D01*
X408047D01*
Y355667D01*
X405374D01*
X405292Y355864D01*
X404764Y356392D01*
X404073Y356678D01*
X403327D01*
X402636Y356392D01*
X402108Y355864D01*
X401822Y355173D01*
Y354427D01*
X402108Y353736D01*
X402636Y353208D01*
X403327Y352922D01*
X404073D01*
X404764Y353208D01*
X405292Y353736D01*
X405374Y353933D01*
X408047D01*
Y352204D01*
X410584D01*
Y351100D01*
X410584Y351100D01*
X410646Y350788D01*
X410823Y350523D01*
X418423Y342923D01*
X418423Y342923D01*
X418688Y342746D01*
X419000Y342684D01*
X430401D01*
Y340200D01*
X432101D01*
X432353Y339904D01*
Y331105D01*
X432419Y330773D01*
X432607Y330492D01*
X435837Y327262D01*
X436118Y327074D01*
X436450Y327008D01*
X468163D01*
X468284Y326608D01*
X468151Y326519D01*
X466986Y325354D01*
X440774D01*
X440692Y325552D01*
X440164Y326080D01*
X439473Y326366D01*
X438727D01*
X438036Y326080D01*
X437508Y325552D01*
X437222Y324861D01*
Y324114D01*
X437508Y323424D01*
X438036Y322896D01*
X438727Y322610D01*
X439473D01*
X440164Y322896D01*
X440692Y323424D01*
X440774Y323621D01*
X467345D01*
X467677Y323687D01*
X467958Y323875D01*
X469123Y325040D01*
X493891D01*
X494044Y324670D01*
X491056Y321682D01*
X490868Y321401D01*
X490802Y321069D01*
Y286419D01*
X490868Y286088D01*
X491056Y285806D01*
X491408Y285454D01*
Y266881D01*
X491008Y266614D01*
X490636Y266768D01*
X489968D01*
X489502Y266575D01*
X489103Y266787D01*
Y267317D01*
X489290Y267394D01*
X489763Y267867D01*
X490019Y268485D01*
Y269154D01*
X489763Y269772D01*
X489290Y270245D01*
X488672Y270501D01*
X488003D01*
X487386Y270245D01*
X486913Y269772D01*
X486657Y269154D01*
Y268485D01*
X486913Y267867D01*
X487386Y267394D01*
X487573Y267317D01*
Y266796D01*
X487173Y266581D01*
X486712Y266772D01*
X486044D01*
X485637Y266604D01*
X485237Y266850D01*
Y267287D01*
X485496Y267394D01*
X485969Y267867D01*
X486225Y268485D01*
Y269154D01*
X485969Y269772D01*
X485496Y270245D01*
X484878Y270501D01*
X484209D01*
X483592Y270245D01*
X483119Y269772D01*
X482863Y269154D01*
Y268485D01*
X483119Y267867D01*
X483592Y267394D01*
X483708Y267346D01*
Y266888D01*
X483308Y266707D01*
X482791Y266921D01*
X482122D01*
X481629Y266716D01*
X481228Y266912D01*
Y267317D01*
X481416Y267394D01*
X481889Y267867D01*
X482145Y268485D01*
Y269154D01*
X481889Y269772D01*
X481416Y270245D01*
X480798Y270501D01*
X480129D01*
X479511Y270245D01*
X479039Y269772D01*
X478783Y269154D01*
Y268485D01*
X479039Y267867D01*
X479511Y267394D01*
X479699Y267317D01*
Y266815D01*
X479299Y266648D01*
X478758Y266872D01*
X478089D01*
X477692Y266707D01*
X477309Y266947D01*
X477319Y267328D01*
X477479Y267394D01*
X477952Y267867D01*
X478208Y268485D01*
Y269154D01*
X477952Y269772D01*
X477479Y270245D01*
X476861Y270501D01*
X476192D01*
X475574Y270245D01*
X475102Y269772D01*
X474846Y269154D01*
Y268485D01*
X475102Y267867D01*
X475574Y267394D01*
X475762Y267317D01*
Y266028D01*
X475392Y265875D01*
X475376Y265891D01*
X474758Y266147D01*
X474090D01*
X473755Y266008D01*
X473354Y266275D01*
Y267407D01*
X473542Y267484D01*
X474015Y267957D01*
X474271Y268575D01*
Y269244D01*
X474015Y269862D01*
X473542Y270335D01*
X472924Y270590D01*
X472255D01*
X471637Y270335D01*
X471165Y269862D01*
X470909Y269244D01*
Y268575D01*
X471165Y267957D01*
X471637Y267484D01*
X471825Y267407D01*
Y266207D01*
X471425Y265971D01*
X471000Y266147D01*
X470331D01*
X469713Y265891D01*
X469241Y265418D01*
X468985Y264800D01*
Y264131D01*
X469241Y263513D01*
X469713Y263041D01*
X469879Y262972D01*
Y262458D01*
X469503Y262400D01*
X469371Y262400D01*
X467534Y262400D01*
X467403Y262400D01*
X466884D01*
Y259100D01*
Y255800D01*
X467386D01*
X467534Y255800D01*
X467786Y255504D01*
Y252586D01*
X467767Y252567D01*
X463800D01*
X463468Y252501D01*
X463187Y252313D01*
X461538Y250663D01*
X461350Y250382D01*
X461284Y250050D01*
Y249628D01*
X458247D01*
Y247067D01*
X456174D01*
X456092Y247264D01*
X455564Y247792D01*
X454874Y248078D01*
X454127D01*
X453436Y247792D01*
X452908Y247264D01*
X452622Y246573D01*
Y245827D01*
X452908Y245136D01*
X453436Y244608D01*
X454127Y244322D01*
X454874D01*
X455564Y244608D01*
X456092Y245136D01*
X456174Y245333D01*
X458247D01*
Y243316D01*
X464953D01*
Y245833D01*
X467126D01*
X467208Y245636D01*
X467736Y245108D01*
X468427Y244822D01*
X469173D01*
X469864Y245108D01*
X470392Y245636D01*
X470678Y246326D01*
Y247074D01*
X470392Y247764D01*
X469864Y248292D01*
X469173Y248578D01*
X468427D01*
X467736Y248292D01*
X467208Y247764D01*
X467126Y247567D01*
X464953D01*
Y249628D01*
X463519D01*
X463353Y250028D01*
X464159Y250833D01*
X468126D01*
X468457Y250899D01*
X468738Y251087D01*
X469266Y251614D01*
X469453Y251896D01*
X469519Y252227D01*
Y255504D01*
X469771Y255800D01*
X469919Y255800D01*
X471471D01*
Y255800D01*
X471740D01*
Y255800D01*
X473440D01*
Y255800D01*
X473708D01*
Y255800D01*
X475408D01*
Y255800D01*
X475677D01*
Y255800D01*
X477377D01*
Y255800D01*
X477645D01*
Y255800D01*
X479345D01*
Y255800D01*
X479614D01*
Y255800D01*
X481314D01*
Y255800D01*
X481582D01*
Y255800D01*
X483282D01*
Y255800D01*
X483551D01*
Y255800D01*
X485251D01*
Y255800D01*
X485519D01*
Y255800D01*
X487219D01*
Y255800D01*
X487488D01*
Y255800D01*
X489188D01*
Y255800D01*
X489456D01*
X489772Y255752D01*
X489913Y255382D01*
X487596Y253065D01*
X482147D01*
X481796Y252995D01*
X481498Y252796D01*
X479351Y250649D01*
X479152Y250351D01*
X479082Y250000D01*
Y249367D01*
X476631D01*
Y243033D01*
X483369D01*
Y249367D01*
X481231D01*
X481065Y249767D01*
X482527Y251230D01*
X487976D01*
X488327Y251299D01*
X488625Y251498D01*
X492874Y255747D01*
X492909Y255800D01*
X493393Y255800D01*
X493525Y255800D01*
X494043D01*
Y259100D01*
Y262400D01*
X493541D01*
X493393Y262400D01*
X493141Y262696D01*
Y268947D01*
X493541Y269113D01*
X493841Y268813D01*
X494459Y268557D01*
X495128D01*
X495264Y268614D01*
X495878Y268000D01*
X495878Y268000D01*
X496143Y267823D01*
X496455Y267761D01*
X496455Y267761D01*
X498327D01*
X498492Y267361D01*
X498385Y267253D01*
X498129Y266636D01*
Y265967D01*
X498385Y265349D01*
X498858Y264876D01*
X499284Y264699D01*
Y262695D01*
X499030Y262400D01*
X498884Y262400D01*
X497330D01*
Y262400D01*
X497062D01*
Y262400D01*
X495493D01*
X495093Y262400D01*
X494962Y262400D01*
X494443D01*
Y259100D01*
Y255800D01*
X494945D01*
X495093Y255800D01*
X495345Y255504D01*
Y252788D01*
X495411Y252456D01*
X495599Y252175D01*
X497433Y250341D01*
Y248758D01*
X495341D01*
Y247867D01*
X493674D01*
X493592Y248064D01*
X493064Y248592D01*
X492374Y248878D01*
X491627D01*
X490936Y248592D01*
X490408Y248064D01*
X490122Y247374D01*
Y246626D01*
X490408Y245936D01*
X490936Y245408D01*
X491627Y245122D01*
X492374D01*
X493064Y245408D01*
X493592Y245936D01*
X493674Y246133D01*
X495341D01*
Y245202D01*
X501259D01*
Y246333D01*
X502726D01*
X502808Y246136D01*
X503336Y245608D01*
X504027Y245322D01*
X504774D01*
X505464Y245608D01*
X505992Y246136D01*
X506278Y246827D01*
Y247573D01*
X505992Y248264D01*
X505464Y248792D01*
X504774Y249078D01*
X504027D01*
X503336Y248792D01*
X502808Y248264D01*
X502726Y248067D01*
X501259D01*
Y248758D01*
X499167D01*
Y250700D01*
X499101Y251032D01*
X498913Y251313D01*
X497079Y253147D01*
Y254319D01*
X497478Y254440D01*
X497568Y254307D01*
X499187Y252687D01*
X499468Y252499D01*
X499800Y252433D01*
X503924D01*
X509817Y246540D01*
X509084Y245808D01*
X508673Y245978D01*
X507927D01*
X507236Y245692D01*
X506708Y245164D01*
X506422Y244474D01*
Y243726D01*
X506708Y243036D01*
X507236Y242508D01*
X507927Y242222D01*
X508673D01*
X509364Y242508D01*
X509892Y243036D01*
X510178Y243726D01*
Y244450D01*
X511401Y245673D01*
X512247D01*
Y243384D01*
X518953D01*
Y245378D01*
X521466D01*
X521936Y244908D01*
X522626Y244622D01*
X523374D01*
X524064Y244908D01*
X524592Y245436D01*
X524878Y246127D01*
Y246873D01*
X524592Y247564D01*
X524064Y248092D01*
X523374Y248378D01*
X522626D01*
X521936Y248092D01*
X521466Y247621D01*
X518953D01*
Y249696D01*
X512247D01*
Y247407D01*
X511401D01*
X504895Y253913D01*
X504614Y254101D01*
X504283Y254167D01*
X500159D01*
X499047Y255279D01*
Y255504D01*
X499299Y255800D01*
X499447Y255800D01*
X500999D01*
Y262400D01*
X500813D01*
Y264927D01*
X501235Y265349D01*
X501491Y265967D01*
Y266636D01*
X501235Y267253D01*
X501127Y267361D01*
X501293Y267761D01*
X503461D01*
X503461Y267761D01*
X503773Y267823D01*
X504038Y268000D01*
X504415Y267940D01*
X504539Y267779D01*
X504545Y267378D01*
X504545Y267378D01*
X503020Y265852D01*
X502843Y265587D01*
X502781Y265275D01*
X502781Y265275D01*
Y265181D01*
X502509Y265069D01*
X502036Y264596D01*
X501780Y263978D01*
Y263309D01*
X502036Y262691D01*
X502509Y262218D01*
X503126Y261962D01*
X503795D01*
X504413Y262218D01*
X504886Y262691D01*
X505142Y263309D01*
Y263978D01*
X504886Y264596D01*
X504478Y265003D01*
X505460Y265985D01*
X507850D01*
X507850Y265985D01*
X507929Y266001D01*
X511200D01*
Y267570D01*
X511200Y267970D01*
X511200Y268101D01*
Y269670D01*
X511200Y269670D01*
Y269938D01*
X511200D01*
X511200Y270070D01*
Y271638D01*
X511200D01*
Y271907D01*
X511200D01*
Y273607D01*
X511200D01*
Y273875D01*
X511200D01*
Y275444D01*
X511200Y275575D01*
X511200D01*
Y275844D01*
X511200D01*
Y277396D01*
X511200Y277544D01*
X511496Y277796D01*
X518182D01*
Y275441D01*
X519093D01*
Y271153D01*
X517244D01*
Y264447D01*
X519233D01*
Y262674D01*
X519036Y262592D01*
X518508Y262064D01*
X518222Y261373D01*
Y260627D01*
X518508Y259936D01*
X519036Y259408D01*
X519727Y259122D01*
X520473D01*
X521164Y259408D01*
X521692Y259936D01*
X521978Y260627D01*
Y261373D01*
X521692Y262064D01*
X521164Y262592D01*
X520967Y262674D01*
Y264447D01*
X523556D01*
Y271153D01*
X520826D01*
Y275441D01*
X521738D01*
Y281359D01*
X520567D01*
Y282326D01*
X520764Y282408D01*
X521292Y282936D01*
X521578Y283627D01*
Y284373D01*
X521292Y285064D01*
X520764Y285592D01*
X520074Y285878D01*
X519326D01*
X518636Y285592D01*
X518108Y285064D01*
X517822Y284373D01*
Y283627D01*
X518108Y282936D01*
X518636Y282408D01*
X518833Y282326D01*
Y281359D01*
X518182D01*
Y279529D01*
X511496D01*
X511200Y279781D01*
X511200Y279929D01*
Y280431D01*
X507900D01*
X504600D01*
X504600Y279512D01*
X504600Y279381D01*
Y277944D01*
X504600Y277812D01*
X504365Y277509D01*
X504135D01*
X503917Y277655D01*
X503605Y277717D01*
X503605Y277717D01*
X497682D01*
X497625Y277853D01*
X497152Y278326D01*
X496534Y278582D01*
X495866D01*
X495248Y278326D01*
X494775Y277853D01*
X494519Y277236D01*
Y276567D01*
X494775Y275949D01*
X495248Y275476D01*
X495866Y275220D01*
X496534D01*
X497152Y275476D01*
X497625Y275949D01*
X497682Y276085D01*
X501108D01*
X501282Y275686D01*
X501062Y275154D01*
Y274486D01*
X501282Y273955D01*
X501108Y273555D01*
X499543D01*
X499494Y273674D01*
X499021Y274146D01*
X498403Y274402D01*
X497734D01*
X497116Y274146D01*
X496643Y273674D01*
X496387Y273056D01*
Y272387D01*
X496643Y271769D01*
X497116Y271296D01*
X497734Y271040D01*
X498403D01*
X499021Y271296D01*
X499494Y271769D01*
X499558Y271923D01*
X500964D01*
X501138Y271523D01*
X500918Y270992D01*
Y270323D01*
X501138Y269793D01*
X500964Y269392D01*
X496793D01*
X496418Y269767D01*
X496474Y269904D01*
Y270573D01*
X496218Y271191D01*
X495746Y271663D01*
X495128Y271919D01*
X494459D01*
X493841Y271663D01*
X493541Y271364D01*
X493141Y271529D01*
Y284897D01*
X493511Y285050D01*
X493567Y284994D01*
X494185Y284738D01*
X494854D01*
X495472Y284994D01*
X495945Y285467D01*
X496001Y285604D01*
X498154D01*
X498319Y285204D01*
X498086Y284970D01*
X497830Y284352D01*
Y283683D01*
X498086Y283066D01*
X498559Y282593D01*
X499177Y282337D01*
X499845D01*
X500463Y282593D01*
X500936Y283066D01*
X501192Y283683D01*
Y283752D01*
X504365D01*
X504600Y283449D01*
X504600Y283318D01*
X504600Y281481D01*
X504600Y281349D01*
Y280831D01*
X507900D01*
X511200D01*
Y281333D01*
X511200Y281481D01*
X511495Y281733D01*
X512257D01*
X512375Y281450D01*
X512848Y280977D01*
X513466Y280721D01*
X514134D01*
X514752Y280977D01*
X515225Y281450D01*
X515481Y282068D01*
Y282737D01*
X515225Y283355D01*
X514752Y283827D01*
X514134Y284084D01*
X513466D01*
X512848Y283827D01*
X512385Y283365D01*
X511314D01*
X511200Y283718D01*
X511200Y283849D01*
Y285418D01*
X511200D01*
Y285686D01*
X511200D01*
Y287386D01*
X511200D01*
Y287655D01*
X511200D01*
Y289355D01*
X511200D01*
Y289623D01*
X511200D01*
Y291192D01*
X511200Y291323D01*
X511200D01*
Y291592D01*
X511200D01*
Y293160D01*
X511200Y293560D01*
X511200Y293692D01*
Y295129D01*
X511200Y295260D01*
X511435Y295563D01*
X512018D01*
X512018Y295563D01*
X512330Y295625D01*
X512595Y295802D01*
X512965Y296173D01*
X513102Y296116D01*
X513771D01*
X514389Y296372D01*
X514861Y296845D01*
X515117Y297463D01*
Y298132D01*
X514861Y298749D01*
X514389Y299222D01*
X513771Y299478D01*
X513102D01*
X512484Y299222D01*
X512011Y298749D01*
X511755Y298132D01*
Y297746D01*
X511377Y297410D01*
X511312Y297417D01*
X511200Y297521D01*
X511200Y297629D01*
Y298147D01*
X507900D01*
X504600D01*
Y297229D01*
X504600Y297097D01*
Y295860D01*
X504200Y295694D01*
X503488Y296406D01*
X503224Y296582D01*
X502912Y296644D01*
X502912Y296644D01*
X495776D01*
X495719Y296781D01*
X495247Y297254D01*
X494629Y297510D01*
X493960D01*
X493342Y297254D01*
X492936Y296847D01*
X492622Y296921D01*
X492535Y296970D01*
Y308228D01*
X492936Y308394D01*
X493147Y308183D01*
X493764Y307927D01*
X494433D01*
X495051Y308183D01*
X495524Y308656D01*
X495581Y308793D01*
X499059D01*
X499225Y308393D01*
X497187Y306355D01*
X497147Y306371D01*
X496478D01*
X495860Y306115D01*
X495388Y305642D01*
X495132Y305025D01*
Y304356D01*
X495388Y303738D01*
X495860Y303265D01*
X496478Y303009D01*
X497147D01*
X497765Y303265D01*
X498238Y303738D01*
X498494Y304356D01*
Y305025D01*
X498397Y305258D01*
X500513Y307374D01*
X502519D01*
X502562Y306975D01*
X502297Y306798D01*
X502297Y306798D01*
X501725Y306225D01*
X501372Y306371D01*
X500703D01*
X500085Y306115D01*
X499613Y305642D01*
X499357Y305025D01*
Y304356D01*
X499613Y303738D01*
X500085Y303265D01*
X500703Y303009D01*
X501372D01*
X501990Y303265D01*
X502463Y303738D01*
X502719Y304356D01*
Y304913D01*
X503212Y305406D01*
X504365D01*
X504600Y305103D01*
X504600Y304971D01*
X504600Y303134D01*
X504600Y303003D01*
X504600Y301166D01*
X504600Y301034D01*
X504600Y299197D01*
X504600Y299066D01*
Y298547D01*
X507900D01*
X511200D01*
X511200Y299466D01*
X511200Y299597D01*
Y301018D01*
X511200Y301166D01*
X511496Y301418D01*
X513251D01*
X513981Y300687D01*
X514262Y300499D01*
X514594Y300433D01*
X517004D01*
Y297947D01*
X519293D01*
Y293859D01*
X517826D01*
Y291667D01*
X516574D01*
X516492Y291864D01*
X515964Y292392D01*
X515274Y292678D01*
X514527D01*
X513836Y292392D01*
X513308Y291864D01*
X513022Y291174D01*
Y290426D01*
X513308Y289736D01*
X513836Y289208D01*
X514527Y288922D01*
X515274D01*
X515964Y289208D01*
X516492Y289736D01*
X516574Y289933D01*
X517826D01*
Y287941D01*
X522563D01*
Y293859D01*
X521027D01*
Y297947D01*
X523316D01*
Y304653D01*
X521367D01*
Y305400D01*
X521301Y305732D01*
X521113Y306013D01*
X519796Y307329D01*
X519878Y307526D01*
Y308274D01*
X519592Y308964D01*
X519064Y309492D01*
X518373Y309778D01*
X517626D01*
X516936Y309492D01*
X516408Y308964D01*
X516122Y308274D01*
Y307526D01*
X516408Y306836D01*
X516936Y306308D01*
X517626Y306022D01*
X518373D01*
X518571Y306104D01*
X519622Y305053D01*
X519605Y304653D01*
X517004D01*
Y302167D01*
X514953D01*
X514223Y302897D01*
X513941Y303085D01*
X513610Y303151D01*
X512154D01*
X512032Y303551D01*
X512166Y303640D01*
X515346Y306820D01*
X515534Y307101D01*
X515600Y307433D01*
Y312774D01*
X517064Y314238D01*
X517464Y314104D01*
Y311847D01*
X519909D01*
Y311022D01*
X519975Y310691D01*
X520163Y310409D01*
X522122Y308450D01*
Y307927D01*
X522408Y307236D01*
X522936Y306708D01*
X523627Y306422D01*
X524373D01*
X525064Y306708D01*
X525592Y307236D01*
X525878Y307927D01*
Y308674D01*
X525592Y309364D01*
X525064Y309892D01*
X524373Y310178D01*
X523627D01*
X523074Y309949D01*
X521642Y311381D01*
Y311847D01*
X523776D01*
Y318553D01*
X521167D01*
Y320988D01*
X521101Y321320D01*
X520913Y321601D01*
X516899Y325614D01*
X516618Y325802D01*
X516287Y325868D01*
X515472D01*
X515243Y326420D01*
X514715Y326948D01*
X514025Y327234D01*
X513278D01*
X512587Y326948D01*
X512059Y326420D01*
X511773Y325730D01*
Y324983D01*
X512059Y324292D01*
X512587Y323764D01*
X513278Y323478D01*
X514025D01*
X514715Y323764D01*
X515085Y324134D01*
X515928D01*
X517009Y323054D01*
X516782Y322714D01*
X516621Y322781D01*
X515952D01*
X515500Y322594D01*
X515307Y322723D01*
X514995Y322785D01*
X514994Y322785D01*
X511435D01*
X511200Y323088D01*
X511200Y323219D01*
Y324788D01*
X511200D01*
Y325056D01*
X511200D01*
Y326625D01*
X511200Y327025D01*
X511200Y327156D01*
Y327675D01*
X507900D01*
Y328075D01*
X511200D01*
X511200Y328993D01*
X511200Y329125D01*
Y330545D01*
X511200Y330693D01*
X511496Y330945D01*
X517204D01*
Y328447D01*
X519359D01*
Y327580D01*
X519162Y327498D01*
X518634Y326970D01*
X518348Y326280D01*
Y325533D01*
X518634Y324843D01*
X519162Y324314D01*
X519852Y324028D01*
X520600D01*
X521290Y324314D01*
X521818Y324843D01*
X522104Y325533D01*
Y326280D01*
X521818Y326970D01*
X521290Y327498D01*
X521093Y327580D01*
Y328447D01*
X523516D01*
Y335153D01*
X520833D01*
Y339376D01*
X521030Y339458D01*
X521558Y339986D01*
X521844Y340676D01*
Y341424D01*
X521558Y342114D01*
X521030Y342642D01*
X520340Y342928D01*
X519593D01*
X518902Y342642D01*
X518374Y342114D01*
X518088Y341424D01*
Y340676D01*
X518374Y339986D01*
X518902Y339458D01*
X519100Y339376D01*
Y335153D01*
X517204D01*
Y332679D01*
X511496D01*
X511200Y332930D01*
X511200Y333079D01*
Y334499D01*
X511200Y334630D01*
X511435Y334933D01*
X512169D01*
X512226Y334797D01*
X512699Y334324D01*
X513317Y334068D01*
X513986D01*
X514603Y334324D01*
X515076Y334797D01*
X515332Y335414D01*
Y336083D01*
X515076Y336701D01*
X514603Y337174D01*
X513986Y337430D01*
X513317D01*
X512699Y337174D01*
X512226Y336701D01*
X512169Y336564D01*
X511200D01*
Y336599D01*
X504600D01*
Y335047D01*
X504600Y334899D01*
X504304Y334647D01*
X503476D01*
X503144Y334581D01*
X502863Y334393D01*
X502551Y334080D01*
X502073Y334278D01*
X501327D01*
X500636Y333992D01*
X500108Y333464D01*
X499822Y332773D01*
Y332027D01*
X500108Y331336D01*
X500334Y331110D01*
X500169Y330710D01*
X497175D01*
X496843Y330644D01*
X496819Y330628D01*
X496564Y330939D01*
X518659Y353033D01*
X545173D01*
Y352900D01*
X545281Y352354D01*
X545591Y351891D01*
X546054Y351581D01*
X546600Y351473D01*
X548600D01*
X549146Y351581D01*
X549609Y351891D01*
X549919Y352354D01*
X550027Y352900D01*
Y353033D01*
X555839D01*
Y349858D01*
X561953D01*
Y357942D01*
X555839D01*
Y354767D01*
X550027D01*
Y354900D01*
X549919Y355446D01*
X549609Y355909D01*
X549146Y356219D01*
X548600Y356327D01*
X546600D01*
X546054Y356219D01*
X545591Y355909D01*
X545281Y355446D01*
X545173Y354900D01*
Y354767D01*
X518300D01*
X517968Y354701D01*
X517687Y354513D01*
X494041Y330867D01*
X489510D01*
X489344Y331267D01*
X489525Y331448D01*
X489781Y332066D01*
Y332734D01*
X489525Y333352D01*
X489104Y333774D01*
Y340086D01*
X489456Y340200D01*
X489588Y340200D01*
X491425Y340200D01*
X491556Y340200D01*
X493125D01*
Y340200D01*
X493393D01*
Y340200D01*
X494962D01*
X495362Y340200D01*
X495493Y340200D01*
X497330Y340200D01*
X497462Y340200D01*
X499299Y340200D01*
X499430Y340200D01*
X500999D01*
Y342633D01*
X502338D01*
X502670Y342699D01*
X502951Y342887D01*
X503466Y343402D01*
X503666Y343319D01*
X504334D01*
X504952Y343575D01*
X505425Y344048D01*
X505681Y344666D01*
Y345334D01*
X505425Y345952D01*
X504952Y346425D01*
X504334Y346681D01*
X503666D01*
X503048Y346425D01*
X502575Y345952D01*
X502319Y345334D01*
Y344706D01*
X501979Y344367D01*
X500999D01*
Y346800D01*
X499447D01*
X499299Y346800D01*
X499047Y347096D01*
Y347821D01*
X500080Y348854D01*
X500166Y348819D01*
X500834D01*
X501452Y349075D01*
X501925Y349548D01*
X502181Y350166D01*
Y350834D01*
X501925Y351452D01*
X501452Y351925D01*
X500834Y352181D01*
X500166D01*
X499548Y351925D01*
X499075Y351452D01*
X498819Y350834D01*
Y350166D01*
X498854Y350080D01*
X497568Y348793D01*
X497478Y348660D01*
X497079Y348781D01*
Y350853D01*
X501080Y354854D01*
X501166Y354819D01*
X501834D01*
X502452Y355075D01*
X502925Y355548D01*
X503181Y356166D01*
Y356834D01*
X502925Y357452D01*
X502452Y357925D01*
X501834Y358181D01*
X501166D01*
X500836Y358045D01*
X500609Y358384D01*
X502077Y359852D01*
X502173Y359812D01*
X502841D01*
X503459Y360068D01*
X503932Y360541D01*
X504188Y361159D01*
Y361827D01*
X503932Y362445D01*
X503459Y362918D01*
X502929Y363138D01*
X502769Y363544D01*
X505080Y365854D01*
X505166Y365819D01*
X505834D01*
X506452Y366075D01*
X506925Y366548D01*
X507181Y367166D01*
Y367834D01*
X506925Y368452D01*
X506452Y368925D01*
X505834Y369181D01*
D02*
G37*
G36*
X592053Y367195D02*
X585347D01*
Y364967D01*
X579674D01*
X579592Y365164D01*
X579064Y365692D01*
X578373Y365978D01*
X577627D01*
X576936Y365692D01*
X576408Y365164D01*
X576122Y364474D01*
Y363726D01*
X576408Y363036D01*
X576936Y362508D01*
X577627Y362222D01*
X578373D01*
X579064Y362508D01*
X579592Y363036D01*
X579674Y363233D01*
X585347D01*
Y360490D01*
X592053D01*
Y362976D01*
X595499D01*
X598004Y360471D01*
X597922Y360274D01*
Y359526D01*
X598208Y358836D01*
X598736Y358308D01*
X599427Y358022D01*
X600174D01*
X600864Y358308D01*
X601392Y358836D01*
X601678Y359526D01*
Y360274D01*
X601392Y360964D01*
X600864Y361492D01*
X600174Y361778D01*
X599427D01*
X599229Y361696D01*
X596470Y364455D01*
X596189Y364643D01*
X595857Y364709D01*
X592053D01*
Y367195D01*
D02*
G37*
G36*
X450369Y367315D02*
X447200D01*
Y364348D01*
X450369D01*
Y367315D01*
D02*
G37*
G36*
X446800D02*
X443631D01*
Y364348D01*
X446800D01*
Y367315D01*
D02*
G37*
G36*
X487353Y367180D02*
X484200D01*
Y364224D01*
X487353D01*
Y367180D01*
D02*
G37*
G36*
X483800D02*
X480647D01*
Y364224D01*
X483800D01*
Y367180D01*
D02*
G37*
G36*
X468853Y366540D02*
X465700D01*
Y363584D01*
X468853D01*
Y366540D01*
D02*
G37*
G36*
X465300D02*
X462147D01*
Y363584D01*
X465300D01*
Y366540D01*
D02*
G37*
G36*
X414753Y365996D02*
X411600D01*
Y363040D01*
X414753D01*
Y365996D01*
D02*
G37*
G36*
X411200D02*
X408047D01*
Y363040D01*
X411200D01*
Y365996D01*
D02*
G37*
G36*
X414753Y362640D02*
X411600D01*
Y359684D01*
X414753D01*
Y362640D01*
D02*
G37*
G36*
X411200D02*
X408047D01*
Y359684D01*
X411200D01*
Y362640D01*
D02*
G37*
G36*
X265550Y359050D02*
X262200D01*
Y355700D01*
X265550D01*
Y359050D01*
D02*
G37*
G36*
X261800D02*
X258450D01*
Y355700D01*
X261800D01*
Y359050D01*
D02*
G37*
G36*
X252417Y358665D02*
X251583D01*
X250778Y358450D01*
X250056Y358033D01*
X249467Y357444D01*
X249050Y356722D01*
X248835Y355917D01*
Y355083D01*
X249050Y354278D01*
X249467Y353556D01*
X250056Y352967D01*
X250778Y352550D01*
X251583Y352335D01*
X252417D01*
X253222Y352550D01*
X253944Y352967D01*
X254533Y353556D01*
X254950Y354278D01*
X255165Y355083D01*
Y355917D01*
X254950Y356722D01*
X254533Y357444D01*
X253944Y358033D01*
X253222Y358450D01*
X252417Y358665D01*
D02*
G37*
G36*
X265550Y355300D02*
X262200D01*
Y351950D01*
X265550D01*
Y355300D01*
D02*
G37*
G36*
X261800D02*
X258450D01*
Y351950D01*
X261800D01*
Y355300D01*
D02*
G37*
G36*
X573961Y357942D02*
X567846D01*
Y349858D01*
X573961D01*
Y352573D01*
X585653D01*
X586017Y351941D01*
X586641Y351317D01*
X587406Y350876D01*
X588259Y350647D01*
X589141D01*
X589994Y350876D01*
X590759Y351317D01*
X591383Y351941D01*
X591824Y352706D01*
X592053Y353559D01*
Y354441D01*
X591824Y355294D01*
X591383Y356059D01*
X590759Y356683D01*
X589994Y357124D01*
X589141Y357353D01*
X588259D01*
X587406Y357124D01*
X586641Y356683D01*
X586017Y356059D01*
X585653Y355427D01*
X573961D01*
Y357942D01*
D02*
G37*
G36*
X589141Y347510D02*
X588900D01*
Y344357D01*
X592053D01*
Y344599D01*
X591824Y345452D01*
X591383Y346216D01*
X590759Y346840D01*
X589994Y347282D01*
X589141Y347510D01*
D02*
G37*
G36*
X588500D02*
X588259D01*
X587406Y347282D01*
X586641Y346840D01*
X586017Y346216D01*
X585576Y345452D01*
X585347Y344599D01*
Y344357D01*
X588500D01*
Y347510D01*
D02*
G37*
G36*
X252417Y348665D02*
X251583D01*
X250778Y348450D01*
X250056Y348033D01*
X249467Y347444D01*
X249050Y346722D01*
X248835Y345917D01*
Y345083D01*
X249050Y344278D01*
X249467Y343556D01*
X250056Y342967D01*
X250778Y342550D01*
X251583Y342335D01*
X252417D01*
X253222Y342550D01*
X253944Y342967D01*
X254533Y343556D01*
X254950Y344278D01*
X255165Y345083D01*
Y345917D01*
X254950Y346722D01*
X254533Y347444D01*
X253944Y348033D01*
X253222Y348450D01*
X252417Y348665D01*
D02*
G37*
G36*
X592053Y343957D02*
X588900D01*
Y340805D01*
X589141D01*
X589994Y341033D01*
X590759Y341475D01*
X591383Y342099D01*
X591824Y342863D01*
X592053Y343716D01*
Y343957D01*
D02*
G37*
G36*
X588500D02*
X585347D01*
Y343716D01*
X585576Y342863D01*
X586017Y342099D01*
X586641Y341475D01*
X587406Y341033D01*
X588259Y340805D01*
X588500D01*
Y343957D01*
D02*
G37*
G36*
X375450Y341722D02*
X373950D01*
X373501Y341633D01*
X373121Y341379D01*
X372867Y340999D01*
X372778Y340550D01*
Y339050D01*
X372867Y338601D01*
X373121Y338221D01*
X373501Y337967D01*
X373950Y337877D01*
X375450D01*
X375899Y337967D01*
X376279Y338221D01*
X376533Y338601D01*
X376623Y339050D01*
Y340550D01*
X376533Y340999D01*
X376279Y341379D01*
X375899Y341633D01*
X375450Y341722D01*
D02*
G37*
G36*
X563589Y344665D02*
X562668D01*
X561777Y344427D01*
X560979Y343966D01*
X560328Y343314D01*
X559867Y342516D01*
X559628Y341626D01*
Y340705D01*
X559867Y339814D01*
X560328Y339016D01*
X560979Y338365D01*
X561777Y337904D01*
X562668Y337665D01*
X563589D01*
X564479Y337904D01*
X565277Y338365D01*
X565929Y339016D01*
X566390Y339814D01*
X566628Y340705D01*
Y341626D01*
X566390Y342516D01*
X565929Y343314D01*
X565277Y343966D01*
X564479Y344427D01*
X563589Y344665D01*
D02*
G37*
G36*
X553589D02*
X552668D01*
X551777Y344427D01*
X550979Y343966D01*
X550328Y343314D01*
X549867Y342516D01*
X549628Y341626D01*
Y340705D01*
X549867Y339814D01*
X550328Y339016D01*
X550979Y338365D01*
X551777Y337904D01*
X552668Y337665D01*
X553589D01*
X554479Y337904D01*
X555277Y338365D01*
X555929Y339016D01*
X556390Y339814D01*
X556628Y340705D01*
Y341626D01*
X556390Y342516D01*
X555929Y343314D01*
X555277Y343966D01*
X554479Y344427D01*
X553589Y344665D01*
D02*
G37*
G36*
X430273Y338878D02*
X429527D01*
X428836Y338592D01*
X428308Y338064D01*
X428022Y337373D01*
Y336637D01*
X428001Y336615D01*
X423500D01*
X423416Y336599D01*
X420200D01*
Y335047D01*
X420200Y334899D01*
X419904Y334647D01*
X419459D01*
X419392Y334810D01*
X418864Y335338D01*
X418174Y335624D01*
X417426D01*
X416736Y335338D01*
X416208Y334810D01*
X415922Y334120D01*
Y333372D01*
X416044Y333079D01*
X415777Y332679D01*
X412627D01*
X412592Y332764D01*
X412064Y333292D01*
X411374Y333578D01*
X410627D01*
X409936Y333292D01*
X409408Y332764D01*
X409122Y332073D01*
Y331327D01*
X409408Y330636D01*
X409936Y330108D01*
X410627Y329822D01*
X411374D01*
X412064Y330108D01*
X412592Y330636D01*
X412720Y330945D01*
X419904D01*
X420200Y330693D01*
X420200Y330545D01*
Y329125D01*
X420200Y328993D01*
X419965Y328691D01*
X419425D01*
X419225Y329173D01*
X418752Y329646D01*
X418134Y329902D01*
X417466D01*
X416848Y329646D01*
X416375Y329173D01*
X416119Y328556D01*
Y327887D01*
X416375Y327269D01*
X416848Y326796D01*
X417466Y326540D01*
X418134D01*
X418752Y326796D01*
X419015Y327059D01*
X419965D01*
X420200Y326756D01*
X420200Y326625D01*
Y326106D01*
X423500D01*
X426800D01*
X426800Y327025D01*
X426800Y327156D01*
Y328577D01*
X426800Y328725D01*
X427096Y328977D01*
X428354D01*
X428686Y329043D01*
X428967Y329230D01*
X429025Y329288D01*
X429426Y329122D01*
X430173D01*
X430864Y329408D01*
X431392Y329936D01*
X431678Y330627D01*
Y331374D01*
X431392Y332064D01*
X430864Y332592D01*
X430173Y332878D01*
X429426D01*
X428736Y332592D01*
X428208Y332064D01*
X427922Y331374D01*
Y330710D01*
X427096D01*
X426800Y330962D01*
X426800Y331110D01*
Y332662D01*
X426800D01*
Y332930D01*
X426800D01*
Y334482D01*
X426800Y334630D01*
X427096Y334882D01*
X428360D01*
X428691Y334948D01*
X428972Y335136D01*
X429125Y335288D01*
X429527Y335122D01*
X430273D01*
X430964Y335408D01*
X431492Y335936D01*
X431778Y336627D01*
Y337373D01*
X431492Y338064D01*
X430964Y338592D01*
X430273Y338878D01*
D02*
G37*
G36*
X385650Y337022D02*
X384150D01*
X383701Y336933D01*
X383321Y336679D01*
X383067Y336299D01*
X382978Y335850D01*
Y334350D01*
X383067Y333901D01*
X383321Y333521D01*
X383701Y333267D01*
X384150Y333177D01*
X385650D01*
X386099Y333267D01*
X386479Y333521D01*
X386733Y333901D01*
X386823Y334350D01*
Y335850D01*
X386733Y336299D01*
X386479Y336679D01*
X386099Y336933D01*
X385650Y337022D01*
D02*
G37*
G36*
X332161Y339600D02*
X331239D01*
X330349Y339362D01*
X329551Y338901D01*
X328899Y338249D01*
X328438Y337451D01*
X328200Y336561D01*
Y335639D01*
X328438Y334749D01*
X328899Y333951D01*
X329551Y333299D01*
X330349Y332839D01*
X331239Y332600D01*
X332161D01*
X333051Y332839D01*
X333849Y333299D01*
X334501Y333951D01*
X334962Y334749D01*
X335200Y335639D01*
Y336561D01*
X334962Y337451D01*
X334501Y338249D01*
X333849Y338901D01*
X333051Y339362D01*
X332161Y339600D01*
D02*
G37*
G36*
X322161D02*
X321239D01*
X320349Y339362D01*
X319551Y338901D01*
X318899Y338249D01*
X318439Y337451D01*
X318200Y336561D01*
Y335639D01*
X318439Y334749D01*
X318899Y333951D01*
X319551Y333299D01*
X320349Y332839D01*
X321239Y332600D01*
X322161D01*
X323051Y332839D01*
X323849Y333299D01*
X324501Y333951D01*
X324961Y334749D01*
X325200Y335639D01*
Y336561D01*
X324961Y337451D01*
X324501Y338249D01*
X323849Y338901D01*
X323051Y339362D01*
X322161Y339600D01*
D02*
G37*
G36*
X312161D02*
X311239D01*
X310349Y339362D01*
X309551Y338901D01*
X308899Y338249D01*
X308438Y337451D01*
X308200Y336561D01*
Y335639D01*
X308438Y334749D01*
X308899Y333951D01*
X309551Y333299D01*
X310349Y332839D01*
X311239Y332600D01*
X312161D01*
X313051Y332839D01*
X313849Y333299D01*
X314501Y333951D01*
X314962Y334749D01*
X315200Y335639D01*
Y336561D01*
X314962Y337451D01*
X314501Y338249D01*
X313849Y338901D01*
X313051Y339362D01*
X312161Y339600D01*
D02*
G37*
G36*
X302161D02*
X301239D01*
X300349Y339362D01*
X299551Y338901D01*
X298899Y338249D01*
X298439Y337451D01*
X298200Y336561D01*
Y335639D01*
X298439Y334749D01*
X298899Y333951D01*
X299551Y333299D01*
X300349Y332839D01*
X301239Y332600D01*
X302161D01*
X303051Y332839D01*
X303849Y333299D01*
X304501Y333951D01*
X304961Y334749D01*
X305200Y335639D01*
Y336561D01*
X304961Y337451D01*
X304501Y338249D01*
X303849Y338901D01*
X303051Y339362D01*
X302161Y339600D01*
D02*
G37*
G36*
X530996Y335153D02*
X528040D01*
Y332000D01*
X530996D01*
Y335153D01*
D02*
G37*
G36*
X527640D02*
X524684D01*
Y332000D01*
X527640D01*
Y335153D01*
D02*
G37*
G36*
X530996Y331600D02*
X528040D01*
Y328447D01*
X530996D01*
Y331600D01*
D02*
G37*
G36*
X527640D02*
X524684D01*
Y328447D01*
X527640D01*
Y331600D01*
D02*
G37*
G36*
X393350Y331722D02*
X391850D01*
X391401Y331633D01*
X391021Y331379D01*
X390767Y330999D01*
X390677Y330550D01*
Y329050D01*
X390767Y328601D01*
X391021Y328221D01*
X391401Y327967D01*
X391850Y327877D01*
X393350D01*
X393799Y327967D01*
X394179Y328221D01*
X394433Y328601D01*
X394523Y329050D01*
Y330550D01*
X394433Y330999D01*
X394179Y331379D01*
X393799Y331633D01*
X393350Y331722D01*
D02*
G37*
G36*
X563589Y334665D02*
X562668D01*
X561777Y334427D01*
X560979Y333966D01*
X560328Y333314D01*
X559867Y332516D01*
X559628Y331626D01*
Y330705D01*
X559867Y329814D01*
X560328Y329016D01*
X560979Y328365D01*
X561777Y327904D01*
X562668Y327665D01*
X563589D01*
X564479Y327904D01*
X565277Y328365D01*
X565929Y329016D01*
X566390Y329814D01*
X566628Y330705D01*
Y331626D01*
X566390Y332516D01*
X565929Y333314D01*
X565277Y333966D01*
X564479Y334427D01*
X563589Y334665D01*
D02*
G37*
G36*
X553589D02*
X552668D01*
X551777Y334427D01*
X550979Y333966D01*
X550328Y333314D01*
X549867Y332516D01*
X549628Y331626D01*
Y330705D01*
X549867Y329814D01*
X550328Y329016D01*
X550979Y328365D01*
X551777Y327904D01*
X552668Y327665D01*
X553589D01*
X554479Y327904D01*
X555277Y328365D01*
X555929Y329016D01*
X556390Y329814D01*
X556628Y330705D01*
Y331626D01*
X556390Y332516D01*
X555929Y333314D01*
X555277Y333966D01*
X554479Y334427D01*
X553589Y334665D01*
D02*
G37*
G36*
X402616Y326653D02*
X399660D01*
Y323500D01*
X402616D01*
Y326653D01*
D02*
G37*
G36*
X399260D02*
X396304D01*
Y323500D01*
X399260D01*
Y326653D01*
D02*
G37*
G36*
X377150Y326822D02*
X375650D01*
X375201Y326733D01*
X374821Y326479D01*
X374567Y326099D01*
X374478Y325650D01*
Y324150D01*
X374567Y323701D01*
X374821Y323321D01*
X375201Y323067D01*
X375650Y322977D01*
X377150D01*
X377599Y323067D01*
X377979Y323321D01*
X378233Y323701D01*
X378323Y324150D01*
Y325650D01*
X378233Y326099D01*
X377979Y326479D01*
X377599Y326733D01*
X377150Y326822D01*
D02*
G37*
G36*
X433593Y327234D02*
X432846D01*
X432156Y326948D01*
X431628Y326420D01*
X431342Y325730D01*
Y324983D01*
X431423Y324786D01*
X429474Y322836D01*
X427096D01*
X426800Y323088D01*
X426800Y323236D01*
X426800Y325056D01*
X426800Y325188D01*
Y325706D01*
X423500D01*
X420200D01*
Y325204D01*
X420200Y325056D01*
X419904Y324804D01*
X410096D01*
Y326653D01*
X403784D01*
Y319947D01*
X405983D01*
X405990Y319547D01*
X405656Y319303D01*
X405474Y319378D01*
X404727D01*
X404036Y319092D01*
X403508Y318564D01*
X403222Y317874D01*
Y317126D01*
X403508Y316436D01*
X404036Y315908D01*
X404652Y315653D01*
X404573Y315253D01*
X404260D01*
Y312100D01*
X407216D01*
Y315253D01*
X405627D01*
X405548Y315653D01*
X406164Y315908D01*
X406692Y316436D01*
X406978Y317126D01*
Y317850D01*
X407513Y318384D01*
X407701Y318666D01*
X407767Y318997D01*
Y319947D01*
X410096D01*
Y323071D01*
X419904D01*
X420200Y322819D01*
X420200Y322671D01*
Y321251D01*
X420200Y321119D01*
X420200D01*
Y320851D01*
X420200D01*
Y319282D01*
X420200Y318882D01*
X420200Y318751D01*
X420200Y316914D01*
X420200Y316782D01*
X420200Y314945D01*
X420200Y314814D01*
Y314295D01*
X423500D01*
X426800D01*
Y314814D01*
X426800Y314945D01*
X427035Y315248D01*
X429747D01*
X429747Y315248D01*
X430059Y315310D01*
X430324Y315487D01*
X430421Y315584D01*
X437618D01*
X437675Y315448D01*
X438148Y314975D01*
X438766Y314719D01*
X439434D01*
X440052Y314975D01*
X440525Y315448D01*
X440781Y316066D01*
Y316734D01*
X440525Y317352D01*
X440052Y317825D01*
X439434Y318081D01*
X438766D01*
X438148Y317825D01*
X437675Y317352D01*
X437618Y317216D01*
X435035D01*
X434869Y317616D01*
X435429Y318176D01*
X435566Y318119D01*
X436234D01*
X436852Y318375D01*
X437325Y318848D01*
X437581Y319466D01*
Y320134D01*
X437325Y320752D01*
X436852Y321225D01*
X436234Y321481D01*
X435566D01*
X434948Y321225D01*
X434720Y320998D01*
X434675Y321008D01*
X434351Y321194D01*
Y321754D01*
X434095Y322372D01*
X433622Y322845D01*
X433004Y323100D01*
X433057Y323478D01*
X433593D01*
X434283Y323764D01*
X434812Y324292D01*
X435098Y324983D01*
Y325730D01*
X434812Y326420D01*
X434283Y326948D01*
X433593Y327234D01*
D02*
G37*
G36*
X332161Y329600D02*
X331239D01*
X330349Y329362D01*
X329551Y328901D01*
X328899Y328249D01*
X328438Y327451D01*
X328200Y326561D01*
Y325639D01*
X328438Y324749D01*
X328899Y323951D01*
X329551Y323299D01*
X330349Y322838D01*
X331239Y322600D01*
X332161D01*
X333051Y322838D01*
X333849Y323299D01*
X334501Y323951D01*
X334962Y324749D01*
X335200Y325639D01*
Y326561D01*
X334962Y327451D01*
X334501Y328249D01*
X333849Y328901D01*
X333051Y329362D01*
X332161Y329600D01*
D02*
G37*
G36*
X322161D02*
X321239D01*
X320349Y329362D01*
X319551Y328901D01*
X318899Y328249D01*
X318439Y327451D01*
X318200Y326561D01*
Y325639D01*
X318439Y324749D01*
X318899Y323951D01*
X319551Y323299D01*
X320349Y322838D01*
X321239Y322600D01*
X322161D01*
X323051Y322838D01*
X323849Y323299D01*
X324501Y323951D01*
X324961Y324749D01*
X325200Y325639D01*
Y326561D01*
X324961Y327451D01*
X324501Y328249D01*
X323849Y328901D01*
X323051Y329362D01*
X322161Y329600D01*
D02*
G37*
G36*
X312161D02*
X311239D01*
X310349Y329362D01*
X309551Y328901D01*
X308899Y328249D01*
X308438Y327451D01*
X308200Y326561D01*
Y325639D01*
X308438Y324749D01*
X308899Y323951D01*
X309551Y323299D01*
X310349Y322838D01*
X311239Y322600D01*
X312161D01*
X313051Y322838D01*
X313849Y323299D01*
X314501Y323951D01*
X314962Y324749D01*
X315200Y325639D01*
Y326561D01*
X314962Y327451D01*
X314501Y328249D01*
X313849Y328901D01*
X313051Y329362D01*
X312161Y329600D01*
D02*
G37*
G36*
X302161D02*
X301239D01*
X300349Y329362D01*
X299551Y328901D01*
X298899Y328249D01*
X298439Y327451D01*
X298200Y326561D01*
Y325639D01*
X298439Y324749D01*
X298899Y323951D01*
X299551Y323299D01*
X300349Y322838D01*
X301239Y322600D01*
X302161D01*
X303051Y322838D01*
X303849Y323299D01*
X304501Y323951D01*
X304961Y324749D01*
X305200Y325639D01*
Y326561D01*
X304961Y327451D01*
X304501Y328249D01*
X303849Y328901D01*
X303051Y329362D01*
X302161Y329600D01*
D02*
G37*
G36*
X402616Y323100D02*
X399660D01*
Y319947D01*
X402616D01*
Y323100D01*
D02*
G37*
G36*
X399260D02*
X396304D01*
Y319947D01*
X399260D01*
Y323100D01*
D02*
G37*
G36*
X595861Y326200D02*
X594939D01*
X594049Y325961D01*
X593251Y325501D01*
X592599Y324849D01*
X592138Y324051D01*
X591900Y323161D01*
Y322239D01*
X592138Y321349D01*
X592599Y320551D01*
X593251Y319899D01*
X594049Y319439D01*
X594939Y319200D01*
X595861D01*
X596751Y319439D01*
X597549Y319899D01*
X598201Y320551D01*
X598662Y321349D01*
X598900Y322239D01*
Y323161D01*
X598662Y324051D01*
X598201Y324849D01*
X597549Y325501D01*
X596751Y325961D01*
X595861Y326200D01*
D02*
G37*
G36*
X585861D02*
X584939D01*
X584049Y325961D01*
X583251Y325501D01*
X582599Y324849D01*
X582138Y324051D01*
X581900Y323161D01*
Y322239D01*
X582138Y321349D01*
X582599Y320551D01*
X583251Y319899D01*
X584049Y319439D01*
X584939Y319200D01*
X585861D01*
X586751Y319439D01*
X587549Y319899D01*
X588201Y320551D01*
X588661Y321349D01*
X588900Y322239D01*
Y323161D01*
X588661Y324051D01*
X588201Y324849D01*
X587549Y325501D01*
X586751Y325961D01*
X585861Y326200D01*
D02*
G37*
G36*
X563589Y324665D02*
X562668D01*
X561777Y324427D01*
X560979Y323966D01*
X560328Y323314D01*
X559867Y322516D01*
X559628Y321626D01*
Y320705D01*
X559867Y319814D01*
X560328Y319016D01*
X560979Y318365D01*
X561777Y317904D01*
X562668Y317665D01*
X563589D01*
X564479Y317904D01*
X565277Y318365D01*
X565929Y319016D01*
X566390Y319814D01*
X566628Y320705D01*
Y321626D01*
X566390Y322516D01*
X565929Y323314D01*
X565277Y323966D01*
X564479Y324427D01*
X563589Y324665D01*
D02*
G37*
G36*
X553589D02*
X552668D01*
X551777Y324427D01*
X550979Y323966D01*
X550328Y323314D01*
X549867Y322516D01*
X549628Y321626D01*
Y320705D01*
X549867Y319814D01*
X550328Y319016D01*
X550979Y318365D01*
X551777Y317904D01*
X552668Y317665D01*
X553589D01*
X554479Y317904D01*
X555277Y318365D01*
X555929Y319016D01*
X556390Y319814D01*
X556628Y320705D01*
Y321626D01*
X556390Y322516D01*
X555929Y323314D01*
X555277Y323966D01*
X554479Y324427D01*
X553589Y324665D01*
D02*
G37*
G36*
X415574Y321078D02*
X414826D01*
X414136Y320792D01*
X413608Y320264D01*
X413322Y319573D01*
Y318827D01*
X413404Y318629D01*
X411063Y316288D01*
X410875Y316007D01*
X410809Y315676D01*
Y315253D01*
X408384D01*
Y308547D01*
X414696D01*
Y311260D01*
X419904D01*
X420200Y311008D01*
X420200Y310860D01*
Y310358D01*
X423500D01*
X426800D01*
Y311277D01*
X426800Y311408D01*
X426800Y313245D01*
X426800Y313377D01*
Y313895D01*
X423500D01*
X420200D01*
Y313393D01*
X420200Y313245D01*
X419904Y312993D01*
X414696D01*
Y315253D01*
X413044D01*
X412878Y315653D01*
X414629Y317404D01*
X414826Y317322D01*
X415574D01*
X416264Y317608D01*
X416792Y318136D01*
X417078Y318827D01*
Y319573D01*
X416792Y320264D01*
X416264Y320792D01*
X415574Y321078D01*
D02*
G37*
G36*
X531256Y318553D02*
X528300D01*
Y315400D01*
X531256D01*
Y318553D01*
D02*
G37*
G36*
X527900D02*
X524944D01*
Y315400D01*
X527900D01*
Y318553D01*
D02*
G37*
G36*
X403860Y315253D02*
X400904D01*
Y312100D01*
X403860D01*
Y315253D01*
D02*
G37*
G36*
X531256Y315000D02*
X528300D01*
Y311847D01*
X531256D01*
Y315000D01*
D02*
G37*
G36*
X527900D02*
X524944D01*
Y311847D01*
X527900D01*
Y315000D01*
D02*
G37*
G36*
X595861Y316200D02*
X594939D01*
X594049Y315962D01*
X593251Y315501D01*
X592599Y314849D01*
X592138Y314051D01*
X591900Y313161D01*
Y312239D01*
X592138Y311349D01*
X592599Y310551D01*
X593251Y309899D01*
X594049Y309438D01*
X594939Y309200D01*
X595861D01*
X596751Y309438D01*
X597549Y309899D01*
X598201Y310551D01*
X598662Y311349D01*
X598900Y312239D01*
Y313161D01*
X598662Y314051D01*
X598201Y314849D01*
X597549Y315501D01*
X596751Y315962D01*
X595861Y316200D01*
D02*
G37*
G36*
X585861D02*
X584939D01*
X584049Y315962D01*
X583251Y315501D01*
X582599Y314849D01*
X582138Y314051D01*
X581900Y313161D01*
Y312239D01*
X582138Y311349D01*
X582599Y310551D01*
X583251Y309899D01*
X584049Y309438D01*
X584939Y309200D01*
X585861D01*
X586751Y309438D01*
X587549Y309899D01*
X588201Y310551D01*
X588661Y311349D01*
X588900Y312239D01*
Y313161D01*
X588661Y314051D01*
X588201Y314849D01*
X587549Y315501D01*
X586751Y315962D01*
X585861Y316200D01*
D02*
G37*
G36*
X407216Y311700D02*
X404260D01*
Y308547D01*
X407216D01*
Y311700D01*
D02*
G37*
G36*
X403860D02*
X400904D01*
Y308547D01*
X403860D01*
Y311700D01*
D02*
G37*
G36*
X274496Y332730D02*
X269739D01*
Y321670D01*
X270476D01*
Y312028D01*
X270225D01*
Y308078D01*
X274175D01*
Y312028D01*
X273841D01*
Y321670D01*
X274496D01*
Y332730D01*
D02*
G37*
G36*
X563589Y314665D02*
X562668D01*
X561777Y314427D01*
X560979Y313966D01*
X560328Y313314D01*
X559867Y312516D01*
X559628Y311626D01*
Y310705D01*
X559867Y309814D01*
X560328Y309016D01*
X560979Y308365D01*
X561777Y307904D01*
X562668Y307665D01*
X563589D01*
X564479Y307904D01*
X565277Y308365D01*
X565929Y309016D01*
X566390Y309814D01*
X566628Y310705D01*
Y311626D01*
X566390Y312516D01*
X565929Y313314D01*
X565277Y313966D01*
X564479Y314427D01*
X563589Y314665D01*
D02*
G37*
G36*
X553589D02*
X552668D01*
X551777Y314427D01*
X550979Y313966D01*
X550328Y313314D01*
X549867Y312516D01*
X549628Y311626D01*
Y310705D01*
X549867Y309814D01*
X550328Y309016D01*
X550979Y308365D01*
X551777Y307904D01*
X552668Y307665D01*
X553589D01*
X554479Y307904D01*
X555277Y308365D01*
X555929Y309016D01*
X556390Y309814D01*
X556628Y310705D01*
Y311626D01*
X556390Y312516D01*
X555929Y313314D01*
X555277Y313966D01*
X554479Y314427D01*
X553589Y314665D01*
D02*
G37*
G36*
X262467Y349050D02*
X261533D01*
X260630Y348808D01*
X259821Y348340D01*
X259160Y347679D01*
X258692Y346870D01*
X258450Y345967D01*
Y345033D01*
X258692Y344130D01*
X259160Y343320D01*
X259821Y342660D01*
X260059Y342522D01*
Y332730D01*
X259104D01*
Y321670D01*
X259918D01*
Y319200D01*
X260020Y318687D01*
Y317603D01*
X259920Y317100D01*
X260040Y316495D01*
X260122Y316373D01*
Y315300D01*
X260224Y314787D01*
Y314000D01*
X260326Y313487D01*
Y312800D01*
X260422Y312312D01*
X260427Y312305D01*
Y311300D01*
X260517Y310851D01*
X260529Y310832D01*
Y309900D01*
X260611Y309490D01*
X260631Y309460D01*
Y308600D01*
X260705Y308229D01*
X260784Y308111D01*
Y307650D01*
X260835Y307394D01*
Y306900D01*
X260700D01*
X260700Y305400D01*
X260700Y305100D01*
Y304800D01*
X261600D01*
X262500D01*
Y305400D01*
X262500Y305700D01*
Y306900D01*
X262365D01*
Y307394D01*
X262416Y307650D01*
Y308111D01*
X262495Y308229D01*
X262569Y308600D01*
Y309460D01*
X262589Y309490D01*
X262671Y309900D01*
Y310832D01*
X262683Y310851D01*
X262772Y311300D01*
Y312305D01*
X262777Y312312D01*
X262875Y312800D01*
Y313487D01*
X262977Y314000D01*
Y314787D01*
X263078Y315300D01*
Y316687D01*
X263180Y317200D01*
Y318687D01*
X263282Y319200D01*
Y321670D01*
X263861D01*
Y332730D01*
X263424D01*
Y342223D01*
X264179Y342660D01*
X264840Y343320D01*
X265308Y344130D01*
X265550Y345033D01*
Y345967D01*
X265308Y346870D01*
X264840Y347679D01*
X264179Y348340D01*
X263370Y348808D01*
X262467Y349050D01*
D02*
G37*
G36*
X274175Y306122D02*
X272400D01*
Y304347D01*
X274175D01*
Y306122D01*
D02*
G37*
G36*
X272000D02*
X270225D01*
Y304347D01*
X272000D01*
Y306122D01*
D02*
G37*
G36*
X262500Y304400D02*
X261800D01*
Y303900D01*
X262500D01*
Y304400D01*
D02*
G37*
G36*
X261400D02*
X260700D01*
Y303900D01*
X261400D01*
Y304400D01*
D02*
G37*
G36*
X426800Y309958D02*
X423500D01*
X420200D01*
X420200Y309040D01*
X420200Y308908D01*
Y307488D01*
X420200Y307340D01*
X419904Y307088D01*
X415921D01*
X415590Y307022D01*
X415308Y306834D01*
X412141Y303667D01*
X411618D01*
Y305759D01*
X408062D01*
Y299841D01*
X411618D01*
Y301933D01*
X414622D01*
Y301626D01*
X414908Y300936D01*
X415436Y300408D01*
X416059Y300150D01*
X416227Y299752D01*
X415487Y299013D01*
X415299Y298732D01*
X415233Y298400D01*
Y293786D01*
X415214Y293767D01*
X414336D01*
Y296253D01*
X408024D01*
Y289547D01*
X410256D01*
X410337Y289310D01*
X410049Y288978D01*
X409426D01*
X408736Y288692D01*
X408208Y288164D01*
X407922Y287474D01*
Y286726D01*
X408208Y286036D01*
X408410Y285834D01*
X408244Y285434D01*
X383268D01*
X382936Y285368D01*
X382655Y285180D01*
X343887Y246413D01*
X337227D01*
Y246600D01*
X337119Y247146D01*
X336809Y247609D01*
X336346Y247919D01*
X335800Y248027D01*
X333800D01*
X333254Y247919D01*
X332791Y247609D01*
X332481Y247146D01*
X332373Y246600D01*
Y246413D01*
X324563D01*
Y248908D01*
X317637D01*
Y246763D01*
X307466D01*
X307419Y246936D01*
X306978Y247700D01*
X306354Y248325D01*
X305589Y248766D01*
X304737Y248994D01*
X303854D01*
X303001Y248766D01*
X302237Y248325D01*
X301612Y247700D01*
X301171Y246936D01*
X301125Y246763D01*
X281875D01*
X281829Y246936D01*
X281388Y247700D01*
X280763Y248325D01*
X279999Y248766D01*
X279146Y248994D01*
X278263D01*
X277411Y248766D01*
X276646Y248325D01*
X276022Y247700D01*
X275581Y246936D01*
X275569Y246892D01*
X248509D01*
X248408Y247270D01*
X247940Y248079D01*
X247280Y248740D01*
X246470Y249208D01*
X245567Y249450D01*
X244633D01*
X243730Y249208D01*
X242920Y248740D01*
X242260Y248079D01*
X241792Y247270D01*
X241550Y246367D01*
Y245433D01*
X241792Y244530D01*
X242260Y243721D01*
X242920Y243060D01*
X243730Y242592D01*
X244633Y242350D01*
X245567D01*
X246470Y242592D01*
X247280Y243060D01*
X247940Y243721D01*
X248408Y244530D01*
X248440Y244649D01*
X275500D01*
X275581Y244348D01*
X276022Y243583D01*
X276646Y242959D01*
X277411Y242517D01*
X278263Y242289D01*
X279146D01*
X279999Y242517D01*
X280763Y242959D01*
X281388Y243583D01*
X281829Y244348D01*
X281875Y244520D01*
X301125D01*
X301171Y244348D01*
X301612Y243583D01*
X302237Y242959D01*
X303001Y242517D01*
X303854Y242289D01*
X304737D01*
X305589Y242517D01*
X306354Y242959D01*
X306978Y243583D01*
X307419Y244348D01*
X307466Y244520D01*
X317637D01*
Y242215D01*
X317637Y242184D01*
Y241815D01*
X317637Y241785D01*
Y238654D01*
X321100D01*
X324563D01*
Y241785D01*
X324563Y241815D01*
Y242184D01*
X324563Y242215D01*
Y244680D01*
X332373D01*
Y244600D01*
X332481Y244054D01*
X332791Y243591D01*
X333254Y243281D01*
X333800Y243173D01*
X335800D01*
X336346Y243281D01*
X336809Y243591D01*
X337119Y244054D01*
X337227Y244600D01*
Y244680D01*
X344246D01*
X344578Y244746D01*
X344859Y244934D01*
X383627Y283701D01*
X419904D01*
X420200Y283449D01*
X420200Y283301D01*
Y281749D01*
X420200D01*
Y281481D01*
X420200D01*
Y279781D01*
X420200D01*
Y279512D01*
X420200D01*
Y277812D01*
X420200D01*
Y277544D01*
X420200D01*
Y276413D01*
X419830Y276260D01*
X416277Y279813D01*
X415996Y280001D01*
X415665Y280067D01*
X414096D01*
Y282553D01*
X407784D01*
Y275847D01*
X410074D01*
Y275160D01*
X410140Y274828D01*
X410327Y274547D01*
X412487Y272387D01*
X412768Y272199D01*
X413100Y272133D01*
X415526D01*
X415608Y271936D01*
X416136Y271408D01*
X416826Y271122D01*
X417573D01*
X418264Y271408D01*
X418792Y271936D01*
X419078Y272626D01*
Y273374D01*
X418792Y274064D01*
X418264Y274592D01*
X417573Y274878D01*
X416826D01*
X416136Y274592D01*
X415608Y274064D01*
X415526Y273867D01*
X413459D01*
X411878Y275447D01*
X411980Y275847D01*
X414096D01*
Y278333D01*
X415306D01*
X419526Y274112D01*
X419808Y273924D01*
X419939Y273899D01*
X420177Y273632D01*
X420200Y273494D01*
X420200Y272957D01*
X423500D01*
X426800D01*
Y273459D01*
X426800Y273607D01*
X427096Y273859D01*
X433870D01*
X434321Y273407D01*
Y270303D01*
X431737Y267718D01*
X427096D01*
X426800Y267970D01*
X426800Y268118D01*
X426800Y269938D01*
X426800Y270070D01*
Y270588D01*
X423500D01*
X420200D01*
Y270086D01*
X420200Y269938D01*
X419904Y269686D01*
X418749D01*
X418418Y269620D01*
X418137Y269432D01*
X415971Y267267D01*
X414879D01*
Y270261D01*
X408553D01*
Y262539D01*
X410849D01*
Y256375D01*
X410141Y255667D01*
X406153D01*
Y257956D01*
X399447D01*
Y255567D01*
X394259D01*
Y257068D01*
X388341D01*
Y252331D01*
X394259D01*
Y253833D01*
X399447D01*
Y251644D01*
X406153D01*
Y253933D01*
X410500D01*
X410832Y253999D01*
X411113Y254187D01*
X412329Y255403D01*
X412516Y255684D01*
X412582Y256016D01*
Y262539D01*
X414879D01*
Y265533D01*
X416330D01*
X416661Y265599D01*
X416943Y265787D01*
X419108Y267953D01*
X419904D01*
X420200Y267701D01*
X420200Y267553D01*
Y266001D01*
X422633D01*
Y253156D01*
X420247D01*
Y250572D01*
X417659D01*
Y252074D01*
X415961D01*
X415882Y252474D01*
X415964Y252508D01*
X416492Y253036D01*
X416778Y253727D01*
Y254473D01*
X416492Y255164D01*
X415964Y255692D01*
X415274Y255978D01*
X414527D01*
X413836Y255692D01*
X413308Y255164D01*
X413022Y254473D01*
Y253727D01*
X413308Y253036D01*
X413836Y252508D01*
X413918Y252474D01*
X413839Y252074D01*
X411741D01*
Y247337D01*
X417659D01*
Y248839D01*
X420247D01*
Y246844D01*
X426953D01*
Y248833D01*
X429326D01*
X429408Y248636D01*
X429936Y248108D01*
X430626Y247822D01*
X431374D01*
X432064Y248108D01*
X432592Y248636D01*
X432878Y249326D01*
Y250074D01*
X432592Y250764D01*
X432064Y251292D01*
X431374Y251578D01*
X430626D01*
X429936Y251292D01*
X429408Y250764D01*
X429326Y250567D01*
X426953D01*
Y253156D01*
X424367D01*
Y265985D01*
X432095D01*
X432427Y266051D01*
X432708Y266238D01*
X435801Y269331D01*
X435989Y269612D01*
X436055Y269944D01*
Y273766D01*
X435989Y274097D01*
X435801Y274379D01*
X434842Y275338D01*
X434821Y275352D01*
X434646Y275739D01*
X434701Y275876D01*
X434901Y276359D01*
Y277028D01*
X434645Y277646D01*
X434172Y278119D01*
X433554Y278375D01*
X432885D01*
X432267Y278119D01*
X431795Y277646D01*
X431738Y277509D01*
X430627D01*
X430388Y277909D01*
X430561Y278328D01*
Y278997D01*
X430388Y279415D01*
X430627Y279815D01*
X435125D01*
X435182Y279679D01*
X435654Y279205D01*
X436272Y278950D01*
X436941D01*
X437559Y279205D01*
X438032Y279679D01*
X438288Y280296D01*
Y280965D01*
X438032Y281583D01*
X437559Y282056D01*
X436941Y282312D01*
X436272D01*
X435654Y282056D01*
X435182Y281583D01*
X435125Y281446D01*
X431559D01*
X431320Y281846D01*
X431493Y282265D01*
Y282934D01*
X431237Y283552D01*
X430764Y284024D01*
X430147Y284280D01*
X429478D01*
X428860Y284024D01*
X428387Y283552D01*
X428331Y283415D01*
X427035D01*
X426800Y283718D01*
X426800Y283849D01*
Y285286D01*
X426800Y285418D01*
X427035Y285721D01*
X431539D01*
Y285652D01*
X431795Y285034D01*
X432267Y284561D01*
X432885Y284305D01*
X433554D01*
X434172Y284561D01*
X434645Y285034D01*
X434901Y285652D01*
Y286321D01*
X434645Y286939D01*
X434290Y287293D01*
X434456Y287693D01*
X435123D01*
X435182Y287552D01*
X435654Y287080D01*
X436272Y286824D01*
X436941D01*
X437559Y287080D01*
X438032Y287552D01*
X438288Y288170D01*
Y288839D01*
X438032Y289457D01*
X437559Y289930D01*
X436941Y290186D01*
X436272D01*
X435654Y289930D01*
X435182Y289457D01*
X435127Y289324D01*
X431518D01*
X431251Y289724D01*
X431391Y290063D01*
Y290732D01*
X431186Y291226D01*
X431381Y291626D01*
X435125D01*
X435182Y291490D01*
X435654Y291017D01*
X436272Y290761D01*
X436941D01*
X437559Y291017D01*
X438032Y291490D01*
X438288Y292107D01*
Y292776D01*
X438032Y293394D01*
X437559Y293867D01*
X436941Y294123D01*
X436272D01*
X435654Y293867D01*
X435182Y293394D01*
X435125Y293257D01*
X431475D01*
X431285Y293657D01*
X431493Y294160D01*
Y294829D01*
X431355Y295163D01*
X431622Y295563D01*
X435125D01*
X435182Y295427D01*
X435654Y294954D01*
X436272Y294698D01*
X436941D01*
X437559Y294954D01*
X438032Y295427D01*
X438288Y296044D01*
Y296713D01*
X438032Y297331D01*
X437559Y297804D01*
X436941Y298060D01*
X436272D01*
X435654Y297804D01*
X435182Y297331D01*
X435125Y297194D01*
X431366D01*
X431158Y297594D01*
X431353Y298066D01*
Y298734D01*
X431097Y299352D01*
X430624Y299825D01*
X430006Y300081D01*
X429338D01*
X428720Y299825D01*
X428247Y299352D01*
X428179Y299189D01*
X427085D01*
X426800Y299466D01*
X426800Y299597D01*
X426800Y301434D01*
X426800Y301566D01*
Y302084D01*
X423500D01*
Y302484D01*
X426800D01*
X426800Y303403D01*
X426800Y303534D01*
X426800Y305371D01*
X426800Y305503D01*
X426800Y307340D01*
X426800Y307471D01*
X426800Y309308D01*
X426800Y309440D01*
Y309958D01*
D02*
G37*
G36*
X404138Y305759D02*
X402560D01*
Y303000D01*
X404138D01*
Y305759D01*
D02*
G37*
G36*
X402160D02*
X400582D01*
Y303000D01*
X402160D01*
Y305759D01*
D02*
G37*
G36*
X274175Y303947D02*
X272400D01*
Y302172D01*
X274175D01*
Y303947D01*
D02*
G37*
G36*
X272000D02*
X270225D01*
Y302172D01*
X272000D01*
Y303947D01*
D02*
G37*
G36*
X530796Y304653D02*
X527840D01*
Y301500D01*
X530796D01*
Y304653D01*
D02*
G37*
G36*
X527440D02*
X524484D01*
Y301500D01*
X527440D01*
Y304653D01*
D02*
G37*
G36*
X404138Y302600D02*
X402560D01*
Y299841D01*
X404138D01*
Y302600D01*
D02*
G37*
G36*
X402160D02*
X400582D01*
Y299841D01*
X402160D01*
Y302600D01*
D02*
G37*
G36*
X595861Y306200D02*
X594939D01*
X594049Y305961D01*
X593251Y305501D01*
X592599Y304849D01*
X592138Y304051D01*
X591900Y303161D01*
Y302239D01*
X592138Y301349D01*
X592599Y300551D01*
X593251Y299899D01*
X594049Y299439D01*
X594939Y299200D01*
X595861D01*
X596751Y299439D01*
X597549Y299899D01*
X598201Y300551D01*
X598662Y301349D01*
X598900Y302239D01*
Y303161D01*
X598662Y304051D01*
X598201Y304849D01*
X597549Y305501D01*
X596751Y305961D01*
X595861Y306200D01*
D02*
G37*
G36*
X585861D02*
X584939D01*
X584049Y305961D01*
X583251Y305501D01*
X582599Y304849D01*
X582138Y304051D01*
X581900Y303161D01*
Y302239D01*
X582138Y301349D01*
X582599Y300551D01*
X583251Y299899D01*
X584049Y299439D01*
X584939Y299200D01*
X585861D01*
X586751Y299439D01*
X587549Y299899D01*
X588201Y300551D01*
X588661Y301349D01*
X588900Y302239D01*
Y303161D01*
X588661Y304051D01*
X588201Y304849D01*
X587549Y305501D01*
X586751Y305961D01*
X585861Y306200D01*
D02*
G37*
G36*
X530796Y301100D02*
X527840D01*
Y297947D01*
X530796D01*
Y301100D01*
D02*
G37*
G36*
X527440D02*
X524484D01*
Y297947D01*
X527440D01*
Y301100D01*
D02*
G37*
G36*
X331161Y304500D02*
X330239D01*
X329349Y304261D01*
X328551Y303801D01*
X327899Y303149D01*
X327438Y302351D01*
X327200Y301461D01*
Y300539D01*
X327438Y299649D01*
X327899Y298851D01*
X328551Y298199D01*
X329349Y297739D01*
X330239Y297500D01*
X331161D01*
X332051Y297739D01*
X332849Y298199D01*
X333501Y298851D01*
X333962Y299649D01*
X334200Y300539D01*
Y301461D01*
X333962Y302351D01*
X333501Y303149D01*
X332849Y303801D01*
X332051Y304261D01*
X331161Y304500D01*
D02*
G37*
G36*
X321161D02*
X320239D01*
X319349Y304261D01*
X318551Y303801D01*
X317899Y303149D01*
X317439Y302351D01*
X317200Y301461D01*
Y300539D01*
X317439Y299649D01*
X317899Y298851D01*
X318551Y298199D01*
X319349Y297739D01*
X320239Y297500D01*
X321161D01*
X322051Y297739D01*
X322849Y298199D01*
X323501Y298851D01*
X323961Y299649D01*
X324200Y300539D01*
Y301461D01*
X323961Y302351D01*
X323501Y303149D01*
X322849Y303801D01*
X322051Y304261D01*
X321161Y304500D01*
D02*
G37*
G36*
X406856Y296253D02*
X403900D01*
Y293100D01*
X406856D01*
Y296253D01*
D02*
G37*
G36*
X403500D02*
X400544D01*
Y293100D01*
X403500D01*
Y296253D01*
D02*
G37*
G36*
X248774Y297178D02*
X248026D01*
X247336Y296892D01*
X246808Y296364D01*
X246522Y295673D01*
Y294927D01*
X246721Y294446D01*
X245200Y292926D01*
X243596Y294529D01*
X243678Y294726D01*
Y295474D01*
X243392Y296164D01*
X242864Y296692D01*
X242174Y296978D01*
X241426D01*
X240736Y296692D01*
X240208Y296164D01*
X239922Y295474D01*
Y294726D01*
X240208Y294036D01*
X240736Y293508D01*
X241426Y293222D01*
X242174D01*
X242371Y293304D01*
X244233Y291441D01*
Y289488D01*
X243525D01*
X242755Y289335D01*
X242102Y288898D01*
X241665Y288245D01*
X241512Y287475D01*
Y284325D01*
X241665Y283555D01*
X242102Y282902D01*
X242755Y282465D01*
X243525Y282312D01*
X246675D01*
X247445Y282465D01*
X248098Y282902D01*
X248535Y283555D01*
X248657Y284167D01*
X252200D01*
X252712Y284269D01*
X253400D01*
X253913Y284371D01*
X255000D01*
X255513Y284473D01*
X256200D01*
X256713Y284575D01*
X257200D01*
X257707Y284675D01*
X257709Y284677D01*
X258600D01*
X259068Y284770D01*
X259081Y284778D01*
X259900D01*
X260329Y284864D01*
X260354Y284880D01*
X261100D01*
X261490Y284958D01*
X261527Y284982D01*
X262450D01*
X262801Y285052D01*
X263200Y285000D01*
Y285000D01*
X264700Y285000D01*
X265000Y285000D01*
X265300D01*
Y285900D01*
Y286800D01*
X264700D01*
X264400Y286800D01*
X263200D01*
Y286800D01*
X262801Y286748D01*
X262450Y286818D01*
X261527D01*
X261490Y286842D01*
X261100Y286920D01*
X260354D01*
X260329Y286936D01*
X259900Y287021D01*
X259081D01*
X259068Y287030D01*
X258600Y287123D01*
X257709D01*
X257707Y287125D01*
X257200Y287226D01*
X256713D01*
X256200Y287327D01*
X255513D01*
X255000Y287429D01*
X253913D01*
X253400Y287531D01*
X252712D01*
X252200Y287633D01*
X248657D01*
X248535Y288245D01*
X248098Y288898D01*
X247445Y289335D01*
X246675Y289488D01*
X245967D01*
Y291241D01*
X248148Y293422D01*
X248774D01*
X249464Y293708D01*
X249992Y294236D01*
X250278Y294927D01*
Y295673D01*
X249992Y296364D01*
X249464Y296892D01*
X248774Y297178D01*
D02*
G37*
G36*
X528469Y293859D02*
X526300D01*
Y291100D01*
X528469D01*
Y293859D01*
D02*
G37*
G36*
X525900D02*
X523732D01*
Y291100D01*
X525900D01*
Y293859D01*
D02*
G37*
G36*
X406856Y292700D02*
X403900D01*
Y289547D01*
X406856D01*
Y292700D01*
D02*
G37*
G36*
X403500D02*
X400544D01*
Y289547D01*
X403500D01*
Y292700D01*
D02*
G37*
G36*
X595861Y296200D02*
X594939D01*
X594049Y295961D01*
X593251Y295501D01*
X592599Y294849D01*
X592138Y294051D01*
X591900Y293161D01*
Y292239D01*
X592138Y291349D01*
X592599Y290551D01*
X593251Y289899D01*
X594049Y289439D01*
X594939Y289200D01*
X595861D01*
X596751Y289439D01*
X597549Y289899D01*
X598201Y290551D01*
X598662Y291349D01*
X598900Y292239D01*
Y293161D01*
X598662Y294051D01*
X598201Y294849D01*
X597549Y295501D01*
X596751Y295961D01*
X595861Y296200D01*
D02*
G37*
G36*
X585861D02*
X584939D01*
X584049Y295961D01*
X583251Y295501D01*
X582599Y294849D01*
X582138Y294051D01*
X581900Y293161D01*
Y292239D01*
X582138Y291349D01*
X582599Y290551D01*
X583251Y289899D01*
X584049Y289439D01*
X584939Y289200D01*
X585861D01*
X586751Y289439D01*
X587549Y289899D01*
X588201Y290551D01*
X588661Y291349D01*
X588900Y292239D01*
Y293161D01*
X588661Y294051D01*
X588201Y294849D01*
X587549Y295501D01*
X586751Y295961D01*
X585861Y296200D01*
D02*
G37*
G36*
X528469Y290700D02*
X526300D01*
Y287941D01*
X528469D01*
Y290700D01*
D02*
G37*
G36*
X525900D02*
X523732D01*
Y287941D01*
X525900D01*
Y290700D01*
D02*
G37*
G36*
X331161Y294500D02*
X330239D01*
X329349Y294262D01*
X328551Y293801D01*
X327899Y293149D01*
X327438Y292351D01*
X327200Y291461D01*
Y290539D01*
X327438Y289649D01*
X327899Y288851D01*
X328551Y288199D01*
X329349Y287738D01*
X330239Y287500D01*
X331161D01*
X332051Y287738D01*
X332849Y288199D01*
X333501Y288851D01*
X333962Y289649D01*
X334200Y290539D01*
Y291461D01*
X333962Y292351D01*
X333501Y293149D01*
X332849Y293801D01*
X332051Y294262D01*
X331161Y294500D01*
D02*
G37*
G36*
X321161D02*
X320239D01*
X319349Y294262D01*
X318551Y293801D01*
X317899Y293149D01*
X317439Y292351D01*
X317200Y291461D01*
Y290539D01*
X317439Y289649D01*
X317899Y288851D01*
X318551Y288199D01*
X319349Y287738D01*
X320239Y287500D01*
X321161D01*
X322051Y287738D01*
X322849Y288199D01*
X323501Y288851D01*
X323961Y289649D01*
X324200Y290539D01*
Y291461D01*
X323961Y292351D01*
X323501Y293149D01*
X322849Y293801D01*
X322051Y294262D01*
X321161Y294500D01*
D02*
G37*
G36*
X265700Y286800D02*
Y286100D01*
X266200D01*
Y286800D01*
X265700D01*
D02*
G37*
G36*
X266200Y285700D02*
X265700D01*
Y285000D01*
X266200D01*
Y285700D01*
D02*
G37*
G36*
X406616Y282553D02*
X403660D01*
Y279400D01*
X406616D01*
Y282553D01*
D02*
G37*
G36*
X403260D02*
X400304D01*
Y279400D01*
X403260D01*
Y282553D01*
D02*
G37*
G36*
X595861Y286200D02*
X594939D01*
X594049Y285962D01*
X593251Y285501D01*
X592599Y284849D01*
X592138Y284051D01*
X591900Y283161D01*
Y282239D01*
X592138Y281349D01*
X592599Y280551D01*
X593251Y279899D01*
X594049Y279438D01*
X594939Y279200D01*
X595861D01*
X596751Y279438D01*
X597549Y279899D01*
X598201Y280551D01*
X598662Y281349D01*
X598900Y282239D01*
Y283161D01*
X598662Y284051D01*
X598201Y284849D01*
X597549Y285501D01*
X596751Y285962D01*
X595861Y286200D01*
D02*
G37*
G36*
X585861D02*
X584939D01*
X584049Y285962D01*
X583251Y285501D01*
X582599Y284849D01*
X582138Y284051D01*
X581900Y283161D01*
Y282239D01*
X582138Y281349D01*
X582599Y280551D01*
X583251Y279899D01*
X584049Y279438D01*
X584939Y279200D01*
X585861D01*
X586751Y279438D01*
X587549Y279899D01*
X588201Y280551D01*
X588661Y281349D01*
X588900Y282239D01*
Y283161D01*
X588661Y284051D01*
X588201Y284849D01*
X587549Y285501D01*
X586751Y285962D01*
X585861Y286200D01*
D02*
G37*
G36*
X529218Y281359D02*
X527640D01*
Y278600D01*
X529218D01*
Y281359D01*
D02*
G37*
G36*
X527240D02*
X525662D01*
Y278600D01*
X527240D01*
Y281359D01*
D02*
G37*
G36*
X331161Y284500D02*
X330239D01*
X329349Y284261D01*
X328551Y283801D01*
X327899Y283149D01*
X327438Y282351D01*
X327200Y281461D01*
Y280539D01*
X327438Y279649D01*
X327899Y278851D01*
X328551Y278199D01*
X329349Y277738D01*
X330239Y277500D01*
X331161D01*
X332051Y277738D01*
X332849Y278199D01*
X333501Y278851D01*
X333962Y279649D01*
X334200Y280539D01*
Y281461D01*
X333962Y282351D01*
X333501Y283149D01*
X332849Y283801D01*
X332051Y284261D01*
X331161Y284500D01*
D02*
G37*
G36*
X321161D02*
X320239D01*
X319349Y284261D01*
X318551Y283801D01*
X317899Y283149D01*
X317439Y282351D01*
X317200Y281461D01*
Y280539D01*
X317439Y279649D01*
X317899Y278851D01*
X318551Y278199D01*
X319349Y277738D01*
X320239Y277500D01*
X321161D01*
X322051Y277738D01*
X322849Y278199D01*
X323501Y278851D01*
X323961Y279649D01*
X324200Y280539D01*
Y281461D01*
X323961Y282351D01*
X323501Y283149D01*
X322849Y283801D01*
X322051Y284261D01*
X321161Y284500D01*
D02*
G37*
G36*
X406616Y279000D02*
X403660D01*
Y275847D01*
X406616D01*
Y279000D01*
D02*
G37*
G36*
X403260D02*
X400304D01*
Y275847D01*
X403260D01*
Y279000D01*
D02*
G37*
G36*
X529218Y278200D02*
X527640D01*
Y275441D01*
X529218D01*
Y278200D01*
D02*
G37*
G36*
X527240D02*
X525662D01*
Y275441D01*
X527240D01*
Y278200D01*
D02*
G37*
G36*
X426800Y272557D02*
X423500D01*
X420200D01*
Y271638D01*
X420200Y271507D01*
Y270988D01*
X423500D01*
X426800D01*
Y271907D01*
X426800Y272038D01*
Y272557D01*
D02*
G37*
G36*
X595861Y276200D02*
X594939D01*
X594049Y275961D01*
X593251Y275501D01*
X592599Y274849D01*
X592138Y274051D01*
X591900Y273161D01*
Y272239D01*
X592138Y271349D01*
X592599Y270551D01*
X593251Y269899D01*
X594049Y269439D01*
X594939Y269200D01*
X595861D01*
X596751Y269439D01*
X597549Y269899D01*
X598201Y270551D01*
X598662Y271349D01*
X598900Y272239D01*
Y273161D01*
X598662Y274051D01*
X598201Y274849D01*
X597549Y275501D01*
X596751Y275961D01*
X595861Y276200D01*
D02*
G37*
G36*
X585861D02*
X584939D01*
X584049Y275961D01*
X583251Y275501D01*
X582599Y274849D01*
X582138Y274051D01*
X581900Y273161D01*
Y272239D01*
X582138Y271349D01*
X582599Y270551D01*
X583251Y269899D01*
X584049Y269439D01*
X584939Y269200D01*
X585861D01*
X586751Y269439D01*
X587549Y269899D01*
X588201Y270551D01*
X588661Y271349D01*
X588900Y272239D01*
Y273161D01*
X588661Y274051D01*
X588201Y274849D01*
X587549Y275501D01*
X586751Y275961D01*
X585861Y276200D01*
D02*
G37*
G36*
X531036Y271153D02*
X528080D01*
Y268000D01*
X531036D01*
Y271153D01*
D02*
G37*
G36*
X527680D02*
X524724D01*
Y268000D01*
X527680D01*
Y271153D01*
D02*
G37*
G36*
X331161Y274500D02*
X330239D01*
X329349Y274261D01*
X328551Y273801D01*
X327899Y273149D01*
X327438Y272351D01*
X327200Y271461D01*
Y270539D01*
X327438Y269649D01*
X327899Y268851D01*
X328551Y268199D01*
X329349Y267739D01*
X330239Y267500D01*
X331161D01*
X332051Y267739D01*
X332849Y268199D01*
X333501Y268851D01*
X333962Y269649D01*
X334200Y270539D01*
Y271461D01*
X333962Y272351D01*
X333501Y273149D01*
X332849Y273801D01*
X332051Y274261D01*
X331161Y274500D01*
D02*
G37*
G36*
X321161D02*
X320239D01*
X319349Y274261D01*
X318551Y273801D01*
X317899Y273149D01*
X317439Y272351D01*
X317200Y271461D01*
Y270539D01*
X317439Y269649D01*
X317899Y268851D01*
X318551Y268199D01*
X319349Y267739D01*
X320239Y267500D01*
X321161D01*
X322051Y267739D01*
X322849Y268199D01*
X323501Y268851D01*
X323961Y269649D01*
X324200Y270539D01*
Y271461D01*
X323961Y272351D01*
X323501Y273149D01*
X322849Y273801D01*
X322051Y274261D01*
X321161Y274500D01*
D02*
G37*
G36*
X404047Y270261D02*
X397721D01*
Y266967D01*
X395674D01*
X395592Y267164D01*
X395064Y267692D01*
X394373Y267978D01*
X393626D01*
X392936Y267692D01*
X392408Y267164D01*
X392122Y266474D01*
Y265726D01*
X392408Y265036D01*
X392936Y264508D01*
X393626Y264222D01*
X394373D01*
X395064Y264508D01*
X395592Y265036D01*
X395674Y265233D01*
X397721D01*
Y262539D01*
X404047D01*
Y270261D01*
D02*
G37*
G36*
X461161Y270590D02*
X460492D01*
X459874Y270335D01*
X459402Y269862D01*
X459146Y269244D01*
Y268575D01*
X459402Y267957D01*
X459874Y267484D01*
X460011Y267428D01*
Y266477D01*
X459611Y266209D01*
X459277Y266348D01*
X458608D01*
X458057Y266120D01*
X457657Y266282D01*
Y267428D01*
X457794Y267484D01*
X458267Y267957D01*
X458523Y268575D01*
Y269244D01*
X458267Y269862D01*
X457794Y270335D01*
X457176Y270590D01*
X456507D01*
X455890Y270335D01*
X455417Y269862D01*
X455161Y269244D01*
Y268575D01*
X455417Y267957D01*
X455890Y267484D01*
X456026Y267428D01*
Y266498D01*
X455626Y266259D01*
X455208Y266432D01*
X454539D01*
X454120Y266259D01*
X453720Y266498D01*
Y267428D01*
X453857Y267484D01*
X454330Y267957D01*
X454586Y268575D01*
Y269244D01*
X454330Y269862D01*
X453857Y270335D01*
X453239Y270590D01*
X452570D01*
X451953Y270335D01*
X451480Y269862D01*
X451224Y269244D01*
Y268575D01*
X451480Y267957D01*
X451953Y267484D01*
X452089Y267428D01*
Y266498D01*
X451689Y266259D01*
X451271Y266432D01*
X450602D01*
X450183Y266259D01*
X449783Y266498D01*
Y267428D01*
X449920Y267484D01*
X450393Y267957D01*
X450649Y268575D01*
Y269244D01*
X450393Y269862D01*
X449920Y270335D01*
X449302Y270590D01*
X448633D01*
X448015Y270335D01*
X447543Y269862D01*
X447287Y269244D01*
Y268575D01*
X447543Y267957D01*
X448015Y267484D01*
X448152Y267428D01*
Y266414D01*
X447752Y266175D01*
X447334Y266348D01*
X446665D01*
X446246Y266175D01*
X445846Y266414D01*
Y267428D01*
X445983Y267484D01*
X446456Y267957D01*
X446712Y268575D01*
Y269244D01*
X446456Y269862D01*
X445983Y270335D01*
X445365Y270590D01*
X444696D01*
X444078Y270335D01*
X443606Y269862D01*
X443350Y269244D01*
Y268575D01*
X443606Y267957D01*
X444078Y267484D01*
X444215Y267428D01*
Y266561D01*
X443815Y266294D01*
X443481Y266432D01*
X442812D01*
X442194Y266176D01*
X441721Y265703D01*
X441465Y265085D01*
Y264417D01*
X441721Y263799D01*
X442194Y263326D01*
X442289Y263287D01*
Y262533D01*
X441944Y262400D01*
X441812Y262400D01*
X439975Y262400D01*
X439844Y262400D01*
X439325D01*
Y259100D01*
X438925D01*
Y262400D01*
X438007Y262400D01*
X437875Y262400D01*
X436038Y262400D01*
X435907Y262400D01*
X434070Y262400D01*
X433938Y262400D01*
X432101Y262400D01*
X431970Y262400D01*
X430401D01*
Y259526D01*
X430070D01*
X429757Y259464D01*
X429493Y259287D01*
X429493Y259287D01*
X427833Y257627D01*
X427742Y257664D01*
X427074D01*
X426456Y257409D01*
X425983Y256936D01*
X425727Y256318D01*
Y255649D01*
X425983Y255031D01*
X426456Y254558D01*
X427074Y254302D01*
X427742D01*
X428039Y254425D01*
X428199Y254317D01*
X428377Y254132D01*
Y253528D01*
X428633Y252910D01*
X429106Y252437D01*
X429724Y252181D01*
X430393D01*
X431010Y252437D01*
X431483Y252910D01*
X431633Y253270D01*
X432105D01*
X432105Y253270D01*
X432418Y253332D01*
X432682Y253509D01*
X433797Y254623D01*
X433973Y254888D01*
X434373Y254845D01*
Y253460D01*
X434236Y253403D01*
X433763Y252930D01*
X433507Y252312D01*
Y251644D01*
X433763Y251026D01*
X434236Y250553D01*
X434854Y250297D01*
X435523D01*
X436140Y250553D01*
X436613Y251026D01*
X436665Y251151D01*
X437098D01*
X437150Y251026D01*
X437623Y250553D01*
X438241Y250297D01*
X438910D01*
X439528Y250553D01*
X439833Y250859D01*
X440233Y250693D01*
Y249356D01*
X437747D01*
Y246867D01*
X435574D01*
X435492Y247064D01*
X434964Y247592D01*
X434273Y247878D01*
X433527D01*
X432836Y247592D01*
X432308Y247064D01*
X432022Y246374D01*
Y245626D01*
X432308Y244936D01*
X432836Y244408D01*
X433527Y244122D01*
X434273D01*
X434964Y244408D01*
X435492Y244936D01*
X435574Y245133D01*
X437747D01*
Y243044D01*
X444453D01*
Y245333D01*
X446926D01*
X447008Y245136D01*
X447536Y244608D01*
X448226Y244322D01*
X448974D01*
X449664Y244608D01*
X450192Y245136D01*
X450478Y245827D01*
Y246573D01*
X450192Y247264D01*
X449664Y247792D01*
X448974Y248078D01*
X448226D01*
X447536Y247792D01*
X447008Y247264D01*
X446926Y247067D01*
X444453D01*
Y249356D01*
X441967D01*
Y255502D01*
X442212Y255800D01*
X442367Y255800D01*
X443781D01*
X443912Y255800D01*
Y255800D01*
X444181D01*
Y255800D01*
X445881D01*
Y255800D01*
X446149D01*
Y255800D01*
X447849D01*
Y255800D01*
X448118D01*
Y255800D01*
X449818D01*
Y255800D01*
X450086D01*
Y255800D01*
X451786D01*
Y255800D01*
X452055D01*
Y255800D01*
X453755D01*
Y255800D01*
X454023D01*
Y255800D01*
X455723D01*
Y255800D01*
X455992D01*
Y255800D01*
X457692D01*
Y255800D01*
X457960D01*
Y255800D01*
X459529D01*
X459660Y255800D01*
Y255800D01*
X459929D01*
Y255800D01*
X461497D01*
X461629Y255800D01*
Y255800D01*
X461897D01*
Y255800D01*
X463597D01*
Y255800D01*
X463866D01*
Y255800D01*
X465434D01*
X465834Y255800D01*
X465966Y255800D01*
X466484D01*
Y259100D01*
Y262400D01*
X465966D01*
X465834Y262400D01*
X465480Y262511D01*
Y265997D01*
X465668Y266075D01*
X466141Y266548D01*
X466397Y267166D01*
Y267834D01*
X466141Y268452D01*
X465668Y268925D01*
X465050Y269181D01*
X464381D01*
X463764Y268925D01*
X463291Y268452D01*
X463035Y267834D01*
Y267166D01*
X463185Y266802D01*
X463153Y266715D01*
X462906Y266432D01*
X462377D01*
X462043Y266294D01*
X461642Y266561D01*
Y267428D01*
X461779Y267484D01*
X462252Y267957D01*
X462508Y268575D01*
Y269244D01*
X462252Y269862D01*
X461779Y270335D01*
X461161Y270590D01*
D02*
G37*
G36*
X531036Y267600D02*
X528080D01*
Y264447D01*
X531036D01*
Y267600D01*
D02*
G37*
G36*
X527680D02*
X524724D01*
Y264447D01*
X527680D01*
Y267600D01*
D02*
G37*
G36*
X282057Y266711D02*
X278905D01*
Y263558D01*
X282057D01*
Y266711D01*
D02*
G37*
G36*
X304737D02*
X304495D01*
Y263558D01*
X307648D01*
Y263800D01*
X307419Y264652D01*
X306978Y265417D01*
X306354Y266041D01*
X305589Y266482D01*
X304737Y266711D01*
D02*
G37*
G36*
X304095D02*
X303854D01*
X303001Y266482D01*
X302237Y266041D01*
X301612Y265417D01*
X301171Y264652D01*
X300942Y263800D01*
Y263558D01*
X304095D01*
Y266711D01*
D02*
G37*
G36*
X278505D02*
X275352D01*
Y263558D01*
X278505D01*
Y266711D01*
D02*
G37*
G36*
X307648Y263158D02*
X304495D01*
Y260005D01*
X304737D01*
X305589Y260234D01*
X306354Y260675D01*
X306978Y261300D01*
X307419Y262064D01*
X307648Y262917D01*
Y263158D01*
D02*
G37*
G36*
X304095D02*
X300942D01*
Y262917D01*
X301171Y262064D01*
X301612Y261300D01*
X302237Y260675D01*
X303001Y260234D01*
X303854Y260005D01*
X304095D01*
Y263158D01*
D02*
G37*
G36*
X282057D02*
X278905D01*
Y260005D01*
X282057D01*
Y263158D01*
D02*
G37*
G36*
X278505D02*
X275352D01*
Y260005D01*
X278505D01*
Y263158D01*
D02*
G37*
G36*
X374300Y261427D02*
X372300D01*
X371754Y261319D01*
X371291Y261009D01*
X370981Y260546D01*
X370873Y260000D01*
Y258000D01*
X370981Y257454D01*
X371291Y256991D01*
X371754Y256681D01*
X372300Y256573D01*
X374300D01*
X374846Y256681D01*
X375309Y256991D01*
X375619Y257454D01*
X375727Y258000D01*
Y260000D01*
X375619Y260546D01*
X375309Y261009D01*
X374846Y261319D01*
X374300Y261427D01*
D02*
G37*
G36*
X245567Y259450D02*
X244633D01*
X243730Y259208D01*
X242920Y258740D01*
X242260Y258080D01*
X241792Y257270D01*
X241550Y256367D01*
Y255433D01*
X241792Y254530D01*
X242260Y253720D01*
X242920Y253060D01*
X243730Y252592D01*
X244633Y252350D01*
X245567D01*
X246470Y252592D01*
X247280Y253060D01*
X247940Y253720D01*
X248408Y254530D01*
X248515Y254930D01*
X252114D01*
X252636Y254408D01*
X253327Y254122D01*
X254074D01*
X254764Y254408D01*
X255292Y254936D01*
X255578Y255627D01*
Y256374D01*
X255292Y257064D01*
X254764Y257592D01*
X254074Y257878D01*
X253327D01*
X252636Y257592D01*
X252108Y257064D01*
X252069Y256970D01*
X248488D01*
X248408Y257270D01*
X247940Y258080D01*
X247280Y258740D01*
X246470Y259208D01*
X245567Y259450D01*
D02*
G37*
G36*
Y269450D02*
X244633D01*
X243730Y269208D01*
X242920Y268740D01*
X242260Y268079D01*
X241792Y267270D01*
X241550Y266367D01*
Y265433D01*
X241792Y264530D01*
X242260Y263720D01*
X242920Y263060D01*
X243730Y262592D01*
X244633Y262350D01*
X245567D01*
X246470Y262592D01*
X247280Y263060D01*
X247940Y263720D01*
X248408Y264530D01*
X248502Y264880D01*
X253878D01*
X264170Y254588D01*
X264122Y254473D01*
Y253727D01*
X264408Y253036D01*
X264936Y252508D01*
X265627Y252222D01*
X266373D01*
X267064Y252508D01*
X267592Y253036D01*
X267878Y253727D01*
Y254473D01*
X267592Y255164D01*
X267064Y255692D01*
X266373Y255978D01*
X265664D01*
X255021Y266621D01*
X254690Y266842D01*
X254300Y266920D01*
X248502D01*
X248408Y267270D01*
X247940Y268079D01*
X247280Y268740D01*
X246470Y269208D01*
X245567Y269450D01*
D02*
G37*
G36*
X335900Y256527D02*
X333900D01*
X333354Y256419D01*
X332891Y256109D01*
X332581Y255646D01*
X332473Y255100D01*
Y253100D01*
X332581Y252554D01*
X332891Y252091D01*
X333354Y251781D01*
X333900Y251673D01*
X335900D01*
X336446Y251781D01*
X336909Y252091D01*
X337219Y252554D01*
X337327Y253100D01*
Y255100D01*
X337219Y255646D01*
X336909Y256109D01*
X336446Y256419D01*
X335900Y256527D01*
D02*
G37*
G36*
X394259Y251163D02*
X391500D01*
Y248994D01*
X394259D01*
Y251163D01*
D02*
G37*
G36*
X391100D02*
X388341D01*
Y248994D01*
X391100D01*
Y251163D01*
D02*
G37*
G36*
X245567Y279450D02*
X244633D01*
X243730Y279208D01*
X242920Y278740D01*
X242260Y278080D01*
X241792Y277270D01*
X241550Y276367D01*
Y275433D01*
X241792Y274530D01*
X242260Y273721D01*
X242920Y273060D01*
X243730Y272592D01*
X244633Y272350D01*
X245567D01*
X246470Y272592D01*
X247280Y273060D01*
X247940Y273721D01*
X248408Y274530D01*
X248502Y274880D01*
X278278D01*
X286180Y266978D01*
Y251780D01*
X286136Y251761D01*
X285608Y251233D01*
X285322Y250543D01*
Y249796D01*
X285608Y249106D01*
X286136Y248577D01*
X286826Y248291D01*
X287574D01*
X288264Y248577D01*
X288792Y249106D01*
X289078Y249796D01*
Y250543D01*
X288792Y251233D01*
X288264Y251761D01*
X288220Y251780D01*
Y267400D01*
X288142Y267790D01*
X287921Y268121D01*
X279421Y276621D01*
X279090Y276842D01*
X278700Y276920D01*
X248502D01*
X248408Y277270D01*
X247940Y278080D01*
X247280Y278740D01*
X246470Y279208D01*
X245567Y279450D01*
D02*
G37*
G36*
X406153Y250476D02*
X403000D01*
Y247520D01*
X406153D01*
Y250476D01*
D02*
G37*
G36*
X402600D02*
X399447D01*
Y247520D01*
X402600D01*
Y250476D01*
D02*
G37*
G36*
X366700Y252227D02*
X364700D01*
X364154Y252119D01*
X363691Y251809D01*
X363381Y251346D01*
X363273Y250800D01*
Y248800D01*
X363381Y248254D01*
X363691Y247791D01*
X364154Y247481D01*
X364700Y247373D01*
X366700D01*
X367246Y247481D01*
X367709Y247791D01*
X368019Y248254D01*
X368127Y248800D01*
Y250800D01*
X368019Y251346D01*
X367709Y251809D01*
X367246Y252119D01*
X366700Y252227D01*
D02*
G37*
G36*
X394259Y248594D02*
X391500D01*
Y246426D01*
X394259D01*
Y248594D01*
D02*
G37*
G36*
X391100D02*
X388341D01*
Y246426D01*
X391100D01*
Y248594D01*
D02*
G37*
G36*
X406153Y247120D02*
X403000D01*
Y244164D01*
X406153D01*
Y247120D01*
D02*
G37*
G36*
X402600D02*
X399447D01*
Y244164D01*
X402600D01*
Y247120D01*
D02*
G37*
G36*
X417659Y246168D02*
X414900D01*
Y244000D01*
X417659D01*
Y246168D01*
D02*
G37*
G36*
X414500D02*
X411741D01*
Y244000D01*
X414500D01*
Y246168D01*
D02*
G37*
G36*
X596861Y250800D02*
X595939D01*
X595049Y250561D01*
X594251Y250101D01*
X593599Y249449D01*
X593139Y248651D01*
X592900Y247761D01*
Y246839D01*
X593139Y245949D01*
X593599Y245151D01*
X594251Y244499D01*
X595049Y244039D01*
X595939Y243800D01*
X596861D01*
X597751Y244039D01*
X598549Y244499D01*
X599201Y245151D01*
X599661Y245949D01*
X599900Y246839D01*
Y247761D01*
X599661Y248651D01*
X599201Y249449D01*
X598549Y250101D01*
X597751Y250561D01*
X596861Y250800D01*
D02*
G37*
G36*
X586861D02*
X585939D01*
X585049Y250561D01*
X584251Y250101D01*
X583599Y249449D01*
X583139Y248651D01*
X582900Y247761D01*
Y246839D01*
X583139Y245949D01*
X583599Y245151D01*
X584251Y244499D01*
X585049Y244039D01*
X585939Y243800D01*
X586861D01*
X587751Y244039D01*
X588549Y244499D01*
X589201Y245151D01*
X589662Y245949D01*
X589900Y246839D01*
Y247761D01*
X589662Y248651D01*
X589201Y249449D01*
X588549Y250101D01*
X587751Y250561D01*
X586861Y250800D01*
D02*
G37*
G36*
X426953Y245676D02*
X423800D01*
Y242720D01*
X426953D01*
Y245676D01*
D02*
G37*
G36*
X423400D02*
X420247D01*
Y242720D01*
X423400D01*
Y245676D01*
D02*
G37*
G36*
X417659Y243600D02*
X414900D01*
Y241431D01*
X417659D01*
Y243600D01*
D02*
G37*
G36*
X414500D02*
X411741D01*
Y241431D01*
X414500D01*
Y243600D01*
D02*
G37*
G36*
X501259Y241278D02*
X498500D01*
Y239700D01*
X501259D01*
Y241278D01*
D02*
G37*
G36*
X498100D02*
X495341D01*
Y239700D01*
X498100D01*
Y241278D01*
D02*
G37*
G36*
X426953Y242320D02*
X423800D01*
Y239364D01*
X426953D01*
Y242320D01*
D02*
G37*
G36*
X423400D02*
X420247D01*
Y239364D01*
X423400D01*
Y242320D01*
D02*
G37*
G36*
X518953Y242216D02*
X515800D01*
Y239260D01*
X518953D01*
Y242216D01*
D02*
G37*
G36*
X515400D02*
X512247D01*
Y239260D01*
X515400D01*
Y242216D01*
D02*
G37*
G36*
X464953Y242147D02*
X461800D01*
Y239191D01*
X464953D01*
Y242147D01*
D02*
G37*
G36*
X461400D02*
X458247D01*
Y239191D01*
X461400D01*
Y242147D01*
D02*
G37*
G36*
X483369Y242074D02*
X480200D01*
Y239107D01*
X483369D01*
Y242074D01*
D02*
G37*
G36*
X479800D02*
X476631D01*
Y239107D01*
X479800D01*
Y242074D01*
D02*
G37*
G36*
X444453Y241876D02*
X441300D01*
Y238920D01*
X444453D01*
Y241876D01*
D02*
G37*
G36*
X440900D02*
X437747D01*
Y238920D01*
X440900D01*
Y241876D01*
D02*
G37*
G36*
X501259Y239300D02*
X498500D01*
Y237722D01*
X501259D01*
Y239300D01*
D02*
G37*
G36*
X498100D02*
X495341D01*
Y237722D01*
X498100D01*
Y239300D01*
D02*
G37*
G36*
X245567Y239450D02*
X245300D01*
Y236100D01*
X248650D01*
Y236367D01*
X248408Y237270D01*
X247940Y238080D01*
X247280Y238740D01*
X246470Y239208D01*
X245567Y239450D01*
D02*
G37*
G36*
X244900D02*
X244633D01*
X243730Y239208D01*
X242920Y238740D01*
X242260Y238080D01*
X241792Y237270D01*
X241550Y236367D01*
Y236100D01*
X244900D01*
Y239450D01*
D02*
G37*
G36*
X518953Y238860D02*
X515800D01*
Y235904D01*
X518953D01*
Y238860D01*
D02*
G37*
G36*
X515400D02*
X512247D01*
Y235904D01*
X515400D01*
Y238860D01*
D02*
G37*
G36*
X464953Y238791D02*
X461800D01*
Y235835D01*
X464953D01*
Y238791D01*
D02*
G37*
G36*
X461400D02*
X458247D01*
Y235835D01*
X461400D01*
Y238791D01*
D02*
G37*
G36*
X483369Y238707D02*
X480200D01*
Y235740D01*
X483369D01*
Y238707D01*
D02*
G37*
G36*
X479800D02*
X476631D01*
Y235740D01*
X479800D01*
Y238707D01*
D02*
G37*
G36*
X444453Y238520D02*
X441300D01*
Y235564D01*
X444453D01*
Y238520D01*
D02*
G37*
G36*
X440900D02*
X437747D01*
Y235564D01*
X440900D01*
Y238520D01*
D02*
G37*
G36*
X324563Y238254D02*
X321300D01*
Y235092D01*
X324563D01*
Y238254D01*
D02*
G37*
G36*
X320900D02*
X317637D01*
Y235092D01*
X320900D01*
Y238254D01*
D02*
G37*
G36*
X596861Y240800D02*
X595939D01*
X595049Y240562D01*
X594251Y240101D01*
X593599Y239449D01*
X593139Y238651D01*
X592900Y237761D01*
Y236839D01*
X593139Y235949D01*
X593599Y235151D01*
X594251Y234499D01*
X595049Y234038D01*
X595939Y233800D01*
X596861D01*
X597751Y234038D01*
X598549Y234499D01*
X599201Y235151D01*
X599661Y235949D01*
X599900Y236839D01*
Y237761D01*
X599661Y238651D01*
X599201Y239449D01*
X598549Y240101D01*
X597751Y240562D01*
X596861Y240800D01*
D02*
G37*
G36*
X586861D02*
X585939D01*
X585049Y240562D01*
X584251Y240101D01*
X583599Y239449D01*
X583139Y238651D01*
X582900Y237761D01*
Y236839D01*
X583139Y235949D01*
X583599Y235151D01*
X584251Y234499D01*
X585049Y234038D01*
X585939Y233800D01*
X586861D01*
X587751Y234038D01*
X588549Y234499D01*
X589201Y235151D01*
X589662Y235949D01*
X589900Y236839D01*
Y237761D01*
X589662Y238651D01*
X589201Y239449D01*
X588549Y240101D01*
X587751Y240562D01*
X586861Y240800D01*
D02*
G37*
G36*
X248650Y235700D02*
X245300D01*
Y232350D01*
X245567D01*
X246470Y232592D01*
X247280Y233060D01*
X247940Y233720D01*
X248408Y234530D01*
X248650Y235433D01*
Y235700D01*
D02*
G37*
G36*
X244900D02*
X241550D01*
Y235433D01*
X241792Y234530D01*
X242260Y233720D01*
X242920Y233060D01*
X243730Y232592D01*
X244633Y232350D01*
X244900D01*
Y235700D01*
D02*
G37*
G36*
X596861Y230800D02*
X595939D01*
X595049Y230561D01*
X594251Y230101D01*
X593599Y229449D01*
X593139Y228651D01*
X592900Y227761D01*
Y226839D01*
X593139Y225949D01*
X593599Y225151D01*
X594251Y224499D01*
X595049Y224039D01*
X595939Y223800D01*
X596861D01*
X597751Y224039D01*
X598549Y224499D01*
X599201Y225151D01*
X599661Y225949D01*
X599900Y226839D01*
Y227761D01*
X599661Y228651D01*
X599201Y229449D01*
X598549Y230101D01*
X597751Y230561D01*
X596861Y230800D01*
D02*
G37*
G36*
X586861D02*
X585939D01*
X585049Y230561D01*
X584251Y230101D01*
X583599Y229449D01*
X583139Y228651D01*
X582900Y227761D01*
Y226839D01*
X583139Y225949D01*
X583599Y225151D01*
X584251Y224499D01*
X585049Y224039D01*
X585939Y223800D01*
X586861D01*
X587751Y224039D01*
X588549Y224499D01*
X589201Y225151D01*
X589662Y225949D01*
X589900Y226839D01*
Y227761D01*
X589662Y228651D01*
X589201Y229449D01*
X588549Y230101D01*
X587751Y230561D01*
X586861Y230800D01*
D02*
G37*
G36*
X596861Y220800D02*
X595939D01*
X595049Y220562D01*
X594251Y220101D01*
X593599Y219449D01*
X593139Y218651D01*
X592900Y217761D01*
Y216839D01*
X593139Y215949D01*
X593599Y215151D01*
X594251Y214499D01*
X595049Y214038D01*
X595939Y213800D01*
X596861D01*
X597751Y214038D01*
X598549Y214499D01*
X599201Y215151D01*
X599661Y215949D01*
X599900Y216839D01*
Y217761D01*
X599661Y218651D01*
X599201Y219449D01*
X598549Y220101D01*
X597751Y220562D01*
X596861Y220800D01*
D02*
G37*
G36*
X586861D02*
X585939D01*
X585049Y220562D01*
X584251Y220101D01*
X583599Y219449D01*
X583139Y218651D01*
X582900Y217761D01*
Y216839D01*
X583139Y215949D01*
X583599Y215151D01*
X584251Y214499D01*
X585049Y214038D01*
X585939Y213800D01*
X586861D01*
X587751Y214038D01*
X588549Y214499D01*
X589201Y215151D01*
X589662Y215949D01*
X589900Y216839D01*
Y217761D01*
X589662Y218651D01*
X589201Y219449D01*
X588549Y220101D01*
X587751Y220562D01*
X586861Y220800D01*
D02*
G37*
G36*
X373461Y216500D02*
X372539D01*
X371649Y216262D01*
X370851Y215801D01*
X370199Y215149D01*
X369739Y214351D01*
X369500Y213461D01*
Y212539D01*
X369739Y211649D01*
X370199Y210851D01*
X370851Y210199D01*
X371649Y209738D01*
X372539Y209500D01*
X373461D01*
X374351Y209738D01*
X375149Y210199D01*
X375801Y210851D01*
X376261Y211649D01*
X376500Y212539D01*
Y213461D01*
X376261Y214351D01*
X375801Y215149D01*
X375149Y215801D01*
X374351Y216262D01*
X373461Y216500D01*
D02*
G37*
G36*
X363461D02*
X362539D01*
X361649Y216262D01*
X360851Y215801D01*
X360199Y215149D01*
X359738Y214351D01*
X359500Y213461D01*
Y212539D01*
X359738Y211649D01*
X360199Y210851D01*
X360851Y210199D01*
X361649Y209738D01*
X362539Y209500D01*
X363461D01*
X364351Y209738D01*
X365149Y210199D01*
X365801Y210851D01*
X366262Y211649D01*
X366500Y212539D01*
Y213461D01*
X366262Y214351D01*
X365801Y215149D01*
X365149Y215801D01*
X364351Y216262D01*
X363461Y216500D01*
D02*
G37*
G36*
X353461D02*
X352539D01*
X351649Y216262D01*
X350851Y215801D01*
X350199Y215149D01*
X349739Y214351D01*
X349500Y213461D01*
Y212539D01*
X349739Y211649D01*
X350199Y210851D01*
X350851Y210199D01*
X351649Y209738D01*
X352539Y209500D01*
X353461D01*
X354351Y209738D01*
X355149Y210199D01*
X355801Y210851D01*
X356261Y211649D01*
X356500Y212539D01*
Y213461D01*
X356261Y214351D01*
X355801Y215149D01*
X355149Y215801D01*
X354351Y216262D01*
X353461Y216500D01*
D02*
G37*
G36*
X343461D02*
X342539D01*
X341649Y216262D01*
X340851Y215801D01*
X340199Y215149D01*
X339738Y214351D01*
X339500Y213461D01*
Y212539D01*
X339738Y211649D01*
X340199Y210851D01*
X340851Y210199D01*
X341649Y209738D01*
X342539Y209500D01*
X343461D01*
X344351Y209738D01*
X345149Y210199D01*
X345801Y210851D01*
X346262Y211649D01*
X346500Y212539D01*
Y213461D01*
X346262Y214351D01*
X345801Y215149D01*
X345149Y215801D01*
X344351Y216262D01*
X343461Y216500D01*
D02*
G37*
G36*
X333461D02*
X332539D01*
X331649Y216262D01*
X330851Y215801D01*
X330199Y215149D01*
X329738Y214351D01*
X329500Y213461D01*
Y212539D01*
X329738Y211649D01*
X330199Y210851D01*
X330851Y210199D01*
X331649Y209738D01*
X332539Y209500D01*
X333461D01*
X334351Y209738D01*
X335149Y210199D01*
X335801Y210851D01*
X336262Y211649D01*
X336500Y212539D01*
Y213461D01*
X336262Y214351D01*
X335801Y215149D01*
X335149Y215801D01*
X334351Y216262D01*
X333461Y216500D01*
D02*
G37*
G36*
X323461D02*
X322539D01*
X321649Y216262D01*
X320851Y215801D01*
X320199Y215149D01*
X319739Y214351D01*
X319500Y213461D01*
Y212539D01*
X319739Y211649D01*
X320199Y210851D01*
X320851Y210199D01*
X321649Y209738D01*
X322539Y209500D01*
X323461D01*
X324351Y209738D01*
X325149Y210199D01*
X325801Y210851D01*
X326261Y211649D01*
X326500Y212539D01*
Y213461D01*
X326261Y214351D01*
X325801Y215149D01*
X325149Y215801D01*
X324351Y216262D01*
X323461Y216500D01*
D02*
G37*
G36*
X535861Y216300D02*
X534939D01*
X534049Y216061D01*
X533251Y215601D01*
X532599Y214949D01*
X532138Y214151D01*
X531900Y213261D01*
Y212339D01*
X532138Y211449D01*
X532599Y210651D01*
X533251Y209999D01*
X534049Y209539D01*
X534939Y209300D01*
X535861D01*
X536751Y209539D01*
X537549Y209999D01*
X538201Y210651D01*
X538661Y211449D01*
X538900Y212339D01*
Y213261D01*
X538661Y214151D01*
X538201Y214949D01*
X537549Y215601D01*
X536751Y216061D01*
X535861Y216300D01*
D02*
G37*
G36*
X525861D02*
X524939D01*
X524049Y216061D01*
X523251Y215601D01*
X522599Y214949D01*
X522139Y214151D01*
X521900Y213261D01*
Y212339D01*
X522139Y211449D01*
X522599Y210651D01*
X523251Y209999D01*
X524049Y209539D01*
X524939Y209300D01*
X525861D01*
X526751Y209539D01*
X527549Y209999D01*
X528201Y210651D01*
X528661Y211449D01*
X528900Y212339D01*
Y213261D01*
X528661Y214151D01*
X528201Y214949D01*
X527549Y215601D01*
X526751Y216061D01*
X525861Y216300D01*
D02*
G37*
G36*
X515861D02*
X514939D01*
X514049Y216061D01*
X513251Y215601D01*
X512599Y214949D01*
X512139Y214151D01*
X511900Y213261D01*
Y212339D01*
X512139Y211449D01*
X512599Y210651D01*
X513251Y209999D01*
X514049Y209539D01*
X514939Y209300D01*
X515861D01*
X516751Y209539D01*
X517549Y209999D01*
X518201Y210651D01*
X518661Y211449D01*
X518900Y212339D01*
Y213261D01*
X518661Y214151D01*
X518201Y214949D01*
X517549Y215601D01*
X516751Y216061D01*
X515861Y216300D01*
D02*
G37*
G36*
X505861D02*
X504939D01*
X504049Y216061D01*
X503251Y215601D01*
X502599Y214949D01*
X502139Y214151D01*
X501900Y213261D01*
Y212339D01*
X502139Y211449D01*
X502599Y210651D01*
X503251Y209999D01*
X504049Y209539D01*
X504939Y209300D01*
X505861D01*
X506751Y209539D01*
X507549Y209999D01*
X508201Y210651D01*
X508662Y211449D01*
X508900Y212339D01*
Y213261D01*
X508662Y214151D01*
X508201Y214949D01*
X507549Y215601D01*
X506751Y216061D01*
X505861Y216300D01*
D02*
G37*
G36*
X495861D02*
X494939D01*
X494049Y216061D01*
X493251Y215601D01*
X492599Y214949D01*
X492138Y214151D01*
X491900Y213261D01*
Y212339D01*
X492138Y211449D01*
X492599Y210651D01*
X493251Y209999D01*
X494049Y209539D01*
X494939Y209300D01*
X495861D01*
X496751Y209539D01*
X497549Y209999D01*
X498201Y210651D01*
X498662Y211449D01*
X498900Y212339D01*
Y213261D01*
X498662Y214151D01*
X498201Y214949D01*
X497549Y215601D01*
X496751Y216061D01*
X495861Y216300D01*
D02*
G37*
G36*
X485861D02*
X484939D01*
X484049Y216061D01*
X483251Y215601D01*
X482599Y214949D01*
X482138Y214151D01*
X481900Y213261D01*
Y212339D01*
X482138Y211449D01*
X482599Y210651D01*
X483251Y209999D01*
X484049Y209539D01*
X484939Y209300D01*
X485861D01*
X486751Y209539D01*
X487549Y209999D01*
X488201Y210651D01*
X488661Y211449D01*
X488900Y212339D01*
Y213261D01*
X488661Y214151D01*
X488201Y214949D01*
X487549Y215601D01*
X486751Y216061D01*
X485861Y216300D01*
D02*
G37*
G36*
X560512Y216417D02*
X559288D01*
X558087Y216178D01*
X556955Y215709D01*
X555937Y215029D01*
X555071Y214163D01*
X554391Y213145D01*
X553922Y212013D01*
X553684Y210812D01*
Y209588D01*
X553922Y208387D01*
X554391Y207255D01*
X555071Y206237D01*
X555937Y205371D01*
X556955Y204691D01*
X558087Y204222D01*
X559288Y203983D01*
X560512D01*
X561713Y204222D01*
X562845Y204691D01*
X563863Y205371D01*
X564729Y206237D01*
X565409Y207255D01*
X565878Y208387D01*
X566117Y209588D01*
Y210812D01*
X565878Y212013D01*
X565409Y213145D01*
X564729Y214163D01*
X563863Y215029D01*
X562845Y215709D01*
X561713Y216178D01*
X560512Y216417D01*
D02*
G37*
G36*
X270512Y216317D02*
X269288D01*
X268087Y216078D01*
X266955Y215609D01*
X265937Y214929D01*
X265071Y214063D01*
X264391Y213045D01*
X263922Y211913D01*
X263684Y210712D01*
Y209488D01*
X263922Y208287D01*
X264391Y207155D01*
X265071Y206137D01*
X265937Y205271D01*
X266955Y204591D01*
X268087Y204122D01*
X269288Y203884D01*
X270512D01*
X271713Y204122D01*
X272845Y204591D01*
X273863Y205271D01*
X274729Y206137D01*
X275409Y207155D01*
X275878Y208287D01*
X276116Y209488D01*
Y210712D01*
X275878Y211913D01*
X275409Y213045D01*
X274729Y214063D01*
X273863Y214929D01*
X272845Y215609D01*
X271713Y216078D01*
X270512Y216317D01*
D02*
G37*
G36*
X596861Y210800D02*
X595939D01*
X595049Y210561D01*
X594251Y210101D01*
X593599Y209449D01*
X593139Y208651D01*
X592900Y207761D01*
Y206839D01*
X593139Y205949D01*
X593599Y205151D01*
X594251Y204499D01*
X595049Y204039D01*
X595939Y203800D01*
X596861D01*
X597751Y204039D01*
X598549Y204499D01*
X599201Y205151D01*
X599661Y205949D01*
X599900Y206839D01*
Y207761D01*
X599661Y208651D01*
X599201Y209449D01*
X598549Y210101D01*
X597751Y210561D01*
X596861Y210800D01*
D02*
G37*
G36*
X586861D02*
X585939D01*
X585049Y210561D01*
X584251Y210101D01*
X583599Y209449D01*
X583139Y208651D01*
X582900Y207761D01*
Y206839D01*
X583139Y205949D01*
X583599Y205151D01*
X584251Y204499D01*
X585049Y204039D01*
X585939Y203800D01*
X586861D01*
X587751Y204039D01*
X588549Y204499D01*
X589201Y205151D01*
X589662Y205949D01*
X589900Y206839D01*
Y207761D01*
X589662Y208651D01*
X589201Y209449D01*
X588549Y210101D01*
X587751Y210561D01*
X586861Y210800D01*
D02*
G37*
G36*
X373461Y206500D02*
X372539D01*
X371649Y206261D01*
X370851Y205801D01*
X370199Y205149D01*
X369739Y204351D01*
X369500Y203461D01*
Y202539D01*
X369739Y201649D01*
X370199Y200851D01*
X370851Y200199D01*
X371649Y199739D01*
X372539Y199500D01*
X373461D01*
X374351Y199739D01*
X375149Y200199D01*
X375801Y200851D01*
X376261Y201649D01*
X376500Y202539D01*
Y203461D01*
X376261Y204351D01*
X375801Y205149D01*
X375149Y205801D01*
X374351Y206261D01*
X373461Y206500D01*
D02*
G37*
G36*
X363461D02*
X362539D01*
X361649Y206261D01*
X360851Y205801D01*
X360199Y205149D01*
X359738Y204351D01*
X359500Y203461D01*
Y202539D01*
X359738Y201649D01*
X360199Y200851D01*
X360851Y200199D01*
X361649Y199739D01*
X362539Y199500D01*
X363461D01*
X364351Y199739D01*
X365149Y200199D01*
X365801Y200851D01*
X366262Y201649D01*
X366500Y202539D01*
Y203461D01*
X366262Y204351D01*
X365801Y205149D01*
X365149Y205801D01*
X364351Y206261D01*
X363461Y206500D01*
D02*
G37*
G36*
X353461D02*
X352539D01*
X351649Y206261D01*
X350851Y205801D01*
X350199Y205149D01*
X349739Y204351D01*
X349500Y203461D01*
Y202539D01*
X349739Y201649D01*
X350199Y200851D01*
X350851Y200199D01*
X351649Y199739D01*
X352539Y199500D01*
X353461D01*
X354351Y199739D01*
X355149Y200199D01*
X355801Y200851D01*
X356261Y201649D01*
X356500Y202539D01*
Y203461D01*
X356261Y204351D01*
X355801Y205149D01*
X355149Y205801D01*
X354351Y206261D01*
X353461Y206500D01*
D02*
G37*
G36*
X343461D02*
X342539D01*
X341649Y206261D01*
X340851Y205801D01*
X340199Y205149D01*
X339738Y204351D01*
X339500Y203461D01*
Y202539D01*
X339738Y201649D01*
X340199Y200851D01*
X340851Y200199D01*
X341649Y199739D01*
X342539Y199500D01*
X343461D01*
X344351Y199739D01*
X345149Y200199D01*
X345801Y200851D01*
X346262Y201649D01*
X346500Y202539D01*
Y203461D01*
X346262Y204351D01*
X345801Y205149D01*
X345149Y205801D01*
X344351Y206261D01*
X343461Y206500D01*
D02*
G37*
G36*
X333461D02*
X332539D01*
X331649Y206261D01*
X330851Y205801D01*
X330199Y205149D01*
X329738Y204351D01*
X329500Y203461D01*
Y202539D01*
X329738Y201649D01*
X330199Y200851D01*
X330851Y200199D01*
X331649Y199739D01*
X332539Y199500D01*
X333461D01*
X334351Y199739D01*
X335149Y200199D01*
X335801Y200851D01*
X336262Y201649D01*
X336500Y202539D01*
Y203461D01*
X336262Y204351D01*
X335801Y205149D01*
X335149Y205801D01*
X334351Y206261D01*
X333461Y206500D01*
D02*
G37*
G36*
X323461D02*
X322539D01*
X321649Y206261D01*
X320851Y205801D01*
X320199Y205149D01*
X319739Y204351D01*
X319500Y203461D01*
Y202539D01*
X319739Y201649D01*
X320199Y200851D01*
X320851Y200199D01*
X321649Y199739D01*
X322539Y199500D01*
X323461D01*
X324351Y199739D01*
X325149Y200199D01*
X325801Y200851D01*
X326261Y201649D01*
X326500Y202539D01*
Y203461D01*
X326261Y204351D01*
X325801Y205149D01*
X325149Y205801D01*
X324351Y206261D01*
X323461Y206500D01*
D02*
G37*
G36*
X535861Y206300D02*
X534939D01*
X534049Y206062D01*
X533251Y205601D01*
X532599Y204949D01*
X532138Y204151D01*
X531900Y203261D01*
Y202339D01*
X532138Y201449D01*
X532599Y200651D01*
X533251Y199999D01*
X534049Y199539D01*
X534939Y199300D01*
X535861D01*
X536751Y199539D01*
X537549Y199999D01*
X538201Y200651D01*
X538661Y201449D01*
X538900Y202339D01*
Y203261D01*
X538661Y204151D01*
X538201Y204949D01*
X537549Y205601D01*
X536751Y206062D01*
X535861Y206300D01*
D02*
G37*
G36*
X525861D02*
X524939D01*
X524049Y206062D01*
X523251Y205601D01*
X522599Y204949D01*
X522139Y204151D01*
X521900Y203261D01*
Y202339D01*
X522139Y201449D01*
X522599Y200651D01*
X523251Y199999D01*
X524049Y199539D01*
X524939Y199300D01*
X525861D01*
X526751Y199539D01*
X527549Y199999D01*
X528201Y200651D01*
X528661Y201449D01*
X528900Y202339D01*
Y203261D01*
X528661Y204151D01*
X528201Y204949D01*
X527549Y205601D01*
X526751Y206062D01*
X525861Y206300D01*
D02*
G37*
G36*
X515861D02*
X514939D01*
X514049Y206062D01*
X513251Y205601D01*
X512599Y204949D01*
X512139Y204151D01*
X511900Y203261D01*
Y202339D01*
X512139Y201449D01*
X512599Y200651D01*
X513251Y199999D01*
X514049Y199539D01*
X514939Y199300D01*
X515861D01*
X516751Y199539D01*
X517549Y199999D01*
X518201Y200651D01*
X518661Y201449D01*
X518900Y202339D01*
Y203261D01*
X518661Y204151D01*
X518201Y204949D01*
X517549Y205601D01*
X516751Y206062D01*
X515861Y206300D01*
D02*
G37*
G36*
X505861D02*
X504939D01*
X504049Y206062D01*
X503251Y205601D01*
X502599Y204949D01*
X502139Y204151D01*
X501900Y203261D01*
Y202339D01*
X502139Y201449D01*
X502599Y200651D01*
X503251Y199999D01*
X504049Y199539D01*
X504939Y199300D01*
X505861D01*
X506751Y199539D01*
X507549Y199999D01*
X508201Y200651D01*
X508662Y201449D01*
X508900Y202339D01*
Y203261D01*
X508662Y204151D01*
X508201Y204949D01*
X507549Y205601D01*
X506751Y206062D01*
X505861Y206300D01*
D02*
G37*
G36*
X495861D02*
X494939D01*
X494049Y206062D01*
X493251Y205601D01*
X492599Y204949D01*
X492138Y204151D01*
X491900Y203261D01*
Y202339D01*
X492138Y201449D01*
X492599Y200651D01*
X493251Y199999D01*
X494049Y199539D01*
X494939Y199300D01*
X495861D01*
X496751Y199539D01*
X497549Y199999D01*
X498201Y200651D01*
X498662Y201449D01*
X498900Y202339D01*
Y203261D01*
X498662Y204151D01*
X498201Y204949D01*
X497549Y205601D01*
X496751Y206062D01*
X495861Y206300D01*
D02*
G37*
G36*
X485861D02*
X484939D01*
X484049Y206062D01*
X483251Y205601D01*
X482599Y204949D01*
X482138Y204151D01*
X481900Y203261D01*
Y202339D01*
X482138Y201449D01*
X482599Y200651D01*
X483251Y199999D01*
X484049Y199539D01*
X484939Y199300D01*
X485861D01*
X486751Y199539D01*
X487549Y199999D01*
X488201Y200651D01*
X488661Y201449D01*
X488900Y202339D01*
Y203261D01*
X488661Y204151D01*
X488201Y204949D01*
X487549Y205601D01*
X486751Y206062D01*
X485861Y206300D01*
D02*
G37*
G36*
X596861Y200800D02*
X595939D01*
X595049Y200561D01*
X594251Y200101D01*
X593599Y199449D01*
X593139Y198651D01*
X592900Y197761D01*
Y196839D01*
X593139Y195949D01*
X593599Y195151D01*
X594251Y194499D01*
X595049Y194038D01*
X595939Y193800D01*
X596861D01*
X597751Y194038D01*
X598549Y194499D01*
X599201Y195151D01*
X599661Y195949D01*
X599900Y196839D01*
Y197761D01*
X599661Y198651D01*
X599201Y199449D01*
X598549Y200101D01*
X597751Y200561D01*
X596861Y200800D01*
D02*
G37*
G36*
X586861D02*
X585939D01*
X585049Y200561D01*
X584251Y200101D01*
X583599Y199449D01*
X583139Y198651D01*
X582900Y197761D01*
Y196839D01*
X583139Y195949D01*
X583599Y195151D01*
X584251Y194499D01*
X585049Y194038D01*
X585939Y193800D01*
X586861D01*
X587751Y194038D01*
X588549Y194499D01*
X589201Y195151D01*
X589662Y195949D01*
X589900Y196839D01*
Y197761D01*
X589662Y198651D01*
X589201Y199449D01*
X588549Y200101D01*
X587751Y200561D01*
X586861Y200800D01*
D02*
G37*
G36*
X575512Y553717D02*
X574288D01*
X573087Y553478D01*
X571955Y553009D01*
X570937Y552329D01*
X570071Y551463D01*
X569391Y550445D01*
X568922Y549313D01*
X568683Y548112D01*
Y546888D01*
X568922Y545687D01*
X569391Y544555D01*
X570071Y543537D01*
X570937Y542671D01*
X571955Y541991D01*
X573087Y541522D01*
X574288Y541284D01*
X575512D01*
X576713Y541522D01*
X577845Y541991D01*
X578863Y542671D01*
X579729Y543537D01*
X580409Y544555D01*
X580878Y545687D01*
X581116Y546888D01*
Y548112D01*
X580878Y549313D01*
X580409Y550445D01*
X579729Y551463D01*
X578863Y552329D01*
X577845Y553009D01*
X576713Y553478D01*
X575512Y553717D01*
D02*
G37*
G36*
X260512D02*
X259288D01*
X258087Y553478D01*
X256955Y553009D01*
X255937Y552329D01*
X255071Y551463D01*
X254391Y550445D01*
X253922Y549313D01*
X253683Y548112D01*
Y546888D01*
X253922Y545687D01*
X254391Y544555D01*
X255071Y543537D01*
X255937Y542671D01*
X256955Y541991D01*
X258087Y541522D01*
X259288Y541284D01*
X260512D01*
X261713Y541522D01*
X262845Y541991D01*
X263863Y542671D01*
X264729Y543537D01*
X265409Y544555D01*
X265878Y545687D01*
X266116Y546888D01*
Y548112D01*
X265878Y549313D01*
X265409Y550445D01*
X264729Y551463D01*
X263863Y552329D01*
X262845Y553009D01*
X261713Y553478D01*
X260512Y553717D01*
D02*
G37*
%LPD*%
D10*
X571004Y354000D02*
X588700D01*
X570904Y353900D02*
X571004Y354000D01*
X241100Y431400D02*
Y435000D01*
X251700Y396025D02*
X255075Y399400D01*
X255500D01*
X247925Y399800D02*
X251700Y396025D01*
X247700Y399800D02*
X247925D01*
X251700Y391100D02*
Y396025D01*
X255000Y285900D02*
X256200D01*
D13*
X265500D02*
Y291400D01*
Y282000D02*
Y285900D01*
X302700Y376000D02*
Y380300D01*
D15*
X500049Y259200D02*
Y266062D01*
X499810Y266301D02*
X500049Y266062D01*
Y259200D02*
X500149Y259100D01*
X464716D02*
Y267500D01*
X478424Y265191D02*
X478460Y265155D01*
X490302Y265087D02*
X490304Y265085D01*
Y259102D02*
X490306Y259100D01*
X478460Y259136D02*
X478495Y259100D01*
X482444Y259112D02*
Y265228D01*
X490304Y259102D02*
Y265085D01*
X482444Y265228D02*
X482456Y265240D01*
X482432Y259100D02*
X482444Y259112D01*
X478460Y259136D02*
Y265155D01*
X484472Y268748D02*
X484544Y268820D01*
X476527Y259100D02*
Y268820D01*
X484472Y259172D02*
Y268748D01*
X484401Y259100D02*
X484472Y259172D01*
X480464Y259100D02*
Y268820D01*
X488338Y259100D02*
Y268820D01*
X474491Y259167D02*
X474558Y259100D01*
X474491Y259167D02*
Y264399D01*
X474424Y264466D02*
X474491Y264399D01*
X470644Y259122D02*
Y264443D01*
X470621Y259100D02*
X470644Y259122D01*
Y264443D02*
X470666Y264466D01*
X472590Y259100D02*
Y268909D01*
X257500Y304600D02*
X261600D01*
Y306200D02*
Y307650D01*
X303300Y384900D02*
Y385456D01*
X302034Y386722D02*
X303300Y385456D01*
X302034Y386722D02*
Y390900D01*
X265500Y282000D02*
X265600Y281900D01*
X299650Y380300D02*
X301100D01*
D16*
X269802Y356761D02*
X270461D01*
X268340Y355300D02*
X269802Y356761D01*
X262200Y355300D02*
X268340D01*
X261900Y355600D02*
Y367300D01*
X261600Y311300D02*
Y312800D01*
X241100Y426700D02*
Y428500D01*
X252100Y412400D02*
Y413200D01*
X294000Y380300D02*
X295600D01*
D17*
X494099Y309608D02*
X499466D01*
X500015Y310158D01*
X496813Y304827D02*
X500175Y308190D01*
X507900D01*
X496813Y304690D02*
Y304827D01*
X452855Y336914D02*
Y343450D01*
X452750Y336810D02*
X452855Y336914D01*
Y343450D02*
X452905Y343500D01*
X454831Y332664D02*
Y343458D01*
X450386Y332915D02*
Y339829D01*
X450886Y340329D01*
X456877Y338378D02*
Y343465D01*
X456842Y343500D02*
X456877Y343465D01*
Y338378D02*
X456912Y338343D01*
X454831Y343458D02*
X454873Y343500D01*
X454831Y332664D02*
X454873Y332622D01*
X495206Y320751D02*
X499181D01*
X501900Y318032D01*
X507900D01*
X503800Y320001D02*
X507900D01*
X502096Y321705D02*
X503800Y320001D01*
X514995Y321969D02*
X515864Y321100D01*
X516287D01*
X507900Y321969D02*
X514995D01*
X494793Y270238D02*
X496455Y268577D01*
X503461D01*
X450886Y340329D02*
Y343450D01*
X450936Y343500D01*
X434132Y318032D02*
X435900Y319800D01*
X423500Y318032D02*
X434132D01*
X503596Y263779D02*
Y265275D01*
X505122Y266801D01*
X507850D01*
X503461Y263643D02*
X503596Y263779D01*
X507850Y266801D02*
X507900Y266851D01*
X503461Y268577D02*
X503704Y268820D01*
X507900D01*
X502599Y270658D02*
X502679Y270738D01*
X507850D01*
X507900Y270788D01*
X496200Y276901D02*
X503605D01*
X503812Y276694D02*
X507900D01*
X502743Y274820D02*
X502790Y274773D01*
X503605Y276901D02*
X503812Y276694D01*
X504931Y290698D02*
X505107Y290523D01*
X507850D02*
X507900Y290473D01*
X494520Y290698D02*
X504931D01*
X505107Y290523D02*
X507850D01*
X494294Y290473D02*
X494520Y290698D01*
X501313Y286419D02*
X501430Y286536D01*
X500498Y288519D02*
X507886D01*
X507900Y288505D01*
X500484Y288533D02*
X500498Y288519D01*
X501430Y286536D02*
X507900D01*
X494520Y286419D02*
X501313D01*
X513653Y282549D02*
X513800Y282402D01*
X507950Y282549D02*
X513653D01*
X500484Y284568D02*
X507900D01*
X499934Y284018D02*
X500484Y284568D01*
X507900Y282599D02*
X507950Y282549D01*
X499511Y284018D02*
X499934D01*
X501740Y292442D02*
X507900D01*
X501104Y293078D02*
X501740Y292442D01*
X500681Y293078D02*
X501104D01*
X494294Y295829D02*
X502912D01*
X504280Y294460D01*
X507850D02*
X507900Y294410D01*
X504280Y294460D02*
X507850D01*
X468490Y337500D02*
X468603Y337613D01*
X478495Y332897D02*
Y335323D01*
X478896Y335723D02*
Y338496D01*
X478495Y335323D02*
X478896Y335723D01*
X464328Y338997D02*
X464716Y339385D01*
X464328Y336604D02*
Y338997D01*
X464716Y339385D02*
Y343500D01*
X432353Y286536D02*
X432903Y285986D01*
X433220D01*
X423500Y286536D02*
X432353D01*
X429747Y316064D02*
X430083Y316400D01*
X439100D01*
X430828Y320001D02*
X432247Y321419D01*
X432670D01*
X423500Y320001D02*
X430828D01*
X466409Y332897D02*
X466684Y332622D01*
X466409Y332897D02*
Y338362D01*
X472621Y337531D02*
X472652Y337500D01*
X474558Y332588D02*
Y335800D01*
X474733Y335976D01*
Y338466D01*
X474558Y338642D02*
Y343500D01*
X468603Y343450D02*
X468653Y343500D01*
X466409Y338362D02*
X466684Y338637D01*
X476577Y337872D02*
Y343450D01*
X478495Y338897D02*
X478896Y338496D01*
X472590Y343500D02*
X472621Y343469D01*
X476577Y337872D02*
X476815Y337634D01*
X466684Y338637D02*
Y343500D01*
X474558Y338642D02*
X474733Y338466D01*
X470571Y332588D02*
Y343450D01*
X478495Y338897D02*
Y343500D01*
X468603Y337613D02*
Y343450D01*
X472621Y337531D02*
Y343469D01*
X476527Y343500D02*
X476577Y343450D01*
X427408Y256048D02*
X430070Y258710D01*
X427408Y255983D02*
Y256048D01*
X507882Y272739D02*
X507900Y272757D01*
X498086Y272739D02*
X507882D01*
X498069Y272721D02*
X498086Y272739D01*
X502790Y274773D02*
X507853D01*
X507900Y274725D01*
X446999Y259100D02*
Y264667D01*
X450936Y259100D02*
Y264751D01*
X454873Y259100D02*
Y264751D01*
X458860Y259150D02*
Y264584D01*
X443104Y259142D02*
Y264709D01*
X462711Y264751D02*
X462729Y264733D01*
X458860Y264584D02*
X458943Y264667D01*
X443104Y264709D02*
X443147Y264751D01*
X462729Y259118D02*
Y264733D01*
X486374Y259104D02*
Y265087D01*
X486378Y265091D01*
X498188Y312077D02*
X507850D01*
X497900Y311789D02*
X498188Y312077D01*
X497038Y313870D02*
X501106D01*
X501332Y314095D01*
X507900D01*
X494099D02*
X496813D01*
X500015Y310158D02*
X507900D01*
X498013Y316064D02*
X507900D01*
X496813Y314095D02*
X497038Y313870D01*
X497900Y315951D02*
X498013Y316064D01*
X501343Y304690D02*
X502874Y306221D01*
X501038Y304690D02*
X501343D01*
X502874Y306221D02*
X507900D01*
X507850Y312077D02*
X507900Y312127D01*
X423500Y276694D02*
X433220D01*
X423500Y278662D02*
X428880D01*
X423500Y282599D02*
X429812D01*
X423542Y294452D02*
X429770D01*
X429812Y294495D01*
X423500Y294410D02*
X423542Y294452D01*
X423500Y296379D02*
X436607D01*
X423500Y292442D02*
X436607D01*
X423504Y288509D02*
X436603D01*
X436607Y288505D01*
X423500Y280631D02*
X436607D01*
X423500Y288505D02*
X423504Y288509D01*
X423526Y298374D02*
X429646D01*
X423500Y298347D02*
X423526Y298374D01*
X429646D02*
X429672Y298400D01*
Y290435D02*
X429710Y290397D01*
X423538Y290435D02*
X429672D01*
X423500Y290473D02*
X423538Y290435D01*
X423500Y316064D02*
X429747D01*
X417800Y328221D02*
X418116D01*
X418463Y327875D01*
X423500D01*
X430070Y258710D02*
X431201D01*
Y259050D02*
X431251Y259100D01*
X431201Y258710D02*
Y259050D01*
X437157Y253648D02*
Y259100D01*
Y253648D02*
X438575Y252230D01*
Y251978D02*
Y252230D01*
X435188Y251978D02*
Y259100D01*
X484401Y338568D02*
Y343500D01*
X507900Y335749D02*
X513651D01*
X485819Y335199D02*
Y335515D01*
X486369Y336065D02*
Y343500D01*
X485819Y335515D02*
X486369Y336065D01*
X488288Y332588D02*
Y343450D01*
X488100Y332400D02*
X488288Y332588D01*
Y343450D02*
X488338Y343500D01*
X470571Y343450D02*
X470621Y343500D01*
X443062Y334717D02*
Y343500D01*
X448968Y259100D02*
Y268909D01*
X445031Y259100D02*
Y268909D01*
X460827Y259148D02*
Y268909D01*
X456842Y259100D02*
Y268909D01*
X452905Y259100D02*
Y268909D01*
X441094Y338343D02*
Y343500D01*
Y338343D02*
X441178Y338259D01*
X507900Y296379D02*
X512018D01*
X513436Y297797D01*
X486369Y259100D02*
X486374Y259104D01*
X432105Y254086D02*
X433220Y255200D01*
X430282Y254086D02*
X432105D01*
X430058Y253862D02*
X430282Y254086D01*
X433220Y255200D02*
Y259100D01*
X462729Y259118D02*
X462747Y259100D01*
X460779D02*
X460827Y259148D01*
X458810Y259100D02*
X458860Y259150D01*
X261600Y307650D02*
Y308600D01*
X443062Y259100D02*
X443104Y259142D01*
X431251Y343500D02*
X433220D01*
X411400Y351100D02*
X419000Y343500D01*
X431251D01*
X411400Y351100D02*
Y355360D01*
X262450Y285900D02*
X263900D01*
D19*
X564396Y473228D02*
Y476697D01*
X588700Y526548D02*
X589348Y525900D01*
X576596Y510100D02*
X576800Y509897D01*
X418661Y495039D02*
X420108D01*
X417386D02*
X418661D01*
X430500Y437431D02*
X430600Y437331D01*
X428268Y425337D02*
X428432Y425500D01*
X428200Y425269D02*
X428268Y425337D01*
X498300Y239500D02*
X502359D01*
X492101D02*
X498300D01*
X475993Y238600D02*
X485116D01*
X411060Y363100D02*
X411360Y362800D01*
X461540Y238931D02*
X461772Y238700D01*
X362701Y497467D02*
X362784Y497384D01*
X352500Y516506D02*
X352630D01*
X351650D02*
X352500D01*
X388500Y465700D02*
Y477700D01*
X362551Y474785D02*
X362668Y474668D01*
X369291Y441000D02*
X376400D01*
X465500Y366740D02*
Y374500D01*
Y366740D02*
X465640Y366600D01*
X472400D01*
X447085Y367600D02*
X456500D01*
X447000Y367515D02*
X447085Y367600D01*
X476500D02*
X483780D01*
X484000Y367380D01*
X584169Y488109D02*
X585200Y487078D01*
X542100Y501200D02*
X547590D01*
X516260Y238400D02*
X524074D01*
X515600Y239060D02*
X516260Y238400D01*
X502359Y239500D02*
X504131Y241272D01*
X504283D01*
X472040Y242553D02*
X475993Y238600D01*
X485116D02*
X487788Y241272D01*
X490330Y237728D02*
X492101Y239500D01*
X489855Y237728D02*
X490330D01*
X272200Y297400D02*
Y304147D01*
X262000Y355500D02*
X262200Y355300D01*
X261900Y355600D02*
X262000Y355500D01*
X467203Y239985D02*
X467315D01*
X465918Y238700D02*
X467203Y239985D01*
X461772Y238700D02*
X465918D01*
X461109Y238500D02*
X461540Y238931D01*
X454200Y238500D02*
X461109D01*
X441100Y238720D02*
X441420Y238400D01*
X448200D01*
X440780D02*
X441100Y238720D01*
X480000Y250000D02*
X482147Y252147D01*
X487976D01*
X428900Y354638D02*
Y359296D01*
Y354638D02*
X435188Y348350D01*
Y343500D02*
Y348350D01*
X571602Y465451D02*
X572800Y464253D01*
X535400Y470373D02*
Y474439D01*
X535900Y467000D02*
X535905Y466995D01*
X535900Y467000D02*
Y469873D01*
X535400Y470373D02*
X535900Y469873D01*
X587500Y477400D02*
X587634Y477266D01*
Y470619D02*
Y477266D01*
X555117Y454100D02*
Y458264D01*
X555300Y458447D01*
X573000Y454679D02*
X574879Y452800D01*
X575327D01*
X573000Y454679D02*
Y458147D01*
X586230Y478670D02*
X587500Y477400D01*
X576359Y486141D02*
X583830Y478670D01*
X586230D01*
X542960Y454500D02*
X548850D01*
X402182Y277922D02*
X403460Y279200D01*
X396500Y277922D02*
X402182D01*
X552800Y514200D02*
X555647Y517046D01*
X552800Y504700D02*
X558491Y499009D01*
X552800Y504700D02*
Y514200D01*
X428432Y425500D02*
X434000D01*
X414500Y238500D02*
Y243600D01*
X414700Y243800D01*
X564396Y473228D02*
X566500Y471124D01*
Y471000D02*
Y471124D01*
X391000Y248495D02*
X391300Y248795D01*
X391000Y243500D02*
Y248495D01*
X393500Y489500D02*
X393710Y489710D01*
X401128D01*
X396010Y492490D02*
X401328D01*
X396000Y492500D02*
X396010Y492490D01*
X401328D02*
X401339Y492480D01*
X401128Y489710D02*
X401339Y489921D01*
X329876Y484624D02*
X340198D01*
X315924Y498576D02*
X329876Y484624D01*
X308700Y498576D02*
X315924D01*
X425238Y495500D02*
X425500D01*
X420494Y495019D02*
X424757D01*
X425238Y495500D01*
X420494Y498494D02*
X423000Y501000D01*
X420494Y495424D02*
Y498494D01*
X420108Y495039D02*
X420494Y495424D01*
X417000D02*
Y500500D01*
Y495424D02*
X417386Y495039D01*
X270500Y403902D02*
Y410000D01*
X452800Y499715D02*
X452815Y499700D01*
X452615Y499900D02*
X452800Y499715D01*
X352500Y516506D02*
Y519000D01*
Y515657D02*
Y516506D01*
X411400Y362840D02*
X411560Y363000D01*
X411360Y362800D02*
X411400Y362840D01*
X558491Y476697D02*
Y477972D01*
Y472966D02*
Y476697D01*
X557900Y472375D02*
X558491Y472966D01*
X557900Y471900D02*
Y472375D01*
X570861Y468539D02*
X571782D01*
X572800Y464253D02*
Y467521D01*
X571782Y468539D02*
X572800Y467521D01*
X570600Y468800D02*
X570861Y468539D01*
X568449Y465451D02*
X571602D01*
X562528Y471372D02*
X568449Y465451D01*
X562528Y471372D02*
Y476597D01*
X563600Y463245D02*
Y467009D01*
X560459Y470149D02*
X563600Y467009D01*
X560459Y470149D02*
Y476697D01*
X562428D02*
X562528Y476597D01*
X560740Y512800D02*
X566400D01*
X562428Y491647D02*
Y497928D01*
X565600Y501100D02*
X587048D01*
X562428Y497928D02*
X565600Y501100D01*
X528100Y474200D02*
X535161D01*
X535400Y474439D01*
X247550Y419900D02*
Y420799D01*
X267700Y413800D02*
Y419553D01*
X563500Y451400D02*
Y456255D01*
X563600Y456355D01*
X569903Y486141D02*
X576359D01*
X594980Y477400D02*
X595300Y477080D01*
Y471800D02*
Y477080D01*
X594980Y477400D02*
X595100Y477520D01*
X550100Y468962D02*
X554709Y464353D01*
X550100Y468962D02*
Y469000D01*
X386335Y455235D02*
X387000Y455900D01*
X386335Y449997D02*
Y455235D01*
X536600Y454500D02*
X542640D01*
X542760Y462100D02*
X542800Y462140D01*
X536900Y462100D02*
X542760D01*
X584860Y488800D02*
X586200Y490140D01*
X584169Y488109D02*
X584860Y488800D01*
X542800Y454660D02*
X542960Y454500D01*
X560860Y505200D02*
X566600D01*
X541200Y507300D02*
X547194D01*
X547200Y507305D01*
X298200Y506700D02*
X298300Y506600D01*
X292100Y506700D02*
X298200D01*
X298300Y506600D02*
X298600Y506900D01*
Y512200D01*
X386953Y456000D02*
Y460472D01*
X386100Y461325D02*
X386953Y460472D01*
X569903Y486141D02*
Y488109D01*
X586200Y492831D02*
X587600Y494231D01*
X586200Y490140D02*
Y492831D01*
X583800Y483200D02*
X585200Y484600D01*
Y487078D01*
X587500Y481600D02*
X588900Y483000D01*
X587500Y477400D02*
Y481600D01*
X592600Y489060D02*
Y494400D01*
X592540Y489000D02*
X592600Y489060D01*
X595100Y477520D02*
Y482800D01*
X433800Y238400D02*
X440780D01*
X423600Y242520D02*
X424020Y242100D01*
X430700D01*
X402700Y247220D02*
X402800Y247320D01*
X402700Y241700D02*
Y247220D01*
X369091Y440800D02*
X369291Y441000D01*
X362400Y440800D02*
X369091D01*
X349100Y447900D02*
X349200Y448000D01*
X349000Y443150D02*
X349100Y443250D01*
Y447900D01*
X349000Y437600D02*
Y443150D01*
Y460100D02*
Y466500D01*
Y460100D02*
X349050Y460050D01*
X484120Y367500D02*
X491200D01*
X484000Y367380D02*
X484120Y367500D01*
X404100Y363100D02*
X411060D01*
X411560Y363000D02*
X418200D01*
X508400Y238400D02*
X514940D01*
X515600Y239060D01*
X362784Y497384D02*
X366584D01*
X366659Y493441D02*
X366700Y493400D01*
X366584Y497384D02*
X366600Y497400D01*
X362643Y493441D02*
X366659D01*
X267700Y419847D02*
Y424700D01*
X267553Y419700D02*
X267700Y419847D01*
X339000Y469514D02*
X344018Y474532D01*
X339000Y469500D02*
Y469514D01*
X349900Y471600D02*
X349912Y471612D01*
Y474820D02*
X349924Y474832D01*
X349912Y471612D02*
Y474820D01*
X362740Y487438D02*
X366562D01*
X362601Y487576D02*
X362740Y487438D01*
X366562D02*
X366700Y487300D01*
X362601Y493482D02*
X362643Y493441D01*
X347371Y497768D02*
Y499371D01*
X362701Y501301D02*
X362800Y501400D01*
X362701Y497467D02*
Y501301D01*
X340132Y497434D02*
Y500499D01*
X339500Y501131D02*
X340132Y500499D01*
X344500Y498819D02*
Y501500D01*
X347371Y499371D02*
X349500Y501500D01*
X339500Y501131D02*
Y501500D01*
X308782Y505582D02*
X313918D01*
X314000Y505500D01*
X308700Y505663D02*
X309000Y505963D01*
Y509500D01*
X308700Y505663D02*
X308782Y505582D01*
X253500Y479500D02*
Y481630D01*
X255400Y483530D02*
Y483800D01*
X253500Y481630D02*
X255400Y483530D01*
X276000Y499000D02*
X281350D01*
X441890Y367515D02*
X447000D01*
X440375Y366000D02*
X441890Y367515D01*
X439900Y366000D02*
X440375D01*
X331500Y508900D02*
X336653D01*
X335500Y474500D02*
X335668Y474668D01*
X335585Y481585D02*
X340113D01*
X335500Y481500D02*
X335585Y481585D01*
X340113D02*
X340198Y481671D01*
X352888Y468112D02*
Y474820D01*
X352876Y474832D02*
X352888Y474820D01*
X349050Y454650D02*
Y460050D01*
Y454650D02*
X349100Y454600D01*
X428200Y420400D02*
Y425269D01*
X430600Y431300D02*
Y437331D01*
X430500Y437431D02*
Y443800D01*
X401500Y438263D02*
X401563Y438200D01*
X401500Y438263D02*
Y443400D01*
X401300Y437937D02*
X401563Y438200D01*
X401300Y432800D02*
Y437937D01*
X560600Y505460D02*
X560860Y505200D01*
X560600Y512940D02*
X560740Y512800D01*
X534947Y513500D02*
X535300Y513853D01*
X529900Y513500D02*
X534947D01*
X535300Y513853D02*
X535353Y513800D01*
X540900D01*
X547590Y501200D02*
X547790Y501400D01*
X572800Y464253D02*
X573000Y464053D01*
X554709Y464353D02*
X555300D01*
X542640Y454500D02*
X542800Y454660D01*
X542860Y462200D02*
X549500D01*
X542800Y462140D02*
X542860Y462200D01*
X592340Y488800D02*
X592440Y488700D01*
X598800D01*
X593400Y501052D02*
Y507800D01*
Y501052D02*
X593552Y500900D01*
X593752Y501100D01*
X599500D01*
X576800Y506000D02*
Y509897D01*
X571100Y510100D02*
X576596D01*
X591339Y517214D02*
X593600Y514953D01*
X591339Y517214D02*
X593500Y519375D01*
Y519600D01*
X588050Y517214D02*
X591339D01*
X587150Y517046D02*
X588050D01*
X589348Y525900D02*
X595300D01*
X588700Y526548D02*
Y533100D01*
X270305Y403708D02*
X270700Y403313D01*
Y398700D02*
Y403313D01*
X270305Y403708D02*
X270500Y403902D01*
X267553Y419700D02*
X267700Y419553D01*
X253500Y459200D02*
Y459500D01*
Y459200D02*
X257000Y455700D01*
X273500Y459500D02*
X273700Y459300D01*
Y454800D02*
Y459300D01*
X273500Y479500D02*
X273600Y479600D01*
Y484200D01*
X284922Y462478D02*
X285000Y462555D01*
X279478Y462478D02*
X284922D01*
X279400Y462400D02*
X279478Y462478D01*
X285000Y462555D02*
X285078Y462478D01*
X290422D01*
X290500Y462400D01*
X325400Y471410D02*
X325555Y471255D01*
X330845D01*
X331000Y471100D01*
X325355Y471455D02*
X325400Y471410D01*
X320045Y471455D02*
X325355D01*
X320000Y471500D02*
X320045Y471455D01*
X335668Y474668D02*
X340030D01*
X340198Y474836D01*
X344018Y474532D02*
Y474832D01*
X362668Y474668D02*
X366332D01*
X366500Y474500D01*
X362551Y471051D02*
Y474785D01*
X362500Y471000D02*
X362551Y471051D01*
X346971Y497368D02*
X347371Y497768D01*
X344018Y497368D02*
X344418Y497768D01*
Y498737D01*
X344500Y498819D01*
X335866Y497434D02*
X340132D01*
X335800Y497500D02*
X335866Y497434D01*
X368495Y509000D02*
X368500Y508994D01*
X363500Y509000D02*
X368495D01*
X368500Y508994D02*
X368595Y508900D01*
X373800D01*
X352500Y509143D02*
X352643Y509000D01*
X358900D01*
X352457Y509100D02*
X352500Y509143D01*
X346200Y509100D02*
X352457D01*
X336653Y508900D02*
X337000Y509247D01*
X337547Y508700D01*
X342000D01*
X447000Y355840D02*
Y360222D01*
X439125Y347965D02*
X447000Y355840D01*
X552304Y482204D02*
X554953D01*
X542800Y462140D02*
Y472700D01*
X552304Y482204D01*
X569903Y488109D02*
X584169D01*
X439125Y343500D02*
Y347965D01*
X480000Y246200D02*
Y250000D01*
X492225Y259050D02*
X492275Y259100D01*
X492225Y256396D02*
Y259050D01*
X487976Y252147D02*
X492225Y256396D01*
X281350Y499000D02*
X281450Y499100D01*
X486937Y500500D02*
X493400D01*
X486900Y500537D02*
X486937Y500500D01*
X480300Y500400D02*
X486763D01*
X486900Y500537D01*
X452815Y499700D02*
X460700D01*
X445500Y499900D02*
X452615D01*
X368500Y514900D02*
X368800Y515200D01*
X373700D01*
X363200D02*
X368200D01*
X368500Y514900D01*
X352500Y519000D02*
X355100Y521600D01*
Y521700D01*
X351650Y516506D02*
X352500Y515657D01*
X350000Y521500D02*
X352500Y519000D01*
X337153Y515000D02*
X342300D01*
X336647Y514800D02*
X337000Y515153D01*
X337153Y515000D01*
X331800Y514800D02*
X336647D01*
X261100Y285900D02*
X262450D01*
X555647Y517046D02*
X576850D01*
X580346D01*
X549259Y499341D02*
X554953Y493647D01*
X547790Y501400D02*
X549259Y499931D01*
Y499341D02*
Y499931D01*
X554953Y488109D02*
Y493647D01*
X558491Y491647D02*
Y499009D01*
X582148Y518848D02*
Y526300D01*
X580346Y517046D02*
X582148Y518848D01*
X587048Y501100D02*
X587150Y501202D01*
Y510354D01*
X298843Y498576D02*
X308700D01*
X298320Y499100D02*
X298843Y498576D01*
X554953Y480235D02*
X555200D01*
X555300Y480135D01*
Y464353D02*
Y480135D01*
X560459Y491647D02*
Y492922D01*
X560600Y493063D01*
Y505460D01*
D20*
X570904Y353900D02*
D03*
X558896D02*
D03*
D21*
X272200Y304147D02*
D03*
Y310053D02*
D03*
D22*
X465500Y359260D02*
D03*
Y366740D02*
D03*
X484000Y367380D02*
D03*
Y359900D02*
D03*
X515600Y239060D02*
D03*
Y246540D02*
D03*
X461600Y246472D02*
D03*
Y238991D02*
D03*
X402800Y254800D02*
D03*
Y247320D02*
D03*
X542800Y454660D02*
D03*
Y462140D02*
D03*
X560600Y512940D02*
D03*
X411400Y362840D02*
D03*
X441100Y238720D02*
D03*
X423600Y242520D02*
D03*
X298300Y506600D02*
D03*
X441100Y246200D02*
D03*
X411400Y355360D02*
D03*
X423600Y250000D02*
D03*
X560600Y505460D02*
D03*
X298300Y499120D02*
D03*
D23*
X498300Y239500D02*
D03*
Y246980D02*
D03*
D24*
X520400Y267800D02*
D03*
X527880D02*
D03*
X520160Y301300D02*
D03*
X527640D02*
D03*
X520620Y315200D02*
D03*
X528100D02*
D03*
X592340Y488800D02*
D03*
X594980Y477400D02*
D03*
X527840Y331800D02*
D03*
X388240Y471468D02*
D03*
X399460Y323300D02*
D03*
X404060Y311900D02*
D03*
X403700Y292900D02*
D03*
X403460Y279200D02*
D03*
X520360Y331800D02*
D03*
X380760Y471468D02*
D03*
X411540Y311900D02*
D03*
X406940Y323300D02*
D03*
X411180Y292900D02*
D03*
X410940Y279200D02*
D03*
X584860Y488800D02*
D03*
X587500Y477400D02*
D03*
D25*
X520194Y290900D02*
D03*
X526100D02*
D03*
X428268Y425337D02*
D03*
X401563Y438200D02*
D03*
X386953Y456000D02*
D03*
X267553Y419700D02*
D03*
X270305Y403708D02*
D03*
X381047Y456000D02*
D03*
X422363Y425337D02*
D03*
X407469Y438200D02*
D03*
X264400Y403708D02*
D03*
X261647Y419700D02*
D03*
X433947Y492322D02*
D03*
X439853D02*
D03*
D26*
X272117Y327200D02*
D03*
X261483D02*
D03*
D27*
X261600Y306200D02*
D03*
Y304600D02*
D03*
D28*
X391300Y254700D02*
D03*
Y248795D02*
D03*
X414700Y249706D02*
D03*
Y243800D02*
D03*
X547200Y507305D02*
D03*
X573000Y458147D02*
D03*
X555300Y458447D02*
D03*
X535300Y513853D02*
D03*
X368500Y514900D02*
D03*
X337000Y515153D02*
D03*
X368500Y508994D02*
D03*
X573000Y464053D02*
D03*
X535300Y507947D02*
D03*
X337000Y509247D02*
D03*
X547200Y501400D02*
D03*
X555300Y464353D02*
D03*
D29*
X423500Y333780D02*
D03*
Y331812D02*
D03*
Y335749D02*
D03*
Y329843D02*
D03*
X507900Y298347D02*
D03*
Y327875D02*
D03*
Y280631D02*
D03*
X423500Y314095D02*
D03*
Y325906D02*
D03*
Y302284D02*
D03*
Y272757D02*
D03*
Y310158D02*
D03*
Y270788D02*
D03*
X507900Y304253D02*
D03*
Y302284D02*
D03*
Y331812D02*
D03*
Y329843D02*
D03*
Y278662D02*
D03*
X423500Y323938D02*
D03*
Y321969D02*
D03*
Y312127D02*
D03*
Y306221D02*
D03*
Y300316D02*
D03*
Y274725D02*
D03*
Y266851D02*
D03*
Y284568D02*
D03*
Y268820D02*
D03*
X507900Y325906D02*
D03*
Y335749D02*
D03*
Y333780D02*
D03*
Y323938D02*
D03*
Y321969D02*
D03*
Y320001D02*
D03*
Y318032D02*
D03*
Y316064D02*
D03*
Y314095D02*
D03*
Y312127D02*
D03*
Y310158D02*
D03*
Y308190D02*
D03*
Y306221D02*
D03*
Y300316D02*
D03*
Y296379D02*
D03*
Y294410D02*
D03*
Y292442D02*
D03*
Y290473D02*
D03*
Y288505D02*
D03*
Y286536D02*
D03*
Y284568D02*
D03*
Y282599D02*
D03*
Y276694D02*
D03*
Y274725D02*
D03*
Y272757D02*
D03*
Y270788D02*
D03*
Y268820D02*
D03*
Y266851D02*
D03*
X423500Y276694D02*
D03*
Y278662D02*
D03*
Y280631D02*
D03*
Y282599D02*
D03*
Y286536D02*
D03*
Y288505D02*
D03*
Y290473D02*
D03*
Y292442D02*
D03*
Y294410D02*
D03*
Y296379D02*
D03*
Y298347D02*
D03*
Y304253D02*
D03*
Y308190D02*
D03*
Y316064D02*
D03*
Y318032D02*
D03*
Y320001D02*
D03*
Y327875D02*
D03*
D30*
X494243Y259100D02*
D03*
X437157Y343500D02*
D03*
X462747D02*
D03*
X482432D02*
D03*
X466684Y259100D02*
D03*
X439125D02*
D03*
X460779Y343500D02*
D03*
X480464D02*
D03*
X498180Y259100D02*
D03*
X496212D02*
D03*
X468653D02*
D03*
X441094D02*
D03*
X431251Y343500D02*
D03*
X433220D02*
D03*
X431251Y259100D02*
D03*
X433220D02*
D03*
X492275D02*
D03*
X439125Y343500D02*
D03*
X500149D02*
D03*
X498180D02*
D03*
X496212D02*
D03*
X494243D02*
D03*
X492275D02*
D03*
X490306D02*
D03*
X448968D02*
D03*
X441094D02*
D03*
X443062D02*
D03*
X445031D02*
D03*
X446999D02*
D03*
X450936D02*
D03*
X452905D02*
D03*
X454873D02*
D03*
X456842D02*
D03*
X458810D02*
D03*
X464716D02*
D03*
X466684D02*
D03*
X468653D02*
D03*
X470621D02*
D03*
X472590D02*
D03*
X474558D02*
D03*
X476527D02*
D03*
X478495D02*
D03*
X484401D02*
D03*
X486369D02*
D03*
X488338D02*
D03*
X500149Y259100D02*
D03*
X490306D02*
D03*
X488338D02*
D03*
X486369D02*
D03*
X484401D02*
D03*
X482432D02*
D03*
X480464D02*
D03*
X478495D02*
D03*
X476527D02*
D03*
X474558D02*
D03*
X472590D02*
D03*
X470621D02*
D03*
X464716D02*
D03*
X462747D02*
D03*
X460779D02*
D03*
X458810D02*
D03*
X456842D02*
D03*
X454873D02*
D03*
X452905D02*
D03*
X450936D02*
D03*
X448968D02*
D03*
X446999D02*
D03*
X445031D02*
D03*
X443062D02*
D03*
X437157D02*
D03*
X435188D02*
D03*
Y343500D02*
D03*
D31*
X428900Y359296D02*
D03*
Y371304D02*
D03*
D32*
X505786Y492500D02*
D03*
X499014D02*
D03*
D34*
X401339Y487361D02*
D03*
Y495039D02*
D03*
X418661Y492480D02*
D03*
Y489921D02*
D03*
Y487361D02*
D03*
X401339Y489921D02*
D03*
Y492480D02*
D03*
X418661Y495039D02*
D03*
D35*
X410000Y491200D02*
D03*
D36*
X535400Y481500D02*
D03*
Y474439D02*
D03*
D37*
X447000Y360222D02*
D03*
Y367515D02*
D03*
X480000Y238907D02*
D03*
Y246200D02*
D03*
D38*
X281450Y499100D02*
D03*
X287750D02*
D03*
D39*
X588452Y526300D02*
D03*
X593552Y500900D02*
D03*
X587248D02*
D03*
X582148Y526300D02*
D03*
X381748Y496400D02*
D03*
X388052D02*
D03*
X381448Y484600D02*
D03*
X387752D02*
D03*
D40*
X587150Y517046D02*
D03*
X576850Y510354D02*
D03*
X587150D02*
D03*
X576850Y517046D02*
D03*
D41*
X563600Y456355D02*
D03*
Y463245D02*
D03*
D42*
X486900Y500537D02*
D03*
Y492663D02*
D03*
D43*
X452800Y499715D02*
D03*
X321100Y238454D02*
D03*
Y245546D02*
D03*
X311000Y469554D02*
D03*
Y476646D02*
D03*
X452800Y492622D02*
D03*
D44*
X430406Y437337D02*
D03*
X422532D02*
D03*
D45*
X527440Y278400D02*
D03*
X402360Y302800D02*
D03*
X519960Y278400D02*
D03*
X409840Y302800D02*
D03*
D46*
X352500Y515657D02*
D03*
Y509143D02*
D03*
D47*
X308700Y505663D02*
D03*
Y498576D02*
D03*
D48*
X369461Y441169D02*
D03*
X422469Y450063D02*
D03*
X407469D02*
D03*
X369461Y449043D02*
D03*
X422469Y457937D02*
D03*
X407469D02*
D03*
D49*
X349000Y443150D02*
D03*
D50*
Y460100D02*
D03*
D51*
X325400Y471410D02*
D03*
X285000Y462555D02*
D03*
X325400Y478300D02*
D03*
X285000Y469445D02*
D03*
D52*
X249913Y417833D02*
D03*
D53*
X302034Y390900D02*
D03*
X293766D02*
D03*
D54*
X302700Y380300D02*
D03*
X265500Y285900D02*
D03*
X263900D02*
D03*
X301100Y380300D02*
D03*
D55*
X247550Y415766D02*
D03*
X252275Y419900D02*
D03*
X250700D02*
D03*
X249125D02*
D03*
X247550D02*
D03*
X249125Y415766D02*
D03*
X250700D02*
D03*
X252275D02*
D03*
D56*
X400884Y266400D02*
D03*
X411716D02*
D03*
D57*
X535300Y499937D02*
D03*
Y492063D02*
D03*
D58*
X343100Y452000D02*
D03*
X354900D02*
D03*
D59*
X278800Y391035D02*
D03*
Y380400D02*
D03*
D60*
X296000Y469650D02*
D03*
Y478350D02*
D03*
D61*
X524231Y492200D02*
D03*
X517169D02*
D03*
D62*
X474337Y492422D02*
D03*
X466463D02*
D03*
X517163Y481600D02*
D03*
X525037D02*
D03*
D77*
X351400Y486100D02*
D03*
D83*
X331700Y326100D02*
D03*
Y336100D02*
D03*
X321700Y326100D02*
D03*
Y336100D02*
D03*
X311700Y326100D02*
D03*
Y336100D02*
D03*
X301700Y326100D02*
D03*
Y336100D02*
D03*
X535400Y202800D02*
D03*
Y212800D02*
D03*
X525400Y202800D02*
D03*
Y212800D02*
D03*
X515400Y202800D02*
D03*
Y212800D02*
D03*
X505400Y202800D02*
D03*
Y212800D02*
D03*
X495400Y202800D02*
D03*
Y212800D02*
D03*
X485400Y202800D02*
D03*
Y212800D02*
D03*
X586400Y197300D02*
D03*
X596400D02*
D03*
X586400Y207300D02*
D03*
X596400D02*
D03*
X586400Y217300D02*
D03*
X596400D02*
D03*
X586400Y227300D02*
D03*
X596400D02*
D03*
X586400Y237300D02*
D03*
X596400D02*
D03*
X586400Y247300D02*
D03*
X596400D02*
D03*
X595400Y322700D02*
D03*
X585400D02*
D03*
X595400Y312700D02*
D03*
X585400D02*
D03*
X595400Y302700D02*
D03*
X585400D02*
D03*
X595400Y292700D02*
D03*
X585400D02*
D03*
X595400Y282700D02*
D03*
X585400D02*
D03*
X595400Y272700D02*
D03*
X585400D02*
D03*
X373000Y203000D02*
D03*
Y213000D02*
D03*
X363000Y203000D02*
D03*
Y213000D02*
D03*
X353000Y203000D02*
D03*
Y213000D02*
D03*
X343000Y203000D02*
D03*
Y213000D02*
D03*
X333000Y203000D02*
D03*
Y213000D02*
D03*
X323000Y203000D02*
D03*
Y213000D02*
D03*
X320700Y271000D02*
D03*
X330700D02*
D03*
X320700Y281000D02*
D03*
X330700D02*
D03*
X320700Y291000D02*
D03*
X330700D02*
D03*
X320700Y301000D02*
D03*
X330700D02*
D03*
X563128Y341165D02*
D03*
X553128D02*
D03*
X563128Y331165D02*
D03*
X553128D02*
D03*
X563128Y321165D02*
D03*
X553128D02*
D03*
X563128Y311165D02*
D03*
X553128D02*
D03*
X449600Y414900D02*
D03*
Y404900D02*
D03*
X459600Y414900D02*
D03*
Y404900D02*
D03*
X469600Y414900D02*
D03*
Y404900D02*
D03*
X479600Y414900D02*
D03*
Y404900D02*
D03*
X489600Y414900D02*
D03*
Y404900D02*
D03*
X499600Y414900D02*
D03*
Y404900D02*
D03*
X509600Y414900D02*
D03*
Y404900D02*
D03*
D98*
X569903Y486141D02*
D03*
Y488109D02*
D03*
X554953D02*
D03*
Y486141D02*
D03*
Y484172D02*
D03*
Y482204D02*
D03*
Y480235D02*
D03*
X569903Y484172D02*
D03*
Y482204D02*
D03*
Y480235D02*
D03*
D99*
X562428Y491647D02*
D03*
X560459D02*
D03*
X558491D02*
D03*
X560459Y476697D02*
D03*
X562428D02*
D03*
X566365Y491647D02*
D03*
X564396D02*
D03*
X566365Y476697D02*
D03*
X558491D02*
D03*
X564396D02*
D03*
D100*
X562428Y484172D02*
D03*
D101*
X340198Y490529D02*
D03*
Y493482D02*
D03*
Y487576D02*
D03*
X362601Y493482D02*
D03*
Y487576D02*
D03*
X340198Y481671D02*
D03*
X362601D02*
D03*
Y478718D02*
D03*
Y490529D02*
D03*
Y484624D02*
D03*
X340198Y478718D02*
D03*
Y484624D02*
D03*
D102*
X362602Y497368D02*
D03*
X340198D02*
D03*
X362602Y474836D02*
D03*
X340198D02*
D03*
D103*
X346971Y497368D02*
D03*
X344018D02*
D03*
X352876Y474832D02*
D03*
X349924D02*
D03*
X344018D02*
D03*
X349924Y497368D02*
D03*
X352876D02*
D03*
X355829D02*
D03*
X358782D02*
D03*
Y474832D02*
D03*
X355829D02*
D03*
X346971D02*
D03*
D104*
X447532Y332756D02*
X450287Y330000D01*
X447532Y332756D02*
Y337480D01*
X450287Y330000D02*
X494400D01*
X448968Y338916D02*
Y343500D01*
X447532Y337480D02*
X448968Y338916D01*
X458810Y334900D02*
Y337227D01*
X459043Y337460D01*
X458810Y339459D02*
Y343500D01*
X459043Y337460D02*
Y339226D01*
X458810Y339459D02*
X459043Y339226D01*
X504614Y323938D02*
X507900D01*
X504339Y324213D02*
X504614Y323938D01*
X498767Y324213D02*
X504339D01*
X494243Y259100D02*
Y263364D01*
X495462Y264582D01*
Y265085D01*
X439125Y331265D02*
X439128Y331262D01*
X439125Y331265D02*
Y336413D01*
X439128Y336416D01*
X436450Y327875D02*
X495206D01*
X433220Y331105D02*
Y343500D01*
Y331105D02*
X436450Y327875D01*
X468763Y325906D02*
X496506D01*
X439100Y324488D02*
X467345D01*
X468763Y325906D01*
X423500D02*
X429297D01*
X429833Y321969D02*
X433220Y325356D01*
X423500Y321969D02*
X429833D01*
X491669Y286419D02*
X492275Y285813D01*
Y259100D02*
Y285813D01*
X496506Y325906D02*
X507900D01*
X498133Y323578D02*
X498767Y324213D01*
X497630Y323578D02*
X498133D01*
X491669Y321069D02*
X496506Y325906D01*
X491669Y286419D02*
Y321069D01*
X462197Y332588D02*
Y338657D01*
X462747Y339207D01*
Y343500D01*
X423500Y329843D02*
X428354D01*
X429511Y331000D01*
X429800D01*
X497175Y329843D02*
X507900D01*
X495206Y327875D02*
X497175Y329843D01*
X466684Y259100D02*
Y270984D01*
X466700Y271000D01*
X439125Y259100D02*
Y266851D01*
X547600Y353900D02*
X558896D01*
X423500Y274725D02*
X434229D01*
X435188Y273766D01*
X420139Y274725D02*
X423500D01*
X431240Y272265D02*
X431742D01*
X430749Y272757D02*
X431240Y272265D01*
X435188Y269944D02*
Y273766D01*
X432095Y266851D02*
X435188Y269944D01*
X423500Y272757D02*
X430749D01*
X423500Y270788D02*
X427495D01*
X428880Y269403D01*
X423500Y266851D02*
X432095D01*
X423500Y302284D02*
X429807D01*
X430072Y302549D01*
X423500Y314095D02*
X431000D01*
X527900Y331860D02*
X528160Y331600D01*
X528200Y315300D02*
X528500Y315600D01*
X279100Y263358D02*
Y269300D01*
X423500Y310158D02*
X428700D01*
X299894Y263358D02*
X304295D01*
X297073Y266180D02*
X299894Y263358D01*
X297073Y266180D02*
Y266925D01*
X299447Y269300D02*
X304500D01*
X297073Y266925D02*
X299447Y269300D01*
X507900Y331812D02*
X520348D01*
X519966Y332194D02*
Y341050D01*
X528160Y332120D02*
Y341050D01*
X527900Y331860D02*
X528160Y332120D01*
X519966Y332194D02*
X520348Y331812D01*
X482432Y333532D02*
Y343500D01*
X482400Y333500D02*
X482432Y333532D01*
X494400Y330000D02*
X518300Y353900D01*
X480464Y350264D02*
X484000Y353800D01*
X480464Y343500D02*
Y350264D01*
X461040Y359260D02*
X465500D01*
X457800Y362500D02*
X461040Y359260D01*
X484000Y353800D02*
Y359900D01*
X476527Y363000D02*
X479527Y360000D01*
X483900D01*
X470090Y359100D02*
X472590Y361600D01*
X465660Y359100D02*
X470090D01*
X439125Y338744D02*
X439128Y338741D01*
X439125Y338744D02*
Y343500D01*
X439128Y336416D02*
Y338741D01*
X528500Y315600D02*
X532206D01*
X533774Y317168D01*
X534200D01*
X518300Y353900D02*
X547600D01*
X490306Y343500D02*
Y356070D01*
X491000Y356764D01*
Y357000D01*
X516287Y325001D02*
X520300Y320988D01*
X513651Y325356D02*
X514006Y325001D01*
X516287D01*
X520300Y315520D02*
Y320988D01*
X507900Y327875D02*
X512150D01*
X513418Y329142D01*
X513651D01*
X520300Y315520D02*
X520776Y315044D01*
X520226Y325906D02*
Y331666D01*
X520360Y331800D01*
X520348Y331812D02*
X520360Y331800D01*
X528200Y315300D02*
Y321100D01*
X528100Y315200D02*
X528200Y315300D01*
X492000Y247000D02*
X498300D01*
X380760Y471665D02*
X381000Y471425D01*
X462150Y246632D02*
X462219Y246700D01*
X468800D01*
X461600Y246472D02*
X462150Y247022D01*
X461328Y246200D02*
X461600Y246472D01*
X454500Y246200D02*
X461328D01*
X519698Y278662D02*
X519700Y278660D01*
X504283Y253300D02*
X511042Y246540D01*
X515600D01*
X498300Y247000D02*
Y250700D01*
Y246980D02*
Y247000D01*
X411676Y312035D02*
X411767Y312127D01*
X423600Y250000D02*
X423900Y249700D01*
X423500Y250100D02*
X423600Y250000D01*
X565736Y496568D02*
Y496964D01*
X564396Y491647D02*
Y495229D01*
X565736Y496568D01*
X569903Y478303D02*
Y480235D01*
Y478303D02*
X587106Y461100D01*
X579178Y463780D02*
Y465722D01*
Y463780D02*
X579458Y463500D01*
Y477000D02*
Y477306D01*
X568203Y476697D02*
X579178Y465722D01*
X574560Y482204D02*
X579458Y477306D01*
X484000Y359900D02*
X489700D01*
X491400Y361600D01*
X492275Y354275D02*
X505500Y367500D01*
X528000Y278960D02*
Y284100D01*
X527440Y278400D02*
X528000Y278960D01*
X332000Y487500D02*
X332038Y487538D01*
X340160D01*
X340198Y487576D01*
X332009Y493491D02*
X340189D01*
X332000Y493500D02*
X332009Y493491D01*
X340189D02*
X340198Y493482D01*
X445000Y350000D02*
X445031Y349969D01*
Y343500D02*
Y349969D01*
X492275Y343500D02*
Y354275D01*
X494243Y353243D02*
X502493Y361493D01*
X502507D01*
X494243Y343500D02*
Y353243D01*
X496212Y351212D02*
X501500Y356500D01*
X496212Y343500D02*
Y351212D01*
X503838Y345000D02*
X504000D01*
X502338Y343500D02*
X503838Y345000D01*
X500149Y343500D02*
X502338D01*
X569903Y482204D02*
X574560D01*
X575221Y484072D02*
X575321Y483971D01*
X570003Y484072D02*
X575221D01*
X569903Y484172D02*
X570003Y484072D01*
X498180Y348180D02*
X500500Y350500D01*
X498180Y343500D02*
Y348180D01*
X403500Y292700D02*
X403700Y292900D01*
X396900Y292700D02*
X403500D01*
X409800Y287100D02*
X411400Y288700D01*
X413097Y290397D02*
X413292Y290592D01*
X411400Y290397D02*
X413097D01*
X411400Y288700D02*
Y290397D01*
X413292Y292486D02*
X413486Y292680D01*
X413292Y290592D02*
Y292486D01*
X411180Y292900D02*
X415573D01*
X415439Y302800D02*
X416238Y302000D01*
X409840Y302800D02*
X412500D01*
X416238Y302000D02*
X416500D01*
X412500Y302800D02*
X415439D01*
X402160Y302600D02*
X402360Y302800D01*
X397200Y302600D02*
X402160D01*
X411676Y315676D02*
X415149Y319149D01*
X411540Y311900D02*
X411676Y312035D01*
Y315676D01*
X411767Y312127D02*
X423500D01*
X405607Y317704D02*
X406900Y318997D01*
Y323260D01*
X405304Y317704D02*
X405607D01*
X405100Y317500D02*
X405304Y317704D01*
X396500Y311900D02*
X404060D01*
X397300Y316700D02*
X399700Y319100D01*
Y323060D01*
X399460Y323300D02*
X399700Y323060D01*
X428360Y335749D02*
X429611Y337000D01*
X429900D01*
X423500Y335749D02*
X428360D01*
X411112Y331812D02*
X423500D01*
X411000Y331700D02*
X411112Y331812D01*
X417800Y333746D02*
X417834Y333780D01*
X423500D01*
X406940Y323300D02*
X407578Y323938D01*
X423500D01*
X566515Y491400D02*
X574800D01*
X566365Y491550D02*
Y491647D01*
Y491550D02*
X566515Y491400D01*
X599229Y344329D02*
X599400Y344500D01*
X381000Y467166D02*
Y471425D01*
Y467166D02*
X382592Y465574D01*
Y465264D02*
Y465574D01*
X381047Y456000D02*
X381100Y455947D01*
Y449500D02*
Y455947D01*
X528160Y331600D02*
X534200D01*
X520776Y311022D02*
Y315044D01*
Y311022D02*
X523498Y308300D01*
X524000D01*
X520500Y301640D02*
Y305400D01*
X518000Y307900D02*
X520500Y305400D01*
X520160Y301300D02*
X520500Y301640D01*
X527640Y301300D02*
X534200D01*
X516800Y315200D02*
X520300D01*
X514900Y290800D02*
X520094D01*
X520194Y290900D01*
X441100Y246200D02*
X448600D01*
X440900Y246000D02*
X441100Y246200D01*
X433900Y246000D02*
X440900D01*
X423900Y249700D02*
X431000D01*
X414700Y249706D02*
X414900Y249905D01*
Y254100D01*
X414700Y249706D02*
X423306D01*
X410500Y254800D02*
X411716Y256016D01*
Y266400D01*
X402800Y254800D02*
X410500D01*
X394000Y266100D02*
X400584D01*
X400884Y266400D01*
X410940Y275160D02*
Y279200D01*
Y275160D02*
X413100Y273000D01*
X417200D01*
X415665Y279200D02*
X420139Y274725D01*
X410940Y279200D02*
X415665D01*
X380760Y471665D02*
X380800Y471705D01*
Y478000D01*
X379179Y461821D02*
X381047Y459953D01*
Y456000D02*
Y459953D01*
X377400Y462100D02*
X377679Y461821D01*
X379179D01*
X483900Y360000D02*
X484000Y359900D01*
X465500Y359260D02*
X465660Y359100D01*
X428996Y371400D02*
X437200D01*
X428900Y371304D02*
X428996Y371400D01*
X428804D02*
X428900Y371304D01*
X420400Y371400D02*
X428804D01*
X411760Y355000D02*
X418900D01*
X411400Y355360D02*
X411760Y355000D01*
X410840Y354800D02*
X411400Y355360D01*
X403700Y354800D02*
X410840D01*
X436800Y337902D02*
X437157Y338259D01*
Y343500D01*
X436800Y337400D02*
Y337902D01*
X498500Y247200D02*
X504400D01*
X498300Y247000D02*
X498500Y247200D01*
X499800Y253300D02*
X504283D01*
X508602Y244100D02*
X511042Y246540D01*
X508300Y244100D02*
X508602D01*
X527880Y267800D02*
X528400Y267280D01*
Y260900D02*
Y267280D01*
X520100Y261000D02*
Y267500D01*
X526200Y290800D02*
X531100D01*
X526100Y290900D02*
X526200Y290800D01*
X496212Y259100D02*
X498180D01*
X247525Y415741D02*
X247550Y415766D01*
X247525Y411725D02*
Y415741D01*
X247500Y411700D02*
X247525Y411725D01*
X245100Y291600D02*
X248400Y294900D01*
Y295300D01*
X245100Y285900D02*
Y291600D01*
X241800Y295100D02*
X245100Y291800D01*
Y227100D02*
Y235900D01*
X253450Y235850D02*
X253500Y235800D01*
X245150Y235850D02*
X253450D01*
X245100Y235900D02*
X245150Y235850D01*
X278446Y263100D02*
X278705Y263358D01*
X270200Y263100D02*
X278446D01*
X278705Y263358D02*
X279100D01*
X310021Y263279D02*
X310100Y263200D01*
X304374Y263279D02*
X310021D01*
X304295Y263358D02*
X304374Y263279D01*
X312900Y238500D02*
X321054D01*
X321100Y238454D01*
X329754D02*
X329800Y238500D01*
X321100Y238454D02*
X329754D01*
X588700Y363843D02*
X595857D01*
X599800Y359900D01*
X578000Y364100D02*
X588443D01*
X588700Y363843D01*
X588529Y344329D02*
X588700Y344158D01*
X576600Y344500D02*
X576771Y344329D01*
X588529D01*
X588700Y344158D02*
X588871Y344329D01*
X599229D01*
X520100Y267500D02*
X520400Y267800D01*
X519700Y278660D02*
Y284000D01*
Y278660D02*
X519960Y278400D01*
X501931Y280631D02*
X507900D01*
X501900Y280600D02*
X501931Y280631D01*
X502200Y298400D02*
X502253Y298347D01*
X507900D01*
X496212Y252788D02*
Y259100D01*
Y252788D02*
X498300Y250700D01*
X498180Y254920D02*
Y259100D01*
X446999Y343500D02*
Y347499D01*
X449000Y349500D02*
Y352000D01*
X446999Y347499D02*
X449000Y349500D01*
X383268Y284568D02*
X423500D01*
X344246Y245546D02*
X383268Y284568D01*
X418016Y300316D02*
X423500D01*
X416100Y298400D02*
X418016Y300316D01*
X460779Y343500D02*
Y349091D01*
X465500Y353813D01*
Y359260D01*
X498180Y254920D02*
X499800Y253300D01*
X468126Y251700D02*
X468653Y252227D01*
X463800Y251700D02*
X468126D01*
X462150Y250050D02*
X463800Y251700D01*
X468653Y252227D02*
Y259100D01*
X462150Y247022D02*
Y250050D01*
X336081Y490529D02*
X340198D01*
X335962Y490647D02*
X336081Y490529D01*
X415921Y306221D02*
X423500D01*
X412500Y302800D02*
X415921Y306221D01*
X514733Y313133D02*
X516800Y315200D01*
X520160Y290935D02*
Y301300D01*
Y290935D02*
X520194Y290900D01*
X514733Y307433D02*
Y313133D01*
X511553Y304253D02*
X514733Y307433D01*
X507900Y302284D02*
X513610D01*
X514594Y301300D02*
X520160D01*
X513610Y302284D02*
X514594Y301300D01*
X507900Y304253D02*
X511553D01*
X519960Y268240D02*
Y278400D01*
X507900Y278662D02*
X519698D01*
X519960Y268240D02*
X520400Y267800D01*
X441094Y256650D02*
Y259100D01*
Y256650D02*
X441100Y256644D01*
Y246200D02*
Y256644D01*
X416100Y293427D02*
Y298400D01*
X415573Y292900D02*
X416100Y293427D01*
X423306Y249706D02*
X423600Y250000D01*
X423500Y250100D02*
Y266851D01*
X321100Y245546D02*
X344246D01*
X418749Y268820D02*
X423500D01*
X411716Y266400D02*
X416330D01*
X418749Y268820D01*
X402700Y254700D02*
X402800Y254800D01*
X391300Y254700D02*
X402700D01*
X566365Y476697D02*
X568203D01*
X501700Y332400D02*
X502096D01*
X503476Y333780D02*
X507900D01*
X502096Y332400D02*
X503476Y333780D01*
X298500Y380300D02*
X299650D01*
D105*
X254300Y265900D02*
X266000Y254200D01*
Y254100D02*
Y254200D01*
X245100Y265900D02*
X254300D01*
X287200Y250169D02*
Y267400D01*
X245100Y275900D02*
X278700D01*
X287200Y267400D01*
X243466Y417767D02*
X249846D01*
X241100Y425200D02*
Y426000D01*
X249846Y417767D02*
X249913Y417833D01*
X243400Y417700D02*
X243466Y417767D01*
X256279Y416300D02*
X256700D01*
X254746Y417833D02*
X256279Y416300D01*
X249913Y417833D02*
X254746D01*
X407500Y431000D02*
Y438168D01*
X407469Y438200D02*
X407500Y438168D01*
X259900Y285900D02*
X261100D01*
X253650Y255950D02*
X253700Y256000D01*
X245100Y255900D02*
X245150Y255950D01*
X253650D01*
D106*
X261600Y309900D02*
Y311300D01*
X252100Y413200D02*
Y413900D01*
X295600Y380300D02*
X297000D01*
D107*
X261600Y308600D02*
Y309900D01*
X250939Y423500D02*
X252275Y422164D01*
X249100Y423500D02*
X250939D01*
X252275Y419900D02*
Y422164D01*
X247562Y421962D02*
X249100Y423500D01*
X247562Y420811D02*
Y421962D01*
X241100Y423600D02*
X244800Y419900D01*
X241100Y423600D02*
Y425200D01*
X244800Y419900D02*
X247550D01*
X261447D02*
X261647Y419700D01*
X252275Y419900D02*
X261447D01*
X250700Y415766D02*
X252275D01*
X249125D02*
X250700D01*
X252237Y415728D02*
X252275Y415766D01*
X252237Y414037D02*
Y415728D01*
X252100Y413900D02*
X252237Y414037D01*
X297000Y380300D02*
X298500D01*
D108*
X261600Y314000D02*
Y315300D01*
X252100Y410100D02*
Y411500D01*
X290600Y380300D02*
X292400D01*
D109*
X261600Y312800D02*
Y314000D01*
X241100Y429500D02*
Y430700D01*
X252100Y411500D02*
Y412400D01*
X292400Y380300D02*
X294000D01*
D110*
X261600Y315300D02*
Y317000D01*
X261500Y317100D02*
X261600Y317000D01*
X252100Y408800D02*
Y410100D01*
X288800Y380300D02*
X290600D01*
D111*
X261600Y317200D02*
Y319200D01*
X261500Y317100D02*
X261600Y317200D01*
X252100Y407000D02*
Y408800D01*
X286900Y380300D02*
X288800D01*
D112*
X261600Y319200D02*
Y327082D01*
X261483Y327200D02*
X261600Y327082D01*
X261741Y327459D02*
Y345241D01*
X262000Y345500D01*
X261483Y327200D02*
X261741Y327459D01*
X272159Y310094D02*
X272200Y310053D01*
X272159Y310094D02*
Y327159D01*
X272117Y327200D02*
X272159Y327159D01*
X252100Y407000D02*
X255392Y403708D01*
X264400D01*
Y393800D02*
Y403708D01*
X251700Y381100D02*
X264400Y393800D01*
X252050Y380750D02*
X278450D01*
X251700Y381100D02*
X252050Y380750D01*
X286800Y380400D02*
X286900Y380300D01*
X278800Y380400D02*
X286800D01*
X278450Y380750D02*
X278800Y380400D01*
X293699Y390967D02*
X293766Y390900D01*
X278868Y390967D02*
X293699D01*
X278800Y391035D02*
X278868Y390967D01*
D113*
X516857Y492500D02*
X517163Y492194D01*
X505786Y492500D02*
X516857D01*
X486900Y492663D02*
X498851D01*
X499014Y492500D01*
X263555Y469445D02*
X285000D01*
X346971Y472471D02*
Y474832D01*
X340500Y466000D02*
X346971Y472471D01*
X368442Y490529D02*
X374313Y496400D01*
X362601Y490529D02*
X368442D01*
X394249Y496400D02*
X395610Y495039D01*
X396061Y487361D02*
X401339D01*
X393300Y484600D02*
X396061Y487361D01*
X395610Y495039D02*
X401339D01*
X340500Y458500D02*
Y466000D01*
Y458500D02*
X342816Y456184D01*
Y452275D02*
Y456184D01*
Y452275D02*
X343091Y452000D01*
X343100D01*
X354900D02*
X355554D01*
X355829Y452275D01*
Y474832D01*
X418661Y492480D02*
X433790D01*
X310904Y469650D02*
X311000Y469554D01*
X296000Y469650D02*
X310904D01*
X295897Y469547D02*
X296000Y469650D01*
X285103Y469547D02*
X295897D01*
X285000Y469445D02*
X285103Y469547D01*
X517163Y481600D02*
Y492194D01*
X535300Y499937D02*
Y507947D01*
X374313Y496400D02*
X381748D01*
X388052D02*
X394249D01*
X387752Y484600D02*
X393300D01*
X362601Y484624D02*
X381424D01*
X381448Y484600D01*
X433790Y492480D02*
X433947Y492322D01*
X452500D02*
X452800Y492622D01*
X439853Y492322D02*
X452500D01*
X453000Y492422D02*
X466463D01*
X452800Y492622D02*
X453000Y492422D01*
X474578Y492663D02*
X486900D01*
X474337Y492422D02*
X474578Y492663D01*
D114*
X554953Y486141D02*
X554953Y486141D01*
X553000Y484531D02*
X553214Y484317D01*
X544622Y486141D02*
X554953D01*
X545835Y484531D02*
X553000D01*
X538700Y492063D02*
X544622Y486141D01*
X545835Y484531D02*
X545835Y484531D01*
X543586Y484531D02*
X545835D01*
X553214Y484317D02*
X554808D01*
X541755Y482700D02*
X543586Y484531D01*
X554808Y484317D02*
X554953Y484172D01*
X535300Y492063D02*
X538700D01*
X540500Y481500D02*
X541700Y482700D01*
X535400Y481500D02*
X540500D01*
X541700Y482700D02*
X541755D01*
X524231Y492200D02*
X525467Y490964D01*
X535300Y481600D02*
Y485561D01*
X534767Y486094D02*
X535300Y485561D01*
X534767Y487703D02*
X535300Y488236D01*
X530667Y488009D02*
X530973Y487703D01*
X530306Y486094D02*
X534767D01*
X525467Y488542D02*
X525999Y488009D01*
X525570Y486400D02*
X530000D01*
X530306Y486094D01*
X525037Y485867D02*
X525570Y486400D01*
X535300Y488236D02*
Y492063D01*
X525467Y488542D02*
Y490964D01*
X525999Y488009D02*
X530667D01*
X530973Y487703D02*
X534767D01*
X525037Y481600D02*
Y485867D01*
X535300Y481600D02*
X535400Y481500D01*
D115*
X422469Y457937D02*
X422510D01*
X418661Y489921D02*
X423458D01*
X422510Y457937D02*
X424221Y459648D01*
X423458Y489921D02*
X424221Y489157D01*
Y459648D02*
Y489157D01*
X325400Y478300D02*
X325818Y478718D01*
X340198D01*
X296000Y478350D02*
X309296D01*
X311000Y476646D02*
X312654Y478300D01*
X325400D01*
X309296Y478350D02*
X311000Y476646D01*
X296000Y478350D02*
X296549Y477802D01*
D116*
X362601Y478718D02*
Y481671D01*
X515640Y246500D02*
X523000D01*
X515600Y246540D02*
X515640Y246500D01*
X358782Y467958D02*
Y474832D01*
Y467958D02*
X369461Y457279D01*
Y449043D02*
Y457279D01*
X378704Y473721D02*
X380760Y471665D01*
X370557Y481671D02*
X378507Y473721D01*
X362601Y481671D02*
X370557D01*
X378507Y473721D02*
X378704D01*
X362601Y478718D02*
X367282D01*
X373482Y472517D01*
Y460017D02*
Y472517D01*
X377500Y456000D02*
X381047D01*
X373482Y460017D02*
X377500Y456000D01*
X258600Y285900D02*
X259900D01*
X245100Y245900D02*
X245229Y245771D01*
X278576D01*
X278705Y245642D01*
X304295D01*
X321005D01*
X321100Y245546D01*
X352500Y498044D02*
Y509143D01*
Y498044D02*
X352876Y497668D01*
Y497368D02*
Y497668D01*
X287750Y499100D02*
X298320D01*
X349724Y497568D02*
X349924Y497368D01*
X355829D02*
X358782D01*
X352876D02*
X355829D01*
X349924D02*
X352500D01*
X355829D02*
X356029Y497568D01*
D117*
X241100Y430700D02*
Y431400D01*
X256200Y285900D02*
X257200D01*
D118*
X241100Y428500D02*
Y429500D01*
X422432Y415568D02*
X422500Y415500D01*
X422432Y415568D02*
Y425269D01*
X422363Y425337D02*
X422432Y425269D01*
X257200Y285900D02*
X258600D01*
X422469Y450063D02*
X422532Y450000D01*
Y437337D02*
Y450000D01*
X422363Y425337D02*
X422447Y425421D01*
Y437253D01*
X422532Y437337D01*
X407469Y438200D02*
Y450063D01*
X416791Y487361D02*
X418661D01*
X407469Y478039D02*
X416791Y487361D01*
X407469Y457937D02*
Y478039D01*
D119*
X245100Y285900D02*
X252200D01*
D120*
X253400D02*
X255000D01*
D121*
X252200D02*
X253400D01*
D122*
X559900Y210200D02*
D03*
X269900Y210100D02*
D03*
X574900Y547500D02*
D03*
X259900D02*
D03*
X510000Y450000D02*
D03*
X270000Y390000D02*
D03*
X240000Y510000D02*
D03*
X450000Y450000D02*
D03*
X375000Y540000D02*
D03*
X480000Y510000D02*
D03*
X300000Y450000D02*
D03*
X450000Y510000D02*
D03*
X270000D02*
D03*
X285000Y480000D02*
D03*
X360000Y450000D02*
D03*
X510000Y510000D02*
D03*
X465000Y540000D02*
D03*
X375000Y420000D02*
D03*
X345000Y540000D02*
D03*
X480000Y450000D02*
D03*
X405000Y540000D02*
D03*
X555000D02*
D03*
X315000D02*
D03*
Y420000D02*
D03*
X285000Y540000D02*
D03*
X330000Y450000D02*
D03*
X345000Y420000D02*
D03*
X435000Y480000D02*
D03*
X270000Y450000D02*
D03*
X420000Y510000D02*
D03*
X525000Y540000D02*
D03*
X495000Y480000D02*
D03*
X435000Y540000D02*
D03*
X495000D02*
D03*
X465000Y480000D02*
D03*
X390000Y510000D02*
D03*
X270461Y356761D02*
D03*
X261900Y367300D02*
D03*
X255500Y399400D02*
D03*
X247700Y399800D02*
D03*
D123*
X547600Y353900D02*
D03*
X334900Y254100D02*
D03*
X365700Y249800D02*
D03*
X373300Y259000D02*
D03*
X334800Y245600D02*
D03*
X407500Y397200D02*
D03*
X422447Y406900D02*
D03*
D124*
X278705Y263358D02*
D03*
D125*
X304295D02*
D03*
Y245642D02*
D03*
X278705D02*
D03*
X588700Y344158D02*
D03*
Y354000D02*
D03*
D126*
Y363843D02*
D03*
D127*
X262000Y355500D02*
D03*
X251700Y391100D02*
D03*
D128*
X262000Y345500D02*
D03*
X251700Y381100D02*
D03*
X245100Y255900D02*
D03*
Y275900D02*
D03*
Y265900D02*
D03*
Y245900D02*
D03*
Y235900D02*
D03*
D129*
X587106Y439014D02*
D03*
X566700Y444200D02*
D03*
X559700Y436100D02*
D03*
X571000Y437200D02*
D03*
X582300Y435800D02*
D03*
X577800Y443900D02*
D03*
D130*
X392600Y329800D02*
D03*
X376400Y324900D02*
D03*
X384900Y335100D02*
D03*
X374700Y339800D02*
D03*
D131*
X565528Y487272D02*
D03*
Y484172D02*
D03*
Y481072D02*
D03*
X562428Y487272D02*
D03*
Y484172D02*
D03*
Y481072D02*
D03*
X559328Y487272D02*
D03*
Y484172D02*
D03*
Y481072D02*
D03*
D132*
X273500Y479500D02*
D03*
X253500D02*
D03*
Y459500D02*
D03*
X273500D02*
D03*
X263500Y469500D02*
D03*
X241100Y435000D02*
D03*
D133*
X245100Y285900D02*
D03*
D134*
X494099Y309608D02*
D03*
X496813Y304690D02*
D03*
X452750Y336810D02*
D03*
X450386Y332915D02*
D03*
X456912Y338343D02*
D03*
X454873Y332622D02*
D03*
X495206Y320751D02*
D03*
X502096Y321705D02*
D03*
X516287Y321100D02*
D03*
X494793Y270238D02*
D03*
X494099Y314095D02*
D03*
X503461Y263643D02*
D03*
X499810Y266301D02*
D03*
X502599Y270658D02*
D03*
X496200Y276901D02*
D03*
X502743Y274820D02*
D03*
X500484Y288533D02*
D03*
X499511Y284018D02*
D03*
X513800Y282402D02*
D03*
X494520Y286419D02*
D03*
X494294Y290473D02*
D03*
X500681Y293078D02*
D03*
X494294Y295829D02*
D03*
X468490Y337500D02*
D03*
X478495Y332897D02*
D03*
X464328Y336604D02*
D03*
X433220Y285986D02*
D03*
X439100Y316400D02*
D03*
X432670Y321419D02*
D03*
X435900Y319800D02*
D03*
X466684Y332622D02*
D03*
X476815Y337634D02*
D03*
X470571Y332588D02*
D03*
X472652Y337500D02*
D03*
X474558Y332588D02*
D03*
X427408Y255983D02*
D03*
X464716Y267500D02*
D03*
X443147Y264751D02*
D03*
X454873D02*
D03*
X446999Y264667D02*
D03*
X462711Y264751D02*
D03*
X458943Y264667D02*
D03*
X450936Y264751D02*
D03*
X486378Y265091D02*
D03*
X482456Y265240D02*
D03*
X490302Y265087D02*
D03*
X478424Y265191D02*
D03*
X474424Y264466D02*
D03*
X470666D02*
D03*
X497900Y315951D02*
D03*
Y311789D02*
D03*
X501038Y304690D02*
D03*
X433220Y276694D02*
D03*
X428880Y278662D02*
D03*
X429812Y282599D02*
D03*
X436607Y296379D02*
D03*
X429812Y294495D02*
D03*
X436607Y292442D02*
D03*
Y288505D02*
D03*
Y280631D02*
D03*
X429672Y298400D02*
D03*
X429710Y290397D02*
D03*
X417800Y328221D02*
D03*
X438575Y251978D02*
D03*
X435188D02*
D03*
X484401Y338568D02*
D03*
X513651Y335749D02*
D03*
X485819Y335199D02*
D03*
X488100Y332400D02*
D03*
X443062Y334717D02*
D03*
X498069Y272721D02*
D03*
X452905Y268909D02*
D03*
X448968D02*
D03*
X480464Y268820D02*
D03*
X484544D02*
D03*
X445031Y268909D02*
D03*
X472590D02*
D03*
X456842D02*
D03*
X460827D02*
D03*
X476527Y268820D02*
D03*
X488338D02*
D03*
X441178Y338259D02*
D03*
X513436Y297797D02*
D03*
X430058Y253862D02*
D03*
X272200Y297400D02*
D03*
X257500Y304600D02*
D03*
X565736Y496964D02*
D03*
X587106Y461100D02*
D03*
X587634Y470619D02*
D03*
X579458Y477000D02*
D03*
Y463500D02*
D03*
X505500Y367500D02*
D03*
X411700Y489200D02*
D03*
Y492700D02*
D03*
X408200Y489300D02*
D03*
Y492700D02*
D03*
X566500Y471000D02*
D03*
X393500Y489500D02*
D03*
X396000Y492500D02*
D03*
X332000Y487500D02*
D03*
Y493500D02*
D03*
X445000Y350000D02*
D03*
X425500Y495500D02*
D03*
X423000Y501000D02*
D03*
X417000Y500500D02*
D03*
X491000Y357000D02*
D03*
X502507Y361493D02*
D03*
X501500Y356500D02*
D03*
X504000Y345000D02*
D03*
X575321Y483971D02*
D03*
X500500Y350500D02*
D03*
X570600Y468800D02*
D03*
X574800Y491400D02*
D03*
X595300Y471800D02*
D03*
X292100Y506700D02*
D03*
X587600Y494231D02*
D03*
X583800Y483200D02*
D03*
X588900Y483000D02*
D03*
X592600Y494400D02*
D03*
X595100Y482800D02*
D03*
X366600Y497400D02*
D03*
X366700Y493400D02*
D03*
X349900Y471600D02*
D03*
X366700Y487300D02*
D03*
X349500Y501500D02*
D03*
X344500D02*
D03*
X362800Y501400D02*
D03*
X314000Y505500D02*
D03*
X339500Y501500D02*
D03*
X309000Y509500D02*
D03*
X276000Y499000D02*
D03*
X352888Y468112D02*
D03*
X598800Y488700D02*
D03*
X593400Y507800D02*
D03*
X599500Y501100D02*
D03*
X449000Y352000D02*
D03*
X362500Y471000D02*
D03*
X366500Y474500D02*
D03*
X335962Y490647D02*
D03*
X335800Y497500D02*
D03*
D135*
X495462Y265085D02*
D03*
X439128Y331262D02*
D03*
X439100Y324488D02*
D03*
X429297Y325906D02*
D03*
X433220Y325356D02*
D03*
X497630Y323578D02*
D03*
X462197Y332588D02*
D03*
X466700Y271000D02*
D03*
X439125Y266851D02*
D03*
X431742Y272265D02*
D03*
X428880Y269403D02*
D03*
X430072Y302549D02*
D03*
X431000Y314095D02*
D03*
X428700Y310158D02*
D03*
X266000Y254100D02*
D03*
X287200Y250169D02*
D03*
X519966Y341050D02*
D03*
X528160D02*
D03*
X482400Y333500D02*
D03*
X465500Y374500D02*
D03*
X457800Y362500D02*
D03*
X456500Y367600D02*
D03*
X476500D02*
D03*
X476527Y363000D02*
D03*
X472400Y366600D02*
D03*
X472590Y361600D02*
D03*
X458810Y334900D02*
D03*
X534200Y317168D02*
D03*
X513651Y325356D02*
D03*
Y329142D02*
D03*
X520226Y325906D02*
D03*
X528200Y321100D02*
D03*
X524074Y238400D02*
D03*
X504283Y241272D02*
D03*
X472040Y242553D02*
D03*
X487788Y241272D02*
D03*
X489855Y237728D02*
D03*
X468800Y246700D02*
D03*
X467315Y239985D02*
D03*
X454200Y238500D02*
D03*
X448200Y238400D02*
D03*
X454500Y246200D02*
D03*
X388500Y477700D02*
D03*
X535905Y466995D02*
D03*
X555117Y454100D02*
D03*
X575327Y452800D02*
D03*
X548850Y454500D02*
D03*
X396500Y277922D02*
D03*
X491400Y361600D02*
D03*
X528000Y284100D02*
D03*
X434000Y425500D02*
D03*
X414500Y238500D02*
D03*
X391000Y243500D02*
D03*
X270500Y410000D02*
D03*
X396900Y292700D02*
D03*
X409800Y287100D02*
D03*
X416500Y302000D02*
D03*
X397200Y302600D02*
D03*
X415200Y319200D02*
D03*
X405100Y317500D02*
D03*
X396500Y311900D02*
D03*
X397300Y316700D02*
D03*
X429900Y337000D02*
D03*
X429800Y331000D02*
D03*
X411000Y331700D02*
D03*
X417800Y333746D02*
D03*
X557900Y471900D02*
D03*
X566400Y512800D02*
D03*
X528100Y474200D02*
D03*
X267700Y413800D02*
D03*
X563500Y451400D02*
D03*
X599400Y344500D02*
D03*
X550100Y469000D02*
D03*
X386335Y449997D02*
D03*
X536600Y454500D02*
D03*
X536900Y462100D02*
D03*
X566600Y505200D02*
D03*
X541200Y507300D02*
D03*
X298600Y512200D02*
D03*
X386100Y461325D02*
D03*
X388500Y465700D02*
D03*
X382592Y465264D02*
D03*
X381100Y449500D02*
D03*
X534200Y331600D02*
D03*
X524000Y308300D02*
D03*
X518000Y307900D02*
D03*
X534200Y301300D02*
D03*
X514900Y290800D02*
D03*
X519700Y284000D02*
D03*
X523000Y246500D02*
D03*
X504400Y247200D02*
D03*
X492000Y247000D02*
D03*
X448600Y246200D02*
D03*
X433800Y238400D02*
D03*
X433900Y246000D02*
D03*
X431000Y249700D02*
D03*
X430700Y242100D02*
D03*
X402700Y241700D02*
D03*
X414900Y254100D02*
D03*
X394000Y266100D02*
D03*
X417200Y273000D02*
D03*
X380800Y478000D02*
D03*
X377400Y462100D02*
D03*
X349200Y448000D02*
D03*
X349000Y437600D02*
D03*
Y466500D02*
D03*
X491200Y367500D02*
D03*
X437200Y371400D02*
D03*
X420400D02*
D03*
X404100Y363100D02*
D03*
X418200Y363000D02*
D03*
X418900Y355000D02*
D03*
X403700Y354800D02*
D03*
X436800Y337400D02*
D03*
X508300Y244100D02*
D03*
X508400Y238400D02*
D03*
X528400Y260900D02*
D03*
X520100Y261000D02*
D03*
X531100Y290800D02*
D03*
X267700Y424700D02*
D03*
X339000Y469500D02*
D03*
X356500Y481000D02*
D03*
X255400Y483800D02*
D03*
X331500Y508900D02*
D03*
X243400Y417700D02*
D03*
X335500Y474500D02*
D03*
X351500Y481000D02*
D03*
X335500Y481500D02*
D03*
X346000Y481000D02*
D03*
X349100Y454600D02*
D03*
X430600Y431300D02*
D03*
X430500Y443800D02*
D03*
X549500Y462200D02*
D03*
X593600Y514953D02*
D03*
X593500Y519600D02*
D03*
X595300Y525900D02*
D03*
X302700Y376000D02*
D03*
X303300Y384900D02*
D03*
X265500Y291400D02*
D03*
X265600Y281900D02*
D03*
X248400Y295300D02*
D03*
X270200Y263100D02*
D03*
X279100Y269300D02*
D03*
X312900Y238500D02*
D03*
X329800D02*
D03*
X599800Y359900D02*
D03*
X578000Y364100D02*
D03*
X576600Y344500D02*
D03*
X501900Y280600D02*
D03*
X502200Y298400D02*
D03*
X407500Y431000D02*
D03*
X422500Y415500D02*
D03*
X428200Y420400D02*
D03*
X542100Y501200D02*
D03*
X439900Y366000D02*
D03*
X501700Y332400D02*
D03*
X304500Y269300D02*
D03*
X310100Y263200D02*
D03*
X270700Y398700D02*
D03*
X256700Y416300D02*
D03*
X247500Y411700D02*
D03*
X273700Y454800D02*
D03*
X257000Y455700D02*
D03*
X273600Y484200D02*
D03*
X245100Y227100D02*
D03*
X253500Y235800D02*
D03*
X401300Y432800D02*
D03*
X401500Y443400D02*
D03*
X373700Y515200D02*
D03*
X363200D02*
D03*
X279400Y462400D02*
D03*
X290500D02*
D03*
X320000Y471500D02*
D03*
X331000Y471100D02*
D03*
X376400Y441000D02*
D03*
X362400Y440800D02*
D03*
X588700Y533100D02*
D03*
X571100Y510100D02*
D03*
X576800Y506000D02*
D03*
X529900Y513500D02*
D03*
X540900Y513800D02*
D03*
X493400Y500500D02*
D03*
X480300Y500400D02*
D03*
X445500Y499900D02*
D03*
X460700Y499700D02*
D03*
X355100Y521700D02*
D03*
X351500Y491500D02*
D03*
X356500D02*
D03*
Y486000D02*
D03*
X350000Y521500D02*
D03*
X342300Y515000D02*
D03*
X331800Y514800D02*
D03*
X351400Y486100D02*
D03*
X346000Y491500D02*
D03*
Y486000D02*
D03*
X241800Y295100D02*
D03*
X253700Y256000D02*
D03*
X342000Y508700D02*
D03*
X373800Y508900D02*
D03*
X363500Y509000D02*
D03*
X346200Y509100D02*
D03*
X358900Y509000D02*
D03*
M02*
